<?xml version="1.0" encoding="utf-8"?>
<!-- Generator: Adobe Illustrator 16.0.3, SVG Export Plug-In . SVG Version: 6.00 Build 0)  -->
<!DOCTYPE svg PUBLIC "-//W3C//DTD SVG 1.1//EN" "http://www.w3.org/Graphics/SVG/1.1/DTD/svg11.dtd">
<svg version="1.1" id="fe80fb2b-bcaf-407e-919b-306adc32f78b"
	 xmlns="http://www.w3.org/2000/svg" xmlns:xlink="http://www.w3.org/1999/xlink" x="0px" y="0px" width="1032px"
	 height="741.753px" viewBox="0 0 1032 741.753" enable-background="new 0 0 1032 741.753" xml:space="preserve">
<title>profile</title>
<line fill="none" stroke="#3F3D56" stroke-miterlimit="10" x1="0" y1="741.253" x2="166" y2="741.253"/>
<path fill="#F2F2F2" d="M262.397,127.753h698.205c10.713,0,19.397,8.685,19.397,19.397v460.205c0,10.713-8.685,19.398-19.397,19.398
	H262.397c-10.713,0-19.397-8.686-19.397-19.398V147.15C243,136.438,251.685,127.753,262.397,127.753z"/>
<path fill="none" stroke="#3F3D56" stroke-miterlimit="10" d="M239.897,96.253h698.205c10.713,0,19.397,8.685,19.397,19.397v460.205
	c0,10.713-8.685,19.398-19.397,19.398H239.897c-10.713,0-19.397-8.686-19.397-19.398V115.65
	C220.5,104.938,229.185,96.253,239.897,96.253z"/>
<line fill="none" stroke="#3F3D56" stroke-miterlimit="10" x1="220.5" y1="144.093" x2="957.5" y2="144.093"/>
<path opacity="0.3" fill="#2455ED" enable-background="new    " d="M668.093,256.253h186.814c3.917,0,7.093,3.175,7.093,7.092
	v16.815c0,3.917-3.176,7.093-7.093,7.093H668.093c-3.917,0-7.093-3.176-7.093-7.093v-16.815
	C661,259.428,664.176,256.253,668.093,256.253z"/>
<path opacity="0.3" fill="#2459ED" enable-background="new    " d="M629.593,342.253h263.814c3.917,0,7.093,3.175,7.093,7.092
	v10.815c0,3.917-3.176,7.093-7.093,7.093H629.593c-3.917,0-7.093-3.176-7.093-7.093v-10.815
	C622.5,345.428,625.676,342.253,629.593,342.253z"/>
<path opacity="0.3" fill="#246DED" enable-background="new    " d="M629.593,410.253h263.814c3.917,0,7.093,3.174,7.093,7.092
	v10.814c0,3.918-3.176,7.094-7.093,7.094H629.593c-3.917,0-7.093-3.176-7.093-7.094v-10.814
	C622.5,413.427,625.676,410.253,629.593,410.253z"/>
<path opacity="0.3" fill="#245EED" enable-background="new    " d="M629.593,478.253h263.814c3.917,0,7.093,3.174,7.093,7.092
	v10.814c0,3.918-3.176,7.094-7.093,7.094H629.593c-3.917,0-7.093-3.176-7.093-7.094v-10.814
	C622.5,481.427,625.676,478.253,629.593,478.253z"/>
<path fill="none" stroke="#3F3D56" stroke-miterlimit="10" d="M678.093,246.253h186.814c3.917,0,7.093,3.175,7.093,7.092v16.815
	c0,3.917-3.176,7.093-7.093,7.093H678.093c-3.917,0-7.093-3.176-7.093-7.093v-16.815C671,249.428,674.176,246.253,678.093,246.253z"
	/>
<path fill="none" stroke="#3F3D56" stroke-miterlimit="10" d="M639.593,332.253h263.814c3.917,0,7.093,3.175,7.093,7.092v10.815
	c0,3.917-3.176,7.093-7.093,7.093H639.593c-3.917,0-7.093-3.176-7.093-7.093v-10.815C632.5,335.428,635.676,332.253,639.593,332.253
	z"/>
<path fill="none" stroke="#3F3D56" stroke-miterlimit="10" d="M639.593,400.253h263.814c3.917,0,7.093,3.174,7.093,7.092v10.814
	c0,3.918-3.176,7.094-7.093,7.094H639.593c-3.917,0-7.093-3.176-7.093-7.094v-10.814C632.5,403.427,635.676,400.253,639.593,400.253
	z"/>
<path fill="none" stroke="#3F3D56" stroke-miterlimit="10" d="M639.593,468.253h263.814c3.917,0,7.093,3.174,7.093,7.092v10.814
	c0,3.918-3.176,7.094-7.093,7.094H639.593c-3.917,0-7.093-3.176-7.093-7.094v-10.814C632.5,471.427,635.676,468.253,639.593,468.253
	z"/>
<circle opacity="0.3" fill="#2476ED" enable-background="new    " cx="276.5" cy="126.253" r="15"/>
<circle opacity="0.3" fill="#2471ED" enable-background="new    " cx="318.5" cy="126.253" r="15"/>
<circle opacity="0.3" fill="#246DED" enable-background="new    " cx="360.5" cy="126.253" r="15"/>
<circle fill="none" stroke="#3F3D56" stroke-miterlimit="10" cx="282.5" cy="120.253" r="15"/>
<circle fill="none" stroke="#3F3D56" stroke-miterlimit="10" cx="324.5" cy="120.253" r="15"/>
<circle fill="none" stroke="#3F3D56" stroke-miterlimit="10" cx="366.5" cy="120.253" r="15"/>
<path fill="#2424ED" d="M453.354,574.253c-2.511-11.568-3.177-27.369-2.332-38.361c0,0-12.698-55.787-22.689-60.99l-0.004,0.002
	c-0.152,0.197-5.002,6.555-5.617,26.225c-0.624,19.982-7.699,33.096-7.699,33.096s2.289,24.908,0.98,40.029H453.354z"/>
<path fill="#2433ED" d="M545.729,219.253H315.271c-13.128,0-23.771,10.643-23.771,23.771l0,0v307.458
	c0,13.127,10.643,23.771,23.771,23.771l0,0h80.855c-2.7-11.199-6.058-28.691-2.657-40.854l-0.002-0.008l0.002,0.006
	c0.159-0.568,0.327-1.127,0.517-1.67c2.335-7.895,3.113-16.166,2.292-24.355c1.501-6.998,1.501-14.234,0-21.23
	c-2.498-11.656-4.247-23.105-4.247-23.105s-1.377-15.402-0.175-24.846c0.027-0.207,0.058-0.402,0.087-0.605
	c-0.424-0.096-0.662-0.15-0.662-0.15s3.539-16.029,4.787-26.229c0.295-2.408,0.684-5.461,1.104-8.715
	c-1.153-0.191-2.288-0.479-3.393-0.859C382.539,397.677,379,361.874,379,361.874V350.53c0,0-3.747-17.381,9.367-25.083
	c12.628-7.417,17.67-9.446,18.026-9.587c0.096-0.068,0.189-0.131,0.288-0.207c1.427-1.12,2.557-2.574,3.289-4.234
	c0.018-0.286,0.022-0.57,0.013-0.852c-0.213-4.066-3.044-7.765-5.73-10.992c-2.291-2.752-4.582-5.505-6.873-8.257
	c-0.785-0.82-1.389-1.796-1.771-2.865c-0.145-0.59-0.208-1.197-0.188-1.804c-0.001-0.225,0-0.449,0.005-0.673
	c0.037-2.052,0.093-4.104,0.167-6.155c0.064-1.792,0.516-4.054,2.271-4.422c0.913-0.191,2.121,0.143,2.604-0.656
	c0.162-0.329,0.203-0.704,0.117-1.061c-0.006,0.026-0.008,0.055-0.016,0.081c-0.006-0.034-0.011-0.067-0.018-0.1
	c-0.361-1.437-0.579-2.906-0.65-4.386c-0.02-0.668,0.076-1.334,0.282-1.97c1.017-2.975,4.518-4.196,7.611-4.757
	s6.566-1.044,8.508-3.517c0.521-0.821,1.084-1.614,1.689-2.374c0.891-0.81,1.985-1.362,3.166-1.597
	c3.84-0.972,7.896-0.612,11.506,1.021c1.496,0.683,3,1.602,4.642,1.499c1.705-0.108,3.161-1.309,4.845-1.601
	c2.719-0.471,5.318,1.566,6.658,3.979c0.852,1.535,1.277,3.269,1.233,5.023c0.032,1.747-0.599,3.44-1.765,4.741
	c-1.17,1.242-2.916,2.094-3.401,3.729c-0.198,0.666-0.152,1.383-0.327,2.055c-0.021,0.084-0.058,0.163-0.086,0.244
	c0.032,0.042,0.066,0.081,0.099,0.123c7.088,9.341,5.262,22.659-4.079,29.747c-1.887,1.432-4.001,2.538-6.253,3.272
	c-0.008,0.211-0.017,0.421-0.016,0.633c-0.121,2.655,0.915,5.232,2.84,7.064l18.548,7.606c0,0,11.165-1.353,15.194,15.31
	c0.646,2.77,0.879,5.62,0.69,8.458c-0.146,2.513,0.194,6.936,3.057,12.66c4.579,9.159,3.539,30.182-5.828,32.263
	c-8.872,1.973-12.324,1.145-12.664,1.051l-0.02,0.368c0.146,3.944,1.55,37.97,6.647,42.087c1.409,1.137,1.14,1.906-0.017,2.426
	l0.003,0.002c0,0,0.009,0.219,0.031,0.613c0.152,2.488,0.939,11.965,4.353,17.355c3.956,6.246,3.54,42.258,3.54,42.258l2.704,21.232
	c0,0-1.664,13.113,0,15.402c0.945,1.297,2.091,21.404,2.905,38.57h69.53c13.129,0,23.771-10.645,23.771-23.771V243.024
	C569.5,229.896,558.857,219.253,545.729,219.253L545.729,219.253z"/>
<path fill="none" stroke="#3F3D56" stroke-miterlimit="10" d="M291.271,192.253h230.457c13.129,0,23.771,10.643,23.771,23.771
	v307.458c0,13.127-10.643,23.771-23.771,23.771H291.271c-13.128,0-23.771-10.645-23.771-23.771V216.024
	C267.5,202.896,278.143,192.253,291.271,192.253z"/>
<path fill="#2F2E41" d="M100.824,321.63c0,0-9.324-2.757-11.324,0.243s2.727,24.748,2.727,24.748l20.546,1.249l-7.17-18.107
	L100.824,321.63z"/>
<path fill="#A0616A" d="M28.944,500.22c0,0,18.694,41.043,4.297,39.754S13.258,500.22,13.258,500.22H28.944z"/>
<path fill="#A0616A" d="M151.211,495.945c0,0-8.202,44.348,5.455,39.611s9.764-43.41,9.764-43.41L151.211,495.945z"/>
<path fill="#A0616A" d="M96.847,311.34c0,0-0.215,20.629,7.736,21.703c7.951,1.075-4.513,12.033-4.513,12.033l-14.182,2.794
	l-20.414-1.504l-9.025-11.604c0,0,15.901-7.521,9.025-30.943L96.847,311.34z"/>
<path opacity="0.1" enable-background="new    " d="M96.847,311.34c0,0-0.215,20.629,7.736,21.703
	c7.951,1.075-4.513,12.033-4.513,12.033l-14.182,2.794l-20.414-1.504l-9.025-11.604c0,0,15.901-7.521,9.025-30.943L96.847,311.34z"
	/>
<path fill="#2F2E41" d="M133.376,485.824c0,0,10.1,21.703,2.149,89.82c0,0,2.364,24.066,0.43,28.58
	c-1.934,4.512-17.835,65.752-17.835,65.752s-20.414,4.514-23.208-9.023c0,0,2.793-19.34,2.579-22.348
	c-0.215-3.01,4.513-35.887,4.513-35.887l-9.67-63.604l-7.306,57.373c0,0,0,16.545-2.364,20.199c-2.364,3.652,0,77.143,0,77.143
	s6.661,11.174-3.438,11.389c-10.1,0.215-19.125-0.215-19.984-7.307c-0.859-7.092-1.289-14.182-3.438-18.48
	c-2.149-4.297-4.942-53.506-4.297-70.695c0.645-17.191-14.183-105.508-9.455-114.746C46.779,484.75,133.376,485.824,133.376,485.824
	z"/>
<circle fill="#A0616A" cx="85.888" cy="293.29" r="25.786"/>
<path fill="#F2F2F2" d="M60.102,335.192c0,0,15.686,11.604,38.464,2.364c0,0,7.521-3.653,6.876-9.24
	c-0.645-5.587,15.687,44.91,15.687,44.91l16.545,87.887l-0.859,35.885c0,0-7.306-3.652-30.083,4.512
	c-22.777,8.166-59.952-9.238-59.952-9.238l1.289-92.186l1.29-53.72l3.438-11.818C52.796,334.547,54.515,331.324,60.102,335.192z"/>
<path fill="#2F2E41" d="M97.563,320.767c0,0,3.796-0.616,7.449,5.186s12.248,9.455,12.248,9.455s20.844,1.29,23.852,12.463
	s10.529,26.43,14.182,54.581c3.653,28.148,10.959,73.059,12.033,76.711c1.075,3.654-1.504,14.828,1.504,18.266
	s-21.273,3.438-21.273,3.438s-2.149-17.619-3.653-17.619c-1.504,0-1.075,11.818,0.43,20.414c1.504,8.594-10.959,0-10.959,0
	s-9.67-39.324-18.91-74.779s-14.612-55.01-12.893-62.96c1.719-7.951,6.446-30.728,3.008-32.877
	C101.144,330.894,97.563,320.767,97.563,320.767z"/>
<path fill="#2F2E41" d="M66.576,320.748c0,0-5.614,3.055-19.796,13.154c-14.182,10.1-23.852,17.835-23.852,17.835
	s-5.587,4.297-9.025,29.869c-3.438,25.57-11.174,91.754-8.166,100.135c3.008,8.379,4.083,13.322,3.008,18.264
	c-1.074,4.943,22.563,4.729,22.993,3.654c0.43-1.076-0.645-20.629,0.43-21.059c1.074-0.43,6.876,11.604,7.951,21.703
	c1.074,10.1,13.537,18.049,16.331,18.049c2.793,0,17.19-58.232,17.405-97.986c0.215-39.752-4.728-73.273-8.38-78.001
	C61.821,341.638,66.576,320.748,66.576,320.748z"/>
<path fill="#3F3D56" d="M104.368,671.912c0,0,1.719-4.729,7.735-3.225c6.017,1.504,10.1-3.867,10.1-3.867s3.223-0.43,1.074,3.652
	c-2.148,4.084-3.868,6.877-3.868,6.877s12.893,29.439,4.513,36.529c-8.38,7.092-18.05,2.793-18.05,2.793s-9.455-6.66-9.025-24.281
	c0,0-0.43-5.586-5.587-14.611s-9.025-22.777-2.793-25.355c6.231-2.58,7.835-2.676,7.835-2.676s-2.916,13.338,4.616,17.998
	L104.368,671.912z"/>
<path fill="#3F3D56" d="M64.399,705.218c0,0-5.157-9.67,3.438-10.744c8.595-1.076,17.835-1.721,17.405,2.793
	c-0.43,4.512-1.504,11.389-1.504,11.389l1.504,4.941c0,0,0.43,12.248,1.934,13.754c1.504,1.504,9.67,14.396-7.735,14.396
	c-17.406,0-22.563-1.934-21.059-6.018c1.504-4.082,1.934-24.281,1.934-24.281L64.399,705.218z"/>
<path fill="#2F2E41" d="M77.722,272.662c0,0,12.033,3.223,18.265,4.512c6.231,1.29,5.587-2.364,5.587-2.364s8.166,1.075,7.735,0.215
	c-0.43-0.86,3.438-5.372-1.074-10.529s-3.223-9.025-3.223-9.025h-3.868l-1.074-1.504h-6.017c0,0-4.513-1.719-16.331,0
	c-11.818,1.719-27.935,2.149-29.224,9.24c-1.29,7.091-7.951,15.901-5.587,19.984c2.363,4.083,15.901,20.844,17.19,27.935
	c1.289,7.091,7.309,8.667,7.093,4.226c-0.217-4.441-6.233-19.912-1.076-20.557C71.276,294.149,80.086,281.042,77.722,272.662z"/>
<path fill="none" stroke="#3F3D56" stroke-miterlimit="10" d="M934.881,7.458c-8.694,0.491-16.364,5.854-19.811,13.851
	c-4.953,11.974,1.425,26.039,10.999,34.77c9.575,8.731,21.874,13.722,33.049,20.282c15.01,8.812,28.497,21.043,36.007,36.744
	c7.51,15.701,8.309,35.15-0.519,50.15c-8.194,13.922-23.093,22.255-37.303,29.939"/>
<ellipse fill="#EF233C" cx="947.5" cy="8.5" rx="17.5" ry="8.5"/>
<ellipse fill="#EF233C" cx="961.5" cy="64.5" rx="17.5" ry="8.5"/>
<ellipse fill="#2424ED" cx="929.5" cy="73.5" rx="17.5" ry="8.5"/>
<ellipse fill="#2424ED" cx="979.5" cy="120.5" rx="17.5" ry="8.5"/>
<ellipse fill="#2424ED" cx="1014.5" cy="120.5" rx="17.5" ry="8.5"/>
</svg>
