<?xml version="1.0" encoding="utf-8"?>
<!-- Generator: Adobe Illustrator 16.0.3, SVG Export Plug-In . SVG Version: 6.00 Build 0)  -->
<!DOCTYPE svg PUBLIC "-//W3C//DTD SVG 1.1//EN" "http://www.w3.org/Graphics/SVG/1.1/DTD/svg11.dtd">
<svg version="1.1" id="bf3e64cd-ac18-4ebe-a790-21b22ebf7f01"
	 xmlns="http://www.w3.org/2000/svg" xmlns:xlink="http://www.w3.org/1999/xlink" x="0px" y="0px" width="1116px"
	 height="589.037px" viewBox="0 0 1116 589.037" enable-background="new 0 0 1116 589.037" xml:space="preserve">
<title>social_user</title>
<rect x="46.122" fill="#3F3D56" width="445.374" height="586.881"/>
<rect x="111.662" y="147.465" fill="#FFFFFF" width="312.805" height="20.854"/>
<rect x="183.16" y="72.988" fill="#2E24ED" width="201.089" height="10.427"/>
<rect x="111.662" y="193.641" fill="#FFFFFF" width="312.805" height="20.854"/>
<rect x="111.662" y="239.817" fill="#FFFFFF" width="312.805" height="20.854"/>
<circle fill="#2924ED" cx="128.047" cy="77.456" r="19.364"/>
<rect x="108.683" y="317.272" fill="#242EED" width="315.784" height="192.152"/>
<path fill="#6A66FF" d="M126.49,528.118c-4.07-4.073-10.672-4.076-14.746-0.007c-4.071,4.067-4.077,10.664-0.015,14.738
	l14.731,14.761l14.76-14.731c4.076-4.068,4.082-10.67,0.014-14.746S130.565,524.051,126.49,528.118z"/>
<path fill="#6675FF" d="M876.563,556.663c-4.073-4.07-10.676-4.067-14.745,0.007c-4.062,4.065-4.068,10.651-0.015,14.725
	l14.731,14.76l14.76-14.731c4.074-4.07,4.077-10.672,0.007-14.745C887.234,552.606,880.638,552.6,876.563,556.663z"/>
<path fill="#2F2E41" d="M928.387,587.943l-15.625-15.655c-4.562-4.571-4.553-11.975,0.018-16.535
	c4.241-4.231,10.993-4.573,15.64-0.792c5.016-4.066,12.378-3.298,16.445,1.718c3.773,4.654,3.418,11.407-0.823,15.64
	L928.387,587.943z M921.037,554.871c-5.059-0.004-9.161,4.094-9.164,9.151c-0.002,2.43,0.962,4.76,2.68,6.479l13.836,13.865
	l13.867-13.839c3.581-3.574,3.586-9.376,0.012-12.957c-1.717-1.72-4.046-2.688-6.476-2.689h-0.01
	c-2.428-0.007-4.758,0.957-6.472,2.677l-0.895,0.894l-0.894-0.895C925.805,555.833,923.47,554.866,921.037,554.871L921.037,554.871z
	"/>
<rect y="585.881" fill="#2F2E41" width="1116" height="2"/>
<polygon fill="#9E616A" points="638.553,548.084 637.026,568.446 605.975,558.265 618.701,542.994 "/>
<polygon fill="#9E616A" points="751.561,541.467 750.034,561.319 732.727,563.865 722.546,554.193 734.254,535.358 "/>
<path fill="#2F2E41" d="M764.287,287.962c0,0,13.744,16.29-3.563,41.233c-17.308,24.942-38.178,49.377-38.178,49.377l-38.688,73.303
	c0,0-19.853,71.775-24.435,73.812c-4.581,2.036-7.126-6.108-4.581,2.545c2.545,8.654,1.018,8.145-1.019,8.654
	c-2.036,0.509-7.635-0.51-5.599,3.054s3.563,3.563-0.51,3.563s-5.6-2.545-5.6,1.019c0,3.563-3.563,11.707-3.563,11.707
	s-24.943-7.126-25.962-10.181c-1.018-3.054,6.618-4.581,5.091-7.636c-1.527-3.054-2.036-3.054-2.036-7.636
	c0-4.581,3.054-5.599,3.054-5.599s2.546-1.019,1.527-3.055c-1.018-2.036-5.09-1.019,0-3.563
	c5.091-2.545,25.962-80.429,25.962-80.429s0-38.688,6.617-51.413c6.617-12.727,1.527-103.336,17.308-104.354
	S764.287,287.962,764.287,287.962z"/>
<path fill="#2F2E41" d="M759.197,316.978l-3.055,78.902c0,0,15.271,76.356,10.181,99.772c-5.09,23.416-1.527,20.362-4.581,24.435
	c-3.055,4.072-5.6,2.036-3.055,5.6c2.546,3.563,4.072,4.581,0,8.653s-6.108,13.744-6.108,13.744l-25.961-2.545
	c0,0,6.617-11.708,4.072-14.253c-2.545-2.546-9.163,1.526-4.072-4.072c5.09-5.6,8.145-3.055,5.09-5.6
	c-3.054-2.546-7.636-1.527-3.563-5.6c4.072-4.072,8.653-4.072,4.581-5.6s-8.653,0-6.617-3.055c2.036-3.054,4.581-6.617,4.581-6.617
	l-6.108-46.323c0,0-7.127-15.271-5.091-21.889s-8.653-61.085-8.653-61.085L759.197,316.978z"/>
<path fill="#2F2E41" d="M747.998,551.647c0,0,5.09-5.091,6.617-2.036s12.727,30.543,6.108,32.579
	c-6.617,2.036-16.289,4.072-21.38,2.545c-5.09-1.527-15.78-8.653-28.506-8.653c-12.727,0-23.416-5.6-23.416-7.636
	s-2.036-14.254,7.636-14.254s27.488-11.198,27.488-11.198s4.072-8.145,6.108-7.636s0.509,16.798,0.509,16.798
	S740.871,563.355,747.998,551.647z"/>
<path fill="#2F2E41" d="M634.99,558.266c0,0,4.581-11.199,9.162-8.654c4.582,2.545,1.527,34.106,1.527,34.106
	s-4.072,6.617-15.78,5.09c-11.708-1.526-42.76-5.09-49.887-3.563c-7.126,1.527-26.47-7.126-21.38-18.834
	c0,0,2.546-6.618,14.763-6.108c12.217,0.509,34.615-14.254,34.615-14.254s3.563-10.181,4.581-9.162
	c1.019,1.018,2.036,18.834,2.036,18.834S627.863,564.374,634.99,558.266z"/>
<circle fill="#9E616A" cx="701.675" cy="59.402" r="29.525"/>
<path fill="#9E616A" d="M724.582,61.438c0,0,15.78,31.561,21.38,34.615c5.6,3.055-38.179,21.889-38.179,21.889
	s-7.127-31.052-15.78-37.669S724.582,61.438,724.582,61.438z"/>
<path fill="#9E616A" d="M679.277,319.523l-2.037,19.344c0,0-21.889-7.636-14.762-21.89L679.277,319.523z"/>
<path fill="#F0F0F0" d="M670.626,290.508c15.271,16.286,96.205,2.541,96.205,2.541l-1.014-11.707l10.181-10.683l-3.053-49.89
	c0,0,9.157-23.414,10.684-59.046c0.092-2.19-0.04-4.384-0.395-6.547c-5.247-31.921-57.225-52.479-58.652-51.997
	c-0.719,0.236-8.369,4.224-16.354,8.418c-9.166,4.814-18.767,9.905-18.767,9.905c-12.219,4.588-10.18,77.892-14.257,84.508
	c-4.076,6.616,0,29.518,0,29.518l-4.578,21.888C670.626,257.416,655.354,274.223,670.626,290.508z"/>
<path opacity="0.1" enable-background="new    " d="M719.962,128.906c0,0,14.253,42.76,11.199,71.775
	c-3.055,29.016-36.143,111.989-36.143,111.989l-11.199,6.109v14.253l-7.876-21.336l21.661-45.292
	C697.604,266.405,670.585,110.072,719.962,128.906z"/>
<path opacity="0.1" enable-background="new    " d="M706.594,116.077c14.769-8.143,37.168,13.243,60.582,36.145
	c8.409,8.222,13.272,7.395,16.059,2.954c-5.247-31.921-57.225-52.479-58.652-51.997c-0.719,0.236-8.369,4.224-16.354,8.418
	L706.594,116.077z"/>
<path fill="#F0F0F0" d="M706.598,112.142l6.108-16.799c0,0,41.742-19.853,69.23,0l4.581,28.507c0,0,4.072,47.341-19.344,24.434
	C743.758,125.376,721.36,103.997,706.598,112.142z"/>
<path fill="#F0F0F0" d="M718.474,122.014c0,0,14.253,42.76,11.198,71.775c-3.054,29.015-36.142,111.99-36.142,111.99l-11.199,6.108
	v14.254l-23.416-6.618l5.091-16.798c0,0-8.145-10.182-2.546-13.236c5.6-3.054,4.582-19.853,4.582-19.853
	S669.096,103.18,718.474,122.014z"/>
<path fill="#2F2E41" d="M727.996,71.761c-0.482-2.281-0.416-4.736-1.511-6.796c-1.641-3.088-5.411-4.382-8.895-4.685
	c-4.447-0.387-8.93,0.383-13.383,0.078c-4.454-0.305-9.213-2.002-11.43-5.877c-0.885-1.546-1.32-3.365-2.494-4.705
	c-2.441-2.789-6.891-2.356-10.399-1.162c-3.509,1.195-7.168,2.942-10.755,2.006c-3.016-8.438,0.698-18.171,7.121-24.419
	s15.086-9.61,23.689-12.116c11.348-3.306,24.118-5.259,34.552,0.294c15.129,8.053,20.468,29.366,19.072,45.252
	c-0.527,6.004-1.391,12.804-6.245,16.859C740.205,82.432,730.145,81.921,727.996,71.761z"/>
</svg>
