<?xml version="1.0" encoding="utf-8"?>
<!-- Generator: Adobe Illustrator 16.0.3, SVG Export Plug-In . SVG Version: 6.00 Build 0)  -->
<!DOCTYPE svg PUBLIC "-//W3C//DTD SVG 1.1//EN" "http://www.w3.org/Graphics/SVG/1.1/DTD/svg11.dtd">
<svg version="1.1" id="ae37f038-3a9e-4b82-ad68-fc94ba16af2a"
	 xmlns="http://www.w3.org/2000/svg" xmlns:xlink="http://www.w3.org/1999/xlink" x="0px" y="0px" width="1096px" height="574.74px"
	 viewBox="0 0 1096 574.74" enable-background="new 0 0 1096 574.74" xml:space="preserve">
<pattern  x="242.5" y="683.87" width="36.88" height="49.48" patternUnits="userSpaceOnUse" id="ad310e25-2b04-44c8-bb7b-9823891" viewBox="0.002 -49.48 36.88 49.48" overflow="visible">
	<g>
		<polygon fill="none" points="0.002,0 36.882,0 36.882,-49.48 0.002,-49.48 		"/>
		<polygon fill="none" points="0.002,0 36.882,0 36.882,-49.48 0.002,-49.48 		"/>
		<path d="M4.333-13.189c4.5,0,4.51,7,0,7C-0.178-6.189-0.188-13.189,4.333-13.189z"/>
		<path d="M4.512-17.16c4.51,0,4.52,7,0,7C-0.007-10.16,0.002-17.16,4.512-17.16z"/>
		<path d="M4.512-20.939c4.51,0,4.52,7,0,7C-0.007-13.939,0.002-20.939,4.512-20.939z"/>
		<path d="M3.382-24.72c4.51,0,4.51,7,0,7C-1.127-17.72-1.127-24.72,3.382-24.72z"/>
		<path d="M1.092-28.29l0.2-0.38c0.984-1.652,3.113-2.209,4.78-1.25c1.635,1.002,2.19,3.113,1.26,4.79l-0.19,0.37
			c-0.981,1.662-3.118,2.225-4.79,1.26C0.722-24.505,0.167-26.613,1.092-28.29z"/>
		<path d="M1.493-30.1l0.18-0.57c0.264-0.869,0.837-1.613,1.61-2.09c0.819-0.467,1.789-0.593,2.7-0.35
			c1.85,0.533,2.935,2.448,2.44,4.31l-0.18,0.56c-0.258,0.875-0.832,1.624-1.61,2.1c-0.817,0.463-1.782,0.588-2.69,0.351
			C2.095-26.328,1.01-28.237,1.493-30.1z"/>
		<path d="M1.583-33.88v-0.38c0.021-1.924,1.576-3.479,3.5-3.5c1.919,0.031,3.468,1.58,3.5,3.5v0.38
			c-0.021,1.924-1.576,3.479-3.5,3.5C3.165-30.417,1.62-31.963,1.583-33.88z"/>
		<path d="M4.893-42.3c4.51,0,4.51,7,0,7C0.382-35.3,0.382-42.3,4.893-42.3z"/>
		<path d="M1.772-42v-0.189c0.021-1.924,1.576-3.479,3.5-3.5c1.919,0.031,3.468,1.58,3.5,3.5V-42c-0.021,1.924-1.576,3.479-3.5,3.5
			C3.353-38.532,1.805-40.08,1.772-42z"/>
		<path d="M6.002-49.29c4.5,0,4.51,7,0,7S1.482-49.29,6.002-49.29z"/>
		<path d="M10.002-14.141c4.5,0,4.51,7,0,7S5.482-14.141,10.002-14.141z"/>
		<path d="M6.592-20.939c4.51,0,4.52,7,0,7S2.083-20.939,6.592-20.939z"/>
		<path d="M8.482-27c4.51,0,4.51,7,0,7C3.973-20,3.973-27,8.482-27z"/>
		<path d="M8.482-29.26c4.51,0,4.51,7,0,7C3.973-22.26,3.973-29.26,8.482-29.26z"/>
		<path d="M14.913-33.79c4.5,0,4.51,7,0,7C10.402-26.79,10.402-33.79,14.913-33.79z"/>
		<path d="M9.813-38.52c4.5,0,4.51,7,0,7C5.302-31.52,5.292-38.52,9.813-38.52z"/>
		<path d="M10.563-45.13c4.51,0,4.51,7,0,7C6.052-38.13,6.052-45.13,10.563-45.13z"/>
		<path d="M10.563-49.48c4.51,0,4.51,7,0,7C6.052-42.48,6.052-49.48,10.563-49.48z"/>
		<path d="M12.833-18.12c2.57,0,2.58,4,0,4S10.252-18.12,12.833-18.12z"/>
		<path d="M13.002-20.391c2.57,0,2.58,4,0,4S10.422-20.391,13.002-20.391z"/>
		<path d="M13.103-21v-0.189c0-1.105,0.896-2,2-2s2,0.895,2,2V-21c0,1.104-0.896,2-2,2S13.103-19.896,13.103-21z"/>
		<path d="M15.103-25.87c2.57,0,2.58,4,0,4S12.522-25.87,15.103-25.87z"/>
		<path d="M16.612-11.07c0.552,0,1,0.448,1,1c0,0.553-0.448,1-1,1s-1-0.447-1-1C15.612-10.622,16.06-11.07,16.612-11.07z"/>
		<path d="M21.712-16.55c0.552,0,1,0.447,1,1c0,0.552-0.448,1-1,1s-1-0.448-1-1C20.712-16.103,21.16-16.55,21.712-16.55z"/>
		<path d="M16.853-8.939v0.379c0,0.553-0.448,1-1,1s-1-0.447-1-1v-0.379c0-0.553,0.448-1,1-1S16.853-9.492,16.853-8.939z"/>
		<path d="M16.482-4.78v0.19c0,0.553-0.448,1-1,1s-1-0.447-1-1v-0.19c0-0.552,0.448-1,1-1S16.482-5.332,16.482-4.78z"/>
		<path d="M15.482-2c0.552,0,1,0.447,1,1s-0.448,1-1,1s-1-0.447-1-1S14.93-2,15.482-2z"/>
		<path d="M10.563-2c0.552,0,1,0.447,1,1s-0.448,1-1,1s-1-0.447-1-1S10.01-2,10.563-2z"/>
		<path d="M10.373-4.65c0.552,0,1,0.448,1,1c0,0.553-0.448,1-1,1s-1-0.447-1-1C9.373-4.202,9.82-4.65,10.373-4.65z"/>
		<path d="M7.353-6.16c0.552,0,1,0.447,1,1s-0.448,1-1,1s-1-0.447-1-1S6.8-6.16,7.353-6.16z"/>
		<path d="M11.882-7.1h0.38c0.553,0,1,0.447,1,1c0,0.552-0.447,1-1,1h-0.38c-0.552,0-1-0.448-1-1C10.882-6.652,11.33-7.1,11.882-7.1
			z"/>
		<path d="M13.282-11l0.57-1.32c0.277-0.477,0.89-0.639,1.367-0.361c0.001,0,0.002,0.001,0.003,0.002
			c0.477,0.277,0.639,0.89,0.361,1.367c0,0-0.001,0.002-0.001,0.002L15.002-10c-0.278,0.478-0.89,0.639-1.367,0.361
			c-0.001,0-0.002-0.001-0.003-0.002C13.164-9.922,13.008-10.527,13.282-11z"/>
		<path d="M18.442-19.33v-0.189c0-0.553,0.448-1,1-1s1,0.447,1,1v0.189c0,0.553-0.448,1-1,1S18.442-18.777,18.442-19.33z"/>
		<path d="M20.683-24.93l0.19-0.381c0.57-1.149,2.3-0.14,1.72,1l-0.19,0.381C21.833-22.78,20.103-23.79,20.683-24.93z"/>
		<path d="M22.132-29.38c-0.534-0.471-0.84-1.148-0.84-1.86c0-0.553,0.448-1,1-1s1,0.447,1,1c0.008,0.178,0.102,0.342,0.25,0.44
			c0.392,0.389,0.395,1.022,0.006,1.414c-0.002,0.002-0.004,0.004-0.006,0.006C23.152-28.992,22.522-28.992,22.132-29.38z"/>
		<path d="M20.322-33.41l-0.54-1.71c-0.38-1.229,1.55-1.76,1.93-0.53l0.54,1.711C22.632-32.71,20.703-32.18,20.322-33.41z"/>
		<path d="M19.442-37h-0.19c-0.552,0-1-0.447-1-1s0.448-1,1-1h0.19c0.552,0,1,0.447,1,1S19.995-37,19.442-37z"/>
		<path d="M17.643-41.5l-0.19-0.38c-0.58-1.15,1.15-2.16,1.72-1l0.19,0.38C19.942-41.35,18.212-40.34,17.643-41.5z"/>
		<path d="M15.802-47.87v-0.56c0.001-0.553,0.449-1,1.001-1c0.552,0.001,0.999,0.448,0.999,1v0.56c0,0.552-0.448,1-1,1
			S15.802-47.318,15.802-47.87z"/>
		<path d="M14.342-49.43c0.552,0,1,0.447,1,1c0,0.552-0.448,1-1,1s-1-0.448-1-1C13.342-48.982,13.79-49.43,14.342-49.43z"/>
		<path d="M14.342-41.311c0.552,0,1,0.448,1,1c0,0.553-0.448,1-1,1s-1-0.447-1-1C13.342-40.862,13.79-41.311,14.342-41.311z"/>
		<path d="M17.132-36.47c0.591,0.34,0.968,0.958,1,1.64c0,0.553-0.448,1-1,1s-1-0.447-1-1c0,0.13,0.19,0.2,0,0.08
			C14.982-35.33,15.993-37.05,17.132-36.47z"/>
		<path d="M17.373-31.29c0.552,0,1,0.448,1,1s-0.448,1-1,1s-1-0.448-1-1S16.82-31.29,17.373-31.29z"/>
		<path d="M18.123-28.46c0.552,0,1,0.448,1,1s-0.448,1-1,1s-1-0.448-1-1S17.57-28.46,18.123-28.46z"/>
		<path d="M19.002-24.939l0.19,0.379c0.58,1.15-1.15,2.16-1.72,1l-0.19-0.379C16.703-25.09,18.433-26.1,19.002-24.939z"/>
		<path d="M17.933-16c0.552,0,1,0.447,1,1s-0.448,1-1,1s-1-0.447-1-1S17.38-16,17.933-16z"/>
		<path d="M24.643-16.05l0.57-0.94c0.325-0.446,0.95-0.545,1.397-0.221c0.383,0.279,0.518,0.789,0.323,1.221L26.373-15
			c-0.296,0.466-0.915,0.604-1.38,0.308c-0.438-0.278-0.591-0.847-0.35-1.308V-16.05z"/>
		<path d="M34.882-29.72v-0.19c0-0.553,0.448-1,1-1s1,0.447,1,1v0.19c0,0.552-0.448,1-1,1S34.882-29.168,34.882-29.72z"/>
		<path d="M24.002-39.23c0.552,0,1,0.448,1,1c0,0.553-0.448,1-1,1s-1-0.447-1-1C23.002-38.782,23.45-39.23,24.002-39.23z"/>
		<path d="M22.853-29c0.552,0,1,0.447,1,1s-0.448,1-1,1s-1-0.447-1-1S22.3-29,22.853-29z"/>
		<path d="M18.243-21.9l0.57,0.561c0.93,0.89-0.48,2.3-1.41,1.41l-0.58-0.561C15.893-21.38,17.313-22.79,18.243-21.9z"/>
	</g>
</pattern>
<title>contact us</title>
<g opacity="0.1">
	<ellipse fill="#3F3D56" cx="479.42" cy="362.12" rx="11.38" ry="14.9"/>
	<path fill="#3F3D56" d="M488.43,298.37c1.588-2.771,2.409-5.916,2.38-9.11c0-8.23-5.1-14.9-11.39-14.9S468,281.05,468,289.28
		c-0.029,3.193,0.792,6.338,2.38,9.109c-3.173,5.656-3.173,12.555,0,18.211c-3.173,5.654-3.173,12.554,0,18.209
		c-1.59,2.771-2.412,5.916-2.38,9.11c0,8.22,5.1,14.899,11.38,14.899s11.39-6.68,11.39-14.899c0.032-3.194-0.789-6.339-2.38-9.11
		c3.173-5.655,3.173-12.555,0-18.209c3.173-5.656,3.173-12.555,0-18.211L488.43,298.37z"/>
	<ellipse fill="#3F3D56" cx="479.42" cy="271.07" rx="11.38" ry="14.9"/>
	<ellipse fill="#3F3D56" cx="479.42" cy="252.86" rx="11.38" ry="14.9"/>
	<path fill="#EF233C" d="M436.82,128.23c-1.56-1.977-2.977-4.062-4.24-6.24l29.9-4.91l-32.341,0.24
		c-6.257-13.65-6.619-29.274-1-43.2l43.391,22.51l-40-29.42c14.891-26.177,48.183-35.327,74.359-20.437
		c26.178,14.891,35.327,48.183,20.437,74.36c-1.411,2.481-3.015,4.847-4.796,7.077c2.424,3.08,4.51,6.413,6.22,9.94l-38.83,20.22
		l41.39-13.89c5.91,17.456,2.604,36.715-8.79,51.2c18.617,23.665,14.525,57.942-9.141,76.559
		c-23.665,18.617-57.941,14.524-76.559-9.141c-15.561-19.779-15.561-47.639,0-67.418c-15.562-19.78-15.562-47.641,0-67.42V128.23z"
		/>
	<path opacity="0.1" enable-background="new    " d="M534.19,161.94c0.02,12.231-4.093,24.109-11.671,33.71
		c18.617,23.666,14.525,57.942-9.141,76.559c-23.665,18.617-57.941,14.525-76.559-9.141c-15.561-19.779-15.561-47.639,0-67.418
		C429.51,186.37,534.19,155.82,534.19,161.94z"/>
</g>
<g opacity="0.1">
	<ellipse fill="#3F3D56" cx="612.28" cy="330.26" rx="8.51" ry="11.13"/>
	<path fill="#3F3D56" d="M619,282.63c1.183-2.069,1.794-4.416,1.77-6.8c0-6.15-3.81-11.14-8.5-11.14c-4.689,0-8.51,5-8.51,11.14
		c-0.025,2.385,0.589,4.733,1.78,6.8c-2.373,4.227-2.373,9.384,0,13.61c-2.373,4.226-2.373,9.384,0,13.61
		c-1.191,2.066-1.806,4.414-1.78,6.799c0,6.15,3.811,11.141,8.51,11.141c4.7,0,8.5-5,8.5-11.141c0.024-2.383-0.587-4.73-1.77-6.799
		c2.354-4.232,2.354-9.379,0-13.61C621.354,292.009,621.354,286.861,619,282.63z"/>
	<ellipse fill="#3F3D56" cx="612.28" cy="262.22" rx="8.51" ry="11.13"/>
	<ellipse fill="#3F3D56" cx="612.28" cy="248.61" rx="8.51" ry="11.13"/>
	<path fill="#EF233C" d="M580.44,155.48c-1.168-1.475-2.228-3.032-3.171-4.66l22.351-3.67l-24.17,0.18
		c-4.687-10.199-4.969-21.877-0.78-32.29l32.43,16.83l-29.909-22c11.24-19.498,36.158-26.191,55.656-14.95
		c19.497,11.241,26.19,36.159,14.95,55.656c-0.986,1.709-2.095,3.345-3.316,4.894c1.81,2.305,3.368,4.795,4.649,7.43l-29,15.07
		l30.93-10.38c4.414,13.044,1.943,27.436-6.569,38.26c13.925,17.673,10.887,43.289-6.786,57.214s-43.289,10.887-57.214-6.786
		c-11.653-14.79-11.653-35.639,0-50.428c-11.628-14.781-11.628-35.6,0-50.38L580.44,155.48z"/>
	<path opacity="0.1" enable-background="new    " d="M653.2,180.67c0.014,9.139-3.06,18.015-8.72,25.19
		c13.925,17.673,10.887,43.289-6.786,57.214c-17.673,13.925-43.289,10.887-57.214-6.786c-11.653-14.79-11.653-35.639,0-50.428
		C575,198.93,653.2,176.1,653.2,180.67z"/>
</g>
<g opacity="0.1">
	<ellipse fill="#3F3D56" cx="1038.58" cy="322.12" rx="11.38" ry="14.9"/>
	<path fill="#3F3D56" d="M1029.57,258.37c-1.588-2.772-2.409-5.916-2.381-9.11c0-8.229,5.101-14.9,11.391-14.9
		s11.38,6.67,11.38,14.9c0.029,3.194-0.792,6.338-2.38,9.11c3.173,5.655,3.173,12.555,0,18.21c3.173,5.655,3.173,12.555,0,18.21
		c1.59,2.771,2.412,5.916,2.38,9.109c0,8.221-5.1,14.9-11.38,14.9s-11.391-6.68-11.391-14.9c-0.031-3.193,0.79-6.339,2.381-9.109
		c-3.173-5.655-3.173-12.555,0-18.21C1026.397,270.925,1026.397,264.025,1029.57,258.37z"/>
	<ellipse fill="#3F3D56" cx="1038.58" cy="231.07" rx="11.38" ry="14.9"/>
	<ellipse fill="#3F3D56" cx="1038.58" cy="212.86" rx="11.38" ry="14.9"/>
	<path fill="#EF233C" d="M1081.18,88.23c1.56-1.977,2.977-4.062,4.24-6.24l-29.9-4.91l32.341,0.24c6.257-13.65,6.619-29.274,1-43.2
		l-43.391,22.51l40-29.42c-14.891-26.177-48.183-35.327-74.359-20.437c-26.178,14.891-35.327,48.183-20.437,74.36
		c1.411,2.481,3.015,4.847,4.796,7.077c-2.425,3.08-4.51,6.413-6.22,9.94l38.83,20.22l-41.391-13.89
		c-5.909,17.456-2.604,36.715,8.791,51.2c-18.617,23.665-14.525,57.942,9.141,76.559c23.665,18.617,57.941,14.524,76.559-9.141
		c15.561-19.78,15.561-47.639,0-67.418c15.562-19.78,15.562-47.641,0-67.42V88.23z"/>
	<path opacity="0.1" enable-background="new    " d="M983.811,121.94c-0.021,12.231,4.092,24.109,11.67,33.71
		c-18.617,23.666-14.525,57.942,9.141,76.559c23.665,18.617,57.941,14.525,76.559-9.141c15.561-19.779,15.561-47.639,0-67.418
		C1088.49,146.37,983.811,115.82,983.811,121.94z"/>
</g>
<g opacity="0.1">
	<ellipse fill="#3F3D56" cx="928.72" cy="324.26" rx="8.511" ry="11.13"/>
	<path fill="#3F3D56" d="M922,276.63c-1.183-2.069-1.794-4.416-1.77-6.8c0-6.15,3.81-11.14,8.5-11.14c4.689,0,8.51,5,8.51,11.14
		c0.025,2.385-0.589,4.733-1.78,6.8c2.373,4.227,2.373,9.384,0,13.61c2.373,4.226,2.373,9.384,0,13.61
		c1.191,2.066,1.806,4.414,1.78,6.799c0,6.15-3.811,11.141-8.51,11.141c-4.7,0-8.5-5-8.5-11.141c-0.024-2.383,0.587-4.73,1.77-6.799
		c-2.354-4.232-2.354-9.379,0-13.61C919.646,286.009,919.646,280.861,922,276.63z"/>
	<ellipse fill="#3F3D56" cx="928.72" cy="256.22" rx="8.511" ry="11.13"/>
	<ellipse fill="#3F3D56" cx="928.72" cy="242.61" rx="8.511" ry="11.13"/>
	<path fill="#EF233C" d="M960.56,149.48c1.168-1.475,2.228-3.032,3.171-4.66l-22.351-3.67l24.17,0.18
		c4.687-10.199,4.969-21.877,0.78-32.29l-32.43,16.83l29.909-22c-11.24-19.498-36.158-26.191-55.656-14.95
		c-19.497,11.241-26.19,36.159-14.95,55.656c0.986,1.709,2.095,3.345,3.316,4.894c-1.81,2.305-3.368,4.795-4.649,7.43l29,15.07
		L890,161.6c-4.414,13.044-1.942,27.435,6.57,38.26c-13.926,17.673-10.888,43.289,6.785,57.214
		c17.674,13.925,43.289,10.887,57.215-6.786c11.653-14.79,11.653-35.639,0-50.428c11.628-14.78,11.628-35.599,0-50.38H960.56z"/>
	<path opacity="0.1" enable-background="new    " d="M887.8,174.67c-0.014,9.139,3.06,18.015,8.72,25.19
		c-13.925,17.673-10.887,43.289,6.786,57.214c17.673,13.925,43.289,10.887,57.214-6.786c11.654-14.79,11.654-35.639,0-50.428
		C966,192.93,887.8,170.1,887.8,174.67z"/>
</g>
<g opacity="0.1">
	<ellipse fill="#3F3D56" cx="61.59" cy="322.12" rx="11.38" ry="14.9"/>
	<path fill="#3F3D56" d="M70.59,258.37c1.588-2.772,2.409-5.916,2.38-9.11c0-8.229-5.1-14.9-11.38-14.9
		c-6.28,0-11.38,6.67-11.38,14.9c-0.032,3.193,0.786,6.337,2.37,9.11c-3.161,5.658-3.161,12.551,0,18.21
		c-3.161,5.658-3.161,12.552,0,18.21c-1.587,2.771-2.406,5.916-2.37,9.109c0,8.221,5.09,14.9,11.38,14.9S73,312.14,73,303.92
		c0.032-3.194-0.79-6.339-2.38-9.11c3.172-5.655,3.172-12.554,0-18.209c3.172-5.656,3.172-12.555,0-18.21L70.59,258.37z"/>
	<ellipse fill="#3F3D56" cx="61.59" cy="231.07" rx="11.38" ry="14.9"/>
	<ellipse fill="#3F3D56" cx="61.59" cy="212.86" rx="11.38" ry="14.9"/>
	<path fill="#EF233C" d="M19,88.23c-1.556-1.979-2.973-4.064-4.24-6.24l29.91-4.91L12.3,77.37c-6.257-13.65-6.619-29.275-1-43.2
		l43.4,22.51l-40-29.42C29.65,1.123,62.958-7.946,89.094,7.003c26.137,14.95,35.207,48.257,20.257,74.395
		c-1.374,2.402-2.929,4.696-4.651,6.862c2.424,3.081,4.51,6.413,6.22,9.94l-38.84,20.17l41.4-13.89
		c5.896,17.458,2.586,36.712-8.8,51.2c18.617,23.665,14.524,57.942-9.141,76.559c-23.665,18.617-57.942,14.524-76.559-9.141
		c-15.56-19.779-15.56-47.639,0-67.418c-15.561-19.78-15.561-47.641,0-67.42L19,88.23z"/>
	<path opacity="0.1" enable-background="new    " d="M116.35,121.94c0.02,12.231-4.093,24.109-11.67,33.71
		c18.617,23.666,14.524,57.942-9.141,76.559c-23.665,18.617-57.942,14.525-76.559-9.141c-15.56-19.779-15.56-47.639,0-67.418
		C11.67,146.37,116.35,115.82,116.35,121.94z"/>
</g>
<g opacity="0.1">
	<ellipse fill="#3F3D56" cx="171.44" cy="324.26" rx="8.51" ry="11.13"/>
	<path fill="#3F3D56" d="M178.17,276.63c1.183-2.069,1.794-4.416,1.77-6.8c0-6.15-3.8-11.14-8.5-11.14c-4.7,0-8.51,5-8.51,11.14
		c-0.021,2.384,0.593,4.731,1.78,6.8c-2.373,4.227-2.373,9.384,0,13.61c-2.373,4.226-2.373,9.384,0,13.61
		c-1.187,2.068-1.801,4.415-1.78,6.799c0,6.15,3.81,11.141,8.51,11.141c4.7,0,8.5-5,8.5-11.141c0.024-2.383-0.587-4.73-1.77-6.799
		c2.354-4.232,2.354-9.379,0-13.61C180.523,286.009,180.523,280.861,178.17,276.63z"/>
	<ellipse fill="#3F3D56" cx="171.44" cy="256.22" rx="8.51" ry="11.13"/>
	<ellipse fill="#3F3D56" cx="171.44" cy="242.61" rx="8.51" ry="11.13"/>
	<path fill="#EF233C" d="M139.6,149.48c-1.165-1.477-2.224-3.035-3.17-4.66l22.35-3.67l-24.17,0.18
		c-4.686-10.199-4.968-21.877-0.78-32.29l32.43,16.83l-29.91-22c11.241-19.498,36.159-26.191,55.656-14.95
		s26.19,36.159,14.95,55.656c-0.985,1.709-2.094,3.345-3.316,4.894c1.816,2.3,3.376,4.791,4.65,7.43l-29,15.07l30.93-10.38
		c4.414,13.044,1.942,27.436-6.57,38.26c13.925,17.673,10.887,43.289-6.786,57.214c-17.673,13.925-43.289,10.887-57.214-6.786
		c-11.653-14.79-11.653-35.638,0-50.428c-11.628-14.781-11.628-35.6,0-50.38L139.6,149.48z"/>
	<path opacity="0.1" enable-background="new    " d="M212.36,174.67c0.014,9.139-3.059,18.015-8.72,25.19
		c13.925,17.673,10.887,43.289-6.786,57.214c-17.673,13.925-43.289,10.887-57.214-6.786c-11.653-14.79-11.653-35.639,0-50.428
		C134.14,192.93,212.36,170.1,212.36,174.67z"/>
</g>
<ellipse opacity="0.1" fill="#EF233C" enable-background="new    " cx="548" cy="493.13" rx="548" ry="8.86"/>
<ellipse opacity="0.1" fill="#EF233C" enable-background="new    " cx="548" cy="565.88" rx="548" ry="8.86"/>
<ellipse opacity="0.1" fill="#EF233C" enable-background="new    " cx="548" cy="341.3" rx="548" ry="8.86"/>
<ellipse opacity="0.1" fill="#EF233C" enable-background="new    " cx="548" cy="417.21" rx="548" ry="8.86"/>
<path opacity="0.1" fill="#EF233C" enable-background="new    " d="M808.79,110.37c-3.57-0.674-7.26-0.271-10.6,1.16
	c-4.055,1.807-8.686,1.807-12.74,0c-4.801-2.107-10.284-2.001-15,0.29c-1.327,0.706-2.807,1.076-4.311,1.08
	c-6.08,0-11.13-6.12-12.18-14.19c1.196-0.892,2.214-2.001,3-3.27c3.56-5.74,9.07-9.43,15.271-9.43c6.199,0,11.64,3.64,15.199,9.32
	c2.157,3.491,5.987,5.594,10.091,5.54h0.159C802.57,100.82,806.76,104.7,808.79,110.37z"/>
<path opacity="0.1" fill="#EF233C" enable-background="new    " d="M827.3,85.02l-9.819,6.22l6-10.84
	c-1.69-1.345-3.781-2.087-5.94-2.11h-0.16c-0.67,0.009-1.339-0.041-2-0.15L812,80.25l1.43-2.6c-2.362-0.818-4.404-2.366-5.83-4.42
	l-6,3.78l3.761-6.84c-3.48-4.18-8.181-6.74-13.341-6.74c-6.199,0-11.71,3.68-15.279,9.42c-2.143,3.494-5.994,5.57-10.09,5.44h-0.33
	c-6.841,0-12.381,7.75-12.381,17.31s5.54,17.32,12.381,17.32c1.502-0.01,2.98-0.38,4.31-1.08c4.714-2.297,10.198-2.407,15-0.3
	c4.052,1.819,8.688,1.819,12.74,0c4.762-2.059,10.182-1.953,14.859,0.29c1.315,0.688,2.776,1.052,4.261,1.06
	c6.84,0,12.38-7.76,12.38-17.32C829.911,91.894,829.027,88.266,827.3,85.02z"/>
<path opacity="0.1" fill="#EF233C" enable-background="new    " d="M391.26,104.96c-2.502-0.473-5.088-0.191-7.43,0.81
	c-2.835,1.267-6.075,1.267-8.91,0c-3.357-1.475-7.194-1.398-10.49,0.21c-0.927,0.483-1.954,0.74-3,0.75
	c-4.25,0-7.79-4.28-8.529-9.93c0.848-0.622,1.57-1.398,2.13-2.29c2.489-4,6.35-6.6,10.689-6.6s8.15,2.55,10.641,6.52
	c1.512,2.445,4.195,3.917,7.069,3.88h0.11C386.9,98.29,389.83,101.01,391.26,104.96z"/>
<path opacity="0.1" fill="#EF233C" enable-background="new    " d="M404.21,87.23l-6.87,4.36l4.17-7.59
	c-1.179-0.943-2.64-1.465-4.149-1.48h-0.12c-0.476,0.008-0.951-0.028-1.42-0.11l-2.33,1.48l1-1.82
	c-1.651-0.574-3.08-1.656-4.08-3.09l-4.17,2.64l2.64-4.78c-2.245-2.899-5.674-4.636-9.34-4.73c-4.34,0-8.2,2.58-10.69,6.6
	c-1.502,2.447-4.2,3.901-7.069,3.81h-0.23c-4.79,0-8.67,5.42-8.67,12.12c0,6.7,3.88,12.12,8.67,12.12
	c1.047-0.008,2.076-0.269,3-0.76c3.296-1.599,7.126-1.672,10.48-0.2c1.41,0.644,2.939,0.984,4.489,1
	c1.526-0.002,3.035-0.323,4.431-0.94c3.332-1.442,7.126-1.369,10.399,0.2c0.926,0.485,1.955,0.739,3,0.74
	c4.78,0,8.66-5.43,8.66-12.12C406.051,92.084,405.431,89.521,404.21,87.23z"/>
<path opacity="0.1" fill="#EF233C" enable-background="new    " d="M269.59,183.37c2.499-0.472,5.082-0.19,7.42,0.81
	c2.838,1.267,6.082,1.267,8.92,0c3.357-1.473,7.191-1.399,10.49,0.2c0.924,0.492,1.953,0.753,3,0.76c4.25,0,7.79-4.29,8.521-9.94
	c-0.848-0.62-1.567-1.397-2.121-2.29c-2.5-4-6.36-6.59-10.69-6.59s-8.15,2.54-10.65,6.52c-1.511,2.441-4.189,3.914-7.06,3.88h-0.11
	C273.94,176.74,271,179.45,269.59,183.37z"/>
<path opacity="0.1" fill="#EF233C" enable-background="new    " d="M256.63,165.67l6.88,4.36l-4.18-7.58
	c1.182-0.947,2.646-1.471,4.16-1.49h0.11c0.479,0.007,0.957-0.026,1.43-0.1l2.33,1.47l-1-1.81c1.648-0.576,3.073-1.657,4.07-3.09
	l4.17,2.64l-2.6-4.79c2.246-2.897,5.676-4.63,9.34-4.72c4.33,0,8.2,2.58,10.69,6.6c1.5,2.443,4.194,3.897,7.06,3.81h0.24
	c4.78,0,8.66,5.43,8.66,12.12c0,6.69-3.88,12.12-8.66,12.12c-1.046-0.005-2.075-0.262-3-0.75c-3.296-1.608-7.132-1.685-10.49-0.21
	c-1.405,0.649-2.932,0.99-4.48,1c-1.529-0.001-3.042-0.321-4.44-0.94c-3.329-1.442-7.119-1.369-10.39,0.2
	c-0.925,0.485-1.955,0.739-3,0.74c-4.79,0-8.67-5.42-8.67-12.12C254.813,170.534,255.422,167.968,256.63,165.67z"/>
<path fill="none" stroke="#3F3D56" stroke-width="4" stroke-miterlimit="10" d="M664.31,490.26c2.61-4.84-0.35-10.76-3.75-15.069
	c-3.399-4.311-7.56-8.801-7.47-14.29c0.13-7.891,8.51-12.561,15.2-16.74c4.968-3.115,9.55-6.808,13.65-11
	c1.714-1.614,3.133-3.517,4.189-5.62c1.391-3.08,1.351-6.6,1.26-10c-0.286-11.26-0.843-22.514-1.67-33.76"/>
<path fill="#EF233C" d="M698.45,383.22c-0.196-4.191-2.515-7.994-6.15-10.09l-2.76,5.45l0.09-6.601
	c-6.521-1.92-13.365,1.811-15.285,8.332c-1.921,6.522,1.81,13.365,8.332,15.286c6.521,1.92,13.365-1.81,15.285-8.332
	C698.349,385.954,698.514,384.587,698.45,383.22z"/>
<path fill="#EF233C" d="M676.49,466.54c-3.11,6.045-10.533,8.425-16.578,5.314c-3.899-2.006-6.438-5.936-6.662-10.314
	c-0.092-1.705,0.181-3.409,0.8-5c2.477-6.338,9.622-9.468,15.959-6.991c3.25,1.27,5.809,3.857,7.041,7.121l-7.689,6.26l8.46-2
	C677.83,462.879,677.374,464.803,676.49,466.54z"/>
<path fill="#EF233C" d="M670.41,442.64c-6.791,0.32-12.556-4.926-12.876-11.717c-0.27-5.729,3.453-10.886,8.976-12.433l-0.07,5.069
	l2.79-5.52l0,0c6.794-0.317,12.558,4.932,12.875,11.725c0.318,6.793-4.932,12.558-11.725,12.875l0,0H670.41z"/>
<path fill="#EF233C" d="M700.3,422.75c-6.789,0.351-12.578-4.869-12.929-11.658c-0.351-6.79,4.869-12.578,11.658-12.929
	c2.343-0.121,4.671,0.43,6.711,1.587l-2.17,6l4.43-4.38c5.012,4.595,5.349,12.381,0.755,17.393
	c-2.196,2.395-5.249,3.824-8.495,3.978L700.3,422.75z"/>
<path opacity="0.1" enable-background="new    " d="M696.79,386.5c-2.84,0.31-5.6,1.19-8.46,1.37s-6-0.51-7.78-2.721
	c-0.837-1.287-1.599-2.623-2.28-4c-0.777-1.213-1.842-2.216-3.1-2.92c-3.091,6.056-0.688,13.471,5.367,16.562
	s13.47,0.688,16.561-5.367c0.487-0.954,0.848-1.967,1.072-3.014C697.72,386.42,697.25,386.45,696.79,386.5z"/>
<path opacity="0.1" enable-background="new    " d="M700.3,422.75c-6.791,0.321-12.557-4.923-12.878-11.714
	c-0.096-2.015,0.306-4.022,1.168-5.846c0.976,0.659,1.814,1.501,2.47,2.479c0.735,1.402,1.551,2.761,2.44,4.07
	c1.92,2.25,5.2,3,8.17,2.85s5.84-1,8.8-1.25c0.41,0,0.82-0.06,1.24-0.07C710.451,418.624,705.794,422.494,700.3,422.75z"/>
<path opacity="0.1" enable-background="new    " d="M670.41,442.64c-6.791,0.318-12.555-4.929-12.873-11.72
	c-0.09-1.928,0.273-3.85,1.063-5.61c1.015,0.668,1.899,1.516,2.61,2.5c0.807,1.436,1.698,2.821,2.67,4.15
	c2.07,2.31,5.57,3.13,8.71,3c3.141-0.13,6-0.81,9-1C680.061,438.917,675.592,442.387,670.41,442.64z"/>
<path opacity="0.1" enable-background="new    " d="M676.49,466.54c-3.11,6.045-10.533,8.425-16.578,5.314
	c-3.899-2.006-6.438-5.936-6.662-10.314c-0.092-1.705,0.181-3.409,0.8-5c1.015,0.666,1.924,1.478,2.7,2.41
	c1.17,1.42,1.94,3,3.3,4.37c2.51,2.47,6.58,3.489,10.19,3.58C672.329,466.906,674.416,466.786,676.49,466.54z"/>
<path fill="none" stroke="#3F3D56" stroke-width="4" stroke-miterlimit="10" d="M54.31,418.26c2.61-4.84-0.35-10.76-3.75-15.069
	c-3.4-4.311-7.56-8.82-7.47-14.291c0.13-7.89,8.51-12.56,15.2-16.739c4.968-3.115,9.55-6.808,13.65-11
	c1.715-1.614,3.133-3.517,4.19-5.62c1.39-3.08,1.35-6.6,1.26-10c-0.293-11.26-0.85-22.514-1.67-33.76"/>
<path fill="#EF233C" d="M88.45,311.22c-0.196-4.191-2.515-7.994-6.15-10.09l-2.76,5.45l0.09-6.601
	c-6.521-1.92-13.365,1.811-15.286,8.332c-1.92,6.522,1.81,13.365,8.332,15.286c6.522,1.92,13.366-1.81,15.286-8.332
	C88.348,313.954,88.513,312.587,88.45,311.22L88.45,311.22z"/>
<path fill="#EF233C" d="M66.49,394.54c-3.11,6.045-10.533,8.425-16.578,5.314c-3.899-2.006-6.437-5.936-6.662-10.314
	c-0.092-1.705,0.181-3.409,0.8-5c2.477-6.338,9.622-9.468,15.959-6.991c3.25,1.271,5.808,3.857,7.041,7.121l-7.69,6.261l8.46-2
	C67.83,390.88,67.374,392.803,66.49,394.54z"/>
<path fill="#EF233C" d="M60.41,370.64c-6.791,0.32-12.556-4.926-12.876-11.717c-0.27-5.729,3.453-10.886,8.976-12.433l-0.07,5.069
	l2.79-5.52l0,0c6.793-0.317,12.558,4.932,12.875,11.725s-4.932,12.558-11.725,12.875l0,0H60.41z"/>
<path fill="#EF233C" d="M90.3,350.75c-6.79,0.351-12.578-4.868-12.929-11.658c-0.351-6.79,4.869-12.578,11.658-12.929
	c2.343-0.121,4.671,0.43,6.711,1.587l-2.17,6l4.43-4.38c5.011,4.594,5.349,12.381,0.754,17.393
	c-2.195,2.395-5.249,3.824-8.495,3.978L90.3,350.75z"/>
<path opacity="0.1" enable-background="new    " d="M86.79,314.5c-2.84,0.31-5.6,1.19-8.46,1.37s-6-0.51-7.78-2.721
	c-0.837-1.287-1.598-2.623-2.28-4c-0.777-1.213-1.842-2.216-3.1-2.92c-3.091,6.056-0.688,13.471,5.367,16.562
	s13.47,0.688,16.561-5.367c0.487-0.954,0.847-1.967,1.072-3.014C87.72,314.42,87.25,314.45,86.79,314.5z"/>
<path opacity="0.1" enable-background="new    " d="M90.3,350.75c-6.791,0.321-12.557-4.923-12.878-11.714
	c-0.095-2.016,0.306-4.022,1.168-5.846c0.976,0.658,1.815,1.501,2.47,2.479c0.735,1.401,1.55,2.761,2.44,4.07
	c1.92,2.25,5.2,3,8.17,2.85c2.97-0.149,5.84-1,8.8-1.25c0.41,0,0.82-0.06,1.24-0.069C100.452,346.624,95.794,350.493,90.3,350.75z"
	/>
<path opacity="0.1" enable-background="new    " d="M60.41,370.64c-6.792,0.318-12.555-4.929-12.873-11.721
	c-0.09-1.927,0.273-3.848,1.063-5.609c1.015,0.668,1.899,1.516,2.61,2.5c0.806,1.436,1.698,2.822,2.67,4.15
	c2.07,2.311,5.57,3.13,8.71,3c3.14-0.13,6-0.811,9-1C70.061,366.917,65.592,370.387,60.41,370.64z"/>
<path opacity="0.1" enable-background="new    " d="M66.49,394.54c-3.11,6.045-10.533,8.425-16.578,5.314
	c-3.899-2.006-6.437-5.936-6.662-10.314c-0.092-1.705,0.181-3.409,0.8-5c1.014,0.666,1.924,1.478,2.7,2.41
	c1.17,1.42,1.94,3,3.3,4.369c2.51,2.471,6.58,3.49,10.19,3.58C62.329,394.906,64.416,394.786,66.49,394.54z"/>
<path fill="none" stroke="#3F3D56" stroke-width="4" stroke-miterlimit="10" d="M460.52,335.89c-2.609-4.83,0.351-10.75,3.761-15.06
	s7.55-8.8,7.46-14.29c-0.12-7.9-8.5-12.561-15.2-16.74c-4.966-3.113-9.545-6.806-13.64-11c-1.723-1.605-3.146-3.505-4.2-5.61
	c-1.38-3.09-1.34-6.6-1.26-10c0.3-11.26,0.856-22.513,1.67-33.76"/>
<path fill="#2424ED" d="M426.39,228.86c0.192-4.19,2.507-7.994,6.141-10.09l2.76,5.45l-0.08-6.6c1.314-0.382,2.683-0.547,4.05-0.49
	c6.792,0.316,12.04,6.079,11.724,12.87c-0.316,6.792-6.078,12.041-12.869,11.724C431.325,241.407,426.077,235.649,426.39,228.86
	L426.39,228.86z"/>
<path fill="#EF233C" d="M448.34,312.181c3.106,6.047,10.527,8.432,16.574,5.324c6.048-3.105,8.432-10.526,5.326-16.574
	c-3.106-6.047-10.527-8.432-16.575-5.325c-2.734,1.405-4.845,3.782-5.915,6.665l7.69,6.26l-8.46-2
	C446.974,308.495,447.439,310.433,448.34,312.181z"/>
<path fill="#EF233C" d="M454.42,288.28c6.791,0.326,12.561-4.914,12.887-11.705c0.276-5.734-3.448-10.897-8.977-12.445l0.06,5.07
	l-2.79-5.52l0,0c-6.79-0.334-12.565,4.899-12.899,11.69c-0.07,1.42,0.109,2.842,0.53,4.2
	C444.742,284.548,449.224,288.035,454.42,288.28z"/>
<path fill="#2424ED" d="M424.54,268.37c6.79,0.346,12.574-4.878,12.92-11.668c0.346-6.79-4.878-12.574-11.668-12.92
	c-2.34-0.119-4.665,0.432-6.702,1.588l2.18,6l-4.479-4.29c-2.414,2.187-3.854,5.247-4,8.5c-0.06,1.139,0.045,2.281,0.31,3.39
	C414.389,264.305,419.057,268.14,424.54,268.37z"/>
<path opacity="0.1" enable-background="new    " d="M428.05,232.14c2.84,0.31,5.601,1.19,8.45,1.37c2.85,0.18,6-0.51,7.79-2.72
	c0.834-1.288,1.592-2.624,2.27-4c0.781-1.214,1.85-2.217,3.11-2.92c3.095,6.053,0.697,13.469-5.356,16.564
	c-6.053,3.095-13.469,0.697-16.564-5.356c-0.491-0.961-0.854-1.982-1.079-3.038C427.12,232.05,427.58,232.09,428.05,232.14z"/>
<path opacity="0.1" enable-background="new    " d="M424.54,268.37c6.797,0.313,12.561-4.944,12.873-11.741
	c0.092-2.005-0.307-4.003-1.163-5.819c-0.979,0.659-1.821,1.501-2.48,2.48c-0.735,1.402-1.55,2.761-2.439,4.07
	c-1.91,2.25-5.19,3-8.16,2.85s-5.84-1-8.8-1.25c-0.41,0-0.83-0.06-1.24-0.07C414.386,264.246,419.045,268.117,424.54,268.37z"/>
<path opacity="0.1" enable-background="new    " d="M454.42,288.28c6.785,0.326,12.551-4.909,12.878-11.694
	c0.093-1.937-0.272-3.868-1.067-5.636c-1.014,0.666-1.896,1.513-2.601,2.5c-0.806,1.435-1.698,2.821-2.67,4.15
	c-2.08,2.31-5.57,3.13-8.72,3c-3.15-0.13-6-0.81-9-1C444.762,284.563,449.235,288.036,454.42,288.28z"/>
<path opacity="0.1" enable-background="new    " d="M448.34,312.181c3.131,6.034,10.561,8.389,16.596,5.258
	c5.533-2.87,8.048-9.424,5.854-15.258c-1.019,0.659-1.929,1.473-2.7,2.409c-1.17,1.42-2,3-3.3,4.37
	c-2.521,2.471-6.58,3.49-10.2,3.58C452.501,312.541,450.415,312.421,448.34,312.181z"/>
<circle fill="#3F3D56" cx="779.73" cy="238.18" r="99.96"/>
<path fill="#2924ED" d="M822.64,263.96c-3.479-3.48-11.85-8.73-16-10.69c-4.79-2.3-6.55-2.26-9.939,0.19
	c-2.82,2-4.65,3.93-7.891,3.22c-3.239-0.71-9.659-5.55-15.869-11.74s-11.03-12.57-11.721-15.86c-0.689-3.29,1.21-5.08,3.23-7.9
	c2.439-3.39,2.51-5.15,0.189-9.94c-2-4.15-7.189-12.5-10.7-16c-3.51-3.5-4.27-2.73-6.189-2c-1.976,0.828-3.874,1.832-5.67,3
	c-3.48,2.33-5.43,4.27-6.8,7.19c-1.37,2.92-2.92,8.34,5.05,22.53c5.879,10.855,13.326,20.785,22.1,29.47l0,0l0,0
	c8.715,8.794,18.679,16.254,29.57,22.14c14.18,8,19.61,6.41,22.53,5.05c2.92-1.36,4.859-3.29,7.18-6.8
	c1.17-1.795,2.174-3.693,3-5.67C825.37,268.23,826.15,267.45,822.64,263.96z"/>
<path opacity="0.1" enable-background="new    " d="M779.73,138.23c-55.229-0.028-100.022,44.722-100.051,99.95
	c-0.027,55.228,44.722,100.022,99.95,100.049c55.229,0.028,100.022-44.721,100.05-99.95c0-0.033,0-0.066,0-0.1
	C879.652,182.991,834.92,138.258,779.73,138.23z M779.73,324.851c-47.867,0-86.671-38.804-86.671-86.67
	c0-47.867,38.804-86.67,86.671-86.67c47.866,0,86.67,38.804,86.67,86.67v0C866.4,286.046,827.597,324.851,779.73,324.851
	L779.73,324.851L779.73,324.851z"/>
<circle fill="#3F3D56" cx="550.08" cy="390.01" r="99.96"/>
<path fill="#2424ED" d="M606.93,359.81L577,390.26c-0.216,0.206-0.223,0.548-0.017,0.764c0.006,0.006,0.011,0.011,0.017,0.017
	l21,22.33c1.408,1.419,1.399,3.711-0.02,5.119c-0.673,0.668-1.582,1.046-2.53,1.051c-0.96-0.002-1.88-0.383-2.561-1.06L572,396.23
	c-0.222-0.219-0.578-0.219-0.8,0l-5.09,5.14c-4.211,4.306-9.979,6.731-16,6.729c-6.136-0.028-12.002-2.521-16.28-6.92l-4.891-5
	c-0.222-0.218-0.578-0.218-0.8,0l-20.84,22.2c-1.408,1.411-3.694,1.413-5.105,0.005c-0.001-0.002-0.003-0.003-0.005-0.005
	c-1.41-1.4-1.419-3.68-0.019-5.091c0.007-0.007,0.013-0.013,0.019-0.02l20.921-22.279c0.191-0.225,0.191-0.556,0-0.78l-29.931-30.45
	c-0.214-0.216-0.563-0.216-0.777-0.002c-0.104,0.104-0.163,0.245-0.162,0.392v60.931c0.017,4.903,3.986,8.873,8.89,8.89H599
	c4.903-0.017,8.873-3.986,8.89-8.89V360.2c0.014-0.304-0.222-0.561-0.525-0.574C607.199,359.619,607.04,359.687,606.93,359.81z"/>
<path fill="#2424ED" d="M550.08,400.87c4.099,0.04,8.039-1.584,10.92-4.5L604.59,352c-1.547-1.282-3.49-1.988-5.5-2H501.15
	c-2.011,0.007-3.955,0.714-5.5,2l43.6,44.37C542.105,399.27,546.011,400.893,550.08,400.87z"/>
<path opacity="0.1" enable-background="new    " d="M548.82,290.06c-55.229-0.027-100.022,44.723-100.05,99.95
	c-0.028,55.229,44.721,100.022,99.949,100.05c55.229,0.028,100.022-44.721,100.05-99.949c0-0.033,0-0.066,0-0.101
	C648.742,334.82,604.01,290.087,548.82,290.06z M548.82,476.68c-47.867,0-86.67-38.803-86.67-86.67
	c0-47.866,38.803-86.67,86.67-86.67c47.866,0,86.67,38.804,86.67,86.67l0,0C635.49,437.877,596.687,476.68,548.82,476.68z"/>
<circle fill="#3F3D56" cx="312.85" cy="315.36" r="99.96"/>
<path fill="#242EED" d="M312.85,267.53L273,359.47l3.72,3.721l36.14-15.94L349,363.19l3.72-3.721L312.85,267.53z"/>
<path opacity="0.1" enable-background="new    " d="M312.85,215.37c-55.228-0.028-100.022,44.721-100.05,99.949
	c-0.027,55.229,44.722,100.023,99.95,100.051s100.022-44.722,100.05-99.95c0-0.017,0-0.033,0-0.05
	C412.8,260.161,368.059,215.397,312.85,215.37z M312.85,401.99c-47.866,0-86.669-38.804-86.669-86.671
	c0-47.866,38.803-86.669,86.669-86.669c47.867,0,86.67,38.804,86.67,86.669c0,0.018,0,0.034,0,0.051
	c-0.005,47.862-38.807,86.66-86.67,86.66V401.99z"/>
<linearGradient id="SVGID_1_" gradientUnits="userSpaceOnUse" x1="819.0938" y1="-156.7974" x2="819.0938" y2="15.2803" gradientTransform="matrix(1 0 0 -1 -52 413.1104)">
	<stop  offset="0" style="stop-color:#808080;stop-opacity:0.25"/>
	<stop  offset="0.54" style="stop-color:#808080;stop-opacity:0.12"/>
	<stop  offset="1" style="stop-color:#808080;stop-opacity:0.1"/>
</linearGradient>
<path fill="url(#SVGID_1_)" d="M788.93,441.25c-0.906-2.213-1.836-4.42-2.79-6.62c-0.785-2.146-1.939-4.14-3.409-5.89
	c-0.559-0.63-1.239-1.141-2-1.5c-0.838-0.309-1.719-0.484-2.61-0.521c-1.359-0.171-2.733-0.208-4.1-0.109
	c-0.53-0.16-1.131-0.37-1.721-0.61c6.075-1.596,10.394-6.974,10.641-13.25c0-0.2,0-0.41,0-0.61c0.033-7.87-6.32-14.276-14.19-14.31
	l0,0c-2.634-0.005-5.217,0.733-7.45,2.13c-6.073-1.378-12.294,1.62-15,7.23c-3.349,3.203-5.199,7.666-5.1,12.3c0,0.21,0,0.43,0,0.63
	c0.26,7.77,5.28,14,11.62,14.63c-0.678,0.305-1.3,0.721-1.84,1.23c-1.94,1.869-2.261,4.84-2.471,7.539l-0.149,2l-3.36,1.2
	c-0.322,0.115-0.491,0.47-0.376,0.792c0.043,0.121,0.122,0.225,0.226,0.298l3.21,2.29c0,0.19,0,0.381,0,0.57
	c0,0.19,0,0.43,0.061,0.65c-0.549,0.482-0.974,1.09-1.24,1.77c-0.313,1.05-0.411,2.151-0.29,3.24l0.12,2.79
	c-0.016,2.1,0.271,4.191,0.85,6.21c0.421,1.24,2.24,4.229,3.551,4.25c-1.21,5.5-1.53,17.1-1.53,17.1c-0.15,0.15,0.27,0.29,1,0.41
	c0.72,5.521,3.07,21,7.24,27.811c0.656,2.22,1.181,4.478,1.569,6.76c0,0,1.19,14.71,2.761,19.08c1.34,3.72,2.399,12.899,2.689,15.56
	c-0.554,0.143-0.982,0.583-1.109,1.141c-0.79,2.38-5.91,6-5.91,6c-1.569,0.783-3.052,1.732-4.42,2.829
	c-1.61,1.45-1.551,2.761,5.6,1.94c13.8-1.59,16.16-6,16.16-6s-0.22-0.74-0.55-1.7c-0.422-1.493-1.03-2.928-1.811-4.27
	c-0.2-0.19-0.399,0.13-0.64,0.63c-1.041-6.381-1.356-12.858-0.94-19.311c0,0,0.391-6.76-1.58-11.529
	c-0.438-2.498-0.438-5.053,0-7.55c0.79-3.181-3.149-18.69-3.149-18.69l-2.26-11.42c0.308,0.39,0.523,0.845,0.63,1.33l0.06,0.229
	l0.061,0.33c0.022,0.117,0.077,0.225,0.159,0.311c1.54,6.399,5.761,24.13,5.761,26.729c0,3.181,3.939,11.13,3.939,11.13
	s1.57,13.12,4.33,18.28c2.1,3.93,2.15,9.69,2.05,12.23l0,0c0,0-0.47,3.27-1.26,4.06c-0.628,0.781-1.131,1.654-1.49,2.59l-0.09,0.19
	c0,0-1.18,2.39-0.39,2.79c3.005,1.179,6.257,1.588,9.46,1.189c0,0,1.58-2,1.58-2.779c-0.033-0.477-0.093-0.951-0.181-1.421
	c-0.29-1.88-0.83-4.84-0.84-4.869c0.33-1.28-1-4.841-1-4.841l-0.399-11.13c0.731-7.536-0.211-15.141-2.761-22.27
	c0,0-2-7.15-1.569-9.141c0.43-1.989-0.79-23.06-0.79-23.06l-0.12-0.3c-0.106-1.49-0.066-2.987,0.12-4.47
	c0.39-4.771-1.181-14.711-1.58-15.101c-0.326-1.068-0.515-2.174-0.561-3.29c0.09-0.83,0.36-3.26,0.73-6.28
	c3.888-0.133,7.767-0.466,11.62-1c0.372,0,0.73-0.143,1-0.399c0.157-0.24,0.238-0.523,0.229-0.811
	C793.39,452.61,791.2,446.79,788.93,441.25z M781,453.86c0.41-2.851,0.85-5.61,1.29-7.66l0.06,0.18c0.758,2.061,1.392,4.164,1.9,6.3
	C783.2,453.16,782.113,453.555,781,453.86z"/>
<path fill="#BE6F72" d="M750.37,486.05c0,0,2.36,21.23,7.47,29.48c0.656,2.193,1.181,4.424,1.57,6.68c0,0,1.18,14.54,2.75,18.86
	c1.57,4.319,2.75,16.119,2.75,16.119s5.5,6.28,7.47,1.181c-1.237-6.738-1.634-13.604-1.18-20.44c0,0,0.39-6.68-1.57-11.399
	c-0.438-2.468-0.438-4.993,0-7.46c0.78-3.15-3.15-18.471-3.15-18.471l-3.14-15.33L750.37,486.05z"/>
<path fill="#FF6F61" d="M775.13,562.3c0,0-2.36,4.32-16.11,5.891c-7.14,0.81-7.189-0.48-5.579-1.921
	c1.364-1.084,2.839-2.022,4.399-2.8c0,0,5.11-3.529,5.891-5.89c0.779-2.36,3.539-0.39,3.539-0.39c3.931,5.89,4.721-1.58,5.5-0.79
	c0.783,1.318,1.392,2.734,1.811,4.21C774.91,561.56,775.13,562.3,775.13,562.3z"/>
<path opacity="0.1" enable-background="new    " d="M775.13,562.3c0,0-2.36,4.32-16.11,5.891c-7.14,0.81-7.189-0.48-5.579-1.921
	c1.119,0.711,3.38,1,7.93-0.829c6.55-2.681,11.3-4.23,13.21-4.83C774.91,561.56,775.13,562.3,775.13,562.3z"/>
<path opacity="0.1" enable-background="new    " d="M771.2,537.93c0,0,0.39-6.68-1.57-11.399c-0.438-2.468-0.438-4.993,0-7.46
	c0.78-3.15-3.149-18.471-3.149-18.471l-3.141-15.33l-2.72,0.16l3.11,15.17c0,0,3.93,15.32,3.149,18.471
	c-0.438,2.467-0.438,4.992,0,7.46c2,4.72,1.57,11.399,1.57,11.399c-0.454,6.836-0.058,13.702,1.18,20.44
	c-0.213,0.64-0.609,1.203-1.14,1.62c1.46,0.66,3,0.63,3.89-1.62C771.143,551.632,770.746,544.766,771.2,537.93z"/>
<path fill="#3F3D56" d="M768.64,399.79c-2.622-0.006-5.192,0.726-7.42,2.11c-6.055-1.398-12.273,1.565-15,7.149
	c-3.335,3.154-5.184,7.57-5.09,12.16c0,8.36,5.63,15.13,12.57,15.13c5,0,9.38-3.56,11.39-8.71c1.155,0.306,2.346,0.461,3.54,0.46
	c7.815-0.007,14.145-6.348,14.138-14.162c-0.008-7.806-6.333-14.131-14.138-14.138H768.64z"/>
<path fill="#BE6F72" d="M780.24,488.02l1.18,3.141c0,0,1.18,20.83,0.78,22.8c-0.4,1.97,1.58,9,1.58,9
	c2.541,7.038,3.48,14.554,2.75,22l0.39,11c0,0,1.57,4.32,0.79,5.11s-6.71-0.7-6.71-0.7s0.79-8.25-2-13.36
	c-2.79-5.109-4.32-18.08-4.32-18.08s-3.93-7.859-3.93-11c0-3.14-6.29-28.689-6.29-28.689L780.24,488.02z"/>
<path fill="#3F3D56" d="M749.58,487.63c0,0,0.4-14.149,2-18.47c0.814-2.019,1.401-4.122,1.75-6.271c0,0,23.79,4.301,25.76,2.73
	c0,0,0.391,5.5,0.79,5.89c0.4,0.391,2,10.221,1.57,14.94c-0.431,4.72,0,4.71,0,4.71s-16.12,2.359-16.51,0
	c-0.391-2.36-1.57-2.35-1.57-2.35S748.8,488.37,749.58,487.63z"/>
<g opacity="0.1">
	<path d="M762.55,487.63c0,0-9.939-0.27-12.939-0.81c0,0.51,0,0.81,0,0.81c-0.78,0.78,13.76,1.18,13.76,1.18
		c0.198,0.019,0.386,0.095,0.54,0.221C763.38,487.63,762.55,487.63,762.55,487.63z"/>
	<path d="M779.85,471.51c-0.399-0.39-0.79-5.89-0.79-5.89c-0.203,0.127-0.432,0.208-0.67,0.24c0.141,1.659,0.41,4.21,0.67,4.47
		c0.261,0.26,2,10.22,1.57,14.939c-0.43,4.721,0,4.711,0,4.711s-12.75,1.869-15.84,0.619c0,0.17,0.09,0.36,0.12,0.561
		c0.39,2.359,16.51,0,16.51,0s-0.4,0,0-4.71S780.24,471.91,779.85,471.51z"/>
	
		<pattern  id="SVGID_2_" xlink:href="#ad310e25-2b04-44c8-bb7b-9823891" patternTransform="matrix(1 0 0 -1 -73.2207 -16529.418)"  opacity="0.1">
	</pattern>
	<path fill="url(#SVGID_2_)" d="M762.55,487.63c0,0-9.939-0.27-12.939-0.81c0,0.51,0,0.81,0,0.81c-0.78,0.78,13.76,1.18,13.76,1.18
		c0.198,0.019,0.386,0.095,0.54,0.221C763.38,487.63,762.55,487.63,762.55,487.63z"/>
	
		<pattern  id="SVGID_3_" xlink:href="#ad310e25-2b04-44c8-bb7b-9823891" patternTransform="matrix(1 0 0 -1 -73.2207 -16529.418)"  opacity="0.1">
	</pattern>
	<path fill="url(#SVGID_3_)" d="M779.85,471.51c-0.399-0.39-0.79-5.89-0.79-5.89c-0.203,0.127-0.432,0.208-0.67,0.24
		c0.141,1.659,0.41,4.21,0.67,4.47c0.261,0.26,2,10.22,1.57,14.939c-0.43,4.721,0,4.711,0,4.711s-12.75,1.869-15.84,0.619
		c0,0.17,0.09,0.36,0.12,0.561c0.39,2.359,16.51,0,16.51,0s-0.4,0,0-4.71S780.24,471.91,779.85,471.51z"/>
</g>
<path fill="#BE6F72" d="M766.9,424.55c0.338,0.757,0.853,1.422,1.5,1.94c0.416,0.31,0.898,0.518,1.409,0.609
	c-0.88,0.511-1.84,0.891-2.72,1.4c-1.384,0.931-2.719,1.932-4,3c-1.31,1.053-2.913,1.675-4.59,1.78
	c1.198-1.615,1.442-3.747,0.64-5.59c-0.359-0.594-0.598-1.254-0.699-1.94c0-1.13,1-2,1.93-2.6c0.75-0.511,1.52-1,2.3-1.49
	c0.61-0.38,1.53-1.18,2.3-1.15c0.771,0.03,0.86,0.71,1,1.41C766.168,422.832,766.48,423.716,766.9,424.55z"/>
<path opacity="0.1" enable-background="new    " d="M766.9,424.55c0.338,0.757,0.853,1.422,1.5,1.94
	c0.416,0.31,0.898,0.518,1.409,0.609c-0.88,0.511-1.84,0.891-2.72,1.4c-1.384,0.931-2.719,1.932-4,3
	c-1.31,1.053-2.913,1.675-4.59,1.78c1.198-1.615,1.442-3.747,0.64-5.59c-0.359-0.594-0.598-1.254-0.699-1.94c0-1.13,1-2,1.93-2.6
	c0.75-0.511,1.52-1,2.3-1.49c0.61-0.38,1.53-1.18,2.3-1.15c0.771,0.03,0.86,0.71,1,1.41
	C766.168,422.832,766.48,423.716,766.9,424.55z"/>
<circle fill="#BE6F72" cx="776.11" cy="438.7" r="9.04"/>
<path fill="#FF6F61" d="M788.88,567.01c0,0.79-1.57,2.75-1.57,2.75c-3.192,0.393-6.432-0.013-9.43-1.18
	c-0.79-0.39,0.39-2.75,0.39-2.75l0.091-0.19c0.36-0.926,0.862-1.789,1.489-2.56c0.78-0.78,1.25-4,1.25-4
	c2.44-4,6.771,1.729,6.771,1.729s0.55,3,0.84,4.82C788.81,566.28,788.88,566.81,788.88,567.01z"/>
<path opacity="0.1" enable-background="new    " d="M788.88,567.01c0,0.79-1.57,2.75-1.57,2.75c-3.192,0.393-6.432-0.013-9.43-1.18
	c-0.79-0.39,0.39-2.75,0.39-2.75l0.091-0.19c2.678,1.244,5.608,1.847,8.56,1.761l1.79-1.79
	C788.81,566.28,788.88,566.81,788.88,567.01z"/>
<circle fill="#BE6F72" cx="758.03" cy="419.83" r="8.84"/>
<path fill="#BE6F72" d="M750.9,437.51c-1.94,1.851-2.261,4.78-2.46,7.45l-0.301,3.91c-0.108,1.053-0.132,2.113-0.069,3.17
	c0,0.65,0.16,1.31,0.22,2s0.08,1.56,0.09,2.35v5.78c-0.095,1.192,0.126,2.39,0.64,3.47c0.569,1.084,1.872,1.553,3,1.08
	c0.622-0.479,1.06-1.156,1.24-1.92c0.976-2.345,1.647-4.805,2-7.319c0.08-0.87,0.09-1.74,0.17-2.61s0.23-1.78,0.36-2.66
	c0.56-3.68,0.81-7.4,1.06-11.11c0.07-1.1,1.061-5.43-0.38-5.909c-0.7-0.23-2.149,0.489-2.819,0.729
	C752.636,436.26,751.7,436.8,750.9,437.51z"/>
<path opacity="0.1" enable-background="new    " d="M750.9,437.51c-1.94,1.851-2.261,4.78-2.46,7.45l-0.301,3.91
	c-0.108,1.053-0.132,2.113-0.069,3.17c0,0.65,0.16,1.31,0.22,2s0.08,1.56,0.09,2.35v5.78c-0.095,1.192,0.126,2.39,0.64,3.47
	c0.569,1.084,1.872,1.553,3,1.08c0.622-0.479,1.06-1.156,1.24-1.92c0.976-2.345,1.647-4.805,2-7.319c0.08-0.87,0.09-1.74,0.17-2.61
	s0.23-1.78,0.36-2.66c0.56-3.68,0.81-7.4,1.06-11.11c0.07-1.1,1.061-5.43-0.38-5.909c-0.7-0.23-2.149,0.489-2.819,0.729
	C752.636,436.26,751.7,436.8,750.9,437.51z"/>
<path fill="#FF6F61" d="M769.23,425.53c0,0-6.681,5.109-10.61,6.29c0,0-2.33,2.659-2.73,3.3c-0.399,0.64-1.199,7.7-2,9.28
	c-0.8,1.58-2.75,5.109,0,8.64c0,0,0.78,3.54,0.391,4.72c-0.391,1.18-1.82,5.5-0.521,5.7s5.24,2.94,8.771,2.16s16.71,3,16.71,3
	s2.18-20.25,3.76-23.83l-3.54-1.18c0,0-9.82-5.891-3.93-14.931C775.52,428.68,770,427.5,769.23,425.53z"/>
<path fill="#3F3D56" d="M744.84,449.2l8.12,5.75c0.211,0.155,0.499,0.155,0.71,0l2.2-1.65c0.26-0.224,0.289-0.614,0.065-0.874
	c-0.021-0.023-0.042-0.046-0.065-0.065l-6.25-5.551c-0.165-0.15-0.4-0.196-0.61-0.119L745,448.13
	c-0.318,0.11-0.487,0.457-0.378,0.775C744.663,449.023,744.739,449.127,744.84,449.2z"/>
<path fill="#BE6F72" d="M747.57,466.52c-0.574-1.992-0.86-4.057-0.851-6.13l-0.12-2.77c-0.12-1.075-0.021-2.164,0.29-3.2
	c0.624-1.438,1.861-2.521,3.37-2.95c1.493-0.414,3.054-0.526,4.59-0.33c0.208,0.001,0.411,0.056,0.591,0.16
	c0.156,0.146,0.268,0.333,0.319,0.54c0.46,0.896,0.525,1.943,0.181,2.89c-0.232,0.382-0.547,0.706-0.92,0.95
	c-1.091,0.78-2.36,1.3-3.391,2.15c-0.209,0.142-0.37,0.344-0.46,0.58c-0.05,0.207-0.05,0.423,0,0.63
	c0.128,0.55,0.302,1.089,0.521,1.61c0.088,0.262,0.243,0.496,0.449,0.68c0.19,0.16,0.44,0.22,0.641,0.37
	c0.43,0.35,1.33,0.81,1.28,1.359c-0.15,2-1.351,4.24-1.82,6.221C751.34,473.15,748.15,468.21,747.57,466.52z"/>
<g opacity="0.1">
	<path d="M760.2,465.62h-0.22c0.849,0.165,1.721,0.165,2.569,0h0.25C761.938,465.494,761.063,465.494,760.2,465.62z"/>
	<path d="M780.83,444.2c-1.41,3.17-3.49,20.34-3.86,23.75c1.38,0.359,2.29,0.62,2.29,0.62s2.16-20.2,3.74-23.78L780.83,444.2z"/>
</g>
<path fill="#BE6F72" d="M776.42,438.98c0.148,0.797,0.614,1.501,1.29,1.949c0.835,0.7,1.602,1.477,2.29,2.32
	c0.988,1.39,1.754,2.925,2.27,4.55c0.751,2.035,1.382,4.112,1.891,6.22c-5,2.32-10.68,2.211-16,3.74
	c-2.291,0.604-4.368,1.833-6,3.55c-1.646,1.747-2.453,4.122-2.21,6.511c0.008,0.138,0.049,0.271,0.12,0.39
	c0.176,0.198,0.436,0.303,0.699,0.28c1.329-0.002,2.62-0.445,3.67-1.26c1.038-0.812,1.98-1.737,2.811-2.761
	c0.515-0.671,1.208-1.184,2-1.479c2.89-0.88,6-0.83,9-0.88c4.487-0.088,8.965-0.442,13.41-1.061c0.592,0.07,1.129-0.353,1.2-0.944
	c0.01-0.085,0.01-0.171,0-0.256c0.439-5.899-1.75-11.659-4-17.13c-0.9-2.193-1.827-4.376-2.78-6.55
	c-0.785-2.123-1.936-4.093-3.4-5.82c-0.556-0.627-1.237-1.132-2-1.479c-0.86-0.311-1.766-0.479-2.68-0.5
	c-1.455-0.196-2.929-0.224-4.39-0.08c-0.233,0.736-0.375,1.499-0.42,2.27c0.079,2.7,1.26,5.23,2.42,7.671
	C775.76,438.6,776.19,438.62,776.42,438.98z"/>
<path opacity="0.1" fill="none" stroke="#000000" stroke-miterlimit="10" enable-background="new    " d="M760.41,444.04
	c-0.677,1.158-1.022,2.479-1,3.82c0.002,0.529,0.087,1.056,0.25,1.56c0.553,1.433,1.727,2.536,3.189,3"/>
<path fill="#3F3D56" d="M765.5,411.19c-0.492-0.002-0.982,0.075-1.45,0.229c-1.31-2-4.39-3.38-8-3.38c-4.78,0-8.649,2.47-8.649,5.51
	s3.869,5.5,8.649,5.5c1.79,0.02,3.563-0.355,5.19-1.1c1.132,2.342,3.948,3.322,6.29,2.19c2.342-1.133,3.323-3.948,2.19-6.291
	c-0.786-1.626-2.434-2.66-4.24-2.659H765.5z"/>
<path opacity="0.1" enable-background="new    " d="M765.89,419.44c-1.81,0-3.458-1.038-4.239-2.671
	c-1.629,0.744-3.4,1.12-5.19,1.101c-4.77,0-8.64-2.46-8.64-5.5c-0.016-0.183-0.016-0.367,0-0.55
	c-0.285,0.532-0.436,1.126-0.44,1.729c0,3,3.87,5.5,8.65,5.5c1.79,0.02,3.562-0.355,5.189-1.1c1.131,2.343,3.946,3.326,6.289,2.195
	c1.346-0.648,2.304-1.897,2.581-3.365C769.313,418.396,767.684,419.43,765.89,419.44z"/>
<path opacity="0.1" enable-background="new    " d="M746.23,411.37c2.727-5.584,8.945-8.548,15-7.15
	c6.645-4.103,15.356-2.042,19.46,4.603c1.169,1.895,1.875,4.039,2.06,6.258c0-0.391,0-0.78,0-1.18
	c-0.017-7.81-6.361-14.127-14.171-14.109c-2.613,0.005-5.175,0.735-7.399,2.109c-6.055-1.398-12.273,1.565-15,7.149
	c-3.335,3.154-5.184,7.57-5.09,12.16c0,0.4,0,0.79,0,1.18C741.286,418.184,743.133,414.224,746.23,411.37z"/>
<path fill="none" stroke="#3F3D56" stroke-width="4" stroke-miterlimit="10" d="M836.39,414.37c2.61-4.83-0.35-10.76-3.76-15.07
	c-3.41-4.31-7.55-8.79-7.46-14.29c0.12-7.89,8.5-12.55,15.2-16.739c4.967-3.113,9.546-6.806,13.64-11
	c1.721-1.607,3.143-3.507,4.2-5.61c1.38-3.091,1.34-6.601,1.26-10c-0.293-11.267-0.85-22.521-1.67-33.761"/>
<path fill="#2424ED" d="M870.52,307.3c-0.193-4.188-2.508-7.986-6.14-10.08l-2.76,5.45l0.08-6.601
	c-1.313-0.391-2.683-0.557-4.05-0.489c-6.792,0.317-12.04,6.079-11.724,12.87c0.317,6.791,6.079,12.04,12.87,11.723
	c6.791-0.316,12.04-6.078,11.724-12.869C870.521,307.302,870.521,307.302,870.52,307.3L870.52,307.3z"/>
<path fill="#EF233C" d="M848.57,390.63c-3.109,6.046-10.53,8.428-16.577,5.319c-6.046-3.108-8.428-10.53-5.318-16.577
	c3.108-6.046,10.53-8.428,16.576-5.318c2.731,1.404,4.839,3.778,5.909,6.656l-7.69,6.26l8.46-2
	C849.938,386.938,849.472,388.88,848.57,390.63z"/>
<path fill="#EF233C" d="M842.49,366.72c-6.791,0.326-12.561-4.914-12.888-11.704c-0.275-5.734,3.449-10.897,8.978-12.446
	l-0.061,5.07l2.79-5.51l0,0c6.792-0.311,12.552,4.938,12.87,11.73c0.322,6.785-4.917,12.547-11.703,12.869c-0.005,0-0.011,0-0.017,0
	L842.49,366.72z"/>
<path fill="#2424ED" d="M872.37,346.84c-6.79,0.346-12.574-4.878-12.92-11.668s4.878-12.574,11.668-12.92
	c2.339-0.119,4.664,0.432,6.702,1.588l-2.181,6l4.48-4.3c2.411,2.188,3.851,5.248,4,8.5c0.06,1.139-0.045,2.281-0.311,3.391
	C882.521,342.767,877.855,346.605,872.37,346.84z"/>
<path opacity="0.1" enable-background="new    " d="M868.87,310.58c-2.84,0.319-5.61,1.2-8.46,1.38c-2.851,0.18-6-0.51-7.79-2.73
	c-0.837-1.286-1.595-2.621-2.271-4c-0.78-1.211-1.844-2.213-3.1-2.92c-3.095,6.054-0.697,13.47,5.356,16.564
	c6.053,3.096,13.47,0.697,16.564-5.355c0.491-0.961,0.854-1.982,1.079-3.039C869.79,310.5,869.33,310.53,868.87,310.58z"/>
<path opacity="0.1" enable-background="new    " d="M872.37,346.84c-6.797,0.313-12.561-4.944-12.873-11.741
	c-0.093-2.005,0.307-4.003,1.163-5.818c0.979,0.655,1.82,1.494,2.479,2.47c0.731,1.404,1.546,2.764,2.44,4.069
	c1.91,2.261,5.189,3,8.16,2.861c2.97-0.141,5.84-1,8.8-1.25c0.41,0,0.83-0.07,1.24-0.08
	C882.525,342.708,877.867,346.583,872.37,346.84z"/>
<path opacity="0.1" enable-background="new    " d="M842.49,366.72c-6.785,0.332-12.555-4.898-12.887-11.684
	c-0.096-1.947,0.273-3.89,1.076-5.666c1.01,0.672,1.89,1.518,2.601,2.5c1,1.35,1.55,2.91,2.67,4.15
	c2.08,2.319,5.569,3.129,8.72,3.06c3.15-0.07,6-0.82,9-1.05C852.148,362.995,847.677,366.472,842.49,366.72z"/>
<path opacity="0.1" enable-background="new    " d="M848.57,390.63c-3.208,6.001-10.673,8.266-16.673,5.058
	c-5.4-2.886-7.861-9.3-5.777-15.058c1.016,0.663,1.926,1.476,2.7,2.41c1.18,1.43,1.949,3,3.3,4.38c2.52,2.47,6.58,3.479,10.2,3.58
	C844.409,390.998,846.496,390.874,848.57,390.63z"/>
<path fill="none" stroke="#3F3D56" stroke-width="4" stroke-miterlimit="10" d="M995.39,566.37c2.61-4.83-0.35-10.76-3.76-15.07
	c-3.41-4.31-7.55-8.79-7.46-14.29c0.12-7.89,8.5-12.55,15.2-16.74c4.967-3.112,9.546-6.805,13.64-11
	c1.721-1.606,3.143-3.506,4.2-5.609c1.38-3.09,1.34-6.6,1.26-10c-0.286-11.267-0.843-22.521-1.67-33.76"/>
<path fill="#EF233C" d="M1029.52,459.3c-0.193-4.187-2.508-7.986-6.14-10.08l-2.76,5.45l0.08-6.6c-1.297-0.387-2.649-0.552-4-0.49
	c-6.792,0.316-12.04,6.079-11.724,12.87c0.317,6.791,6.079,12.04,12.87,11.723c6.792-0.316,12.04-6.078,11.724-12.87
	c0-0.001,0-0.002,0-0.003H1029.52z"/>
<path fill="#EF233C" d="M1007.57,542.63c-3.109,6.047-10.53,8.428-16.577,5.319c-6.046-3.108-8.428-10.53-5.319-16.576
	c3.109-6.047,10.53-8.428,16.577-5.319c2.73,1.404,4.839,3.778,5.909,6.656l-7.69,6.26l8.46-2
	C1008.938,538.938,1008.472,540.88,1007.57,542.63z"/>
<path fill="#EF233C" d="M1001.49,518.72c-6.791,0.327-12.561-4.913-12.888-11.704c-0.275-5.734,3.449-10.898,8.978-12.445
	l-0.061,5.069l2.79-5.51l0,0c6.792-0.311,12.552,4.938,12.87,11.73c0.322,6.785-4.918,12.547-11.703,12.869
	c-0.006,0-0.011,0-0.017,0L1001.49,518.72z"/>
<path fill="#EF233C" d="M1031.37,498.84c-6.79,0.346-12.574-4.878-12.92-11.668c-0.347-6.79,4.878-12.574,11.667-12.92
	c2.34-0.119,4.665,0.432,6.703,1.588l-2.181,6l4.48-4.3c2.41,2.188,3.851,5.247,4,8.5c0.06,1.139-0.045,2.28-0.311,3.39
	C1041.521,494.767,1036.855,498.605,1031.37,498.84z"/>
<path opacity="0.1" enable-background="new    " d="M1027.87,462.58c-2.84,0.32-5.61,1.2-8.46,1.38s-6-0.51-7.79-2.729
	c-0.837-1.287-1.595-2.623-2.271-4c-0.78-1.212-1.844-2.214-3.1-2.92c-3.095,6.053-0.697,13.469,5.356,16.564
	c6.053,3.095,13.47,0.696,16.564-5.356c0.491-0.961,0.854-1.982,1.079-3.038C1028.79,462.5,1028.33,462.53,1027.87,462.58z"/>
<path opacity="0.1" enable-background="new    " d="M1031.37,498.84c-6.797,0.313-12.561-4.944-12.873-11.741
	c-0.093-2.005,0.307-4.003,1.163-5.818c0.979,0.655,1.82,1.494,2.479,2.47c0.731,1.404,1.546,2.764,2.44,4.07
	c1.91,2.26,5.189,3,8.16,2.859c2.97-0.14,5.84-1,8.8-1.25c0.41,0,0.83-0.069,1.24-0.08
	C1041.525,494.708,1036.867,498.583,1031.37,498.84z"/>
<path opacity="0.1" enable-background="new    " d="M1001.49,518.72c-6.785,0.332-12.555-4.899-12.887-11.684
	c-0.095-1.947,0.273-3.89,1.076-5.666c1.01,0.671,1.89,1.518,2.601,2.5c1,1.35,1.55,2.91,2.67,4.149
	c2.08,2.32,5.569,3.131,8.72,3.061s6-0.82,9-1.05C1011.149,514.995,1006.677,518.471,1001.49,518.72z"/>
<path opacity="0.1" enable-background="new    " d="M1007.57,542.63c-3.208,6.001-10.673,8.265-16.674,5.058
	c-5.399-2.887-7.859-9.3-5.776-15.058c1.016,0.663,1.926,1.476,2.7,2.41c1.18,1.43,2,3,3.3,4.38c2.52,2.47,6.58,3.48,10.2,3.58
	C1003.408,542.998,1005.495,542.874,1007.57,542.63z"/>
<linearGradient id="SVGID_4_" gradientUnits="userSpaceOnUse" x1="462.9624" y1="-84.9521" x2="462.9624" y2="16.0378" gradientTransform="matrix(1 0 0 -1 -52 413.1104)">
	<stop  offset="0" style="stop-color:#808080;stop-opacity:0.25"/>
	<stop  offset="0.54" style="stop-color:#808080;stop-opacity:0.12"/>
	<stop  offset="1" style="stop-color:#808080;stop-opacity:0.1"/>
</linearGradient>
<path fill="url(#SVGID_4_)" d="M478,425.28c0.026-3.111-1.425-6.05-3.91-7.92c-0.031-5.599-4.088-10.36-9.609-11.28
	c-0.842-4.012-3.757-7.27-7.65-8.55l0,0c-0.465-0.146-0.939-0.256-1.42-0.33h-0.141h-0.25h-0.199H454.6h-0.27h-0.61
	c-5.486,0.127-10.082,4.19-10.88,9.62c-3.51-0.811-6.72,0.239-7.31,2.46c-0.148,0.59-0.113,1.21,0.1,1.779
	c0.601,1.721,2.55,3.37,5.16,4.181l0.34,0.1l0.51,0.13h0.11l0,0c-0.558,1.186-0.844,2.48-0.84,3.79
	c-0.017,3.277,1.802,6.289,4.71,7.8l-0.23,0.141c-0.325,0.296-0.584,0.657-0.76,1.06c-0.631,1.116-1.125,2.305-1.47,3.54
	c-0.25,1.061-0.29,2.16-0.601,3.21c-0.579,1.93-2.06,3.561-2.229,5.57c-0.08,0.9,0.07,2-0.57,2.58
	c-0.157,0.137-0.328,0.257-0.51,0.359c-0.443,0.313-0.82,0.711-1.11,1.17c-0.191,0.417-0.455,0.796-0.779,1.12
	c-0.58,0.431-1.53,0.391-1.811,1.061s0.45,1.46,0.28,2.189c-0.17,0.73-0.79,0.87-1.24,1.28c-0.523,0.563-0.892,1.252-1.07,2
	c-1.915,0.365-3.895-0.14-5.399-1.38c0.255,0.646,0.442,1.315,0.56,2c-0.87-0.664-1.857-1.159-2.91-1.46
	c-1.184-0.539-2.24-1.322-3.1-2.3l1.66-0.23L417,437.78l-2.17-0.45l1.939,3.729c-0.328,0.15-0.57,0.44-0.659,0.79
	c-0.104,0.415-0.127,0.847-0.07,1.271c0.1,1.01,0.267,2.012,0.5,3l0.56,2.62c0.051,0.239,0.11,0.489,0.181,0.729
	c-0.731-0.036-1.464,0.045-2.17,0.24c-1.454-0.541-2.969-0.9-4.511-1.07c-0.33-0.067-0.67-0.067-1,0
	c-0.373,0.178-0.699,0.441-0.949,0.771c-1.263,1.464-2.385,3.045-3.351,4.72c-4,6.86-9.21,12.85-14.14,19.05
	c-3.4,1.38-6.83,2.69-10.26,4L373.52,480c-1.438,0.652-2.999,0.994-4.58,1c-0.699,0-1.569-0.15-2,0.45
	c-0.192,0.312-0.344,0.648-0.449,1l-0.761,0.08l0,0c-0.35-1.201-0.953-2.313-1.77-3.261c-0.365,0.063-0.677,0.303-0.83,0.641
	c-0.18,0.33-0.29,0.689-0.5,1c-0.39,0.58-1.08,0.859-1.57,1.35c-0.489,0.49-0.8,1.25-1.34,1.75c-0.736,0.545-1.601,0.89-2.51,1
	c-1.37,0.32-2.692,0.821-3.93,1.49c-0.453,0.283-0.94,0.509-1.45,0.67c-0.563,0.109-1.141,0.13-1.71,0.06l-3.9-0.29
	c-0.351-0.043-0.705-0.026-1.05,0.051c-0.804,0.327-1.304,1.135-1.24,2c0.102,0.855,0.55,1.633,1.24,2.149
	c0.675,0.498,1.424,0.887,2.22,1.15c3.375,1.313,6.854,2.344,10.4,3.08v0.79c2.481,1.251,5.222,1.901,8,1.899
	c0.206,0.015,0.412-0.023,0.6-0.109c0.256-0.191,0.434-0.469,0.5-0.78c0.83-2.48,1.354-5.053,1.561-7.66l0,0
	c0.488-0.032,0.966-0.154,1.41-0.359c1.34-0.37,2.68,0.55,4.069,0.699c1.71,0.19,3.29-0.81,4.91-1.42l0.7-0.229
	c-0.461,0.593-1.007,1.115-1.62,1.55c-0.67,0.48-1.42,0.84-2.07,1.34c-0.55,0.499-1.139,0.953-1.76,1.36
	c-0.438,0.202-0.889,0.376-1.35,0.52c-0.682,0.254-1.33,0.59-1.931,1c-0.531,0.317-0.98,0.756-1.31,1.28
	c-0.334,0.545-0.375,1.219-0.11,1.8c0.28,0.473,0.751,0.801,1.29,0.9c0.527,0.08,1.063,0.08,1.591,0
	c2.119-0.16,4.229-0.35,6.34-0.54c0.892-0.057,1.777-0.184,2.649-0.38c0.46-0.11,0.92-0.26,1.38-0.39c0.79-0.2,1.597-0.32,2.41-0.36
	c0.236-0.019,0.473,0.005,0.7,0.07c0.49,0.159,0.84,0.659,1.34,0.76c0.339,0.043,0.684-0.002,1-0.13c1.541-0.332,3.113-0.5,4.69-0.5
	c0.689,0,1.5-0.17,1.819-0.811c0.32-0.64-0.26-1.67-0.52-2.52c-0.134-0.544-0.207-1.101-0.22-1.66
	c-0.121-1.378-0.516-2.717-1.16-3.94c-0.348-0.57-0.64-1.173-0.87-1.8c3.024-1.148,5.917-2.617,8.63-4.38
	c1.486-1.076,3.152-1.879,4.92-2.37c2.088-0.249,4.205-0.002,6.181,0.72c4.808,1.394,9.537,3.043,14.17,4.94
	c2.21,0.91,4.409,1.87,6.689,2.56c0.665,0.893,1.469,1.672,2.38,2.311c1.575,0.886,3.344,1.37,5.15,1.41
	c2.41,0.22,4.83,0.31,7.25,0.27c1.853,0.08,3.699-0.262,5.399-1c0.406-0.203,0.786-0.454,1.131-0.75
	c1.321,0.112,2.626-0.367,3.56-1.31c1.312-1.124,2.255-2.614,2.71-4.28c0.59-2.28,0.14-5,1.54-6.82c0.37-0.5,0.86-0.899,1.229-1.399
	c0.448-0.686,0.672-1.492,0.641-2.311c0.017-0.032,0.036-0.063,0.06-0.09c0.308-0.734,0.51-1.509,0.601-2.3
	c0.171-0.622,0.389-1.23,0.649-1.82c0.711-1.764,1.332-3.563,1.86-5.39c0.36-1.215,0.648-2.451,0.859-3.7c0.15-1,0.24-2,0.32-3
	c0.106-1.576,0.412-3.132,0.91-4.63c1.252-3.567,1.96-7.303,2.1-11.08v-0.22c3.819-0.439,6.673-3.718,6.58-7.561
	c0.001-1.113-0.234-2.214-0.689-3.229C477.545,428.788,478.007,427.049,478,425.28z M442.22,468.75c0.11,0.39,0.24,0.77,0.37,1.15
	c-0.59-0.57-1.16-1.16-1.75-1.74c0.23,0.08,0.47,0.15,0.69,0.24c0.23,0.094,0.452,0.211,0.66,0.35H442.22z M439.39,466.83
	c-3.46-3-7.46-5.33-11-8.24c1.931,0.95,3.811,2.061,5.67,3.12c2.207,1.26,4.443,2.47,6.71,3.63c-0.372,0.581-0.85,1.087-1.409,1.49
	H439.39z M440.86,459.27l0.17-0.17c0,0.431,0,0.82,0,1.19l-0.931-0.32c0.258-0.218,0.502-0.452,0.73-0.7H440.86z M410.43,467.37
	c1.42-1.606,2.654-3.368,3.681-5.25c1.37,2.39,3.6,4.12,5.489,6.13C416.55,467.86,413.49,467.53,410.43,467.37z"/>
<polygon fill="#2F2E41" points="415.35,438.25 417.53,438.69 424.96,449.68 421.69,450.12 "/>
<path fill="#FBBEBE" d="M362.49,482.83c0.591,1.939,1.319,3.834,2.18,5.67c2.462-0.521,4.885-1.212,7.25-2.07
	c-0.467-0.693-0.971-1.361-1.51-2c-0.587-0.639-1.281-1.17-2.05-1.569c-0.82-0.186-1.671-0.186-2.49,0
	C364.75,482.83,363.62,482.85,362.49,482.83z"/>
<path fill="#2F2E41" d="M368.37,485.76c-1.196-0.535-2.102-1.564-2.48-2.819c-0.381-1.246-1.025-2.396-1.89-3.37
	c-0.37,0.051-0.688,0.289-0.84,0.63c-0.18,0.319-0.29,0.68-0.49,1c-0.4,0.569-1.1,0.85-1.6,1.33c-0.5,0.479-0.801,1.229-1.34,1.72
	c-0.743,0.547-1.614,0.892-2.53,1c-1.392,0.314-2.736,0.809-4,1.47c-0.463,0.277-0.956,0.498-1.47,0.66
	c-0.57,0.085-1.15,0.085-1.721,0l-3.939-0.28c-0.331-0.054-0.669-0.054-1,0c-0.828,0.3-1.344,1.125-1.25,2
	c0.094,0.854,0.549,1.625,1.25,2.12c0.685,0.491,1.439,0.876,2.239,1.141c3.431,1.292,6.963,2.295,10.561,3v0.779
	c2.505,1.229,5.259,1.87,8.05,1.87c0.205,0.013,0.41-0.021,0.6-0.1c0.256-0.191,0.434-0.469,0.5-0.78
	c0.948-2.762,1.504-5.644,1.65-8.56c0.064-0.741,0.007-1.488-0.17-2.21c-0.22-0.71,0.52-0.41-0.16-0.69"/>
<path fill="#2F2E41" d="M443.93,470.91c-11.68,0.7-23.22-2.72-34.92-3.08c-1.452-0.096-2.91-0.005-4.34,0.27
	c-1.488,0.404-2.93,0.964-4.3,1.67c-6.271,2.92-12.76,5.341-19.24,7.75l-7.45,2.771c-1.448,0.654-3.02,0.995-4.609,1
	c-0.71,0-1.58-0.15-2,0.44c-1.21,1.8-0.641,4.43,0.16,6.449c0.26,0.65,0.699,1.36,1.399,1.431c0.491-0.033,0.973-0.155,1.42-0.36
	c1.351-0.36,2.7,0.55,4.101,0.7c1.72,0.18,3.319-0.8,4.949-1.4c2.7-1,5.641-1,8.48-1.439c4.75-0.79,9.16-3,13.28-5.511
	c1.498-1.067,3.174-1.859,4.95-2.34c2.104-0.248,4.235-0.005,6.229,0.71c4.846,1.367,9.615,2.99,14.29,4.86
	c2.43,1.058,4.921,1.969,7.46,2.729c5.542,1.45,11.4,1.1,16.73-1c1.869-0.739,3.899-2,4-4.06c0.069-1.15-0.83-2.16-1.421-3.15
	c-0.38-0.63-0.77-1.26-1.18-1.87C449.92,474.58,447.48,470.7,443.93,470.91z"/>
<path opacity="0.1" enable-background="new    " d="M443.93,470.91c-11.68,0.7-23.22-2.72-34.92-3.08
	c-1.452-0.096-2.91-0.005-4.34,0.27c-1.488,0.404-2.93,0.964-4.3,1.67c-6.271,2.92-12.76,5.341-19.24,7.75l-7.45,2.771
	c-1.448,0.654-3.02,0.995-4.609,1c-0.71,0-1.58-0.15-2,0.44c-1.21,1.8-0.641,4.43,0.16,6.449c0.26,0.65,0.699,1.36,1.399,1.431
	c0.491-0.033,0.973-0.155,1.42-0.36c1.351-0.36,2.7,0.55,4.101,0.7c1.72,0.18,3.319-0.8,4.949-1.4c2.7-1,5.641-1,8.48-1.439
	c4.75-0.79,9.16-3,13.28-5.511c1.498-1.067,3.174-1.859,4.95-2.34c2.104-0.248,4.235-0.005,6.229,0.71
	c4.846,1.367,9.615,2.99,14.29,4.86c2.43,1.058,4.921,1.969,7.46,2.729c5.542,1.45,11.4,1.1,16.73-1c1.869-0.739,3.899-2,4-4.06
	c0.069-1.15-0.83-2.16-1.421-3.15c-0.38-0.63-0.77-1.26-1.18-1.87C449.92,474.58,447.48,470.7,443.93,470.91z"/>
<path fill="#FBBEBE" d="M384.92,483.37c1.827,0.62,3.67,1.193,5.53,1.72c1-1.71,3-2.9,3.43-4.859c0.025-0.085,0.025-0.176,0-0.261
	c-0.049-0.083-0.122-0.149-0.21-0.189c-1.337-0.734-2.818-1.168-4.34-1.271c-1.2-0.07-1.75,1.18-2.29,2.061
	C386.83,480.96,385.41,483.56,384.92,483.37z"/>
<path fill="#2F2E41" d="M387.48,482.15c-1.105-0.188-2.081-0.83-2.69-1.771c-0.25-0.45-0.53-1.06-1.05-1
	c-0.521,0.061-0.69,0.601-0.8,1.07c-0.347,1.771-0.852,3.509-1.511,5.189c-0.659,1.69-1.778,3.162-3.229,4.25
	c-0.681,0.471-1.431,0.82-2.101,1.32c-0.555,0.491-1.146,0.939-1.77,1.34c-0.441,0.198-0.896,0.365-1.36,0.5
	c-0.683,0.258-1.334,0.593-1.939,1c-0.54,0.31-0.996,0.746-1.33,1.271c-0.336,0.533-0.374,1.202-0.101,1.77
	c0.283,0.466,0.754,0.786,1.29,0.88c0.534,0.08,1.077,0.08,1.61,0c2.13-0.149,4.26-0.34,6.39-0.529
	c0.898-0.059,1.791-0.182,2.671-0.37l1.39-0.38c0.794-0.21,1.609-0.331,2.43-0.36c0.239-0.021,0.48,0.002,0.71,0.07
	c0.49,0.16,0.84,0.649,1.351,0.75c0.339,0.032,0.681-0.012,1-0.13c1.554-0.334,3.14-0.498,4.729-0.49c0.7,0,1.521-0.181,1.84-0.8
	c0.4-0.78-0.26-1.65-0.529-2.49c-0.13-0.534-0.203-1.081-0.221-1.63c-0.119-1.36-0.518-2.681-1.17-3.88
	c-0.54-1-1.279-2.101-0.899-3.16c0.188-0.337,0.311-0.707,0.359-1.09C392.4,481.76,388.46,482.37,387.48,482.15z"/>
<path fill="#FBBEBE" d="M426.42,452.17c-2.072-0.908-3.733-2.555-4.66-4.62c-0.189-0.439-0.35-0.91-0.54-1.35
	c-0.609-1.49-1.563-2.816-2.779-3.87c-0.26-0.275-0.622-0.431-1-0.43c-0.379,0.113-0.666,0.424-0.75,0.81
	c-0.112,0.407-0.14,0.832-0.08,1.25c0.102,0.983,0.269,1.959,0.5,2.92l0.569,2.58c0.076,0.395,0.193,0.78,0.351,1.15
	c0.243,0.432,0.565,0.815,0.95,1.13c0.52,0.479,1.05,0.939,1.579,1.399c0.307,0.267,0.643,0.499,1,0.69
	c0.559,0.267,1.156,0.442,1.771,0.52c2.386,0.312,4.663,1.189,6.64,2.561c0,0,0-1.73,0-1.92c-0.025-0.503-0.199-0.986-0.5-1.391
	C428.554,452.933,427.519,452.447,426.42,452.17z"/>
<path opacity="0.1" enable-background="new    " d="M426.42,452.17c-2.072-0.908-3.733-2.555-4.66-4.62
	c-0.189-0.439-0.35-0.91-0.54-1.35c-0.609-1.49-1.563-2.816-2.779-3.87c-0.26-0.275-0.622-0.431-1-0.43
	c-0.379,0.113-0.666,0.424-0.75,0.81c-0.112,0.407-0.14,0.832-0.08,1.25c0.102,0.983,0.269,1.959,0.5,2.92l0.569,2.58
	c0.076,0.395,0.193,0.78,0.351,1.15c0.243,0.432,0.565,0.815,0.95,1.13c0.52,0.479,1.05,0.939,1.579,1.399
	c0.307,0.267,0.643,0.499,1,0.69c0.559,0.267,1.156,0.442,1.771,0.52c2.386,0.312,4.663,1.189,6.64,2.561c0,0,0-1.73,0-1.92
	c-0.025-0.503-0.199-0.986-0.5-1.391C428.554,452.933,427.519,452.447,426.42,452.17z"/>
<ellipse fill="#2F2E41" cx="450.2" cy="429.57" rx="2.84" ry="2.86"/>
<path fill="#2F2E41" d="M448.44,427.85c-0.761-0.182-1.562-0.067-2.24,0.32c-0.328,0.292-0.591,0.649-0.771,1.05
	c-0.636,1.095-1.133,2.264-1.479,3.48c-0.25,1-0.29,2.13-0.61,3.16c-0.58,1.899-2.07,3.51-2.24,5.489
	c-0.079,0.891,0.07,1.931-0.579,2.53c-0.159,0.138-0.33,0.262-0.511,0.37c-0.45,0.3-0.832,0.692-1.12,1.15
	c-0.195,0.407-0.463,0.776-0.79,1.09c-0.579,0.43-1.54,0.39-1.819,1c-0.28,0.609,0.45,1.439,0.279,2.16
	c-0.17,0.72-0.8,0.859-1.25,1.26c-0.529,0.56-0.902,1.25-1.079,2c-1.924,0.37-3.913-0.123-5.44-1.351
	c0.66,2.005,0.948,4.112,0.85,6.221c0.101,0.681-0.079,1.374-0.5,1.92c2.256,0.168,4.49,0.557,6.671,1.16
	c0.944,0.314,1.965,0.314,2.909,0c0.506-0.271,0.96-0.631,1.341-1.061c1.199-1.22,2.46-2.55,2.75-4.24
	c0.071-0.954,0.088-1.913,0.05-2.87c0.113-1.187,0.358-2.356,0.729-3.489c0.633-2.352,1.059-4.754,1.271-7.181
	c0.13-1.5,1.43-2.699,2.109-4c1.28-2.529,2.601-5.159,2.69-8C449.7,429.1,449.38,427.95,448.44,427.85z"/>
<path opacity="0.1" enable-background="new    " d="M448.44,427.85c-0.761-0.182-1.562-0.067-2.24,0.32
	c-0.328,0.292-0.591,0.649-0.771,1.05c-0.636,1.095-1.133,2.264-1.479,3.48c-0.25,1-0.29,2.13-0.61,3.16
	c-0.58,1.899-2.07,3.51-2.24,5.489c-0.079,0.891,0.07,1.931-0.579,2.53c-0.159,0.138-0.33,0.262-0.511,0.37
	c-0.45,0.3-0.832,0.692-1.12,1.15c-0.195,0.407-0.463,0.776-0.79,1.09c-0.579,0.43-1.54,0.39-1.819,1
	c-0.28,0.609,0.45,1.439,0.279,2.16c-0.17,0.72-0.8,0.859-1.25,1.26c-0.529,0.56-0.902,1.25-1.079,2
	c-1.924,0.37-3.913-0.123-5.44-1.351c0.66,2.005,0.948,4.112,0.85,6.221c0.101,0.681-0.079,1.374-0.5,1.92
	c2.256,0.168,4.49,0.557,6.671,1.16c0.944,0.314,1.965,0.314,2.909,0c0.506-0.271,0.96-0.631,1.341-1.061
	c1.199-1.22,2.46-2.55,2.75-4.24c0.071-0.954,0.088-1.913,0.05-2.87c0.113-1.187,0.358-2.356,0.729-3.489
	c0.633-2.352,1.059-4.754,1.271-7.181c0.13-1.5,1.43-2.699,2.109-4c1.28-2.529,2.601-5.159,2.69-8
	C449.7,429.1,449.38,427.95,448.44,427.85z"/>
<path fill="#2F2E41" d="M445.78,473.37c-2.431-1.16-4.21-3.311-6.181-5.16c-3.75-3.53-8.34-6-12.29-9.33
	c-2.619-2.189-5-4.74-7.829-6.58c-2.535-1.606-5.406-2.609-8.391-2.93c-0.329-0.076-0.671-0.076-1,0
	c-0.378,0.16-0.706,0.42-0.95,0.75c-1.275,1.438-2.41,2.995-3.39,4.649c-5,8.5-12.11,15.641-18,23.54
	c-0.136,0.164-0.234,0.355-0.29,0.561c-0.024,0.307,0.053,0.612,0.22,0.87l1.2,2.34c0.67,1.32,1.75,2.85,3.19,2.59
	c0.648-0.188,1.229-0.56,1.67-1.07l5.38-5.149l5.64-5.391c3.3-3.149,6.66-6.38,8.82-10.42c1.68,2.92,4.67,4.83,6.71,7.5
	c0.78,1,1.42,2.13,2.12,3.21c1.109,1.721,2.38,3.341,3.64,5l6.47,8.25c0.82,1.166,1.835,2.181,3,3
	c1.596,0.869,3.375,1.346,5.19,1.391c2.431,0.217,4.87,0.303,7.31,0.26c1.869,0.075,3.73-0.267,5.45-1
	c1.75-0.77,2.899-2.479,2.95-4.39c-0.1-0.969-0.418-1.902-0.93-2.73C453.15,478.96,450.13,475.44,445.78,473.37z"/>
<ellipse fill="#E8E8F0" cx="451.95" cy="431.55" rx="2.189" ry="2.2"/>
<path fill="#FBBEBE" d="M451.47,429.9c0.489,0.981,0.575,2.115,0.24,3.159c-0.346,1.026-0.819,2.004-1.41,2.91
	c-0.508,0.935-1.122,1.807-1.83,2.601c3.38,0.159,6.65-1.16,9.62-2.761c2.4-1.29,4.79-2.88,6.07-5.29
	c-0.772,0.185-1.587,0.031-2.24-0.42c-0.645-0.443-1.221-0.979-1.71-1.59l-1.69-1.899c-0.383-0.418-0.719-0.878-1-1.37
	c-0.371-0.674-0.528-1.445-0.449-2.21c-0.674,0.702-1.426,1.326-2.24,1.859c-1.21,0.79-2.54,1.36-3.76,2.141
	c-0.42,0.279-1.381,0.72-1.131,1.279C450.189,428.87,451.13,429.3,451.47,429.9z"/>
<path opacity="0.1" enable-background="new    " d="M451.47,429.9c0.489,0.981,0.575,2.115,0.24,3.159
	c-0.346,1.026-0.819,2.004-1.41,2.91c-0.508,0.935-1.122,1.807-1.83,2.601c3.38,0.159,6.65-1.16,9.62-2.761
	c2.4-1.29,4.79-2.88,6.07-5.29c-0.772,0.185-1.587,0.031-2.24-0.42c-0.645-0.443-1.221-0.979-1.71-1.59l-1.69-1.899
	c-0.383-0.418-0.719-0.878-1-1.37c-0.371-0.674-0.528-1.445-0.449-2.21c-0.674,0.702-1.426,1.326-2.24,1.859
	c-1.21,0.79-2.54,1.36-3.76,2.141c-0.42,0.279-1.381,0.72-1.131,1.279C450.189,428.87,451.13,429.3,451.47,429.9z"/>
<path fill="#E8E8F0" d="M451.51,430.23c-0.701,0.987-0.701,2.312,0,3.3c0.101,0.12,0.46,0.87,0.61,0.88
	c0.148-0.013,0.285-0.085,0.38-0.2c0.769-0.802,1.484-1.653,2.14-2.55c0.67-0.895,1.633-1.524,2.721-1.78
	c1.347-0.052,2.671,0.361,3.75,1.17c0.501,0.229,0.942,0.571,1.29,1c0.241,0.441,0.384,0.929,0.42,1.43
	c0.326,3.019,0.453,6.056,0.38,9.091c0.058,2.191-0.087,4.384-0.431,6.55c-0.22,1.109-0.539,2.2-0.689,3.33
	c-0.117,0.995-0.164,1.998-0.141,3v4.18c-0.026,0.767,0.027,1.534,0.16,2.29c0.2,0.91,0.63,1.76,0.92,2.65
	c0.3,1.022,0.504,2.069,0.61,3.13l0.57,4.319c0.18,1.36,0.319,2.851-0.511,4c-0.369,0.49-0.859,0.891-1.239,1.381
	c-1.41,1.84-1,4.47-1.55,6.72c-0.464,1.646-1.42,3.112-2.74,4.2c-0.953,0.942-2.275,1.415-3.61,1.29
	c-1.76-0.33-2.81-2.16-3.29-3.891c-0.479-1.729-0.649-3.609-1.689-5.069c-0.955-1.105-2.083-2.048-3.341-2.79
	c-1.271-0.754-2.206-1.968-2.609-3.391c-0.11-0.63,0-1.28-0.11-1.92c-0.191-1.641-1.261-3.047-2.79-3.67
	c-0.899-0.35-2-0.479-2.52-1.3c1.287-0.807,2.226-2.065,2.63-3.53c0.397-1.454,0.613-2.952,0.64-4.46l0.3-5
	c0.141-2.25,0.2-4.47,1.19-6.49c0.44-0.899,1-1.75,1.45-2.64c0.609-1.251,1.128-2.544,1.55-3.87c0.72-2.06,1.44-4.12,2.08-6.2
	c0.25-1.01,0.633-1.981,1.14-2.89C449.72,431.56,450.5,430.43,451.51,430.23z"/>
<path fill="#2F2E41" d="M440.36,462.87h1.33l0.279-2c0.036-0.401,0.131-0.796,0.28-1.17c0.22-0.397,0.478-0.772,0.77-1.12
	c1.301-1.85,1.21-4.3,1.53-6.55c0.58-2.973,1.563-5.853,2.92-8.561l2.58-5.75c0.235-0.47,0.423-0.962,0.561-1.47
	c0.107-0.561,0.161-1.13,0.159-1.7c0-0.89,0.28-4.13,0.311-5c0-0.33-0.73-0.149-0.88-0.439c-0.32-0.641-0.761,1.09-1.37,1.47
	c-0.573,0.438-0.99,1.047-1.19,1.74c-0.56,1.439-0.899,3-1.42,4.43c-0.452,1.492-1.282,2.843-2.41,3.92
	c-0.529,0.46-1.14,0.83-1.64,1.33c-1.6,1.58-1.76,4.09-1.81,6.35C440.32,449.73,440.06,462.87,440.36,462.87z"/>
<path fill="#2F2E41" d="M459.5,427.84c-1.253,0.655-2.129,1.856-2.37,3.25c-0.229,1.379-0.632,2.724-1.2,4
	c-1.62,2.82-5.75,3.641-6.899,6.69c-0.289,1.025-0.444,2.084-0.46,3.149c-0.2,2.19-0.92,4.301-1.141,6.48
	c-0.109,1.696-0.069,3.4,0.12,5.09l1.45,17.22c0.277,2.533,0.132,5.095-0.43,7.58c1.486,0.212,3.002-0.039,4.34-0.72
	c1.35-0.62,2.59-1.47,3.899-2.19c2.24-1.239,4.721-2.109,6.69-3.76c0.354-0.281,0.657-0.619,0.9-1c0.301-0.723,0.503-1.482,0.6-2.26
	c0.17-0.609,0.388-1.204,0.65-1.78c0.722-1.738,1.349-3.514,1.88-5.32c0.36-1.194,0.647-2.41,0.859-3.64c0.16-1,0.25-2,0.33-3
	c0.104-1.551,0.414-3.08,0.92-4.55c1.255-3.512,1.967-7.194,2.11-10.92c0.039-0.536,0.002-1.074-0.11-1.601
	c-0.22-0.643-0.515-1.257-0.88-1.829c-0.6-1.131-1-2.37-1.52-3.521c-1.418-2.533-3.451-4.668-5.91-6.21
	C462.17,428.21,460.81,427.37,459.5,427.84z"/>
<path fill="#FBBEBE" d="M429.29,455.94c-1.026-0.539-1.956-1.246-2.75-2.091c-0.36-0.42-0.66-0.89-1-1.31
	c-0.928-0.998-2.133-1.694-3.46-2c-1.313-0.289-2.656-0.42-4-0.39c-0.902-0.061-1.808,0.048-2.67,0.319
	c-0.874,0.293-1.54,1.008-1.771,1.9c-0.073,1.105,0.439,2.169,1.351,2.8c0.78,0.641,1.702,1.087,2.689,1.3
	c0.804,0.143,1.615,0.24,2.431,0.29c4.779,0.5,9.05,3.101,13.239,5.47c3.681,2.094,7.434,4.04,11.261,5.841
	c0.147-1.145,0.212-2.297,0.189-3.45c0-0.86-0.069-2.181-0.88-2.69c-1.152-0.482-2.353-0.841-3.58-1.069
	c-2.468-0.807-4.877-1.782-7.21-2.921C431.81,457.37,430.54,456.67,429.29,455.94z"/>
<ellipse fill="#FBBEBE" cx="450.2" cy="420.35" rx="8.52" ry="8.57"/>
<path fill="#2F2E41" d="M461.93,437.55c-0.68,0.955-1.234,1.993-1.649,3.09c-1,2.16-2.7,4-3.53,6.29s-0.84,5.23-2.55,7.101
	c-0.343,0.286-0.602,0.659-0.75,1.08c-0.007,0.262-0.034,0.522-0.08,0.779c-0.25,0.681-1.36,0.71-1.57,1.41
	c-0.06,0.2,0,0.42-0.1,0.62c-0.17,0.45-0.771,0.521-1.16,0.79c-0.83,0.56-0.66,1.86-1.25,2.67c-0.524,0.614-1.337,0.9-2.13,0.75
	c-0.776-0.158-1.521-0.438-2.21-0.83c-0.248-0.136-0.52-0.221-0.8-0.25c-0.332,0.012-0.653,0.123-0.92,0.32
	c-1.532,1.128-2.396,2.949-2.301,4.85c0.115,1.874,0.562,3.713,1.32,5.431c0.084,0.297,0.23,0.573,0.43,0.81
	c0.609,0.478,1.446,0.541,2.12,0.16c0.652-0.388,1.347-0.7,2.07-0.931c1.32-0.239,2.61,0.67,3.95,0.591
	c0.976-0.145,1.895-0.549,2.66-1.17c1.345-0.804,2.554-1.816,3.579-3c0.58-0.771,1-1.641,1.521-2.46
	c0.661-0.997,1.379-1.955,2.15-2.87l4.92-6c0.488-0.57,0.93-1.179,1.319-1.82c0.438-0.876,0.772-1.798,1-2.75
	c0.526-1.585,0.862-3.227,1-4.89c0.03-1.376-0.09-2.751-0.359-4.101c-0.149-1.344-0.486-2.659-1-3.91
	C466.54,437.05,463.94,435.21,461.93,437.55z"/>
<path fill="#F86D70" d="M479.05,426.37c0.015-3.082-1.45-5.983-3.939-7.8c-0.083-5.573-4.181-10.271-9.69-11.11
	c-1.201-5.994-7.035-9.88-13.029-8.679c-4.594,0.921-8.109,4.633-8.78,9.269c-3.54-0.8-6.78,0.24-7.37,2.42
	c-0.59,2.181,1.91,5,5.64,6c1.177,0.33,2.401,0.451,3.62,0.36c1.756,2.588,4.523,4.313,7.62,4.75c0.925,4.204,4.146,7.525,8.32,8.58
	c0.569,1.366,1.449,2.582,2.569,3.55c0,0.271,0,0.55,0,0.83c-0.006,3.982,3.217,7.215,7.199,7.221
	c3.981,0.007,7.215-3.217,7.221-7.198c0-0.008,0-0.015,0-0.022c0.001-1.101-0.234-2.188-0.689-3.19
	C478.62,429.84,479.073,428.118,479.05,426.37z"/>
<path opacity="0.1" enable-background="new    " d="M438.64,410.93c0.591-2.18,3.83-3.22,7.37-2.42
	c0.867-5.418,5.514-9.422,11-9.479h0.73c-1.019-0.311-2.076-0.469-3.141-0.47c-5.486,0.058-10.133,4.062-11,9.479
	c-3.54-0.8-6.779,0.24-7.369,2.42c-0.591,2.18,1.909,5,5.64,6c0.699,0.193,1.416,0.317,2.14,0.37
	C440.44,415.76,438.05,413.16,438.64,410.93z"/>
<path opacity="0.1" enable-background="new    " d="M466.37,434.96c-0.015-0.273-0.015-0.547,0-0.82
	c-1.126-0.962-2.007-2.179-2.57-3.55c-4.181-1.049-7.404-4.378-8.319-8.59c-3.101-0.429-5.873-2.15-7.631-4.74
	c-0.71,0.06-1.424,0.039-2.13-0.06c1.77,2.379,4.415,3.952,7.351,4.37c0.925,4.204,4.146,7.525,8.319,8.58
	c0.57,1.366,1.45,2.582,2.57,3.55c0,0.27,0,0.55,0,0.83c-0.067,4.034,3.136,7.367,7.17,7.46
	C468.234,440.866,466.339,438.065,466.37,434.96z"/>
<ellipse transform="matrix(-0.6049 -0.7963 0.7963 -0.6049 390.9767 1038.1958)" fill="#FBBEBE" cx="453.049" cy="422.103" rx="1.75" ry="1.31"/>
</svg>
