<?xml version="1.0" encoding="utf-8"?>
<!-- Generator: Adobe Illustrator 16.0.3, SVG Export Plug-In . SVG Version: 6.00 Build 0)  -->
<!DOCTYPE svg PUBLIC "-//W3C//DTD SVG 1.1//EN" "http://www.w3.org/Graphics/SVG/1.1/DTD/svg11.dtd">
<svg version="1.1" id="a2525de1-ea14-4c9e-818b-1d269b9a5d3c"
	 xmlns="http://www.w3.org/2000/svg" xmlns:xlink="http://www.w3.org/1999/xlink" x="0px" y="0px" width="787.066px"
	 height="428.128px" viewBox="0 0 787.066 428.128" enable-background="new 0 0 787.066 428.128" xml:space="preserve">
<path fill="#F2F2F2" d="M178.179,372.277c-0.151,17.215-1.412,34.402-3.775,51.455c-0.083,0.6-0.173,1.197-0.256,1.797l-161.217-0.9
	c-0.474-0.596-0.939-1.197-1.391-1.807c-1.505-2.016-2.916-4.088-4.211-6.232c-6.225-10.332-9.074-22.428-6.219-30.773l0.051-0.13
	c0.617-1.827,1.588-3.515,2.858-4.966c6.511-7.329,19.674-6.107,31.62-0.191C24.926,368.8,16.395,354,15.747,340.791
	c-0.636-12.885,6.102-22.09,13.41-29.912c0.24-0.259,0.479-0.51,0.719-0.762c0.116-0.129,0.24-0.252,0.356-0.381
	c5.701-5.961,12.349-11.838,21.97-11.127c10.552,0.781,22.251,9.619,30.454,19.918c8.203,10.293,13.654,21.984,19.179,33.395
	c5.532,11.404,11.518,23.099,20.395,32.846c-12.024-15.209-21.719-32.514-25.3-49.343s-0.429-32.993,10.287-40.919
	c3.253-2.333,7.018-3.852,10.979-4.431c0.462-0.077,0.932-0.14,1.409-0.194c9.92-1.129,21.765,2.303,31.842,10.504
	c11.098,9.029,18.792,22.416,22.621,35.125C177.895,348.216,178.303,360.451,178.179,372.277z"/>
<path fill="#FFFFFF" d="M72.702,424.962l-3.083-0.018c-0.979-0.611-1.962-1.217-2.951-1.814c-0.611-0.387-1.23-0.758-1.849-1.137
	c-10.226-6.246-20.516-12.236-30.869-17.971c-10.344-5.74-20.74-11.217-31.188-16.429c-0.571-0.249-0.884-0.87-0.743-1.478
	c0.011-0.038,0.029-0.074,0.051-0.107c0.146-0.273,0.472-0.387,0.947-0.154c1.282,0.643,2.571,1.285,3.852,1.943
	c10.477,5.301,20.908,10.865,31.295,16.695c10.379,5.828,20.7,11.912,30.961,18.254c0.215,0.131,0.432,0.27,0.647,0.4
	C70.752,423.751,71.723,424.357,72.702,424.962z"/>
<path fill="#FFFFFF" d="M112.45,425.183l-1.906-0.01c-0.43-0.602-0.853-1.203-1.282-1.805
	c-10.102-14.166-20.201-28.332-30.299-42.497c-16.536-23.19-33.066-46.382-49.592-69.573c-0.098-0.125-0.17-0.268-0.214-0.42
	c-0.141-0.514,0.236-0.814,0.719-0.762c0.413,0.059,0.779,0.293,1.007,0.641c9.271,13.006,18.539,26.008,27.805,39.003
	c16.45,23.075,32.897,46.147,49.342,69.218c1.046,1.465,2.092,2.936,3.138,4.4C111.598,423.98,112.028,424.582,112.45,425.183z"/>
<path fill="#FFFFFF" d="M154.919,414.115c-0.097,3.211-0.31,6.373-0.588,9.506c-0.054,0.598-0.107,1.197-0.162,1.797l-2-0.012
	c0.062-0.6,0.123-1.197,0.176-1.797c0.423-4.525,0.723-9.102,0.763-13.801c0.053-13.033-1.217-26.036-3.791-38.811
	c-2.735-13.756-6.664-27.247-11.739-40.321c-5.328-13.789-11.75-27.13-19.208-39.894c-0.141-0.207-0.203-0.459-0.177-0.708
	c0.083-0.569,0.841-0.739,1.409-0.194c0.112,0.107,0.209,0.229,0.287,0.363c0.922,1.586,1.828,3.178,2.717,4.773
	c7.182,12.834,13.33,26.221,18.384,40.032c4.814,13.117,8.476,26.628,10.944,40.382
	C154.248,388.189,155.248,401.152,154.919,414.115z"/>
<path fill="#CCCCCC" d="M713.398,331.611c0-7.732-29.102-14-65-14s-65,6.268-65,14c0,4.955,11.964,9.306,30,11.794v76.706
	c0,3.59,2.91,6.5,6.5,6.5s6.5-2.91,6.5-6.5v-75.324c6.872,0.532,14.276,0.824,22,0.824c7.723,0,15.128-0.292,22-0.824v75.324
	c0,3.59,2.91,6.5,6.5,6.5s6.5-2.91,6.5-6.5v-76.706C701.434,340.917,713.398,336.566,713.398,331.611z"/>
<circle fill="#2F2E41" cx="655.586" cy="175.468" r="28"/>
<polygon fill="#A0616A" points="585.905,415.035 573.645,415.035 567.813,367.746 585.907,367.746 "/>
<path fill="#2F2E41" d="M564.889,411.531h23.644l0,0v14.887l0,0h-38.531l0,0l0,0C550.001,418.195,556.666,411.531,564.889,411.531z"
	/>
<polygon fill="#A0616A" points="566.768,408.193 555.07,404.521 563.662,357.656 580.926,363.074 "/>
<path fill="#2F2E41" d="M547.764,398.556l22.56,7.08l0,0l-4.458,14.203l0,0l-36.763-11.537l0,0l0,0
	C531.564,400.458,539.919,396.095,547.764,398.556L547.764,398.556z"/>
<path fill="#2F2E41" d="M570.756,389.324c-0.537,0-1.069-0.096-1.572-0.285l-9.019-3.383c-2.093-0.791-3.29-2.996-2.814-5.184
	c2.271-10.209,10.01-44.971,14.247-63.615c5.026-22.115,78.343-26.225,81.462-26.389l0.256-0.014l8.248,10.365
	c2.979,9.578,2.035,17.051-2.808,22.207c-14.133,15.047-56.328,5.711-61.359,4.529l-22.427,58.871
	C574.301,388.171,572.625,389.324,570.756,389.324z"/>
<path fill="#2F2E41" d="M583.756,396.324c-0.537,0-1.069-0.096-1.572-0.285l-9.019-3.383c-2.093-0.791-3.29-2.996-2.814-5.184
	c2.271-10.209,10.01-44.971,14.247-63.615c5.026-22.115,78.343-26.225,81.462-26.389l0.256-0.014l8.248,10.365
	c2.979,9.578,2.035,17.051-2.808,22.207c-14.133,15.047-56.327,5.711-61.359,4.529l-22.427,58.871
	C587.301,395.171,585.625,396.324,583.756,396.324z"/>
<path fill="#A0616A" d="M557.661,252.304c0.331,0.443,0.627,0.912,0.885,1.402l49.32,5.195l7.1-9.734l16.091,8.795l-13.944,23.621
	l-60.487-15.422c-4.15,4.047-10.796,3.962-14.842-0.189c-4.047-4.15-3.963-10.795,0.188-14.842
	c4.15-4.046,10.795-3.961,14.842,0.189C557.116,251.63,557.399,251.958,557.661,252.304z"/>
<path fill="#2424ED" d="M672.274,311.787c-0.713-0.002-1.416-0.174-2.05-0.502c-9.862-5.014-29.066-13.699-46.874-15.516
	c-1.232-0.121-2.356-0.757-3.096-1.75c-0.753-1.004-1.056-2.275-0.834-3.512c1.607-8.895,5.293-31.547,4.818-49.701
	c-0.288-11.496,7.43-21.658,18.582-24.467l0,0c3.26-0.86,6.571-1.514,9.913-1.955c13.586-1.721,25.994,7.898,27.715,21.484
	c0.307,2.42,0.254,4.873-0.155,7.277c-3.176,18.814-6.378,45.09-3.595,63.434c0.26,1.676-0.442,3.356-1.819,4.348
	C674.124,311.482,673.212,311.783,672.274,311.787z"/>
<path fill="#2424ED" d="M625.152,263.935c-0.615-0.002-1.223-0.129-1.787-0.373L610.518,258c-2.278-0.989-3.325-3.636-2.342-5.916
	l9.932-22.943c2.518-5.83,9.285-8.516,15.116-5.999c5.831,2.518,8.517,9.285,5.999,15.116c-0.003,0.006-0.005,0.013-0.008,0.02
	l-9.932,22.941C628.569,262.865,626.947,263.931,625.152,263.935L625.152,263.935z"/>
<circle fill="#A0616A" cx="654.563" cy="182.019" r="24.561"/>
<path fill="#2F2E41" d="M629.559,169.952c11.634,7.102,24.75,11.423,38.326,12.628l-4.04-4.841c2.942,1.087,6.037,1.702,9.171,1.821
	c3.131-0.048,6.41-1.254,8.187-3.832c1.608-2.601,1.842-5.824,0.625-8.629c-1.23-2.757-3.147-5.153-5.565-6.96
	c-8.709-6.889-20.289-8.958-30.845-5.512c-3.565,1.065-6.758,3.113-9.213,5.909c-2.328,2.873-6.811,5.432-5.618,8.932
	L629.559,169.952z"/>
<path fill="#2F2E41" d="M658.691,150.131c-7.746-7.855-17.12-13.917-27.463-17.759c-6.639-2.459-13.864-3.979-20.805-2.583
	c-6.94,1.397-13.504,6.198-15.44,13.008c-1.583,5.568,0.052,11.564,2.509,16.806s5.737,10.103,7.725,15.54
	c6.724,18.398-2.741,38.764-21.14,45.488c-4.651,1.699-9.608,2.406-14.55,2.074c6.819,0.915,13.105,4.119,19.771,5.825
	c6.666,1.706,14.533,1.591,19.486-3.185c5.241-5.053,5.347-13.268,5.093-20.543c-0.377-10.815-0.753-21.63-1.13-32.445
	c-0.192-5.516-0.356-11.208,1.633-16.355c1.989-5.148,6.716-9.656,12.234-9.609c4.183,0.035,7.885,2.569,11.239,5.068
	c3.354,2.499,6.904,5.165,11.07,5.536c4.166,0.372,8.923-2.711,8.611-6.882"/>
<path fill="#A0616A" d="M613.269,305.477c-6.077-0.007-10.998-4.939-10.991-11.017c0.007-6.078,4.939-10.999,11.017-10.992
	c1.447,0.002,2.881,0.289,4.217,0.846l0,0c0.452,0.19,0.891,0.412,1.312,0.664l44.741-20.087l1.257-12.134l19.286-0.517
	l-0.128,20.202c-0.049,4.805-3.244,9.01-7.861,10.342l-52.322,14.894c-0.102,0.346-0.221,0.687-0.358,1.019
	C621.72,302.796,617.714,305.468,613.269,305.477L613.269,305.477z"/>
<path fill="#2924ED" d="M682.473,262.144c-0.549,0.277-1.148,0.439-1.762,0.477l-13.974,0.859c-2.479,0.148-4.612-1.736-4.768-4.216
	l-1.534-24.952c-0.401-6.339,4.412-11.803,10.75-12.204c6.339-0.401,11.803,4.411,12.204,10.749
	c0.001,0.015,0.001,0.028,0.002,0.043l1.534,24.951C685.035,259.643,684.071,261.329,682.473,262.144L682.473,262.144z"/>
<path fill="#3F3D56" d="M652.103,308h-79c-1.933,0-3.5-1.566-3.5-3.5l0,0c0-1.933,1.567-3.5,3.5-3.5h79c1.934,0,3.5,1.567,3.5,3.5
	l0,0C655.603,306.433,654.036,308,652.103,308z"/>
<path fill="#3F3D56" d="M538.603,301.5v-49c0.005-3.588,2.912-6.496,6.5-6.5h89c3.589,0.004,6.496,2.912,6.5,6.5v49
	c-0.004,3.589-2.911,6.496-6.5,6.5h-89C541.515,307.996,538.607,305.088,538.603,301.5z"/>
<circle fill="#FFFFFF" cx="589.603" cy="277" r="6"/>
<path fill="#FFB8B8" d="M276.781,219.337c-3.061-4.635-9.299-5.909-13.933-2.848c-0.494,0.326-0.958,0.695-1.387,1.104
	l-31.754-16.39l1.974,18.464l29.852,12.733c4.107,3.782,10.503,3.521,14.286-0.587C278.983,228.376,279.381,223.218,276.781,219.337
	L276.781,219.337z"/>
<path fill="#CCCCCC" d="M248.561,226.769c-1.162,0.533-2.496,0.547-3.669,0.039l-30.162-13.083
	c-10.313-4.472-18.651-12.538-23.462-22.698l-15.857-33.471c-4.918-6.317-3.783-15.426,2.535-20.344s15.426-3.783,20.344,2.534
	c0.008,0.01,0.015,0.02,0.022,0.029l27.873,51.713l25.737,19.441c1.509,1.145,2.143,3.11,1.586,4.921l-2.526,8.16
	c-0.271,0.875-0.803,1.646-1.524,2.211C249.181,226.439,248.88,226.623,248.561,226.769z"/>
<circle fill="#FFB8B8" cx="174.712" cy="93.631" r="24.561"/>
<polygon fill="#FFB8B8" points="184.661,415.828 196.92,415.828 202.753,368.539 184.658,368.539 "/>
<path fill="#2F2E41" d="M220.564,427.21l-38.53,0.002l0,0l-0.001-14.889l0,0h23.644C213.899,412.324,220.564,418.988,220.564,427.21
	L220.564,427.21L220.564,427.21z"/>
<polygon fill="#FFB8B8" points="144.661,415.828 156.92,415.828 162.753,368.539 144.658,368.539 "/>
<path fill="#2F2E41" d="M180.564,427.21l-38.53,0.002l0,0l-0.001-14.889l0,0h23.644C173.899,412.324,180.564,418.988,180.564,427.21
	L180.564,427.21L180.564,427.21z"/>
<path fill="#2F2E41" d="M140.38,402.292c-0.854-0.977-1.247-2.273-1.075-3.559l21.465-160.986l53.329,9.057l5.691-3.415
	l-14.718,152.745c-0.252,2.125-1.963,3.781-4.096,3.963l-16.147,1.346c-2.476,0.207-4.651-1.633-4.858-4.109
	c-0.018-0.211-0.02-0.422-0.008-0.633l4.181-72.742c0.017-0.275-0.193-0.512-0.469-0.529c-0.237-0.014-0.451,0.141-0.513,0.369
	L162.477,400.5c-0.531,1.961-2.311,3.326-4.345,3.328h-14.367C142.468,403.828,141.234,403.267,140.38,402.292z"/>
<path fill="#CCCCCC" d="M177.312,249.016c-1.263-1.144-3.162-1.223-4.516-0.188l-10.662,8.293c-1.958,1.527-4.783,1.178-6.311-0.779
	c-0.354-0.455-0.618-0.973-0.777-1.527c-5.23-18.315-17.079-64.418-14.16-96.866c1.655-18.393,17.537-32.371,35.405-31.198
	c12.215,0.814,20.252,7.861,23.886,20.944c8.923,32.122,18.729,91.044,20.604,102.53c0.303,1.824-0.546,3.646-2.137,4.589
	c-5.044,3.028-10.808,4.65-16.692,4.697C194.834,259.51,186.298,257.032,177.312,249.016z"/>
<path fill="#FFB8B8" d="M181.335,260.443c0.451-5.535-3.67-10.389-9.206-10.84c-0.59-0.047-1.184-0.043-1.773,0.014l-14.872-32.494
	l-9.841,15.748l15.631,28.441c0.897,5.512,6.092,9.252,11.604,8.354C177.49,268.916,180.986,265.102,181.335,260.443
	L181.335,260.443z"/>
<path fill="#CCCCCC" d="M154.543,248.875c-1.243-0.298-2.302-1.109-2.911-2.233l-15.659-28.909
	c-5.355-9.883-6.938-21.375-4.455-32.339l8.179-36.123c0.03-8.006,6.544-14.472,14.551-14.442
	c8.006,0.03,14.472,6.545,14.442,14.551c0,0.011,0,0.022,0,0.033l-9.981,57.893l8.253,31.181c0.481,1.832-0.233,3.77-1.789,4.852
	l-7.023,4.861c-0.753,0.521-1.647,0.801-2.563,0.8C155.235,249,154.885,248.958,154.543,248.875z"/>
<polygon opacity="0.2" enable-background="new    " points="166.697,173.828 157.697,211.828 170.697,243.828 161.697,212.828 "/>
<path fill="#2F2E41" d="M160.697,113.828c-2.185,0.041-4.356-0.352-6.388-1.156c-0.894-0.345-1.822-0.628-2.714-0.973
	c-7.882-3.045-13.074-11.439-13.26-19.886c-0.186-8.448,4.188-16.646,10.685-22.05s14.91-8.178,23.335-8.819
	c9.075-0.691,19.294,1.61,24.365,9.168c1.35,2.012,2.294,4.453,1.494,6.882c-0.24,0.733-0.667,1.39-1.241,1.906
	c-2.265,2.015-4.522,0.5-6.831,0.366c-3.173-0.184-6.023,2.385-7.048,5.394c-1.024,3.009-0.574,6.322,0.253,9.391
	c0.63,1.847,1.027,3.765,1.183,5.71c0.136,1.983-0.764,3.895-2.378,5.055c-1.983,1.199-4.587,0.505-6.571-0.692
	c-1.984-1.196-3.698-2.86-5.841-3.741c-2.143-0.88-5.022-0.685-6.27,1.268c-0.396,0.71-0.665,1.485-0.792,2.289
	C161.558,109.033,161.815,108.733,160.697,113.828L160.697,113.828z"/>
<path fill="#E6E6E6" d="M373.648,197.179c-0.826-1.045-1.124-2.412-0.808-3.706c3.73-15.623,3.736-31.903,0-47.525
	c-0.316-1.293-0.019-2.661,0.808-3.705c0.808-1.03,2.046-1.63,3.355-1.626h39.872c2.104,0.004,3.896,1.529,4.236,3.606
	c2.602,16.892,2.602,34.083,0,50.975c-0.34,2.077-2.133,3.602-4.236,3.606h-39.872C375.694,198.808,374.456,198.208,373.648,197.179
	z"/>
<path fill="#E6E6E6" d="M311.967,56.561c-0.825-1.044-1.123-2.411-0.807-3.705c3.729-15.622,3.729-31.903,0-47.525
	c-0.316-1.293-0.019-2.66,0.807-3.705c0.809-1.03,2.046-1.63,3.355-1.626h39.873c2.104,0.004,3.896,1.529,4.236,3.605
	c2.602,16.893,2.602,34.083,0,50.976c-0.341,2.076-2.133,3.602-4.236,3.605h-39.873C314.013,58.191,312.775,57.591,311.967,56.561z"
	/>
<path fill="#2424ED" d="M410.079,103.599c-2.602-16.893-2.602-34.083,0-50.976c0.34-2.076,2.133-3.602,4.236-3.605h39.873
	c1.309-0.004,2.547,0.596,3.354,1.626c0.826,1.044,1.124,2.411,0.808,3.705c-3.729,15.622-3.728,31.903,0,47.525
	c0.316,1.293,0.019,2.66-0.808,3.705c-0.808,1.03-2.046,1.63-3.354,1.626h-39.873C412.212,107.2,410.419,105.675,410.079,103.599z"
	/>
<path fill="#6680FF" d="M243.156,101.818c-2.601-16.892-2.601-34.083,0-50.975c0.341-2.076,2.133-3.602,4.237-3.606h39.873
	c1.309-0.004,2.547,0.596,3.355,1.626c0.826,1.044,1.124,2.411,0.808,3.705c-3.73,15.622-3.73,31.903,0,47.525
	c0.316,1.293,0.019,2.66-0.807,3.705c-0.808,1.03-2.046,1.63-3.355,1.626h-39.873C245.289,105.42,243.497,103.895,243.156,101.818z"
	/>
<path fill="#2424ED" d="M253.018,219.49c-0.839-1.061-1.142-2.451-0.82-3.766c3.791-15.878,3.791-32.427,0-48.306
	c-0.321-1.315-0.019-2.704,0.821-3.766c0.822-1.047,2.08-1.656,3.411-1.652h40.527c2.139,0.004,3.961,1.555,4.307,3.665
	c2.644,17.17,2.644,34.643,0,51.813c-0.346,2.11-2.168,3.66-4.307,3.664h-40.527C255.097,221.147,253.839,220.537,253.018,219.49z"
	/>
<path fill="#3F3D56" d="M12.582,428.128h773.294c0.657,0.002,1.192-0.529,1.194-1.188s-0.529-1.193-1.187-1.195
	c-0.003,0-0.005,0-0.008,0H12.582c-0.658-0.002-1.193,0.527-1.197,1.186c-0.003,0.656,0.527,1.193,1.184,1.197
	C12.574,428.128,12.578,428.128,12.582,428.128L12.582,428.128z"/>
<path fill="#FFFFFF" d="M289.135,183.822h-21.35c-1.656-0.002-2.998-1.344-3-3v-1.274c0.002-1.656,1.344-2.998,3-3h21.35
	c1.656,0.002,2.998,1.344,3,3v1.274C292.133,182.478,290.791,183.82,289.135,183.822z"/>
<path fill="#FFFFFF" d="M289.135,196.369h-21.35c-1.656-0.002-2.998-1.344-3-3v-1.274c0.002-1.656,1.344-2.998,3-3h21.35
	c1.656,0.002,2.998,1.344,3,3v1.274C292.133,195.025,290.791,196.367,289.135,196.369z"/>
<path fill="#FFFFFF" d="M274.995,71.914h-20.923c-1.656-0.002-2.998-1.344-3-3v-1.172c0.002-1.656,1.344-2.998,3-3h20.923
	c1.656,0.002,2.999,1.344,3,3v1.172C277.994,70.57,276.651,71.912,274.995,71.914z"/>
<path fill="#FFFFFF" d="M408.675,160.043h-20.924c-1.655-0.002-2.998-1.344-3-3v-1.172c0.002-1.656,1.345-2.998,3-3h20.924
	c1.656,0.002,2.998,1.344,3,3v1.172C411.673,158.7,410.331,160.042,408.675,160.043z"/>
<path fill="#FFFFFF" d="M408.675,174.857h-20.924c-1.655-0.002-2.998-1.344-3-3v-1.172c0.002-1.656,1.345-2.998,3-3h20.924
	c1.656,0.002,2.998,1.344,3,3v1.172C411.673,173.513,410.331,174.855,408.675,174.857z"/>
<path fill="#FFFFFF" d="M408.675,189.67h-20.924c-1.655-0.002-2.998-1.344-3-3v-1.172c0.002-1.656,1.345-2.998,3-3h20.924
	c1.656,0.002,2.998,1.344,3,3v1.172C411.673,188.327,410.331,189.668,408.675,189.67z"/>
<path fill="#FFFFFF" d="M274.995,84.259h-20.923c-1.656-0.002-2.998-1.344-3-3v-1.172c0.002-1.656,1.344-2.998,3-3h20.923
	c1.656,0.002,2.999,1.344,3,3v1.172C277.994,82.915,276.651,84.257,274.995,84.259z"/>
<path fill="#FFFFFF" d="M347.172,21.895h-20.923c-1.656-0.002-2.998-1.344-3-3v-1.172c0.002-1.656,1.344-2.998,3-3h20.923
	c1.656,0.002,2.999,1.344,3,3v1.172C350.171,20.551,348.828,21.893,347.172,21.895z"/>
<path fill="#FFFFFF" d="M442.646,74.929h-20.924c-1.656-0.002-2.998-1.344-3-3v-1.172c0.002-1.656,1.344-2.998,3-3h20.924
	c1.656,0.002,2.998,1.344,3,3v1.172C445.645,73.585,444.303,74.927,442.646,74.929z"/>
</svg>
