<?xml version="1.0" encoding="utf-8"?>
<!-- Generator: Adobe Illustrator 16.0.3, SVG Export Plug-In . SVG Version: 6.00 Build 0)  -->
<!DOCTYPE svg PUBLIC "-//W3C//DTD SVG 1.1//EN" "http://www.w3.org/Graphics/SVG/1.1/DTD/svg11.dtd">
<svg version="1.1" id="b1711ec6-bb87-4a18-ab4e-434cd24277cb"
	 xmlns="http://www.w3.org/2000/svg" xmlns:xlink="http://www.w3.org/1999/xlink" x="0px" y="0px" width="1096.46px"
	 height="805.969px" viewBox="0 0 1096.46 805.969" enable-background="new 0 0 1096.46 805.969" xml:space="preserve">
<title>social dashboard</title>
<path opacity="0.1" fill="#2476ED" enable-background="new    " d="M630.012,111.4c-64.721-2.25-126.36-23.14-185.22-46
	c-58.859-22.86-117.159-48.19-180.37-60.3c-40.59-7.79-87.06-8.89-119.8,12.88c-31.5,21-41.68,57.15-47.15,90.72
	c-4.12,25.27-6.54,51.85,4.74,75.5c7.84,16.42,21.74,30.22,31.36,46c33.47,54.72,9.81,122.2-26.45,175.63
	c-17,25.059-36.75,49-49.88,75.66c-13.13,26.66-19.2,57.25-7.71,84.459c11.38,27,38.51,47.24,67.9,61.5
	c59.69,28.939,130,37.23,198.609,41.92c151.83,10.391,304.46,5.891,456.691,1.391c56.34-1.67,112.92-3.359,168.34-12.07
	c30.779-4.84,62.549-12.52,84.889-31c28.371-23.529,35.4-63.381,16.391-92.881c-31.879-49.488-120-61.789-142.311-114.898
	c-12.26-29.23,0.33-61.801,18.16-88.911c38.24-58.17,102.33-109.19,105.701-175.68c2.32-45.66-28.49-91.39-76.131-113
	c-49.93-22.65-119.18-19.8-156,17.69C753.823,98.53,687.163,113.38,630.012,111.4z"/>
<g opacity="0.9">
	<path fill="#3A3768" d="M710.621,248.78h4.279c1.266,0,2.291,1.025,2.291,2.29v68.44c0,1.265-1.025,2.29-2.291,2.29h-4.279
		c-1.266,0-2.291-1.025-2.291-2.29v-68.44C708.33,249.805,709.355,248.78,710.621,248.78z"/>
	<path fill="#3A3768" d="M416.18,191.58h0.391c1.265,0,2.29,1.025,2.29,2.29v19.46c0,1.265-1.025,2.29-2.29,2.29h-0.391
		c-1.265,0-2.29-1.025-2.29-2.29v-19.46C413.89,192.605,414.915,191.58,416.18,191.58z"/>
	<path fill="#3A3768" d="M416,235.59h1.02c1.266,0,2.29,1.025,2.29,2.29v37.26c0,1.265-1.024,2.29-2.29,2.29H416
		c-1.265,0-2.29-1.025-2.29-2.29v-37.26C413.71,236.615,414.735,235.59,416,235.59z"/>
	<path fill="#3A3768" d="M416.09,292.07h0.75c1.265,0,2.29,1.025,2.29,2.29v37.62c0,1.265-1.025,2.29-2.29,2.29h-0.75
		c-1.265,0-2.29-1.025-2.29-2.29v-37.62C413.8,293.095,414.825,292.07,416.09,292.07z"/>
	<path fill="#3A3768" d="M455.7,112.14h218.42c21.533,0,38.99,17.457,38.99,38.99v524.41c0,21.533-17.457,38.99-38.99,38.99H455.7
		c-21.534,0-38.99-17.457-38.99-38.99V151.13C416.71,129.597,434.166,112.14,455.7,112.14z"/>
	<path fill="#E6E8EC" d="M540.18,130.12h33.65c2.139,0,3.871,1.732,3.871,3.87v0.66c0,2.137-1.732,3.87-3.871,3.87h-33.65
		c-2.137,0-3.87-1.733-3.87-3.87v-0.66C536.31,131.853,538.043,130.12,540.18,130.12z"/>
	<circle fill="#E6E8EC" cx="588.73" cy="134.33" r="4.77"/>
</g>
<ellipse opacity="0.1" fill="#EF233C" enable-background="new    " cx="238.04" cy="728.39" rx="199.97" ry="20.38"/>
<ellipse opacity="0.1" fill="#EF233C" enable-background="new    " cx="682.679" cy="796.419" rx="93.682" ry="9.55"/>
<ellipse opacity="0.1" fill="#EF233C" enable-background="new    " cx="1002.781" cy="748.3" rx="93.68" ry="9.55"/>
<path fill="#242EED" d="M671.23,127.82h-33.9v4.09c0,10.703-8.676,19.38-19.379,19.38l0,0H509.77c-10.703,0-19.38-8.677-19.38-19.38
	l0,0v-4.09h-31.84c-12.995,0-23.53,10.535-23.53,23.53c0,0.003,0,0.006,0,0.01v523.93c-0.005,12.996,10.525,23.535,23.521,23.541
	c0.003,0,0.007,0,0.01,0h212.68c13,0,23.539-10.539,23.539-23.541V151.36C694.769,138.359,684.23,127.82,671.23,127.82z"/>
<path fill="#2433ED" d="M815.72,85.71c0,0-84.201-5.08-74.27,53.92c0,0-2,10.43,7.479,15.16c0,0,0.15-4.37,8.631-2.89
	c3.021,0.511,6.094,0.659,9.15,0.44c4.133-0.276,8.063-1.895,11.189-4.61l0,0c0,0,23.66-9.78,32.869-48.46
	c0,0,6.811-8.44,6.541-10.61l-14.211,6.07c0,0,4.852,10.25,1,18.77c0,0-0.459-18.4-3.189-18c-0.561,0.08-7.391,3.55-7.391,3.55
	s8.361,17.85,2,30.83c0,0,2.391-22-4.658-29.54l-10,5.84c0,0,9.76,18.44,3.148,33.49c0,0,1.691-23.08-5.25-32.07l-9.059,7.07
	c0,0,9.17,18.17,3.58,30.65c0,0-0.74-26.86-5.551-28.89c0,0-7.93,7-9.141,9.86c0,0,6.281,13.2,2.391,20.16c0,0-2.391-17.9-4.35-18
	c0,0-7.9,11.86-8.721,20c0,0,0.34-12.09,6.801-21.12c0,0-7.631,1.31-12.09,6.26c0,0,1.229-8.38,14-9.12c0,0,6.529-9,8.279-9.54
	c0,0-12.75-1.07-20.48,2.36c0,0,6.801-7.91,22.82-4.31l8.939-7.31c0,0-16.779-2.29-23.898,0.24c0,0,8.199-7,26.318-1.9l9.74-5.82
	c0,0-14.309-3.09-22.84-2c0,0,9-4.85,25.691,0.41l7-3.13c0,0-10.49-2.06-13.561-2.39s-3.23-1.17-3.23-1.17
	c6.691-1.112,13.561-0.329,19.83,2.26C801.23,92.17,815.97,86.64,815.72,85.71z"/>
<path fill="#2424ED" d="M729.361,59.47c0,0-38-2.29-33.561,24.37c0,0-0.891,4.71,3.379,6.85c0,0,0.07-2,3.9-1.31
	c1.365,0.229,2.75,0.297,4.131,0.2c1.867-0.125,3.643-0.855,5.059-2.08l0,0c0,0,10.691-4.42,14.852-21.9c0,0,3.08-3.81,3-4.79
	l-6.42,2.74c0,0,2.189,4.63,0.459,8.48c0,0-0.199-8.31-1.439-8.12c-0.25,0-3.33,1.61-3.33,1.61s3.77,8.06,0.92,13.93
	c0,0,1.08-9.94-2.1-13.35l-4.52,2.64c0,0,4.408,8.33,1.42,15.13c0,0,0.77-10.43-2.371-14.49l-4.1,3.2c0,0,4.15,8.21,1.619,13.85
	c0,0-0.33-12.14-2.5-13.06c0,0-3.59,3.16-4.129,4.46c0,0,2.83,6,1.07,9.11c0,0-1.08-8.09-2-8.13c0,0-3.57,5.36-3.941,9
	c0.174-3.394,1.232-6.683,3.07-9.54c-2.057,0.389-3.955,1.373-5.459,2.83c0,0,0.549-3.79,6.34-4.12c0,0,2.949-4.07,3.74-4.32
	c0,0-5.76-0.48-9.25,1.07c0,0,3.068-3.57,10.309-2l4-3.3c0,0-7.58-1-10.799,0.11c0,0,3.709-3.16,11.889-0.86l4.4-2.63
	c0,0-6.459-1.39-10.309-0.89c0,0,4.059-2.19,11.6,0.18l3.15-1.41c0,0-4.73-0.93-6.121-1.08s-1.459-0.53-1.459-0.53
	c2.998-0.499,6.076-0.153,8.889,1C722.75,62.32,729.47,59.89,729.361,59.47z"/>
<ellipse fill="#2424ED" cx="40.21" cy="678.57" rx="40.21" ry="6.8"/>
<path fill="#2924ED" d="M56.83,667.44c1.838-1.49,3.178-3.508,3.84-5.779c0.49-2.301-0.49-5-2.68-5.891
	c-2.46-0.949-5.09,0.76-7.08,2.48c-1.99,1.719-4.28,3.689-6.89,3.32c2.719-2.48,3.938-6.203,3.21-9.811
	c-0.108-0.738-0.419-1.43-0.9-2c-1.36-1.461-3.84-0.83-5.48,0.32c-5.2,3.66-6.65,10.719-6.67,17.08c-0.53-2.301-0.09-4.691-0.1-7
	c-0.01-2.311-0.66-5-2.64-6.221c-1.228-0.66-2.606-0.986-4-0.949c-2.34-0.08-4.94,0.148-6.54,1.859c-2,2.119-1.47,5.689,0.26,8
	s4.35,3.801,6.76,5.42c1.941,1.15,3.596,2.727,4.84,4.609c0.148,0.262,0.269,0.535,0.36,0.82h14.65
	C51.059,672.034,54.107,669.926,56.83,667.44z"/>
<path fill="#2424ED" d="M830.57,583.52c0,0,8.65,11.32-4,28.4s-23.07,31.5-18.85,42.15c0,0,19.08-31.721,34.609-32.17
	C857.861,621.45,847.65,602.6,830.57,583.52z"/>
<path opacity="0.1" enable-background="new    " d="M830.57,583.52c0.752,1.096,1.348,2.289,1.77,3.551
	c15.15,17.799,23.221,34.42,8.65,34.83c-13.561,0.389-29.84,24.648-33.73,30.77c0.123,0.477,0.277,0.943,0.461,1.4
	c0,0,19.08-31.721,34.609-32.17C857.861,621.45,847.65,602.6,830.57,583.52z"/>
<path fill="#FFD037" d="M846.65,597.981c0,4-0.449,7.209-1,7.209s-1-3.23-1-7.209c0-3.98,0.561-2.102,1.109-2.102
	C846.31,595.879,846.65,593.981,846.65,597.981z"/>
<path fill="#FFD037" d="M852.169,602.7c-3.5,1.9-6.539,3.061-6.809,2.57c-0.271-0.49,2.359-2.42,5.859-4.33s2.109-0.51,2.379,0
	C853.871,601.45,855.669,600.79,852.169,602.7z"/>
<path fill="#2924ED" d="M784.871,583.52c0,0-8.65,11.32,4,28.4c12.648,17.08,23.07,31.5,18.859,42.15c0,0-19.08-31.721-34.609-32.17
	C757.589,621.45,767.791,602.6,784.871,583.52z"/>
<path opacity="0.1" enable-background="new    " d="M784.871,583.52c-0.758,1.092-1.354,2.287-1.771,3.551
	c-15.148,17.799-23.219,34.42-8.658,34.83c13.568,0.389,29.84,24.648,33.738,30.77c-0.127,0.475-0.281,0.941-0.459,1.4
	c0,0-19.08-31.721-34.609-32.17C757.58,621.45,767.791,602.6,784.871,583.52z"/>
<path fill="#FFD037" d="M768.781,597.981c0,4,0.449,7.209,1,7.209c0.549,0,1-3.23,1-7.209c0-3.98-0.561-2.102-1.111-2.102
	C769.121,595.879,768.781,593.981,768.781,597.981z"/>
<path fill="#FFD037" d="M763.23,602.7c3.49,1.9,6.539,3.061,6.801,2.57c0.26-0.49-2.352-2.42-5.852-4.33s-2.119-0.51-2.379,0
	S759.769,600.79,763.23,602.7z"/>
<path fill="#A8A8A8" d="M771.541,652.59c0,0,24.189-0.75,31.479-5.939c7.291-5.191,37.211-11.391,39-3.061
	c1.791,8.33,36.352,41.41,9,41.629c-27.35,0.221-63.459-4.26-70.729-8.689C773.019,672.1,771.541,652.59,771.541,652.59z"/>
<path opacity="0.2" enable-background="new    " d="M851.57,682.321c-27.311,0.219-63.459-4.262-70.73-8.691
	c-5.549-3.369-7.75-15.479-8.49-21.07h-0.809c0,0,1.529,19.512,8.809,23.941c7.281,4.43,43.42,8.91,70.73,8.689
	c7.881-0.07,10.611-2.869,10.461-7C860.441,680.7,857.441,682.27,851.57,682.321z"/>
<rect x="584.531" y="487.87" opacity="0.3" fill="#3A3768" enable-background="new    " width="78.029" height="78.031"/>
<rect x="469.53" y="384.87" opacity="0.3" fill="#3A3768" enable-background="new    " width="78.029" height="78.031"/>
<rect x="477.03" y="589.11" opacity="0.3" fill="#3A3768" enable-background="new    " width="78.03" height="78.029"/>
<rect x="459.62" y="193.28" fill="#FFFFFF" width="78.03" height="78.03"/>
<rect x="605.145" y="475.832" transform="matrix(-0.7415 0.6709 -0.6709 -0.7415 1467.2427 464.4138)" fill="#FFFFFF" width="78.029" height="78.031"/>
<rect x="583.24" y="287.31" fill="#FFFFFF" width="78.029" height="78.03"/>
<rect x="484.6" y="374.31" fill="#FFFFFF" width="78.031" height="78.03"/>
<path fill="#EF233C" d="M971.839,732.59c4.541,0.59,9.25,1,13.6-0.461c0.672-0.209,1.441-0.67,1.352-1.359
	c-0.053-0.24-0.158-0.467-0.311-0.66c-1.646-2.459-3.031-5.082-4.131-7.83c-0.039-0.143-0.129-0.266-0.25-0.35
	c-0.141-0.055-0.297-0.055-0.439,0c-2,0.52-3.74,1.82-5.74,2.369c-1.014,0.279-2.074,0.361-3.119,0.24
	c-0.9-0.1-2.141-0.85-2.951-0.76C970.349,726.75,971.49,729.559,971.839,732.59z"/>
<path fill="#EF233C" d="M1057.769,724.981c3-2,6.102-4.221,7.871-7.391c0.127-0.188,0.199-0.404,0.209-0.631
	c-0.027-0.225-0.113-0.438-0.25-0.619c-1.686-2.676-3.852-5.014-6.389-6.9c-1.326,0.939-2.527,2.045-3.57,3.289
	c-0.75,0.791-2.83,2.092-2.85,3.271c0,0.709,0.789,1.479,1.16,2c0.5,0.74,1,1.5,1.43,2.26
	C1055.611,720.719,1057.99,724.86,1057.769,724.981z"/>
<path fill="#514E7F" d="M989.64,741.77c0.063,0.709-0.129,1.418-0.541,2c-0.32,0.316-0.715,0.547-1.148,0.67
	c-6.361,2.27-13.682-0.57-20,1.68c-1.311,0.461-2.541,1.121-3.852,1.561c-1.551,0.467-3.152,0.752-4.77,0.85
	c-2.25,0.221-4.5,0.35-6.75,0.41c-1.705,0.121-3.42-0.027-5.08-0.439c-1.678-0.436-3.094-1.557-3.9-3.09
	c-0.34-0.684-0.408-1.471-0.189-2.201c0.098-0.258,0.234-0.498,0.41-0.709c0.434-0.48,0.939-0.889,1.5-1.211l2.34-1.51
	c1.094-0.775,2.285-1.408,3.541-1.881c0.92-0.299,1.908-0.43,2.84-0.699c3.289-1,5.789-3.57,8.119-6.07l3.18-3.389
	c0.295-0.375,0.672-0.676,1.1-0.881c0.438-0.15,0.902-0.199,1.361-0.141c3.09,0.227,6.072,1.232,8.67,2.92
	c0.67,0.49,1.387,0.912,2.139,1.26c2.02,0.586,4.189,0.314,6-0.75c0.82-0.43,0.641-0.699,1-1.469c0.361-0.77,1.182-1.27,1.9-0.561
	c0.217,0.248,0.369,0.543,0.451,0.859c0.699,2.271,0.43,4.701,0.43,7.07c-0.02,0.373,0.027,0.744,0.141,1.1
	c0.176,0.352,0.383,0.686,0.619,1c0.051,0.084,0.094,0.17,0.131,0.262C989.675,739.483,989.798,740.637,989.64,741.77z"/>
<path fill="#464353" d="M989.64,741.77c0.063,0.709-0.129,1.418-0.541,2c-0.32,0.316-0.715,0.547-1.148,0.67
	c-6.361,2.27-13.682-0.57-20,1.68c-1.311,0.461-2.541,1.121-3.852,1.561c-1.551,0.467-3.152,0.752-4.77,0.85
	c-2.25,0.221-4.5,0.35-6.75,0.41c-1.705,0.121-3.42-0.027-5.08-0.439c-1.678-0.436-3.094-1.557-3.9-3.09
	c-0.34-0.684-0.408-1.471-0.189-2.201c0.098-0.258,0.234-0.498,0.41-0.709c0.381,0.779,0.65,1.799,0.881,2.17
	c0.641,1.117,1.734,1.902,3,2.15c0.916,0.047,1.834-0.072,2.709-0.352c5.76-1.43,11.881-1.449,17.4-3.609
	c1.844-0.869,3.748-1.602,5.699-2.189c2.041-0.307,4.098-0.475,6.16-0.5c3.25-0.26,6.391-1.24,9.6-1.75
	C989.667,739.489,989.794,740.639,989.64,741.77z"/>
<path fill="#514E7F" d="M1072.291,724.59c-0.301,2.41-1.83,4.49-3.51,6.25c-1.793,1.637-3.434,3.436-4.9,5.369
	c-1.66,2.521-2.391,5.631-4.531,7.76c-0.809,0.789-1.725,1.463-2.719,2c-1.117,0.662-2.301,1.203-3.531,1.621
	c-3.189,1-6.629,0.789-10,0.549c-1.082-0.012-2.152-0.223-3.16-0.619c-0.469-0.23-0.916-0.502-1.34-0.811
	c-0.814-0.527-1.5-1.236-2-2.07c-0.246-0.455-0.314-0.986-0.189-1.488c0.199-0.566,0.543-1.07,1-1.461
	c0.75-0.779,1.557-1.506,2.41-2.17c1.176-0.762,2.234-1.691,3.141-2.76c0.555-0.846,0.965-1.779,1.209-2.76
	c0.482-1.713,0.777-3.475,0.881-5.25c-0.002-1.18,0.121-2.357,0.369-3.51c0.51-1.801,1.85-3.432,1.691-5.301
	c-0.059-0.268-0.035-0.547,0.068-0.801c0.166-0.189,0.387-0.326,0.631-0.389c1.051-0.412,2.156-0.664,3.279-0.75
	c1.129-0.072,2.229,0.365,3,1.189c0.471,0.561,0.771,1.34,1.461,1.59c0.33,0.07,0.67,0.07,1,0c1.68-0.17,3.469-0.379,4.76-1.471
	c1.246-1.113,1.971-2.697,2-4.369c0-0.619-0.279-1.27,0.67-1.4c0.73-0.1,1.301,0.66,1.67,1.16c1.461,1.709,2.555,3.699,3.211,5.85
	c0.193-0.078,0.4-0.119,0.609-0.119c0.867-0.012,1.684,0.408,2.18,1.119C1072.232,722.45,1072.46,723.532,1072.291,724.59z"/>
<path fill="#464353" d="M1072.291,724.59c-0.301,2.41-1.83,4.49-3.51,6.25c-1.793,1.637-3.434,3.436-4.9,5.369
	c-1.66,2.521-2.391,5.631-4.531,7.76c-0.809,0.789-1.725,1.463-2.719,2c-1.117,0.662-2.301,1.203-3.531,1.621
	c-3.189,1-6.629,0.789-10,0.549c-1.082-0.012-2.152-0.223-3.16-0.619c-0.469-0.23-0.916-0.502-1.34-0.811
	c-0.814-0.527-1.5-1.236-2-2.07c0.643-0.313,1.346-0.479,2.061-0.488c1.49,0.08,2.57,1.479,4,1.908c2,0.611,4-0.818,6.09-1.309
	c1.34-0.311,2.76-0.221,4.07-0.65c1.1-0.426,2.115-1.043,3-1.82c1.217-0.869,2.299-1.914,3.211-3.1
	c0.762-1.184,1.395-2.443,1.889-3.76c1.082-2.523,2.355-4.961,3.811-7.291c0.215-0.365,0.477-0.701,0.779-1
	c0.311-0.289,0.701-0.5,1-0.76c1.371-1,1.941-2.77,2.42-4.41c0.129-0.508,0.309-1,0.541-1.469c0.867-0.014,1.684,0.406,2.18,1.119
	C1072.218,722.493,1072.447,723.551,1072.291,724.59z"/>
<path fill="#A1616A" d="M928.63,510.981c1.691,1.273,3.084,2.9,4.08,4.77c1,1.879,6.49,16.48,6.17,18.57
	c1.799-1.82,8.939-2.121,10.73-3.932c0.76-0.76,4.869-4.559,5.479-5.439c0.611-0.879,5.191-2.77,5.691-3.67
	c1.869-3.35-13.262-16-11.33-19.359c0.109-0.15,0.166-0.334,0.16-0.52c-0.043-0.156-0.129-0.295-0.25-0.4
	c-1.346-1.158-2.814-2.164-4.381-3c-1.586-0.854-2.783-2.287-3.34-4c-1.424,0.656-2.732,1.541-3.871,2.619
	c-2.766,2.367-5.492,4.793-8.18,7.281c-1.059,1-3.08,2.27-3.57,3.658C925.531,508.95,927.621,510.161,928.63,510.981z"/>
<path fill="#514E7F" d="M953.121,505.59c-2.324,1.555-4.494,3.33-6.48,5.299c-1.881,1.852-3.66,4-4.131,6.611
	c-0.189,1-0.16,2.059-0.318,3.09c-0.672,4.48-4.561,7.77-6.271,12c-0.5,1.293-0.869,2.633-1.1,4
	c-0.479,2.594-0.74,5.223-0.779,7.859c0,2.561,2.459,4.32,3.379,6.711c0.766,2.367,1.311,4.801,1.631,7.27
	c1.002,4.602,2.369,9.115,4.09,13.5c3.379,9.33,14.33,35.129,17.709,44.471c10.352-2.602,37.91-8.57,47.07-14
	c3.061-1.82-21.199-22.381-17.93-23.801c0.377-0.115,0.699-0.359,0.91-0.689c0.107-0.324,0.107-0.676,0-1
	c-3.26-14.291-13.49-26-18.119-40c-1.611-4.83-4.5-8.951-6.701-13.551c-2-4.16-3.049-8.75-5.42-12.699
	c-0.453-0.814-1.037-1.547-1.73-2.17c-0.598-0.451-1.24-0.836-1.92-1.15C955.701,506.639,954.441,506.25,953.121,505.59z"/>
<circle fill="#A1616A" cx="929.179" cy="493.15" r="16.2"/>
<path fill="#464353" d="M945.66,500.76c1.654-1.523,4.076-1.869,6.09-0.871c1.156,0.498,1.879,1.664,1.811,2.92l8,0.121
	c1.279-0.029,2.557,0.088,3.811,0.35c1.26,0.275,2.385,0.984,3.18,2c0.1,0.131,0.209,0.279,0.369,0.311
	c0.135-0.004,0.264-0.049,0.371-0.131c1.232-0.627,2.625-0.877,4-0.719c4.34,0.279,8.359,2.459,11.76,5.17
	c0.625,0.418,1.111,1.014,1.4,1.709c0.279,0.91,0,2.08,0.66,2.701c0,7.549,2.59,14.58,4.318,21.93
	c0.301,1.309,1.561,2.459,2.432,3.49c1.076,1.139,1.955,2.449,2.6,3.879c1.459,3.811-0.561,8.281,0.869,12.111
	c0.725,1.564,1.652,3.027,2.76,4.35c1.287,1.619,2.102,3.564,2.352,5.619c0.059,0.92-0.061,1.84,0,2.77
	c0.086,1.234,0.307,2.455,0.658,3.641c0.58,2.211,1.201,4.42,1.842,6.621c1,3.559,2.398,7.408,5.59,9.309
	c-7.711,1.311-15.83,2.58-23.182-0.09c-1.023-0.35-1.996-0.838-2.889-1.449c-2.65-1.891-3.93-5.131-5.07-8.18
	c-1.279-3.432-2.58-6.91-2.84-10.561c0.008-1.168-0.154-2.33-0.48-3.451c-0.75-2-2.73-3.189-4.549-4.289
	c-2.039-1.121-3.885-2.559-5.471-4.26c-1.596-1.734-2.398-4.051-2.221-6.4c0.141-1.131,0.58-2.221,0.631-3.359
	c0.139-1.166-0.492-2.285-1.561-2.771c-5.609-1.699-8.289-8.34-9.539-14.068c-0.543-2.969-0.783-5.984-0.721-9l-0.07-5.791
	c-1.566-1.42-2.479-3.424-2.52-5.539c0.09-0.607,0.09-1.225,0-1.83c-0.264-0.758-0.703-1.443-1.279-2
	C947.519,503.758,946.468,502.327,945.66,500.76z"/>
<path fill="#464353" d="M928.4,519.29c-0.18,1.811,0.23,3.66-0.18,5.441c-0.16,0.68-0.43,1.328-0.631,2
	c-0.604,2.553-0.34,5.232,0.75,7.619c1.088,2.365,2.389,4.625,3.891,6.75c0.516,0.719,0.936,1.502,1.25,2.33
	c0.26,0.869,0.42,1.764,0.48,2.67c0.395,3.619,1.033,7.207,1.91,10.74c0.76,3.08,1.75,6.189,3.779,8.629
	c0.371,0.535,0.926,0.914,1.561,1.061c0.459,0.018,0.916-0.08,1.33-0.279l4.139-1.57c0.365-0.105,0.705-0.283,1-0.52
	c0.379-0.455,0.584-1.029,0.58-1.621c0.291-3.34-0.709-6.65-1.818-9.811c-3.361-9.539-7.82-18.729-10-28.6
	c-0.611-2.76-0.932-7-2.941-9.15c-0.83-0.898-0.549-0.52-1.539,0c-0.5,0.227-0.984,0.482-1.451,0.771
	C929.304,516.547,928.529,517.85,928.4,519.29z"/>
<path fill="#464353" d="M1007.47,578.661"/>
<path fill="#2424ED" d="M940.88,537.389c1.1,5.82,2.223,11.645,3.369,17.471l16.08-4.221c0.131-1.68-0.77-3.238-1.389-4.809
	c-1.471-3.68-1.5-7.771-2.691-11.551c-0.9-2.879-2.459-5.529-3.299-8.43c-0.49-1.68-0.73-3.439-1.211-5.131
	c-0.52-1.67-1.15-3.303-1.891-4.889c-0.906-2.303-2.084-4.488-3.51-6.51c-2.059,0.77-4.25,1.658-5.42,3.51
	c-0.611,1.055-0.953,2.242-1,3.459c-0.279,3.621,1,7.25,0.59,10.83C940.08,530.542,940.205,534.008,940.88,537.389z"/>
<path fill="#464353" d="M960.599,614.981c0.9,3.439-0.408,7-1.469,10.42c-1.609,5.107-2.709,10.363-3.281,15.689
	c-0.057,1.367-0.33,2.717-0.809,4c-0.598,1.098-1.248,2.166-1.951,3.199c-1.619,2.861-1.58,6.361-1.229,9.631
	c0.229,2.16,0.58,4.311,1,6.439c0.529,2.59,1.18,5.311,0.42,7.84c1.27-0.279,2.139,1.359,2.09,2.67
	c-0.051,1.311-0.51,2.711,0.109,3.861c1.58,0.568,1.6,2.738,1.551,4.408c0.023,2.914,0.389,5.813,1.09,8.641
	c2.387,11.461,4.92,22.891,7.6,34.291c5.789,1.799,12.549,3.67,18.07,1.18c1.09-0.354,1.941-1.209,2.289-2.301
	c0.057-0.6-0.02-1.203-0.219-1.77l-2.621-9.52c-0.785-2.246-1.105-4.627-0.939-7c0.26-1.771,1-3.67,0.16-5.221
	c-0.301-0.529-0.76-1-1.1-1.461c-1.381-2-0.66-4.689-0.541-7.129c0.041-0.547,0-1.096-0.119-1.631
	c-0.188-0.623-0.447-1.225-0.771-1.789c-2.156-4.199-3.189-8.885-3-13.6c0.084-0.605,0.002-1.221-0.238-1.781
	c-0.172-0.223-0.32-0.465-0.441-0.719c-0.107-0.439-0.059-0.904,0.141-1.311c-0.785-0.574-1.494-1.246-2.109-2
	c1.389-0.904,1.781-2.762,0.877-4.15c-0.109-0.17-0.236-0.326-0.377-0.469c0.834-0.164,1.377-0.975,1.213-1.809
	c-0.063-0.324-0.229-0.619-0.473-0.842c-0.342-0.24-0.781-0.34-1-0.68c-0.371-0.5-0.07-1.211,0.229-1.75l1.6-2.891
	c1.191-2.141,1.461-4.791,2.74-6.881c1.73-3.057,3.145-6.283,4.221-9.629l4.561-12.701l3.1,2.691
	c1.037,0.789,1.904,1.777,2.551,2.91c0.441,1.113,0.717,2.285,0.818,3.479c1.141,6.9,5.49,12.881,7.102,19.691
	c0.225,1.541,0.719,3.029,1.459,4.398c0.313,0.398,0.594,0.818,0.84,1.262c0.229,0.672,0.346,1.379,0.35,2.09
	c0.287,2.82,1.787,5.375,4.111,7c1.52,1,3.449,1.77,4.25,3.43c0.174,0.512,0.408,1.002,0.699,1.459c0.74,0.891,2.34,1,2.66,2.111
	c0.17,0.629-0.16,1.369,0.199,1.92c0.195,0.25,0.455,0.443,0.75,0.559l4.471,2.24c5,2.49,7.52,8.201,11.209,12.391
	c1.275,1.354,2.398,2.844,3.352,4.439c1.59,2.84,2.33,6.41,5,8.24c0.717,0.377,1.371,0.861,1.939,1.439
	c0.85,1.111,0.539,2.67,0.609,4.07s1.15,3.061,2.48,2.641c-0.471,1.691-0.471,3.479,0,5.17c5.836-0.303,11.4-2.557,15.801-6.4
	c1.299-1.141,2.559-2.59,2.568-4.311c0.016-0.297-0.051-0.594-0.189-0.859c-0.258-0.34-0.604-0.602-1-0.76
	c-4.17-2.26-5.43-7.5-7.52-11.76c-1.85-3.75-4.57-7-6.881-10.48c-5-7.5-8.34-16.57-15.85-21.529c-1.65-1.09-3.57-2.061-4.391-3.861
	c-0.35-1.049-0.645-2.117-0.879-3.199c-0.285-1.094-1.225-1.895-2.35-2c0.475-1.621,0.656-3.314,0.539-5
	c0.043-0.727-0.041-1.453-0.25-2.15c-0.281-0.748-0.65-1.459-1.1-2.119c-1.959-3.328-2.939-7.141-2.83-11c0.061-2,0.41-4-0.189-5.91
	c-0.301-1-0.82-1.83-1.189-2.76c-0.547-1.664-0.838-3.4-0.861-5.15l-0.41-6.59c-0.055-2.193-0.34-4.375-0.85-6.51
	c-1.391-5.111-2.721-26.521-7.43-28.93c-4.711-2.41-12.75,14.059-18,14.389c-2.346,0.102-4.664,0.547-6.881,1.32
	c-3.51,1.32-6.459,3.779-9.33,6.189l-9.719,8.16C964.779,612.288,962.757,613.745,960.599,614.981z"/>
<path fill="#464353" d="M913.97,475.161c2.291-2.875,5.754-4.563,9.43-4.602c3.637,0,7.217,0.9,10.42,2.621
	c0.945,0.537,1.953,0.957,3,1.25c1.721,0.35,3.619-0.121,5.17,0.699c2.061,1.09,2.449,3.871,2.27,6.191
	c-0.18,2.318-0.609,4.859,0.621,6.85c0.43,0.57,0.826,1.164,1.189,1.779c0.383,1.248,0.344,2.586-0.109,3.811
	c-0.711-0.801-1.379-1.639-2-2.51c-0.721-0.791-1.951-1.33-2.83-0.74c-0.881,0.59-0.881,1.68-0.92,2.65
	c-0.041,0.969-0.301,2.139-1.221,2.459c-0.766,0.146-1.547-0.166-2-0.799c-1.57-1.92-0.939-5-2.49-6.92
	c-0.889-1.102-2.359-1.631-3.18-2.781c-0.641-0.9-0.801-2.07-1.359-3c-0.561-0.93-1.871-1.689-2.75-1
	c-0.297,0.291-0.545,0.629-0.73,1c-1.117,1.598-3.188,2.219-5,1.5c-0.678-0.406-1.408-0.719-2.17-0.93
	c-1.012-0.057-1.967,0.461-2.471,1.34c-0.48,0.873-0.705,1.865-0.648,2.859c0,1.352,0.238,2.83-0.541,3.932
	c-0.32,0.402-0.713,0.742-1.16,1c-1.15,0.729-2.719,1.219-3.799,0.389c-0.727-0.678-1.049-1.686-0.852-2.66
	c0.207-0.953,0.479-1.893,0.811-2.809c0.6-2.121-0.18-4.51,0.48-6.51C911.832,478.415,912.787,476.708,913.97,475.161z"/>
<path fill="#243CED" d="M922.65,523.491c-0.104,0.5-0.051,1.02,0.15,1.49c0.205,0.318,0.482,0.586,0.811,0.779
	c2.309,1.43,4.93,2.277,7.639,2.471c0.35,0.012,0.691,0.104,1,0.27c0.586,0.543,0.766,1.396,0.451,2.129
	c-0.314,0.713-0.477,1.482-0.48,2.26c0.199,1.432,1.891,2.08,3.33,2.262c2.002,0.406,4.084,0.004,5.789-1.121
	c1.078-0.982,1.898-2.215,2.391-3.59c3.93-9,5.311-19,9.289-28c0.309-0.584,0.512-1.217,0.602-1.869
	c0.084-0.668-0.199-1.33-0.74-1.73c-0.74-0.461-1.891-0.201-2.391-0.91c-0.25-0.369-0.221-0.859-0.439-1.24
	c-0.461-0.82-1.66-0.721-2.49-1.16c-0.641-0.35-1.09-1-1.801-1.189c-0.719-0.039-1.414,0.26-1.879,0.811
	c-2.33,2.18-3.561,5.27-4.861,8.189c-2.004,4.473-4.344,8.789-7,12.91c0.311-0.48-1.479-4.131-2.18-4.27
	c-1.219-0.25-2.799,1.898-3.459,2.709C924.328,517.211,923.035,520.262,922.65,523.491z"/>
<rect x="930.83" y="536.29" fill="#FFFFFF" width="78.031" height="78.031"/>
<path fill="#A1616A" d="M1008.23,579.27c-1.342,1.186-2.578,2.484-3.699,3.881c-1.137,1.414-1.738,3.184-1.701,5
	c0.008,0.523,0.176,1.033,0.48,1.459c0.324,0.426,0.883,0.6,1.391,0.43c0.27-0.148,0.502-0.357,0.68-0.609
	c0.721-0.873,1.49-1.709,2.299-2.5c0.301-0.291,0.682-0.6,1.08-0.49c0.182,0.063,0.342,0.17,0.471,0.311
	c0.473,0.395,0.82,0.92,1,1.51c0.105,1.08-0.283,2.15-1.061,2.91c-0.779,0.744-1.389,1.648-1.789,2.65
	c-0.111,0.271-0.111,0.576,0,0.85c0.135,0.195,0.316,0.354,0.529,0.459c1.99,1.084,4.357,1.236,6.471,0.42
	c1.389-0.549,2.59-1.51,4-2c0.609-0.16,1.203-0.381,1.77-0.66c0.816-0.537,1.383-1.381,1.57-2.34
	c0.176-0.953,0.213-1.926,0.109-2.889c-0.178-3.744-0.994-7.43-2.41-10.9c-0.074-0.227-0.209-0.426-0.389-0.58
	c-0.201-0.119-0.428-0.184-0.66-0.189c-1.75-0.182-4.631-1.08-6.32-0.432c-0.594,0.322-1.104,0.777-1.49,1.33
	C1010.169,577.241,1008.23,578.809,1008.23,579.27z"/>
<path fill="#464353" d="M1007.63,577.719c0-1.68-2.08-5.709,1.209-6c0-1.779-2.529-2.898-2.07-4.779
	c0.16-0.641,0.672-1.15,0.75-1.789c0.211-1.83-3.09-2.82-2.549-4.58c0.199-0.67,0.93-1.08,1.09-1.762
	c0.369-1.58-2.461-2.289-2.51-3.908c0-0.551,0.299-1.07,0.279-1.611c0-0.689-0.6-1.209-0.93-1.799c-0.85-1.531-0.439-3.9-2-4.682
	c1,0.08,1.391-1.449,0.949-2.389c-0.439-0.939-1.299-1.75-1.299-2.791c0.049-0.381,0.049-0.768,0-1.148
	c-0.291-1-1.93-1.07-2.201-2.07c-0.02-0.377-0.02-0.754,0-1.131c-0.1-0.779-0.898-1.26-1.648-1.49
	c-0.775-0.125-1.52-0.391-2.201-0.779c-0.48-0.371-1-1-1.549-0.65c-0.191,0.109-0.291,0.33-0.441,0.5
	c-0.609,0.711-1.779,0.4-2.559-0.131c-2.291-1.549-3.422-4.34-3.922-7.059c-0.5-2.721-0.469-5.531-1.068-8.23
	c-0.188-0.836-0.432-1.658-0.73-2.459c-0.473-0.777-0.863-1.602-1.16-2.461c-0.119-1.57,3.141-0.5,4.381-0.34
	c1.205,0.111,2.396,0.336,3.559,0.67c1.238,0.465,2.449,0.996,3.631,1.59c5,2.189,10.92,2.461,14.9,6.131
	c1.309,1.209,2.41,2.789,4.1,3.33c0.777,0.156,1.545,0.355,2.301,0.6c1.889,0.889,2.18,3.389,3.209,5.199
	c0.322,0.477,0.605,0.979,0.85,1.5c0.195,0.621,0.287,1.27,0.27,1.92l0.141,4.75c0.23,8,0.471,15.93-0.379,23.84
	c-0.281,2.6-0.67,5.291,0.09,7.801c0.199,0.68,0.49,1.33,0.66,2c0.16,0.813,0.248,1.641,0.26,2.469l0.109,3.07
	c0.041,0.248-0.014,0.502-0.15,0.711c-0.232,0.188-0.537,0.26-0.83,0.199c-4.289-0.379-8.609-2.799-12.66-1.34"/>
<path fill="#A1616A" d="M927.89,565.19c-0.189,0.094-0.355,0.23-0.48,0.4c-0.893,1.205-0.893,2.854,0,4.061
	c0.104,0.117,0.184,0.254,0.24,0.398c0.029,0.234-0.014,0.471-0.119,0.682c-0.426,0.822-0.303,1.822,0.309,2.52
	c0.311,0.26,0.73,0.389,0.93,0.73c0.352,0.58-0.139,1.318-0.059,2c0.1,0.889,1.15,1.33,2,1.439c0.695,0.164,1.428-0.031,1.949-0.52
	c0.352-0.539,0.352-1.232,0-1.771c-0.348-0.523-0.797-0.971-1.32-1.32c1-0.051,1.807-0.832,1.891-1.828
	c0.072-0.971-0.359-1.91-1.141-2.49c-0.18-0.15-0.4-0.301-0.449-0.541c-0.051-0.24,0.189-0.57,0.41-0.799c1-1,1.77-3.451-0.111-4
	c-0.664-0.117-1.348-0.086-2,0.09c-0.479,0.148-0.479,0.439-0.85,0.639C928.72,565.081,928.31,564.981,927.89,565.19z"/>
<path opacity="0.1" enable-background="new    " d="M947.541,496.12c-0.998,0.021-1.93,0.492-2.541,1.281
	c-0.627,1.027-0.992,2.195-1.059,3.398c-0.611,3.848-1.971,7.537-4,10.861"/>
<path opacity="0.1" enable-background="new    " d="M951.041,498.86c-1.385,0.027-2.65,0.789-3.32,2
	c-0.457,1.078-0.74,2.223-0.84,3.391c-0.586,2.582-1.723,5.006-3.33,7.109"/>
<path fill="#FBBEBE" d="M305.89,562.571c0.58,6.318-4.19,12.439-2.8,18.619c0.3,1.32,0.87,2.57,1.08,3.9
	c0.57,3.67-1.62,7.15-3.71,10.219l-17.94,26.342c-0.727,1.154-1.59,2.219-2.57,3.17c-3.44,3-8.58,2.729-13.09,3.639
	c-3.165,0.648-6.153,1.973-8.76,3.881c-0.249,0.186-0.302,0.537-0.12,0.789c1.516,2.059,3.969,3.209,6.52,3.061
	c0.47,0.619,0,1.529-0.65,2c-1,0.67-2.29,0.84-2.48,2.48c-0.068,0.568,0.048,1.143,0.33,1.639c0.722,1.109,1.849,1.893,3.14,2.182
	c6.21,1.898,12.93-1.432,17.57-6c4.64-4.57,8-10.271,12.56-14.9c2.53-2.551,5.4-4.75,8-7.23c5.2-4.939,9.23-11,13.129-17
	c1.271-1.75,2.232-3.705,2.841-5.779c0.479-2.061,0.26-4.23,0.819-6.271c0.721-2.658,2.681-4.789,4.3-7
	c3.19-4.379,5.311-9.75,4.891-15.148c-0.42-5.4-3.76-10.74-8.86-12.57c-1.589-0.641-3.344-0.75-5-0.311
	c-2.09,0.65-3.63,2.381-5.06,4l-3.4,3.939c-0.86,0.857-1.541,1.877-2,3c-0.446,1.158-0.172,2.469,0.7,3.352"/>
<path opacity="0.05" enable-background="new    " d="M305.89,562.571c0.58,6.318-4.19,12.439-2.8,18.619
	c0.3,1.32,0.87,2.57,1.08,3.9c0.57,3.67-1.62,7.15-3.71,10.219l-17.94,26.342c-0.727,1.154-1.59,2.219-2.57,3.17
	c-3.44,3-8.58,2.729-13.09,3.639c-3.165,0.648-6.153,1.973-8.76,3.881c-0.249,0.186-0.302,0.537-0.12,0.789
	c1.516,2.059,3.969,3.209,6.52,3.061c0.47,0.619,0,1.529-0.65,2c-1,0.67-2.29,0.84-2.48,2.48c-0.068,0.568,0.048,1.143,0.33,1.639
	c0.722,1.109,1.849,1.893,3.14,2.182c6.21,1.898,12.93-1.432,17.57-6c4.64-4.57,8-10.271,12.56-14.9c2.53-2.551,5.4-4.75,8-7.23
	c5.2-4.939,9.23-11,13.129-17c1.271-1.75,2.232-3.705,2.841-5.779c0.479-2.061,0.26-4.23,0.819-6.271c0.721-2.658,2.681-4.789,4.3-7
	c3.19-4.379,5.311-9.75,4.891-15.148c-0.42-5.4-3.76-10.74-8.86-12.57c-1.589-0.641-3.344-0.75-5-0.311
	c-2.09,0.65-3.63,2.381-5.06,4l-3.4,3.939c-0.86,0.857-1.541,1.877-2,3c-0.446,1.158-0.172,2.469,0.7,3.352"/>
<path fill="#A1616A" d="M169.23,589.42c1,3.16,2,6.32,3.21,9.4c2.211,5.34,4.998,10.422,8.31,15.16c2.133,3.115,4.426,6.119,6.87,9
	c3.06,3.609,6.48,7.238,7.56,11.85c0.63,2.66,0.42,5.449,0.68,8.17c0.26,2.719,1.15,5.609,3.35,7.24
	c1.671,1.033,3.562,1.656,5.52,1.818c1.38,0.221,3.11,0.291,3.83-0.908c0.252-0.488,0.382-1.031,0.38-1.58l0.34-4
	c0.07-0.861,0.37-2,1.23-2c0.86,0,1.3,1.109,2,1.619c1.055,0.568,2.372,0.176,2.94-0.881c0.021-0.039,0.041-0.078,0.06-0.119
	c0.448-1.119,0.476-2.361,0.08-3.5c-1.208-4.578-4.311-8.422-8.53-10.57c-1.45-0.594-2.843-1.32-4.16-2.17
	c-1.338-1.156-2.447-2.555-3.27-4.119c-7.56-12.451-15.16-25-20.5-38.51c-1.051-2.422-1.761-4.975-2.11-7.592
	c-0.108-2.67,0.002-5.346,0.33-8c0.313-4.799-0.133-9.617-1.32-14.279c-0.26-1.225-0.723-2.398-1.37-3.471
	c-2.19-3.34-7.36-3.828-10.62-1.529c-2.425,1.869-3.956,4.67-4.22,7.721c-0.24,2.689,1.32,5.5,2.11,8
	C164.376,573.917,166.81,581.667,169.23,589.42z"/>
<path opacity="0.05" enable-background="new    " d="M169.23,589.42c1,3.16,2,6.32,3.21,9.4c2.211,5.34,4.998,10.422,8.31,15.16
	c2.133,3.115,4.426,6.119,6.87,9c3.06,3.609,6.48,7.238,7.56,11.85c0.63,2.66,0.42,5.449,0.68,8.17c0.26,2.719,1.15,5.609,3.35,7.24
	c1.671,1.033,3.562,1.656,5.52,1.818c1.38,0.221,3.11,0.291,3.83-0.908c0.252-0.488,0.382-1.031,0.38-1.58l0.34-4
	c0.07-0.861,0.37-2,1.23-2c0.86,0,1.3,1.109,2,1.619c1.055,0.568,2.372,0.176,2.94-0.881c0.021-0.039,0.041-0.078,0.06-0.119
	c0.448-1.119,0.476-2.361,0.08-3.5c-1.208-4.578-4.311-8.422-8.53-10.57c-1.45-0.594-2.843-1.32-4.16-2.17
	c-1.338-1.156-2.447-2.555-3.27-4.119c-7.56-12.451-15.16-25-20.5-38.51c-1.051-2.422-1.761-4.975-2.11-7.592
	c-0.108-2.67,0.002-5.346,0.33-8c0.313-4.799-0.133-9.617-1.32-14.279c-0.26-1.225-0.723-2.398-1.37-3.471
	c-2.19-3.34-7.36-3.828-10.62-1.529c-2.425,1.869-3.956,4.67-4.22,7.721c-0.24,2.689,1.32,5.5,2.11,8
	C164.376,573.917,166.81,581.667,169.23,589.42z"/>
<path fill="#3F3D56" d="M320.98,708.161c-3.921,2.389-8.801,2.529-13.36,2c-0.73-0.09-1.601-0.15-2.07,0.42
	c-0.68,0.82,0.12,2,0.95,2.699c2.692,2.014,5.851,3.311,9.18,3.77c2.982,0.416,5.99,0.617,9,0.602c8.19,0.139,16.42,0.27,24.53-0.91
	c0.47-0.031,0.927-0.166,1.34-0.391c0.514-0.371,0.87-0.92,1-1.541c0.4-2.189-0.419-4.426-2.14-5.84
	c-1.705-1.361-3.644-2.4-5.72-3.068l-7.12-2.771c-1.67-0.65-4.36-2.379-6.17-2.24C327.04,701.11,323.81,706.5,320.98,708.161z"/>
<path fill="#3F3D56" d="M338.87,724.889c-3.28,2.939-7.548,4.531-11.95,4.461c-1.12,0-2.68,0.209-2.68,1.33
	c0.016,0.334,0.127,0.656,0.319,0.93c1.396,2.318,3.596,4.041,6.181,4.84c2.441,0.582,4.965,0.74,7.46,0.471l7.3-0.381
	c1.38-0.07,2.77-0.139,4.14-0.309c1.37-0.172,2.86-0.451,4.29-0.672c3.521-0.496,7.079-0.662,10.63-0.5
	c0.935,0.184,1.901-0.074,2.62-0.699c0.65-0.82,0.271-2,0.061-3c-0.44-2.109,0-4.33-0.41-6.459c-0.7-3.721-3.9-6.58-7.45-7.932
	c-3.28-1.25-9.1-2.68-12.21-0.6C343.83,718.581,341.82,722.219,338.87,724.889z"/>
<path fill="#464353" d="M324.45,630.43c-3,3.949-6,8.51-5.3,13.391c0.399,2.629,1.869,4.949,2.949,7.389
	c1.357,3.348,2.363,6.826,3,10.381c1.11,5.17,2.221,10.35,2.91,15.59c0.767,5.934,0.984,11.926,0.65,17.9c-0.09,1.439-0.25,3-1.25,4
	c-0.4,0.4-0.92,0.73-1.09,1.27c-0.108,0.512-0.026,1.045,0.229,1.5c1.832,3.752,5.01,6.676,8.9,8.189
	c3.862,1.482,7.963,2.248,12.1,2.26c0.549,0.064,1.105-0.008,1.62-0.209c0.556-0.336,0.992-0.836,1.25-1.43
	c3-5.701,1.33-12.58,1.38-19c0-5.371,1.3-10.691,1.07-16.061c-0.19-4.301-1.34-8.5-1.76-12.789c-0.69-7,0.6-14.102,1.89-21.051
	c1-5.32,2-10.65,3.25-15.92c0.636-3.246,1.798-6.367,3.44-9.24c1.399-2.209,3.3-4.061,4.899-6.141
	c4.425-5.809,6.393-13.123,5.48-20.369c-0.101-0.721-10.3,2.58-11.181,3c-3.677,1.545-7.06,3.713-10,6.41
	c-2.359,2.24-4.21,5.24-6.279,7.76c-2.92,3.553-5.794,7.127-8.62,10.721C330.764,622.1,327.583,626.25,324.45,630.43z"/>
<path opacity="0.05" enable-background="new    " d="M324.45,630.43c-3,3.949-6,8.51-5.3,13.391
	c0.399,2.629,1.869,4.949,2.949,7.389c1.357,3.348,2.363,6.826,3,10.381c1.11,5.17,2.221,10.35,2.91,15.59
	c0.767,5.934,0.984,11.926,0.65,17.9c-0.09,1.439-0.25,3-1.25,4c-0.4,0.4-0.92,0.73-1.09,1.27c-0.108,0.512-0.026,1.045,0.229,1.5
	c1.832,3.752,5.01,6.676,8.9,8.189c3.862,1.482,7.963,2.248,12.1,2.26c0.549,0.064,1.105-0.008,1.62-0.209
	c0.556-0.336,0.992-0.836,1.25-1.43c3-5.701,1.33-12.58,1.38-19c0-5.371,1.3-10.691,1.07-16.061c-0.19-4.301-1.34-8.5-1.76-12.789
	c-0.69-7,0.6-14.102,1.89-21.051c1-5.32,2-10.65,3.25-15.92c0.636-3.246,1.798-6.367,3.44-9.24c1.399-2.209,3.3-4.061,4.899-6.141
	c4.425-5.809,6.393-13.123,5.48-20.369c-0.101-0.721-10.3,2.58-11.181,3c-3.677,1.545-7.06,3.713-10,6.41
	c-2.359,2.24-4.21,5.24-6.279,7.76c-2.92,3.553-5.794,7.127-8.62,10.721C330.764,622.1,327.583,626.25,324.45,630.43z"/>
<path fill="#464353" d="M346.11,600.049c0.64,3.061,3.609,5.4,3.689,8.531c0.07,2.5-1.71,4.6-3,6.75
	c-1.212,2.223-2.235,4.545-3.06,6.939c-2.429,6.229-5.442,12.211-9,17.869c-1.71,2.721-3.63,5.67-3.23,8.861
	c0.269,1.488,0.793,2.92,1.55,4.23l5.141,10.209c1.126,2.039,2.006,4.203,2.62,6.449c0.449,1.941,0.489,4,0.75,5.92
	c0.81,6.262,3.739,12.561,2,18.631c-0.15,0.52-0.7,1.15-1.11,0.791c1.7,3.17,3.07,6.369,2.93,10c-0.06,1.889-0.64,3.85,0.061,5.609
	c0.392,0.658,0.656,1.385,0.78,2.141c0,0.51-0.24,1-0.29,1.51c-0.141,1.439,1.18,2.648,2.56,3.109c1.38,0.459,2.88,0.43,4.27,0.84
	c2.681,0.801,4.58,3.1,6.881,4.699c2.322,1.611,5.064,2.504,7.89,2.57c0.401,0.043,0.806-0.037,1.16-0.229
	c0.407-0.357,0.644-0.869,0.649-1.41c0.25-2.6-0.811-5.154-2.83-6.811c-0.416-0.281-0.759-0.658-1-1.1
	c-0.129-0.396-0.163-0.818-0.1-1.23c0.42-5.613,0.32-11.254-0.3-16.85c-0.271-1.773-0.358-3.57-0.26-5.361
	c0.296-1.471,0.439-2.969,0.43-4.469c-0.315-1.465-0.774-2.895-1.37-4.27c-0.79-2.551-0.57-5.291-0.65-8
	c-0.299-4.627-1.056-9.213-2.26-13.691c-0.264-1.805-0.998-3.508-2.13-4.939c-1.07-1.119-2.8-2.18-2.39-3.67
	c0.227-0.551,0.567-1.049,1-1.461c1.007-1.256,1.451-2.873,1.229-4.469c0.927,0.236,1.891-0.217,2.3-1.08
	c8.5-4.205,14.997-11.594,18.08-20.561c0.177-0.646,0.45-1.264,0.811-1.83c0.77-1.08,2.12-1.549,3.31-2.15
	c3.74-1.879,6.32-5.41,8.69-8.859c1.491-1.928,2.629-4.105,3.359-6.43c0.324-1.525,0.479-3.082,0.46-4.641l0.21-8
	c0.041-0.527-0.01-1.059-0.149-1.57c-0.204-0.479-0.499-0.914-0.87-1.279c-2.282-2.406-5.275-4.018-8.54-4.6
	c-2.19-0.391-4.43-0.32-6.65-0.5c-4.3-0.359-8.55-1.689-12.859-1.381c-6.76,0.5-12.78,5.191-16,11.17
	C349.69,598.18,348.51,599.981,346.11,600.049z"/>
<path fill="#514E7F" d="M121.72,722.52c1.476,0.512,3.045,0.699,4.6,0.551c0.11-1.271,1.82-1.551,3.09-1.49
	c0.631-0.031,1.26,0.105,1.82,0.4c0.32,0.199,0.56,0.5,0.87,0.709c0.552,0.303,1.171,0.461,1.8,0.461l6.62,0.559
	c2.95,0.25,6,0.48,8.78-0.58c0.554-0.164,1.045-0.492,1.41-0.939c0.75-1.07,0-2.609-1-3.391c-1-0.779-2.37-1.139-3.41-1.939
	c-2.3-1.75-2.61-5-3.83-7.641c-0.855-1.656-1.917-3.199-3.16-4.59c-0.903-1.195-1.955-2.271-3.13-3.199
	c-2.65-1.92-5.71-1.881-8.82-2.15c-2.2-0.199-4.27-0.33-5.85,1.621c-1.95,2.42-1.17,7.299-1.05,10.189
	C120.579,714.926,121,718.749,121.72,722.52z"/>
<path opacity="0.05" enable-background="new    " d="M121.72,722.52c1.476,0.512,3.045,0.699,4.6,0.551
	c0.11-1.271,1.82-1.551,3.09-1.49c0.631-0.031,1.26,0.105,1.82,0.4c0.32,0.199,0.56,0.5,0.87,0.709
	c0.552,0.303,1.171,0.461,1.8,0.461l6.62,0.559c2.95,0.25,6,0.48,8.78-0.58c0.554-0.164,1.045-0.492,1.41-0.939
	c0.75-1.07,0-2.609-1-3.391c-1-0.779-2.37-1.139-3.41-1.939c-2.3-1.75-2.61-5-3.83-7.641c-0.855-1.656-1.917-3.199-3.16-4.59
	c-0.903-1.195-1.955-2.271-3.13-3.199c-2.65-1.92-5.71-1.881-8.82-2.15c-2.2-0.199-4.27-0.33-5.85,1.621
	c-1.95,2.42-1.17,7.299-1.05,10.189C120.579,714.926,121,718.749,121.72,722.52z"/>
<path fill="#464353" d="M124.4,593.84c-2,0.65-2.9,3.17-2.53,5.27s1.63,3.9,2.67,5.75c2.94,5.27,4.22,11.301,6.69,16.801
	c1.85,4.109,4.35,7.91,6.18,12c1.83,4.09,3,8.77,1.85,13.139c-0.54,2.131-1.58,4.09-2.28,6.17c-0.684,2.283-1.133,4.627-1.34,7
	c-0.895,8.023-1.055,16.109-0.48,24.16c0.009,0.984,0.217,1.957,0.61,2.861c0.41,0.799,1.13,1.639,0.78,2.469
	c-0.14,0.33-0.44,0.57-0.59,0.9c-0.42,0.92,0.43,1.881,1.2,2.529c-0.277,0.498-0.748,0.861-1.3,1c1.144,0.727,1.676,2.117,1.31,3.42
	c-0.69,0.102-0.73,1.15-0.29,1.701c0.44,0.549,1.11,0.9,1.42,1.52c0.382,1.063-0.131,2.238-1.17,2.68
	c-1.016,0.396-2.126,0.48-3.19,0.24c-1.808-0.248-3.594-0.639-5.34-1.17c-0.589-0.145-1.146-0.398-1.64-0.75
	c-0.881-0.855-1.406-2.014-1.47-3.24c-0.409-3.316-0.533-6.662-0.37-10c0.29-16.16,0-32.34-0.7-48.49
	c-0.29-6.5-2.24-12.84-4.76-18.84c-1.389-3.078-2.938-6.082-4.64-9c-3.62-6.66-6.84-14-6-21.549c0.09-0.811,0.39-1.791,1.19-1.92
	c0.314-0.035,0.633,0.016,0.92,0.148c1.673,0.787,3.293,1.684,4.85,2.682C118.542,592.829,121.431,593.694,124.4,593.84z"/>
<path opacity="0.05" enable-background="new    " d="M124.4,593.84c-2,0.65-2.9,3.17-2.53,5.27s1.63,3.9,2.67,5.75
	c2.94,5.27,4.22,11.301,6.69,16.801c1.85,4.109,4.35,7.91,6.18,12c1.83,4.09,3,8.77,1.85,13.139c-0.54,2.131-1.58,4.09-2.28,6.17
	c-0.684,2.283-1.133,4.627-1.34,7c-0.895,8.023-1.055,16.109-0.48,24.16c0.009,0.984,0.217,1.957,0.61,2.861
	c0.41,0.799,1.13,1.639,0.78,2.469c-0.14,0.33-0.44,0.57-0.59,0.9c-0.42,0.92,0.43,1.881,1.2,2.529c-0.277,0.498-0.748,0.861-1.3,1
	c1.144,0.727,1.676,2.117,1.31,3.42c-0.69,0.102-0.73,1.15-0.29,1.701c0.44,0.549,1.11,0.9,1.42,1.52
	c0.382,1.063-0.131,2.238-1.17,2.68c-1.016,0.396-2.126,0.48-3.19,0.24c-1.808-0.248-3.594-0.639-5.34-1.17
	c-0.589-0.145-1.146-0.398-1.64-0.75c-0.881-0.855-1.406-2.014-1.47-3.24c-0.409-3.316-0.533-6.662-0.37-10
	c0.29-16.16,0-32.34-0.7-48.49c-0.29-6.5-2.24-12.84-4.76-18.84c-1.389-3.078-2.938-6.082-4.64-9c-3.62-6.66-6.84-14-6-21.549
	c0.09-0.811,0.39-1.791,1.19-1.92c0.314-0.035,0.633,0.016,0.92,0.148c1.673,0.787,3.293,1.684,4.85,2.682
	C118.542,592.829,121.431,593.694,124.4,593.84z"/>
<path fill="#464353" d="M97.08,574.19c-1.055-0.674-2.27-1.057-3.52-1.109c-1.441,0.227-2.777,0.891-3.83,1.9
	c-1.335,1.031-2.605,2.146-3.8,3.34c-5.052,5.381-6.79,13.078-4.54,20.109c1.21,3.59,3.4,6.76,5.56,9.859l4.4,6.32
	c6.71,9.641,13.43,19.279,20.46,28.689c0.014,0.463,0.319,0.863,0.76,1c0.26,0.07,0.57,0.061,0.73,0.271
	c0.071,0.131,0.102,0.279,0.09,0.43c-0.025,0.682-0.156,1.357-0.39,2c-0.115,0.211-0.144,0.457-0.08,0.689
	c0.22,0.529,1.19,0.23,1.49,0.73c0.21,0.32,0,0.75-0.32,1c-0.32,0.25-0.6,0.59-0.55,1c0.05,0.41,0.72,0.789,0.69,1.289
	c0,0.281-0.24,0.49-0.41,0.711c-0.495,0.721-0.402,1.693,0.22,2.311c0.46,4.6-2,8.949-2.53,13.549
	c-0.79,7.23,2.48,14.291,2.88,21.551c-0.02,0.816,0.133,1.627,0.45,2.379c0.68,1.25,2.42,2,2.36,3.43
	c-0.124,0.588-0.288,1.166-0.49,1.73c0.013,0.83,0.1,1.656,0.26,2.471c0,0.83-0.7,1.82-1.47,1.5c0.58,1.92,1.093,3.855,1.54,5.811
	l15.4,1.27c0.164-1.387,0.116-2.789-0.14-4.16c-0.32-1.48-1-2.871-1.34-4.35c-0.459-1.469-0.235-3.064,0.61-4.352
	c-0.833,0.014-1.553-0.578-1.7-1.398c-0.14-0.791-0.14-1.6,0-2.391c0.41-4-1.28-8-1.23-12c0.05-3.18,1.16-6.23,1.73-9.35
	c1.2-6.68-0.05-13.93,2.92-20c1.8-3.68,4.29-7.76,2.27-11.32c-1-1.76-2.75-3-3.89-4.619c-0.935-1.559-1.639-3.242-2.09-5
	c-2.38-7.361-6.21-14.15-9.58-21.121c-0.931-1.75-1.624-3.617-2.06-5.551c-0.239-1.695-0.322-3.408-0.25-5.119
	c-0.01-3.074-0.2-6.146-0.57-9.199c-0.071-1.34-0.455-2.645-1.12-3.811c-0.652-0.877-1.467-1.621-2.4-2.189
	C108.55,579.049,102.53,577.059,97.08,574.19z"/>
<path fill="#514E7F" d="M115.53,728.161c1.477,0.51,3.045,0.697,4.6,0.549c0.12-1.27,1.82-1.549,3.09-1.49
	c0.615-0.018,1.225,0.123,1.77,0.41c0.32,0.201,0.56,0.5,0.88,0.711c0.551,0.305,1.17,0.463,1.8,0.459l6.61,0.561
	c2.95,0.25,6,0.48,8.79-0.58c0.55-0.166,1.037-0.494,1.4-0.939c0.75-1.07,0-2.609-1-3.391c-1-0.779-2.37-1.141-3.42-1.939
	c-2.29-1.75-2.61-5-3.83-7.641c-0.855-1.656-1.917-3.199-3.16-4.59c-0.899-1.195-1.948-2.271-3.12-3.199
	c-2.66-1.92-5.71-1.881-8.82-2.15c-2.21-0.201-4.28-0.33-5.85,1.619c-2,2.42-1.18,7.301-1.06,10.191
	C114.354,720.575,114.796,724.393,115.53,728.161z"/>
<rect x="199.03" y="612.17" fill="#FFFFFF" width="78.03" height="78.029"/>
<circle fill="#A1616A" cx="183.77" cy="532.28" r="15.25"/>
<path fill="#A1616A" d="M169.39,536.799c-2.19,1.891-5.32,2-8.19,2.32c-6.133,0.625-12.102,2.354-17.62,5.1
	c-0.752,0.332-1.431,0.809-2,1.4c-0.482,0.648-0.823,1.393-1,2.18c-0.521,1.717-0.718,3.514-0.58,5.301c0.2,1.738,0.697,3.43,1.47,5
	c2.117,4.385,5.387,8.111,9.46,10.779c0.691,0.508,1.471,0.881,2.3,1.102c2,0.42,3.95-0.75,5.92-1.271
	c1.803-0.465,3.702-0.402,5.47,0.18c1.66,0.551,3.41,1.561,5,0.891c1.032-0.58,1.835-1.492,2.28-2.59
	c1.559-2.955,2.948-5.996,4.16-9.109c0.437-1.207,0.941-2.389,1.51-3.541c1.77-3.369,4.83-6,6.35-9.459
	c0.312-0.543,0.363-1.197,0.14-1.781c-0.282-0.389-0.671-0.688-1.12-0.859c-2.251-1.289-4.303-2.9-6.09-4.779
	c-1-1-2.85-3.561-4.29-3.791C170.98,533.661,170.49,535.86,169.39,536.799z"/>
<path fill="#514E7F" d="M169.75,567.79c-1.77,0.85-3.85,0.471-5.77,0.07c-4.94-1-9.93-2.08-14.5-4.221
	c-1.43-0.539-2.668-1.488-3.56-2.729c-0.565-1.061-0.905-2.225-1-3.42l-0.84-5.67c-0.29-2,0.22-3.82,0.26-5.82
	c0.064-0.451-0.054-0.908-0.33-1.27c-0.279-0.232-0.639-0.344-1-0.311c-2.29,0-3.67,2.43-5.28,4.061
	c-0.922,0.938-2.024,1.678-3.24,2.18c-1.47,0.6-3.28,1-3.87,2.49c-0.25,0.609-0.22,1.309-0.47,1.92c-1,2.439-5.4,1.629-6.51,4
	c-0.32,0.68-0.3,1.539-0.83,2.08c-0.53,0.539-1.5,0.52-2.3,0.658c-3.18,0.521-4.73,4.201-7.45,5.932
	c-2.29,1.459-5.24,1.43-7.7,2.568c-1.281,0.768-2.618,1.436-4,2c-1.531,0.268-3.09,0.346-4.64,0.23
	c-0.338-0.029-0.674,0.078-0.93,0.301c-0.185,0.299-0.239,0.66-0.15,1c1.537,9.801,8.133,18.061,17.35,21.73
	c0.523,0.168,1.021,0.406,1.48,0.709c1.39,1,1.63,3.27,3.2,4c1.161,0.398,2.446,0.121,3.34-0.721
	c0.857-0.836,1.663-1.723,2.41-2.658c1.438-1.496,3.322-2.486,5.37-2.82c1.89-0.301,4-0.08,5.53-1.24
	c0.626-0.576,1.208-1.197,1.74-1.859c1.148-1.066,2.513-1.871,4-2.361c3.998-1.543,8.219-2.436,12.5-2.639
	c4-0.23,8.15,0.139,11.94-1.172c0.986-0.297,1.895-0.809,2.66-1.5c0.818-0.883,1.427-1.938,1.78-3.09
	C170.319,576.223,170.599,571.93,169.75,567.79z"/>
<path fill="#514E7F" d="M150.09,545.321c1.13-0.102,2.26,0,3.39,0c1.33,0,2.64-0.32,4-0.33c4.315,0.07,8.083,2.938,9.3,7.08
	c0.114,0.32,0.135,0.666,0.06,1c-0.092,0.34-0.419,0.561-0.77,0.52c-0.438-1.205-1.012-2.355-1.71-3.43
	c-1.269-1.719-3.068-2.969-5.12-3.561c-2.051-0.58-4.212-0.66-6.3-0.23c-0.86,0.16-1.71,0.391-2.56,0.631l-4.15,1.119
	c-0.75,0.201-1.5,0.41-2.23,0.68c-0.56,0.201-1.53,1-2.08,1c-0.75,0-0.14-0.648,0.19-1.09c0.662-0.906,1.593-1.582,2.66-1.93
	C146.477,546.077,148.263,545.584,150.09,545.321z"/>
<path fill="#A1616A" d="M160.37,591.129c1,3.16,2,6.32,3.21,9.4c2.214,5.342,5.004,10.424,8.32,15.16
	c2.133,3.117,4.426,6.121,6.87,9c3.06,3.609,6.48,7.24,7.56,11.85c0.63,2.66,0.42,5.451,0.68,8.17c0.26,2.721,1.15,5.611,3.35,7.24
	c1.671,1.033,3.563,1.658,5.52,1.82c1.38,0.221,3.11,0.289,3.83-0.91c0.252-0.488,0.383-1.029,0.38-1.58l0.33-4
	c0.08-0.859,0.38-2,1.24-2c0.86,0,1.3,1.109,2,1.621c1.055,0.568,2.371,0.174,2.94-0.881c0.021-0.039,0.041-0.08,0.06-0.119
	c0.441-1.121,0.47-2.361,0.08-3.5c-1.201-4.578-4.297-8.426-8.51-10.58c-1.45-0.596-2.843-1.322-4.16-2.17
	c-1.34-1.154-2.45-2.553-3.27-4.121c-7.57-12.449-15.17-25-20.5-38.51c-1.051-2.42-1.761-4.975-2.11-7.59
	c-0.108-2.672,0.002-5.348,0.33-8c0.325-4.805-0.111-9.631-1.29-14.301c-0.26-1.225-0.723-2.396-1.37-3.469
	c-2.19-3.34-7.36-3.83-10.62-1.531c-2.425,1.869-3.956,4.67-4.22,7.721c-0.24,2.689,1.32,5.5,2.11,8
	C155.543,575.616,157.957,583.377,160.37,591.129z"/>
<path fill="#464353" d="M205.96,521.5c0.12-1.27-1-2.42-2.31-3.23c-1.362-0.705-2.672-1.508-3.92-2.4c-1.16-1-1.79-2.311-2.95-3.311
	c-1.314-1.002-2.807-1.746-4.4-2.189c-3.382-1.189-6.935-1.828-10.52-1.889c-3.542-0.096-7.037,0.828-10.07,2.658
	c-0.668,0.414-1.25,0.953-1.71,1.592c-0.436,0.781-0.718,1.641-0.83,2.529c-0.65,2.736-1.53,5.412-2.63,8
	c-1.13,2.879-2.34,5.859-5,8.08c-2.85,2.379-7.22,3.75-9.1,6.619c-0.416,0.521-0.567,1.203-0.41,1.85
	c0.27,0.721,1.14,1.211,1.93,1.672c4.63,2.658,8.62,6.1,10.68,10.219c2.203,4.068,1.835,9.049-0.94,12.75
	c-1.07,1.4-2.55,3.061-1.5,4.471c1.59,2.139,7.08,0.92,8.34,3.18c0.262,0.752,0.32,1.559,0.17,2.34c0,2.369,2.29,4.49,5.07,5.58
	c2.937,0.996,6.019,1.504,9.12,1.5c0.838-1.863,0.921-3.979,0.23-5.9c-0.207-0.414-0.287-0.881-0.23-1.34
	c0.217-0.508,0.562-0.953,1-1.289c3.35-3.16,2.64-7.811,0.63-11.561c-2.01-3.75-5.13-7.189-6.29-11.141c-0.58-2-0.59-4.17,1-5.799
	c0.893-0.783,1.854-1.486,2.87-2.102c1.803-1.229,3.197-2.971,4-5c0.93-2.6,0.79-5.729,3.53-7.449c2.74-1.721,6.29-1.16,9.18-2.27
	C203.23,526.741,205.78,523.35,205.96,521.5z"/>
<circle fill="#FBBEBE" cx="291.47" cy="526.89" r="16.63"/>
<path fill="#FBBEBE" d="M306.44,526.19c3.102,4.955,8.082,8.438,13.8,9.65l-1.25,4.539c-2.16,7.82-4.601,16.102-10.641,21.521
	c0.531-2.717-0.08-5.529-1.689-7.781c-1.597-2.219-3.496-4.205-5.64-5.9l-9.57-8.33c-0.293-0.213-0.539-0.486-0.72-0.799
	c-0.235-0.584-0.235-1.236,0-1.82c1.22-3.801,4.7-6.17,7.52-8.73c1.421-1.326,2.692-2.805,3.79-4.41
	C304,521.43,305.23,524.161,306.44,526.19z"/>
<path fill="#3F3D56" d="M308.56,547.7c0.093,1.244-0.073,2.494-0.489,3.67c-0.48,1.188-1.757,1.842-3,1.541
	c0.35-0.791-0.57-1.691-1.43-1.59c-0.859,0.193-1.568,0.793-1.9,1.609c-0.578,1.148-0.77,2.453-0.55,3.719
	c0.27,1.58,1.18,3.092,0.94,4.672c-0.19,1.309-1.16,2.619-0.64,3.85c0.333,0.555,0.751,1.055,1.24,1.479
	c1.404,1.736,1.207,4.266-0.45,5.762l13,0.25c-0.48,2.17,0.5,4.389,1.609,6.309c6.301,10.73,17.264,17.887,29.62,19.34
	c-1.229,0.723-1.639,2.303-0.917,3.531c0.085,0.146,0.185,0.283,0.297,0.41c1.061,1.049,2.841,0.92,4.16,0.24
	c1.252-0.807,2.444-1.697,3.57-2.67c2.122-1.521,4.719-2.232,7.32-2c1.63,0.148,3.199,0.67,4.829,0.76
	c4.801,0.26,8.931-3.201,13.521-4.611c3.37-1,7.18-1,10-3.139c1.22-0.9,2.22-2.381,1.86-3.861c-0.301-0.844-0.778-1.615-1.4-2.26
	c-1.63-2.109-2.58-4.639-3.75-7c-2.306-4.732-5.484-8.986-9.37-12.539c-2.924-2.566-6.024-4.922-9.28-7.051
	c-0.791-0.58-1.635-1.086-2.52-1.51c-1.179-0.383-2.328-0.852-3.44-1.4c-1.529-1-2.399-2.65-3.569-4c-2.57-3-6.521-4.369-9.69-6.73
	c-2.12-1.58-4-3.658-6.53-4.43c-1.229-0.369-2.55-0.4-3.779-0.77c-2.801-0.85-4.84-3.34-7.59-4.34
	c-2.171-0.801-4.57-0.59-6.87-0.881c-2.533-0.313-4.954-1.229-7.061-2.67c-0.686-0.563-1.454-1.014-2.28-1.34
	c-3.47-1-3.75,5.42-4.079,7.66C309.42,540.981,308.56,544.331,308.56,547.7z"/>
<path fill="#FBBEBE" d="M311.95,569.411c0.58,6.309-4.19,12.43-2.8,18.619c0.3,1.32,0.859,2.57,1.069,3.9
	c0.58,3.67-1.609,7.141-3.7,10.209l-18,26.342c-0.715,1.16-1.575,2.227-2.56,3.17c-3.44,3.049-8.58,2.729-13.09,3.648
	c-3.169,0.646-6.161,1.971-8.77,3.881c-0.239,0.189-0.288,0.533-0.11,0.779c1.512,2.063,3.968,3.215,6.52,3.061
	c0.47,0.619,0,1.541-0.65,2c-1,0.67-2.29,0.85-2.48,2.48c-0.066,0.57,0.046,1.146,0.32,1.65c0.728,1.105,1.857,1.887,3.15,2.18
	c6.21,1.9,12.92-1.441,17.57-6c4.65-4.561,8-10.27,12.56-14.9c2.53-2.561,5.4-4.75,8-7.23c5.189-5,9.229-11,13.13-17
	c1.271-1.752,2.231-3.711,2.84-5.789c0.479-2.051,0.26-4.23,0.82-6.26c0.72-2.67,2.67-4.801,4.3-7c3.189-4.391,5.31-9.75,4.89-15.16
	s-3.77-10.73-8.86-12.57c-1.59-0.639-3.344-0.742-5-0.301c-2.09,0.641-3.63,2.371-5.06,4l-3.41,3.941c-0.854,0.859-1.534,1.879-2,3
	c-0.446,1.156-0.172,2.467,0.7,3.35"/>
<path fill="#3F3D56" d="M321.03,543.481c-2.36,0.139-5,0.369-6.63,2c-0.697,0.773-1.258,1.658-1.66,2.619
	c-1.62,3.289-3.2,6.74-3.311,10.41c-0.1,2.93,0.75,5.799,1.2,8.699c0.37,2.41-0.57,4.871-0.75,7.311
	c3.262-0.887,6.425-2.104,9.44-3.631c1.744-1.137,3.597-2.098,5.529-2.869c2.811-0.939,7.551,0.67,10.21,2
	c0.15-1.881-1.26-5.15-1.109-7c0.019-0.793,0.16-1.58,0.42-2.33c0.397-0.793,0.869-1.547,1.41-2.25
	c2.098-3.402,1.763-7.768-0.83-10.811c-2.37-2.67-6.09-3.67-9.641-4.09c-2.236-0.256-4.49-0.334-6.739-0.23"/>
<path fill="#464353" d="M269.56,510.17l-0.38-3.131c2.63,0.67,5.12-1.549,6.8-3.859s3.23-5,5.78-6c3.11-1.17,6.4,0.699,9.37,2.24
	c3.318,1.873,6.97,3.082,10.75,3.561c0.603,0.025,1.2,0.123,1.78,0.289c1.93,0.689,2.85,3.109,3.13,5.311
	c0.28,2.199,0.2,4.539,1.15,6.5c0.729,1.479,2,2.59,2.72,4c2,3.93,0.07,9.309,2.22,13.17l-5.33-4.881
	c-0.49-0.449-1.18-0.92-1.71-0.539c-0.53,0.379-0.46,1-0.64,1.469c-0.62,1.412-2.266,2.053-3.676,1.434
	c-0.039-0.018-0.076-0.035-0.114-0.053c-1.347-0.768-2.506-1.826-3.39-3.1c-2.216-2.836-5.131-5.045-8.46-6.41
	c-2.919-1.127-6.184-0.934-8.95,0.529c-2.49,1.41-4.31,4.68-7.36,4.791c-4.18,0.16-5.92-7.621-7.85-10.691
	c1.456-1.102,1.918-3.086,1.1-4.719C266.79,509.981,269.5,509.69,269.56,510.17z"/>
<path fill="#EF233C" d="M645.781,312.27c-1.66,0.732-3.42,1.214-5.221,1.43c1.893-1.131,3.313-2.906,4-5
	c-1.787,1.06-3.742,1.807-5.779,2.21c-3.416-3.673-9.16-3.882-12.834-0.468c-1.854,1.725-2.904,4.145-2.896,6.678
	c-0.006,0.7,0.072,1.398,0.23,2.08c-7.316-0.363-14.133-3.826-18.74-9.52c-2.41,4.163-1.178,9.482,2.82,12.16
	c-1.449-0.036-2.869-0.428-4.131-1.14v0.11c0,4.334,3.053,8.069,7.301,8.93c-0.783,0.209-1.59,0.317-2.4,0.32
	c-0.574-0.001-1.146-0.058-1.711-0.17c1.197,3.703,4.609,6.24,8.5,6.32c-3.221,2.532-7.201,3.906-11.299,3.9
	c-0.727-0.003-1.451-0.046-2.17-0.13c4.143,2.691,8.979,4.119,13.92,4.11c16.75,0,25.898-13.87,25.898-25.91c0-0.393,0-0.783,0-1.17
	C643.042,315.711,644.57,314.105,645.781,312.27z"/>
<path fill="#EF233C" d="M612.73,508.059l3,7.531l19.59,20.77l6.561-6.18l4.129,4.369l4.371-4.129l0.25-8.49l5.459-5.16l0.441-14.869
	L639,483.321L612.73,508.059z M652.23,503.901l-0.25,8.5l-6.561,6.18l-0.25,8.5l-4.119-4.371l-5.471,5.16l-17.57-18.59l20.771-19.59
	L652.23,503.901z"/>
<path fill="#EF233C" d="M636.281,500.18l3.279-3.09l8.32,8.811l-3.281,3.08L636.281,500.18z M628.63,507.401l3.279-3.102l8.311,8.82
	l-3.281,3.09L628.63,507.401z"/>
<path fill="#2424ED" d="M250.23,626.981h-32.08c-1.104,0-2,0.895-2,2v32.09c0,1.104,0.896,2,2,2h16V648.78h-4.31v-5.26h4.39v-3.891
	c0-4.65,3.23-7.189,7.39-7.189c2,0,4.14,0.15,4.63,0.221v4.859h-3.31c-2.26,0-2.7,1.07-2.7,2.65v3.35h5.39l-0.7,5.26h-4.7v14.279h10
	c1.104,0,2-0.895,2-2v-32.078C252.23,627.875,251.334,626.981,250.23,626.981z"/>
<path fill="#EF233C" d="M530.71,397.98c4.144,0.011,7.499,3.366,7.51,7.51v15c-0.011,4.143-3.366,7.498-7.51,7.51h-15
	c-1.991-0.004-3.899-0.795-5.31-2.201c-1.418-1.402-2.214-3.314-2.21-5.309v-15c0.011-4.148,3.372-7.505,7.52-7.51H530.71
	 M530.71,394.98h-15c-5.803,0.017-10.504,4.717-10.52,10.521v15c0.016,5.803,4.717,10.504,10.52,10.52h15
	c5.788-0.016,10.481-4.693,10.521-10.48v-15C541.23,399.724,536.526,395.002,530.71,394.98z"/>
<path fill="#EF233C" d="M532.96,405.51c-1.248,0.006-2.265-1.002-2.27-2.25c-0.006-1.248,1.001-2.265,2.25-2.27
	c1.248-0.006,2.264,1.002,2.27,2.25c0,0.007,0,0.013,0,0.02c0.006,1.237-0.993,2.245-2.229,2.25
	C532.974,405.51,532.967,405.51,532.96,405.51z M523.23,406.981c3.313,0,6,2.686,6,6c0,3.313-2.687,6-6,6c-3.314,0-6-2.688-6-6
	C517.23,409.667,519.916,406.981,523.23,406.981 M523.23,403.981c-4.971,0-9,4.029-9,9c0,4.969,4.029,9,9,9c4.97,0,9-4.031,9-9
	C532.23,408.01,528.2,403.981,523.23,403.981z"/>
<path fill="#EF233C" d="M994.919,564.86c0-4.221-3.109-7.619-7-7.619c-5.209-0.25-10.51-0.34-15.93-0.34H970.3
	c-5.41,0-10.73,0.09-15.93,0.34c-3.83,0-6.941,3.41-6.941,7.639c-0.24,3.352-0.34,6.691-0.33,10c0.012,3.311,0.09,6.691,0.32,10
	c0,4.23,3.111,7.66,6.941,7.66c5.459,0.25,11.068,0.361,16.77,0.361c5.699,0,11.299-0.102,16.779-0.361c3.84,0,7-3.43,7-7.66
	c0.221-3.35,0.33-6.689,0.32-10.049c-0.01-3.361-0.09-6.68-0.311-10V564.86z M966.589,584.129V565.67l13.621,9.219L966.589,584.129z
	"/>
<path fill="#EF233C" d="M498.23,210.98c-11.598-0.104-21.084,9.213-21.188,20.811c-0.076,8.477,4.952,16.168,12.747,19.499
	c-0.09-1.619,0.031-3.242,0.36-4.83c0.409-1.71,2.71-11.47,2.71-11.47c-0.462-1.046-0.693-2.178-0.681-3.32
	c0-3.12,1.811-5.45,4.061-5.45c1.92,0,2.84,1.44,2.84,3.16c0,1.92-1.23,4.8-1.86,7.46c-0.444,1.739,0.605,3.509,2.345,3.954
	c0.318,0.081,0.647,0.114,0.976,0.097c4,0,6.67-5.12,6.67-11.19c0-4.61-3.11-8.05-8.75-8.05c-5.52-0.199-10.154,4.114-10.354,9.633
	c-0.006,0.146-0.008,0.291-0.007,0.437c-0.065,1.502,0.431,2.974,1.391,4.13c0.351,0.279,0.474,0.757,0.3,1.17
	c-0.1,0.39-0.33,1.32-0.43,1.69c-0.064,0.398-0.439,0.668-0.837,0.604c-0.078-0.013-0.153-0.038-0.224-0.074
	c-2.939-1.2-4.31-4.42-4.31-8c0-6,5-13.14,15-13.14c8,0,13.32,5.81,13.32,12.05c0,8.25-4.591,14.42-11.36,14.42
	c-2.045,0.059-3.979-0.929-5.13-2.62c0,0-1.23,4.84-1.49,5.78c-0.482,1.597-1.193,3.116-2.11,4.51c1.949,0.571,3.97,0.86,6,0.86
	c11.632,0.002,21.063-9.424,21.065-21.055S509.861,210.983,498.23,210.98z"/>
<linearGradient id="SVGID_1_" gradientUnits="userSpaceOnUse" x1="699.3735" y1="-41.7573" x2="699.3735" y2="258.7368" gradientTransform="matrix(1 0 0 -1 -51.77 757.9502)">
	<stop  offset="0" style="stop-color:#808080;stop-opacity:0.25"/>
	<stop  offset="0.54" style="stop-color:#808080;stop-opacity:0.12"/>
	<stop  offset="1" style="stop-color:#808080;stop-opacity:0.1"/>
</linearGradient>
<path fill="url(#SVGID_1_)" d="M718.46,793.5c-0.811-3.43-1.301-6.43-1.301-6.43c0.068-2.27-0.445-4.516-1.49-6.531V779.6l0,0v-6.9
	c0.473-1.252,1.057-2.459,1.74-3.609c1.24-2.16,0-10.1,0-10.1s-4.6-11.191-3.49-18.291c1.111-7.1-9.439-31.529-9.439-31.529
	c0.066-2.363,0.402-4.713,1-7c0.113-0.479,0.158-0.971,0.131-1.461c0.004-0.059,0.004-0.119,0-0.18v0.061
	c-0.16-4.68-3.861-13.461-3.861-13.461l0.5-16.719c0,0,2.361-9.871-1.49-23.111c-1.35-4.619-2.209-8.309-2.76-11.17
	c-0.059-0.32-0.119-0.629-0.17-0.93c7.93-1.209,14-2.219,14-2.219s-4.6-19.25-7.709-22.621c-3.111-3.369-5.59-13.949-5.59-13.949
	s-1.621-13.6,1-17.57c2.619-3.971,3-10.83,3-10.83s6-4.33,6.709-6.26c1.059-2.74,1.732-5.615,2-8.541c0-2.289-0.75-4.33-0.5-5.539
	c0.25-1.211-1.74-5.77-0.74-7.939c0.258-0.668,0.391-1.377,0.391-2.092c0.004-0.02,0.004-0.039,0-0.059l0,0
	c0.004-1.896-0.174-3.789-0.529-5.65c-1.723-1.457-3.734-2.535-5.9-3.16l-0.131-0.51l-0.34-1.35c-0.188-0.133-0.385-0.248-0.59-0.35
	v-0.5v-2l0.93-4.4c1.84-7.631-8.359-8.771-8.359-8.771c-0.617-1.174-1.646-2.078-2.891-2.539c-2-0.721-0.34,11.5,0.621,12.279
	c0.719,0.58,3,4.42,4,6.301l0,0l0.18,0.311c-0.17,0.148-0.328,0.313-0.471,0.49l0.391,2.648l0.061,0.41
	c-0.678,0.838-1.229,1.771-1.631,2.771c0,0,1.869,2.049,1.49,4.34c-0.145,1.787,0.066,3.584,0.619,5.289
	c-0.109-0.129-1.42-1.551-2.729-1.199c-1.311,0.35-5,1.439-5,1.439s-2.74,0.48-2.49,1.08s-1.861,3.25-1.861,3.25l-7.35-7
	c-0.08-0.211-0.15-0.42-0.219-0.631c-0.303-0.979-0.514-1.982-0.631-3c0.797-0.189,1.58-0.441,2.34-0.75
	c0.76-0.268,1.447-0.713,2-1.299c0.617-0.961,1.02-2.041,1.18-3.17c0.58-2.141,1.83-4.051,2.73-6.08
	c1.484-3.412,1.977-7.172,1.42-10.85c-0.113-1.141-0.498-2.238-1.119-3.201c-1.201-1.65-3.381-2.32-5-3.641
	c-1.621-1.318-2.602-3.318-4.451-4.309c-1.758-0.766-3.717-0.936-5.58-0.48c-3.676,0.6-7.207,1.881-10.41,3.779
	c-1.08,0.641-2.25,1.371-3.49,1.15c-1.02-0.311-1.904-0.959-2.51-1.84c-0.004-0.037-0.004-0.074,0-0.109l-0.09-0.09
	c-0.771,1.729-1.16,3.605-1.141,5.5c0,0.289,0,0.58,0,0.879c0,0.1,0,0.201,0,0.301c0.006,0.086,0.006,0.174,0,0.26l0,0
	c-0.004,0.131-0.025,0.262-0.059,0.391c-0.152,0.377-0.385,0.719-0.68,1c-0.232,0.248-0.434,0.523-0.602,0.818
	c0-0.1,0.061-0.199,0.102-0.299c-0.473,0.68-0.74,1.482-0.771,2.311c-0.039,0.605,0.162,1.201,0.561,1.658
	c0.363,0.373,0.762,0.707,1.189,1c-0.141,0.807-0.211,1.623-0.209,2.441c0.025,4.975,2.65,9.576,6.92,12.129l0.25,0.631
	c1.064,2.525,1.52,5.266,1.33,8c0,0.199,0,0.391-0.09,0.59l-0.26,0.301l0,0c0,0-12.141,0.119-15-2.471
	c-2.861-2.59-7.211,6.32-7.211,6.32s-4.35,0.85-5.221,0c-0.869-0.85-6-0.121-6-0.121c-2.086-1.846-4.795-2.832-7.58-2.76
	c-1.697-1.295-3.574-2.338-5.568-3.1l0,0l-0.141-0.051l0,0c-0.877-0.316-1.813-0.432-2.74-0.34c0,0-6-4.939-7.699-7.58
	c-1.701-2.639-10-12.469-10.07-12.52v-0.469l-0.1-1.432c-0.246,0.041-0.492,0.064-0.74,0.07c0-0.15-0.1-0.311-0.17-0.5
	c-0.479-1.379-1.066-2.717-1.76-4c0,0,0-1.799,0.529-2.25c0.529-0.449-0.221-7.07-0.221-7.07s-5.379-12.568-10.189-3.189
	c0,0-9.109,6.07-1.471,13.15c0,0,3,1.471,3.48,2.641c0.291,0.76,1.32,2.889,2,4.299l0.311,0.631l-0.09,0.07l0.119,1.18v0.459
	c-1.439,0.811-2.41,1.621-2.18,2.24c0.428,1.041,0.721,2.135,0.871,3.25c0,0,10.568,13.23,11.939,18.891
	c0,0,28.34,16.84,37.66,18.049l-1.611,8.42c-0.24,2.279-0.363,4.57-0.369,6.861c0.119,1.799-1.119,10-1.119,10s-1.621,12-3,13.709
	c-1.381,1.711-1.121,8.91-1.121,8.91c-0.324,3.455-0.945,6.873-1.859,10.221c-1.371,4.58-0.371,10.23-0.371,10.23
	s-4.729,10.83,6.59,3.488c0,0,5.551-0.34,12-0.559c0,0.209,0,0.42,0,0.639c0,0.82,0,1.711,0,2.65
	c-0.08,6.201-0.119,14.75,0.16,21.221c0.5,11.43,4,34,4,34V708.7c-0.217,1.07-0.324,2.158-0.318,3.25
	c-0.084,4.008,0.977,7.955,3.059,11.381l0.871,7.58c0,0,2,5,2.08,8c-0.008,0.242-0.039,0.482-0.09,0.719
	c-0.076,0.383-0.109,0.771-0.102,1.16c-0.109,3.441,2,11.68,2,11.68s0.131,8.301,1.371,8.781c1.061,0.41-1.42,4.789-2.16,6
	c-0.021-0.08-0.039-0.16-0.051-0.24c-0.09,0.16-0.15,0.25-0.15,0.25c-0.258,0.67-0.389,1.381-0.389,2.1
	c-0.148,1.158,0.391,2.299,1.379,2.92c2.361,1.451,3.631,2.65,1.631,3.131c-0.738,0.111-1.469,0.266-2.189,0.459
	c0-0.09-0.08-0.189-0.111-0.279c-0.537,0.24-0.854,0.805-0.779,1.391c0.021,0.982,0.279,1.945,0.75,2.809
	c0.877,2.172,2.004,4.232,3.359,6.141l1-0.109c-0.145,0.354-0.332,0.689-0.559,1c-0.359,0.521-0.84,0.947-1.4,1.238
	c-0.521,0.311-1.1,0.512-1.701,0.592c-1.363,0.035-2.646,0.658-3.52,1.709c-1.24,1.6-2,3.791,0.43,5.711l8.891,3.059
	c0,0,15.289,2,14.48-1.439c-0.811-3.439-1.301-6.43-1.301-6.43c0.061-2.1-0.367-4.184-1.25-6.09c-0.152-0.316-0.334-0.617-0.539-0.9
	l0.539-0.061c0,0,1.121-7.58,2.609-9c0.352-0.33,0.432-0.59,0.342-0.789c0.158-0.41-0.23-0.65-0.73-0.791l-0.111,0.301
	c-0.486-0.102-0.982-0.156-1.479-0.16c0,0-0.5-4,1.109-5.42c0.266-0.332,0.383-0.76,0.32-1.18c0.008-0.545-0.049-1.09-0.17-1.621
	l-0.061,0.102c-0.918-3.209-2.113-6.33-3.57-9.33c0,0-0.119-3.611,0.871-5.061s-0.121-19.609-0.121-19.609s0.371-8.781-0.75-12.871
	c-1.119-4.09,1.371-8.91,1.371-8.91v-0.26v-0.061c0,0-0.061-0.539-0.15-1.389v0.09c-0.25-2.33-0.721-6.541-1.07-8.48
	c-0.5-2.77,0.119-16,0.119-16l2.24-5.65l4,9.74l4.221,13c1.205,1.609,1.949,3.52,2.15,5.52c0,0.141,0,0.281,0,0.41
	c-0.02,0.291-0.02,0.58,0,0.871c-0.07,1.641,0.381,3.262,1.289,4.629c0,0,1.121,6.141,2.861,7.701
	c1.738,1.559,1.738,4.57,1.738,4.57s2.111,8.908,3.111,10.469c0.84,1.32,0.879,4.939,0.869,6l0,0v0.33c0,0,0.291,3.18,0.281,5.859
	c0,0.32,0,0.65,0,1v-0.068c-0.002,0.727-0.09,1.451-0.262,2.16v0.129c0-0.15,0-0.311,0-0.449c-0.445,1.814-0.66,3.68-0.639,5.549
	c-0.061,3.201,0.43,7,2.369,9.211c3.361,3.85,5.471,3.369,5.471,3.369s-1.621,4.811-3.609,5.781
	c-0.076,0.035-0.146,0.078-0.211,0.129c0-0.09,0-0.189-0.051-0.279c-0.436,0.492-0.646,1.145-0.58,1.799
	c0.092,2.57,0.947,5.053,2.461,7.131c0.467,0.469,1.045,0.813,1.68,1l-0.311,0.189c-0.223,0.123-0.453,0.232-0.689,0.33
	c-0.316,0.141-0.654,0.227-1,0.26c-1.365,0.037-2.648,0.66-3.52,1.711c-1.24,1.6-2,3.789,0.43,5.709l8.891,3.061
	C704.13,794.94,719.23,796.981,718.46,793.5z"/>
<path fill="#2D293D" d="M660.06,799.18l-8.609-3.061c-2.371-1.92-1.611-4.109-0.41-5.709c0.826-1.043,2.07-1.668,3.4-1.711
	c0.584-0.078,1.146-0.279,1.648-0.59c0.547-0.299,1.014-0.725,1.361-1.24c0.637-0.994,0.982-2.148,1-3.33c0,0,9.449-2.76,12,0
	c0.461,0.502,0.85,1.068,1.148,1.68c0.852,1.916,1.262,3.996,1.201,6.09c0,0,0.48,3,1.26,6.432
	C674.839,801.17,660.06,799.18,660.06,799.18z"/>
<path fill="#2D293D" d="M702.169,794.981l-8.6-3.061c-2.379-1.92-1.619-4.111-0.42-5.701c0.826-1.049,2.074-1.678,3.41-1.719
	c0.346-0.031,0.684-0.119,1-0.26c0.229-0.094,0.447-0.205,0.66-0.33c2.41-1.32,2.35-4.57,2.35-4.57s9.439-2.77,12,0
	c0.346,0.375,0.648,0.787,0.9,1.23c1.016,2.025,1.514,4.273,1.449,6.539c0,0,0.48,3,1.26,6.43
	C716.96,796.969,702.169,794.981,702.169,794.981z"/>
<path opacity="0.1" enable-background="new    " d="M670.46,783.54c0.463,0.502,0.85,1.068,1.15,1.68l0,0l-14.16,1.641
	c0.637-0.994,0.982-2.148,1-3.33C658.451,783.53,667.88,780.78,670.46,783.54z"/>
<path opacity="0.1" enable-background="new    " d="M713.48,780.53v2.65c-2.199,3.629-12.85,2.84-15.939,1
	c0.227-0.094,0.447-0.205,0.66-0.33c2.41-1.32,2.35-4.57,2.35-4.57s9.439-2.77,12,0C712.908,779.659,713.22,780.079,713.48,780.53z"
	/>
<path fill="#464353" d="M715.169,769.1c-0.664,1.154-1.229,2.361-1.689,3.609v9.51c-2.4,4-14.92,2.65-16.6,0.48
	s-3.49-7.82-1.57-8.779c1.92-0.961,3.49-5.781,3.49-5.781s-2,0.48-5.291-3.369c-3.289-3.85-2.279-12.391-1.68-14.439
	c0.6-2.051,0-8.9,0-8.9s0.121-4.811-0.84-6.381c-0.959-1.57-3-10.469-3-10.469s0-3-1.68-4.57s-2.77-7.701-2.77-7.701
	c-0.986-1.531-1.41-3.359-1.201-5.17c0.361-3-2.049-6.26-2.049-6.26l-4.09-13l-3.852-9.75l-2.16,5.65c0,0-0.609,13.24-0.119,16
	s1.199,10.1,1.199,10.1s-2.408,4.82-1.318,8.91s0.719,12.871,0.719,12.871s1.08,18.17,0.121,19.619c-0.961,1.449-0.84,5-0.84,5
	s4.93,10.59,3.359,12s-1.08,5.42-1.08,5.42s3.369,0,1.93,1.439c-1.439,1.441-2.529,9-2.529,9l-14.57,1.842
	c-1.314-1.918-2.408-3.979-3.26-6.141c-1.92-4.451,0.359-4,2.299-4.451c1.941-0.449,0.711-1.68-1.58-3.129
	c-2.289-1.451-1-4.689-1-4.689s3.49-5.9,2.291-6.381s-1.33-8.779-1.33-8.779s-2.4-9.871-1.801-12.51c0.602-2.641-1.93-9-1.93-9
	l-0.84-7.58c-2.564-4.313-3.486-9.404-2.6-14.34V697.27c0,0-3.369-22.619-3.859-34c-0.301-7.32-0.221-17.311-0.121-23.551
	c0.061-3.488,0.121-5.809,0.121-5.809l52-5.41c0.082,2.596,0.4,5.18,0.949,7.719c0.529,2.852,1.359,6.551,2.66,11.17
	c3.73,13.23,1.449,23.102,1.449,23.102l-0.479,16.719c0,0,4.568,11.191,3.609,15c-0.594,2.289-0.928,4.637-1,7
	c0,0,10.23,24.43,9.15,31.531c-1.08,7.1,3.379,18.24,3.379,18.24S716.371,766.981,715.169,769.1z"/>
<path opacity="0.05" enable-background="new    " d="M685.451,706.42l15.779-2.111C701.23,704.309,692.31,713.45,685.451,706.42z"/>
<path opacity="0.1" enable-background="new    " d="M698.98,688.85c0,0,0.551,5.59-2.881,7.699
	C696.099,696.549,702.23,695.59,698.98,688.85z"/>
<path opacity="0.1" enable-background="new    " d="M698.009,671.04c0,0-13.219,10.891-18,10
	C675.23,680.151,698.009,671.04,698.009,671.04z"/>
<path opacity="0.1" enable-background="new    " d="M665.83,711.53c0,0-10,2.291-10.34,6.32S665.83,711.53,665.83,711.53z"/>
<path opacity="0.05" enable-background="new    " d="M668.041,761.7c0,0-14.191,2.65-10.16,4.461
	c3.457,1.365,7.018,2.449,10.65,3.24C668.531,769.401,673.099,769.639,668.041,761.7z"/>
<g opacity="0.05">
	<path d="M655.009,768.981c-0.723-0.455-1.201-1.213-1.299-2.061l-0.141,0.26c0,0-1.33,3.24,1,4.689c0.26,0.16,0.51,0.33,0.74,0.49
		c0.42-0.08,0.881-0.141,1.311-0.25C658.519,771.67,657.3,770.459,655.009,768.981z"/>
	<path d="M673.3,768.059c0.391-0.359,0.369-1.289,0.141-2.479c-0.582,1.068-0.861,2.273-0.811,3.49
		C672.773,768.686,673.001,768.34,673.3,768.059z"/>
	<path d="M671.111,708.2c-0.535,1.42-0.871,2.908-1,4.42c0.273-1.031,0.643-2.035,1.1-3C671.21,709.62,671.23,709.04,671.111,708.2z
		"/>
	<path d="M703.621,701.879c0.094-0.434,0.137-0.875,0.129-1.32c-0.18,0.9-0.299,1.74-0.389,2.471
		C703.441,702.651,703.519,702.27,703.621,701.879z"/>
	<path d="M670.769,750.981c0.279-0.861,0.402-1.766,0.361-2.672c-0.449,1.068-0.684,2.213-0.691,3.371
		C670.521,751.434,670.632,751.2,670.769,750.981z"/>
	<path d="M673.75,773.661c-0.742,2.416-1.295,4.887-1.65,7.389l-14.549,1.691c-1.32-1.914-2.414-3.975-3.26-6.141
		c-0.156-0.346-0.293-0.699-0.41-1.061c-0.871,0.4-1.221,1.301-0.07,4c0.844,2.164,1.938,4.221,3.26,6.131l14.541-1.689
		c0,0,1.09-7.58,2.529-9C674.849,774.209,674.4,773.85,673.75,773.661z"/>
	<path d="M654.531,752.049c0,0,0.119,8.311,1.318,8.791l0,0c0.611-1.371,1-2.67,0.471-2.891c-1.199-0.48-1.32-8.779-1.32-8.779
		s-2.41-9.871-1.799-12.52c0.609-2.65-1.932-9-1.932-9l-0.84-7.58c-2.572-4.301-3.514-9.385-2.648-14.32v-11.691
		c0,0-3.371-22.619-3.852-34.049c-0.309-7.32-0.219-17.311-0.119-23.551c0-1.119,0-2.119,0-3h-0.41c0,0-0.061,2.311-0.119,5.811
		c-0.102,6.23-0.191,16.23,0.119,23.551c0.48,11.43,3.85,34.049,3.85,34.049v11.67c-0.883,4.982,0.082,10.117,2.711,14.441
		l0.84,7.578c0,0,2.529,6.371,1.92,9C652.111,742.19,654.531,752.049,654.531,752.049z"/>
	<path d="M697.361,779.491c-1.184-1.713-1.969-3.666-2.301-5.721c-1.49,1.34,0.221,6.551,1.82,8.609
		c1.6,2.061,14.199,3.49,16.609-0.49V779.6C710.23,782.831,698.96,781.54,697.361,779.491z"/>
	<path d="M715.65,765.889c-0.658,1.156-1.221,2.363-1.68,3.611v1.689c0.27-0.619,0.66-1.439,1.199-2.41
		c0.387-0.951,0.566-1.973,0.531-3L715.65,765.889z"/>
	<path d="M698.099,767.79c0.461-0.926,0.859-1.881,1.191-2.859c0,0-2,0.48-5.301-3.371c-2.359-2.799-2.49-8.09-2.16-11.549
		c-0.6,2.049-1.57,10.59,1.68,14.439C695.64,766.981,697.23,767.629,698.099,767.79z"/>
	<path d="M691.83,741.11c0.209,2.371,0.289,4.75,0.24,7.131c0.08-0.471,0.17-0.852,0.24-1.121c0.609-2,0-8.9,0-8.9
		s0.119-4.818-0.84-6.379c-0.961-1.561-3-10.471-3-10.471s0-3-1.68-4.57c-1.68-1.568-2.771-7.699-2.771-7.699
		c-0.988-1.531-1.416-3.359-1.209-5.17c0.369-3-2-6.26-2-6.26l-4.09-13l-3.9-9.689l-2.17,5.648c0,0,0,0.711-0.07,1.83l1.76-4.59
		l3.852,9.74l4.09,13c0,0,2.398,3.25,2,6.25c-0.182,1.799,0.26,3.607,1.25,5.121c0,0,1.08,6.129,2.76,7.699s1.689,4.57,1.689,4.57
		s2,8.9,3,10.469C691.98,736.29,691.83,741.11,691.83,741.11z"/>
</g>
<path fill="#FFCDD3" d="M701.929,519.731l-0.898,4.398l0.049,2v1.441l-5,0.52l-0.561-1l0,0c-1-1.881-3.199-5.711-3.898-6.301
	c-0.932-0.779-2.58-13-0.602-12.27c1.217,0.467,2.215,1.369,2.801,2.529C693.82,511.049,703.71,512.09,701.929,519.731z"/>
<path opacity="0.1" enable-background="new    " d="M701.121,527.52l-5,0.52l-0.561-1l0,0c1.393-1.588,3.713-1.969,5.539-0.91
	L701.121,527.52z"/>
<path fill="#DCE6F2" d="M702.38,529.901l-6.611,1.539l-0.139-1l-0.381-2.65c1.508-2.01,4.359-2.418,6.371-0.91
	c0.014,0.01,0.025,0.02,0.039,0.031l0.33,1.35L702.38,529.901z"/>
<path fill="#FFCDD3" d="M595.14,520.209l-7.061,3.801l-0.641-1.34c-0.68-1.41-1.68-3.531-2-4.291c-0.42-1.17-3.369-2.65-3.369-2.65
	c-7.4-7.068,1.41-13.139,1.41-13.139c4.67-9.391,9.869,3.18,9.869,3.18s0.721,6.631,0.211,7.07s-0.51,2.26-0.51,2.26
	c0.674,1.285,1.246,2.623,1.709,4C595.031,519.799,595.14,520.209,595.14,520.209z"/>
<path opacity="0.1" enable-background="new    " d="M595.14,520.209l-7.061,3.801l-0.641-1.34c1-0.83,4.531-3.701,5.691-3.57
	c0.559,0.057,1.121,0.057,1.68,0C595.031,519.799,595.14,520.209,595.14,520.209z"/>
<path fill="#DCE6F2" d="M595.861,522.35l-7.941,3.91l-0.16-1.711l-0.109-1.17c0,0,4.6-3.949,6-3.799c0.689,0.098,1.391,0.098,2.08,0
	l0.09,1.43L595.861,522.35z"/>
<path fill="#FFCDD3" d="M682.679,548.911c0,0-34.629,3.91-28.16,1.809c4.512-1.469,6.301-4.33,6.682-7.51
	c0.174-2.729-0.268-5.463-1.291-8c-0.82-2.186-1.859-4.281-3.1-6.26c0,0,26.471-14.561,21.18-1.32c-0.822,2-1.33,4.115-1.5,6.271
	c-0.162,2.135,0.064,4.283,0.67,6.34C678.164,543.584,680.076,546.584,682.679,548.911z"/>
<path opacity="0.1" enable-background="new    " d="M677.99,527.62c-0.822,2-1.33,4.115-1.5,6.27c-2.5,2.092-5.23,2-8.74,2
	c-2.699,0-5.689,0.66-7.84-0.639c-0.82-2.186-1.859-4.283-3.1-6.26C656.81,528.991,683.281,514.379,677.99,527.62z"/>
<circle fill="#FFCDD3" cx="667.281" cy="522.45" r="14.32"/>
<path opacity="0.1" enable-background="new    " d="M682.679,548.911c0,0-34.629,3.91-28.16,1.809
	c4.512-1.469,6.301-4.33,6.682-7.51c1.719-1.869,5.18-3.219,7.41-3.93c2.027-0.682,4.219-0.717,6.27-0.1
	c0.805,0.217,1.574,0.555,2.279,1C678.154,543.545,680.066,546.569,682.679,548.911z"/>
<path opacity="0.1" enable-background="new    " d="M702.38,529.901l-6.611,1.539l-0.139-1c1.447-1.996,3.992-2.869,6.359-2.18
	L702.38,529.901z"/>
<path opacity="0.1" enable-background="new    " d="M595.861,522.35l-7.941,3.91l-0.16-1.711c2.574-1.377,5.25-2.561,8-3.539
	L595.861,522.35z"/>
<path opacity="0.1" enable-background="new    " d="M696.38,636.17c-13.41,2.109-32.5,4.869-35.531,3.949
	c-2.51-0.77-10.529-0.689-17.52-0.449c0.061-3.49,0.121-5.811,0.121-5.811l52-5.41C695.527,631.045,695.837,633.629,696.38,636.17z"
	/>
<path fill="#3F3D56" d="M709.75,632.981c0,0-44.16,7.578-48.9,6.129c-4.738-1.449-29.068,0.131-29.068,0.131
	c-10.951,7.33-6.371-3.49-6.371-3.49s-1-5.66,0.359-10.23c0.883-3.354,1.484-6.775,1.801-10.23c0,0-0.24-7.219,1.08-8.9
	c1.32-1.68,2.891-13.719,2.891-13.719s1.209-8.18,1.09-10c-0.121-1.82,0.359-6.85,0.359-6.85l1.561-8.432
	c-9-1.199-36.461-18.049-36.461-18.049c-1.32-5.65-11.549-18.891-11.549-18.891c-0.148-1.113-0.43-2.203-0.84-3.25
	c-0.721-1.92,10.109-5.77,10.109-5.77s8.061,9.869,9.74,12.51s7.459,7.58,7.459,7.58c0.898-0.09,1.807,0.029,2.65,0.35h0.141l0,0
	c1.934,0.764,3.746,1.805,5.379,3.09c2.715-0.066,5.348,0.928,7.34,2.771c0,0,4.941-0.721,5.781,0.119s5,0,5,0s4.219-8.9,7-6.32
	c2.779,2.58,14.51,2.471,14.51,2.471c1.57-2.08,5.369-3.57,7.76-4.34c2.029-0.684,4.221-0.717,6.27-0.1
	c0.893,0.248,1.732,0.654,2.48,1.199l7.121,7c0,0,2-2.65,1.809-3.25c-0.189-0.6,2.41-1.08,2.41-1.08s3.49-1.08,4.811-1.449
	c1.32-0.371,2.539,1.08,2.641,1.199c-0.535-1.709-0.738-3.504-0.602-5.291c0.109-1.576-0.408-3.131-1.439-4.328
	c4.25-10.281,13.76-1.58,13.76-1.58s1.08,5.648,0.121,7.818c-0.961,2.17,1,6.74,0.719,7.941c-0.279,1.199,0.48,3.25,0.48,5.529
	c-0.256,2.924-0.902,5.799-1.92,8.551c-0.73,1.92-6.5,6.25-6.5,6.25s-0.359,6.859-2.891,10.83c-2.529,3.969-1,17.568-1,17.568
	s2.4,10.592,5.41,14C705.259,613.879,709.75,632.981,709.75,632.981z"/>
<path opacity="0.1" enable-background="new    " d="M645.38,553.85c0,0-1.32-4-2.531-4.34c-1.195-0.441-2.361-0.963-3.488-1.561
	l0.779-1.48c0,0,4.52,1.24,5.24,2.561C646.099,550.35,645.38,553.85,645.38,553.85z"/>
<path opacity="0.1" enable-background="new    " d="M621.23,545.059c-0.24,1.211-10.939,2.291-10.939,2.291l5.41-5.43l0,0
	l0.139,0.049l0,0C617.777,542.731,619.593,543.772,621.23,545.059z"/>
<circle fill="#575988" cx="590.21" cy="528.55" r="0.96"/>
<circle fill="#575988" cx="591.441" cy="530.48" r="0.96"/>
<circle fill="#575988" cx="592.65" cy="532.25" r="0.96"/>
<circle fill="#575988" cx="593.91" cy="534.179" r="0.96"/>
<circle fill="#575988" cx="707.33" cy="534.07" r="0.78"/>
<circle fill="#575988" cx="707.451" cy="535.85" r="0.779"/>
<circle fill="#575988" cx="707.55" cy="537.621" r="0.78"/>
<path opacity="0.1" enable-background="new    " d="M645.441,586.45c-0.111-0.141,27,34.109,48.068,14.32
	C693.509,600.77,660.23,605.28,645.441,586.45z"/>
<path opacity="0.1" enable-background="new    " d="M629.861,604.26c0,0,16.229,0.439,17.93,5.109v4.861
	c-0.934,0.514-2.066,0.514-3,0c-1.641-0.881-11.451-5.871-14.91-3.471L629.861,604.26z"/>
<path fill="#3F3D56" d="M630.16,604.26c0,0,15.52,0.42,17.15,4.869v4.641c-0.9,0.494-1.99,0.494-2.891,0
	c-1.57-0.85-11-5.6-14.26-3.311V604.26z"/>
<path opacity="0.1" enable-background="new    " d="M638.72,568.981c1.658,3.834,3.77,7.457,6.289,10.789
	c2.746,3.689,6.076,6.906,9.861,9.52C654.871,589.29,638.99,571.25,638.72,568.981z"/>
<path opacity="0.1" enable-background="new    " d="M633.41,550.161c0,0,2.711,11.689,9.68,15.66L633.41,550.161z"/>
<path opacity="0.1" enable-background="new    " d="M629.23,551.34c-0.07-0.221-2.41,9.24,9,14.48
	C638.23,565.821,633.41,564.18,629.23,551.34z"/>
<path opacity="0.1" enable-background="new    " d="M700.13,543.5c-0.18,0,5.619,3.699,7.199,5.41
	C707.33,548.911,703.56,543.26,700.13,543.5z"/>
<path fill="#2D293D" d="M663.41,535.42c0.111,0.764,0.508,1.457,1.109,1.939c0.424,0.199,0.885,0.303,1.352,0.301
	c4.369,0.27,8.91,0.459,13-1.221c0.766-0.262,1.453-0.713,2-1.311c0.574-0.961,0.938-2.035,1.059-3.148
	c0.57-2.141,1.781-4,2.65-6.08c1.461-3.443,1.949-7.221,1.41-10.92c-0.107-1.139-0.48-2.234-1.09-3.201
	c-1.16-1.65-3.27-2.32-4.801-3.641c-1.529-1.318-2.52-3.33-4.299-4.318c-1.697-0.756-3.598-0.926-5.4-0.48
	c-3.57,0.611-6.99,1.898-10.08,3.789c-1,0.641-2.18,1.371-3.369,1.15c-1.023-0.326-1.898-0.998-2.48-1.9
	c-0.852,1.961-1.219,4.098-1.07,6.23c0.049,0.311,0.049,0.629,0,0.939c-0.154,0.375-0.381,0.717-0.67,1
	c-1.08,1.25-1.75,3.23-0.689,4.49c0.469,0.551,1.18,0.85,1.629,1.41c0.811,1,0.531,2.451,0.51,3.74
	c-0.039,0.447,0.074,0.895,0.32,1.27c0.477,0.439,1.148,0.598,1.77,0.42c0.609-0.182,1.248-0.244,1.881-0.18
	c0.672,0.225,1.25,0.668,1.641,1.26C661.769,529.52,662.56,532.331,663.41,535.42z"/>
<g opacity="0.1">
	<path d="M681.23,534.03c-0.545,0.598-1.232,1.045-2,1.301c-4,1.689-8.58,1.49-12.939,1.219c-0.469,0.01-0.932-0.094-1.35-0.299
		c-0.609-0.477-1.01-1.168-1.121-1.93c-0.85-3.092-1.629-5.91-3.65-8.471c-0.387-0.594-0.965-1.039-1.639-1.26
		c-0.633-0.064-1.271-0.004-1.881,0.18c-0.623,0.178-1.293,0.02-1.77-0.42c-0.248-0.375-0.357-0.824-0.311-1.27
		c0-1.291,0.291-2.74-0.52-3.74c-0.451-0.561-1.16-0.859-1.631-1.41c-0.613-0.838-0.717-1.943-0.27-2.881
		c-0.77,1.221-1.1,2.781-0.211,3.84c0.471,0.551,1.182,0.852,1.631,1.41c0.811,1,0.529,2.451,0.51,3.74
		c-0.039,0.447,0.074,0.895,0.32,1.27c0.477,0.441,1.146,0.602,1.77,0.422c0.609-0.184,1.248-0.244,1.881-0.182
		c0.672,0.225,1.25,0.67,1.639,1.26c2,2.57,2.801,5.381,3.65,8.471c0.111,0.764,0.508,1.457,1.111,1.939
		c0.422,0.199,0.883,0.303,1.35,0.301c4.369,0.27,8.91,0.461,13-1.221c0.764-0.264,1.451-0.715,2-1.309
		c0.271-0.348,0.482-0.74,0.619-1.16C681.361,533.901,681.32,533.981,681.23,534.03z"/>
</g>
<path opacity="0.1" enable-background="new    " d="M660.849,544.1c0,0,17.891,2.369,19.5-0.32"/>
<path opacity="0.1" enable-background="new    " d="M695.63,536.7c0,0,9.93,0,12.119,3.74"/>
</svg>
