<?xml version="1.0" encoding="utf-8"?>
<!-- Generator: Adobe Illustrator 22.0.1, SVG Export Plug-In . SVG Version: 6.00 Build 0)  -->
<svg version="1.1" id="Capa_1" focusable="false" xmlns="http://www.w3.org/2000/svg" xmlns:xlink="http://www.w3.org/1999/xlink"
	 x="0px" y="0px" viewBox="0 0 640 640" style="enable-background:new 0 0 640 640;" xml:space="preserve">
<style type="text/css">
	.st0{fill:#4A148C;}
	.st1{fill:#FFFFFF;}
</style>
<path class="st0" d="M606,640H34c-18.8,0-34-15.2-34-34V34C0,15.2,15.2,0,34,0h572c18.8,0,34,15.2,34,34v572
	C640,624.8,624.8,640,606,640z"/>
<path class="st1" d="M394,320c-11.8,0-23-6.3-29-16.4L320,229l-44.9,74.6c-6.1,10.1-17.2,16.4-29,16.4c-3.2,0-6.3-0.4-9.3-1.3
	l-95.9-27.4v124.6c0,10.3,7,19.3,16.9,21.7l151.3,37.9c7.1,1.8,14.6,1.8,21.7,0l151.5-37.9c9.9-2.5,16.9-11.5,16.9-21.7V291.3
	l-95.9,27.4C400.3,319.6,397.2,320,394,320z M542.8,241.5l-36.1-72c-2.2-4.3-6.9-6.9-11.7-6.2L320,185.6l64.2,106.5
	c2.7,4.4,8,6.5,13,5.1l138.5-39.5C542.6,255.6,546,247.9,542.8,241.5L542.8,241.5z M133.3,169.5l-36.1,72
	c-3.2,6.4,0.2,14.1,7.1,16.1l138.5,39.5c5,1.4,10.3-0.7,12.9-5.1L320,185.6l-175.1-22.3C140,162.7,135.4,165.2,133.3,169.5z"/>
</svg>
