<?xml version="1.0" encoding="utf-8"?>
<!-- Generator: Adobe Illustrator 22.0.1, SVG Export Plug-In . SVG Version: 6.00 Build 0)  -->
<svg version="1.1" id="Capa_1" xmlns="http://www.w3.org/2000/svg" xmlns:xlink="http://www.w3.org/1999/xlink" x="0px" y="0px"
	 viewBox="0 0 200.1 171" style="enable-background:new 0 0 200.1 171;" xml:space="preserve">
<style type="text/css">
	.st0{fill:#D6D6D6;}
	.st1{fill:url(#SVGID_1_);}
	.st2{fill:url(#SVGID_2_);}
	.st3{fill:#3783F2;}
	.st4{fill:#FFFFFF;}
	.st5{fill-rule:evenodd;clip-rule:evenodd;fill:#FFFFFF;}
	.st6{fill:#00D9F4;}
	.st7{fill-rule:evenodd;clip-rule:evenodd;fill:#3783F2;}
	.st8{fill:#F1F1F1;}
	.st9{fill:#F6BAED;}
	.st10{fill:#AF9AF0;}
	.st11{fill:#CCCCCC;}
	.st12{fill:#6033EA;}
	.st13{fill:#6334EE;}
	.st14{fill:#4D3285;}
	.st15{fill:#543488;}
	.st16{fill:#432D5E;}
	.st17{fill:#6234E5;}
	.st18{fill:#462BAA;}
	.st19{fill:#67207F;}
	.st20{fill:#46418A;}
	.st21{fill:#D9D9D9;}
	.st22{fill:#2564AF;}
	.st23{fill:url(#SVGID_3_);}
	.st24{fill:#E7E7E7;}
	.st25{fill:#D4D4D4;}
	.st26{fill:#EAE5EA;}
	.st27{fill:#B4B4B4;}
	.st28{fill:#00DDF1;}
	.st29{fill:#FAFAFA;}
	.st30{fill:#616161;}
	.st31{fill:#999999;}
	.st32{fill:#666666;}
	.st33{fill:#B3B3B3;}
	.st34{fill:#E6E6E6;}
	.st35{fill:#474747;}
</style>
<ellipse class="st0" cx="98.2" cy="156" rx="65.3" ry="7.7"/>
<linearGradient id="SVGID_1_" gradientUnits="userSpaceOnUse" x1="51.7989" y1="73.1585" x2="191.506" y2="73.1585">
	<stop  offset="0" style="stop-color:#00D9F4"/>
	<stop  offset="1" style="stop-color:#3772F2"/>
</linearGradient>
<path class="st1" d="M56.7,86c-0.9-2.5-17.9-56.1,17.6-71.8s89.3-2.8,109.7,20.4s-3.1,79-35.4,100.3S56.7,86,56.7,86z"/>
<linearGradient id="SVGID_2_" gradientUnits="userSpaceOnUse" x1="15.6136" y1="84.1508" x2="167.2762" y2="84.1508">
	<stop  offset="0" style="stop-color:#EA70DB"/>
	<stop  offset="1" style="stop-color:#6B3E95"/>
</linearGradient>
<path class="st2" d="M15.8,102.8c-2.7-36.6,25.7-87.1,61.1-88.7s88.1,37.3,90.3,77.7s-27.6,62.7-71.5,62.4S18,132.6,15.8,102.8z"/>
<path class="st3" d="M142.8,43.5c0-2.3-1.8-4.1-4.1-4.1H61.4c-2.3,0-4.1,1.8-4.1,4.1v21.1h85.6V43.5z"/>
<g>
	<rect x="57.1" y="64.6" class="st4" width="85.6" height="90.2"/>
</g>
<g>
	<circle class="st4" cx="63.4" cy="47.7" r="1.3"/>
</g>
<g>
	<circle class="st4" cx="67.4" cy="47.7" r="1.3"/>
</g>
<g>
	<circle class="st4" cx="71.5" cy="47.7" r="1.3"/>
</g>
<path class="st5" d="M65.3,43.5H65c-0.5,0-0.9-0.4-0.9-0.9v-4.4c0-0.5,0.4-0.9,0.9-0.9h0.3c0.5,0,0.9,0.4,0.9,0.9v4.4
	C66.2,43,65.8,43.5,65.3,43.5z"/>
<path class="st5" d="M135.6,43.5h-0.3c-0.5,0-0.9-0.4-0.9-0.9v-4.4c0-0.5,0.4-0.9,0.9-0.9h0.3c0.5,0,0.9,0.4,0.9,0.9v4.4
	C136.6,43,136.1,43.5,135.6,43.5z"/>
<g>
	<path class="st4" d="M81.1,48.7h5.9v1.7h-3.9v1.1h3.5v1.6h-3.5v1.2h4v1.7h-6V48.7z"/>
	<path class="st4" d="M88.2,48.7h1.9l3,3.9v-3.9h2v7.4h-1.8L90.2,52v4.1h-2V48.7z"/>
	<path class="st4" d="M96.5,48.7h5.9v1.7h-3.9v1.1h3.5v1.6h-3.5v1.2h4v1.7h-6V48.7z"/>
	<path class="st4" d="M103.5,48.7h3.5c1.1,0,1.9,0.3,2.4,0.8c0.4,0.4,0.7,1,0.7,1.7v0c0,1.1-0.6,1.9-1.5,2.3l1.8,2.6h-2.4l-1.5-2.2
		h0h-0.9v2.2h-2V48.7z M106.9,52.3c0.7,0,1.1-0.3,1.1-0.9v0c0-0.6-0.4-0.9-1.1-0.9h-1.3v1.8H106.9z"/>
	<path class="st4" d="M110.8,52.4L110.8,52.4c0-2.1,1.7-3.9,4-3.9c2.3,0,4,1.7,4,3.8v0c0,2.1-1.7,3.8-4,3.8
		C112.5,56.2,110.8,54.5,110.8,52.4z M116.7,52.4L116.7,52.4c0-1.1-0.8-2-1.9-2c-1.1,0-1.9,0.9-1.9,2v0c0,1.1,0.8,2,1.9,2
		C116,54.4,116.7,53.5,116.7,52.4z"/>
</g>
<g>
	<path class="st6" d="M118,61.7H81.5c-0.2,0-0.4-0.2-0.4-0.5c0-0.3,0.2-0.5,0.4-0.5H118c0.2,0,0.4,0.2,0.4,0.5
		C118.5,61.5,118.3,61.7,118,61.7z"/>
</g>
<path class="st7" d="M76.3,111.2v10c0,1.1-0.9,2-2,2h-0.5c-1.1,0-2-0.9-2-2v-10c0-1.1,0.9-2,2-2h0.5
	C75.4,109.2,76.3,110.1,76.3,111.2z"/>
<g>
	<rect x="63.5" y="69.6" class="st8" width="69.4" height="22.6"/>
	<rect x="99.5" y="95.8" class="st8" width="33.1" height="4"/>
	<ellipse class="st9" cx="103.8" cy="97.6" rx="1.3" ry="1.3"/>
	<path class="st4" d="M128.5,98.8h-20.6c-0.5,0-0.8-0.4-0.8-0.8v-0.1c0-0.5,0.4-0.8,0.8-0.8h20.6c0.5,0,0.8,0.4,0.8,0.8V98
		C129.4,98.4,129,98.8,128.5,98.8z"/>
	<rect x="99.3" y="103.7" class="st8" width="33.3" height="8.2"/>
	<rect x="101.3" y="105.4" class="st10" width="5" height="4.8"/>
	<path class="st10" d="M112.6,106.6h-3c-0.3,0-0.5-0.2-0.5-0.5v-0.1c0-0.3,0.2-0.5,0.5-0.5h3c0.3,0,0.5,0.2,0.5,0.5v0.1
		C113.1,106.4,112.9,106.6,112.6,106.6z"/>
	<path class="st10" d="M115,110.2h-5.3c-0.3,0-0.6-0.3-0.6-0.6l0,0c0-0.3,0.3-0.6,0.6-0.6h5.3c0.3,0,0.6,0.3,0.6,0.6l0,0
		C115.6,109.9,115.3,110.2,115,110.2z"/>
	<path class="st10" d="M117.7,108.3h-8.1c-0.3,0-0.5-0.2-0.5-0.5v-0.1c0-0.3,0.2-0.5,0.5-0.5h8.1c0.3,0,0.5,0.2,0.5,0.5v0.1
		C118.2,108.1,118,108.3,117.7,108.3z"/>
	<rect x="101.1" y="114.4" class="st8" width="31.5" height="1"/>
	<rect x="101.1" y="117" class="st8" width="16.6" height="1"/>
	<rect x="101.1" y="119.3" class="st9" width="6" height="1"/>
	<rect x="99.3" y="122.9" class="st8" width="34.3" height="22.5"/>
	<polygon class="st11" points="92.5,145.3 63.2,145.7 63.5,95.9 92.9,95.9 	"/>
	<path class="st10" d="M106.5,127.4h-4.6c-0.4,0-0.8-0.4-0.8-0.8v-0.1c0-0.4,0.4-0.8,0.8-0.8h4.6c0.4,0,0.8,0.4,0.8,0.8v0.1
		C107.3,127.1,106.9,127.4,106.5,127.4z"/>
	<path class="st10" d="M110.2,134.9H102c-0.5,0-0.9-0.4-0.9-0.9l0,0c0-0.5,0.4-0.9,0.9-0.9h8.2c0.5,0,0.9,0.4,0.9,0.9l0,0
		C111.1,134.5,110.7,134.9,110.2,134.9z"/>
	<path class="st10" d="M114.3,131.2h-12.4c-0.4,0-0.8-0.4-0.8-0.8v-0.1c0-0.4,0.4-0.8,0.8-0.8h12.4c0.4,0,0.8,0.4,0.8,0.8v0.1
		C115.1,130.9,114.7,131.2,114.3,131.2z"/>
</g>
<g>
	<path class="st4" d="M153.1,58.9c0,0-1.7,0.3-1.6,1.8c0.1,1.5,0.1,4.2,0,4.8c-0.1,0.6-1.5,0-1.5,0s-0.8,0.8-1.4,1.9
		c-0.5,1.1-1.8,0.7-1.8,0.7l-2.5-1.8l-0.5,0.5l-5-2.7l2.3-2.7c0,0,0.3-4,3.1-5.1s2.8-1.7,4.9-1c2.1,0.6,3,0.4,3.7,1.6
		C153.5,58.1,153.1,58.9,153.1,58.9z"/>
	<path class="st12" d="M155.3,58c0.2,1.2-1.5,1.7-2.2,0.9c-0.7-0.7-1-2.1-1.8-2.1c-0.7,0.1-2.8,0.8-3.2,2.1c-0.4,1.3-2,2.7-2,2.7
		l-0.5-0.8c0,0,0.7-1.9,0.5-2.6c-0.2-0.7-2-0.6-1.8,0.7c0,0-2.2,2.8-3,2.5s-0.5-2.6-0.4-4.6c0.1-2,1.5-5.1,3.6-5.6
		c2.1-0.4,3.1-1.3,5.2,0c2.1,1.3,1.7,0.4,3.7,2.3S155.1,56.3,155.3,58z"/>
	<path class="st13" d="M157.9,149.3l-0.8-0.3l-1.2,2.7l-4,0.3l-1.2-1.7c-0.4,0.2-0.4,0.2-0.4,0.2v3.9c0,0-0.1,1.3,1,1.3
		c1.1,0,14.1,0,14.1,0s1.3,0,1.4-1.4c0.1-1.4-5.8-3.1-5.8-3.1l-0.7,0.9l-0.6-0.3l0.6-0.9l-0.6-0.3l-0.6,0.9l-0.6-0.3l0.6-1l-0.7-0.3
		l-0.5,1l-0.6-0.3L157.9,149.3z"/>
	<path class="st14" d="M166.6,154.6c-0.3,0.9-1.3,0.9-1.3,0.9s-13,0-14.1,0c-0.7,0-0.9-0.5-1-0.9H166.6z"/>
	<path class="st15" d="M145.2,101.6c2.4-0.4,5.6-0.2,7.6,0c0.4,0.3,0.4,0.4,0.4,0.4l2,47.3l-4.3,0.4l-8.5-43.2c0,0-1.9-0.1-3.6-3.9
		C140.3,102.4,142.9,102,145.2,101.6z"/>
	<path class="st16" d="M145.2,101.6c2.4-0.4,5.6-0.2,7.6,0c0.3,0.2,0.4,0.4,0.4,0.4l0,0c0,0-6.8-0.2-9.4,1c-1.4,0.6-2.9,1.2-4,1.5
		c-0.4-0.5-0.7-1.1-1.1-1.9C140.3,102.4,142.9,102,145.2,101.6z"/>
	<path class="st17" d="M154.7,101.9c0,0-1.1-11.5-3.1-17.7c-2-6.2-5.2-12.5-5.2-12.5s-5.5-5.4-6.4-5.8c-0.9-0.5-1.8,0.4-1.8,0.4
		s-3.3,3.3-4,5s-0.9,4.1-0.2,6.3s0.7,2.2,0.7,2.2s2.9,7.5,3.4,11.7c0.6,4.3-0.9,11.4-0.9,11.4s4.1-0.7,7.8-1.3
		C149,101,154.7,101.9,154.7,101.9z"/>
	<path class="st18" d="M146.5,80.4l-7.1,4c0,0-3.4-6.7-4-8l4.3,6.8L146.5,80.4z"/>
	<polygon class="st19" points="171.9,80.3 167.1,85.1 165.4,85.3 170.3,80.5 	"/>
	<g>
		<path class="st4" d="M145.4,81.2l-5.2,2.5l5.2,7.9c0,0,15.3-2.4,15.5-2.4c0.2,0.1,0.8,0.8,1.5,0.7s2-0.1,2-0.1s2-2,2.1-2.6
			s0.2-1.1,0.2-1.1c-0.6-0.4-0.7-0.6-0.7-0.6h1.8v-0.8l-5.8-0.1l-0.8,1.8l-14-1L145.4,81.2z"/>
	</g>
	<path class="st20" d="M146.5,71.9c0,0-6.6-5.4-6.9-5.7c-0.4-0.3-1.3,0-1.3,0v-3c0,0,4.8,2.9,5.8,3.9
		C145.1,68.1,146.5,71.9,146.5,71.9z"/>
	<path class="st21" d="M141.7,122.1c0,0-6.8,8.1-9.8,13.4c-3,5.4-3.8,8.4-4.6,10.3c-0.5,1.3-1.7,2.3-2.3,3.6c-0.9,2,1,2.4,1,2.4
		l1.2,0.5l14-27.2L141.7,122.1z"/>
	<polygon class="st4" points="128,150.3 127.8,147.6 128.9,146.4 133.2,148.6 133.6,148.9 132.6,152.3 	"/>
	<path class="st15" d="M132.2,137.9c2.3-4.8,8.5-12.6,8.5-12.6v-17.8c1,1,1.8,1,1.8,1l4.1,20.9l-13.3,19.1l-4.3-2.2
		C128.9,146.4,129.9,142.7,132.2,137.9z"/>
	<path class="st16" d="M141.4,107.8c0,0-0.3-0.4-0.7-0.9v-1.4c1,1,1.8,1,1.8,1l4.1,20.9l-7.7,11.2l0,0l6.4-11.8L141.4,107.8z"/>
	<path class="st13" d="M134.2,149.3l-0.6-0.4c0,0-1,1.3-1.2,1.3s-0.6,0.2-1.4,0s-2.7-1.8-2.7-1.8l-0.4-1.2l-1.8,3c0,0-0.4,1,0,1.3
		c0.4,0.4,8.9,4,8.9,4h6c0,0,0.5-0.5,0.5-1.3c0,0-1.2-0.3-2.2-1c-1-0.7-2.5-1.7-2.5-1.7l-0.4,0.5l-0.6-0.4l0.4-0.7l-0.6-0.4
		l-0.4,0.5l-0.6-0.5l0.5-0.6l-0.6-0.5l-0.5,0.6l-0.5-0.3L134.2,149.3z"/>
	<path class="st14" d="M126,150.3l9.2,4.6l6.1,0.1c-0.2,0.4-0.4,0.6-0.4,0.6h-6c0,0-8.5-3.6-8.9-4
		C125.6,151.3,125.9,150.4,126,150.3z"/>
</g>
<rect x="62.4" y="52.6" class="st22" width="10.1" height="7.7"/>
<rect x="127.3" y="52.9" class="st22" width="10.1" height="7.7"/>
<rect x="67.9" y="73.9" class="st6" width="14" height="14"/>
<rect x="114.6" y="73.9" class="st6" width="14" height="14"/>
<rect x="91" y="73.9" class="st6" width="14" height="14"/>
<g>
	<linearGradient id="SVGID_3_" gradientUnits="userSpaceOnUse" x1="12.2698" y1="68.5882" x2="50.1911" y2="68.5882">
		<stop  offset="0" style="stop-color:#00D9F4"/>
		<stop  offset="1" style="stop-color:#3772F2"/>
	</linearGradient>
	<rect x="12.3" y="62.1" class="st23" width="37.9" height="13.1"/>
	<path class="st4" d="M46.2,72.3h-4.8c-0.9,0-1.6-0.7-1.6-1.6v-4.8c0-0.9,0.7-1.6,1.6-1.6h4.8c0.9,0,1.6,0.7,1.6,1.6v4.8
		C47.8,71.6,47.1,72.3,46.2,72.3z"/>
	<rect x="16" y="67.8" class="st4" width="20.7" height="1.6"/>
	<g>
		<rect x="16" y="64.8" class="st4" width="20.7" height="1.6"/>
		<rect x="16" y="70.7" class="st4" width="20.7" height="1.6"/>
	</g>
</g>
<g>
	<path class="st24" d="M63.5,111.9l6.2,1.1l0.7-17.9c0,0,6.2-8,14.2-9.9l-7.3,0.4c0,0-4,0-13.7,9.7L63.5,111.9z"/>
	<g>
		<path class="st25" d="M44.5,119.2l-1.1-6.2c0,0,8.4-12.8,20.8-22.3c7.7-5.9,11.7-5.1,11.7-5.1h1.5c0,0-5.3,0.5-13.7,9.7
			c0,0-6.9,5.8-11.7,12c-4.7,6.2-5.3,5.7-4.9,7.1s0.7,3.3,0.7,3.3L44.5,119.2z"/>
		<path class="st24" d="M5,107.1l38.3,5.8c0,0,14-22.5,31.9-27.6l-35.1,1.1C40.3,86.5,22.6,89.6,5,107.1z"/>
		<path class="st26" d="M43.4,113"/>
		<path class="st27" d="M47.4,117.7l-0.7-3.3c0,0,0-0.4,1.1-2.2c1.1-1.8,12-15.7,16.1-17.2l-0.4,17.2l-15.7,5.5H47.4z"/>
		<path class="st28" d="M65.7,102l2.6-0.1v-6.6c0,0-0.1,0.1,0.3-0.3s0.7-0.7,0.7-0.7h-2.6l-1.1,0.7c0,0,0,0,0,0.7S65.7,102,65.7,102
			z"/>
		<polygon class="st29" points="68.2,92.3 70.9,92.4 71.6,91.6 68.8,91.5 		"/>
		<path class="st30" d="M69.7,112.7l1-0.4l0.5-15.9c0,0,6.6-5.3,11.9-5.7l5.4,0l-0.1-4.5c0,0-1.8-1.6-5.5-0.5
			c-7,2.2-12.5,9.7-12.5,9.7L69.7,112.7z"/>
		<path class="st27" d="M71.3,96.4l6,0.4c0,0,9.9-5.1,14.2-5.9l-8.3-0.2C83.2,90.7,76.7,91.6,71.3,96.4z"/>
		<polygon class="st11" points="76.8,113.6 70.9,112.8 71.3,96.6 77.3,96.8 		"/>
		<polygon class="st31" points="26.1,136.2 26.2,139.9 68.7,155.9 69.7,113.2 62.6,112.4 44.5,119.2 		"/>
		<polygon class="st32" points="44.5,123.4 61.6,127.3 61.9,116.1 55.3,115.2 47.8,117.7 47.5,117.9 44.6,119.3 		"/>
		<polygon class="st30" points="69.7,113.2 70.9,112.8 69.4,155.2 68.7,155.9 		"/>
		<polygon class="st11" points="70.7,113.2 76.7,113.9 74.6,157.1 69.4,155.2 		"/>
		<polygon class="st27" points="4.8,107.1 43.4,113 44.6,119.3 6.3,111.5 		"/>
		<path class="st24" d="M76.8,113.6l0.5-16.8c0,0,9.7-4.5,11.3-5.2S93,91,93,91s1.7-0.6,1.3,3.1c-0.3,2.3-0.6,9.7-0.6,9.7
			s-1.6-0.2-2.7,0.7c-1.1,0.8-3.6,2.1-3.6,2.1l-0.1,0.3L76.8,113.6z"/>
		<path class="st24" d="M76.8,113.6l10.9-6.8l-2.1,33.1l-0.7,9c0,0-6.8,6.6-10.3,8.2L76.8,113.6z"/>
		<polygon class="st33" points="87.8,106.8 85.6,139.9 90.7,133.8 92.8,104.5 92.6,104.2 		"/>
		<path class="st30" d="M44.5,126l15,3.7c0,0,0.1,0.5-0.3,0.6c-0.4,0.1-0.1,0-0.1,0l-14.6-3.5L44.5,126z"/>
		<path class="st34" d="M13,112.8l31.4,6.3c0,0,0.1,8.3,0.2,10.9c0.2,2.5,1.4,12.2,8.2,15.5c0,0-26.8-9-29.9-10.8
			c-3.1-1.8-8.2-5-9-13.1C13.1,113.5,13,112.8,13,112.8z"/>
		<path class="st11" d="M44.4,126.7l14.6,3.5c0,0-0.3,5.2-0.3,7.5s-0.5,8.3-5.5,7.8c0,0-2.7,0.1-6.2-6.2
			C44.4,134.4,44.4,126.7,44.4,126.7z"/>
		<polygon class="st11" points="24.7,115.9 28.7,116.8 28.7,119 24.5,118.3 		"/>
		<circle class="st34" cx="66.4" cy="116.7" r="1"/>
		<path class="st34" d="M91.2,104.6l1.2-0.6c0,0,0.7-0.2,1.1,0l-2.7,34c0,0-0.5,3-2.4,6c-1.8,3-3.5,4.6-3.5,4.6l0.7-8.8l4.9-6.1
			l2.5-29.4h-0.5l-1.2,0.5L91.2,104.6z"/>
		<g>
			<g>
				<path class="st35" d="M64.7,94.2c-0.1,0-0.1,0-0.1-0.1v-3.4c-3.6-0.3-36,0-36.4,0c0,0,0,0,0,0c-0.1,0-0.1,0-0.1-0.1
					c0-0.1,0-0.1,0.1-0.1c0.3,0,33.4-0.3,36.5,0c0.1,0,0.1,0,0.1,0.1v3.5C64.8,94.1,64.7,94.2,64.7,94.2z"/>
			</g>
			<g>
				<path class="st35" d="M64.3,94.5c-0.1,0-0.1,0-0.1-0.1v-3.5h-36c-0.1,0-0.1,0-0.1-0.1c0-0.1,0-0.1,0.1-0.1h36.1
					c0.1,0,0.1,0,0.1,0.1v3.6C64.5,94.4,64.4,94.5,64.3,94.5z"/>
			</g>
			<g>
				<path class="st35" d="M71,92.7h-2.9c-0.1,0-0.1,0-0.1-0.1v-0.1c0-0.1,0-0.1,0.1-0.1H71c0.1,0,0.1,0,0.1,0.1v0.1
					C71.1,92.6,71,92.7,71,92.7z"/>
			</g>
			<g>
				<path class="st35" d="M71,92.7C71,92.7,71,92.7,71,92.7c-0.1,0-0.1-0.1-0.1-0.1v-0.1c0,0,0,0,0-0.1l0.7-0.8c0,0,0.1,0,0.1,0
					c0,0,0.1,0.1,0.1,0.1v0.2c0,0,0,0.1,0,0.1L71,92.7C71,92.7,71,92.7,71,92.7z"/>
			</g>
			<g>
				<path class="st35" d="M71,92.5h-2.9c0,0-0.1,0-0.1-0.1c0,0,0-0.1,0-0.1c0,0,0.5-0.6,0.8-0.8c0,0,0,0,0.1,0h2.8
					c0,0,0.1,0,0.1,0.1c0,0,0,0.1,0,0.1L71,92.5C71,92.5,71,92.5,71,92.5z M68.3,92.3h2.6l0.5-0.6h-2.5
					C68.7,91.9,68.5,92.1,68.3,92.3z"/>
			</g>
			<g>
				<path class="st35" d="M70.2,92.3h-1c-0.1,0-0.1,0-0.1-0.1V92c0,0,0-0.1,0-0.1l0.3-0.3c0,0,0,0,0.1,0h1c0.1,0,0.1,0,0.1,0.1v0.1
					c0,0,0,0.1,0,0.1L70.2,92.3C70.2,92.2,70.2,92.3,70.2,92.3z M69.3,92h0.8l0.2-0.2h-0.8L69.3,92z"/>
			</g>
			<g>
				<path class="st35" d="M70.2,92.3h-1c-0.1,0-0.1,0-0.1-0.1V92c0-0.1,0-0.1,0.1-0.1h1c0.1,0,0.1,0,0.1,0.1v0.1
					C70.3,92.2,70.2,92.3,70.2,92.3z"/>
			</g>
			<g>
				<path class="st35" d="M70.2,92.3C70.2,92.3,70.1,92.3,70.2,92.3c-0.1,0-0.1-0.1-0.1-0.1V92c0,0,0-0.1,0-0.1l0.3-0.3
					c0,0,0.1,0,0.1,0c0,0,0.1,0.1,0.1,0.1v0.1c0,0,0,0.1,0,0.1L70.2,92.3C70.2,92.2,70.2,92.3,70.2,92.3z"/>
			</g>
			<g>
				<path class="st35" d="M69.8,112.9C69.8,112.9,69.7,112.9,69.8,112.9c-0.1,0-0.1-0.1-0.1-0.1l0.5-17.5c0,0,0,0,0-0.1
					c2.3-3.1,5.3-5.9,8.2-7.7c2.5-1.6,4.9-2.3,6.1-2.4c2.3-0.2,3.9,0.8,4,0.8c0,0,0,0.1,0,0.1v4.7c0,0.1,0,0.1-0.1,0.1h-5.2
					c-6.1,0.3-11.6,5.2-12,5.6l-0.4,15.9c0,0,0,0.1-0.1,0.1L69.8,112.9C69.8,112.9,69.8,112.9,69.8,112.9z M70.4,95.4l-0.5,17.3
					l0.8-0.4l0.4-15.8c0,0,0-0.1,0-0.1c0.1-0.1,5.7-5.3,12.2-5.7l5.1,0v-4.5c-0.3-0.2-1.8-1-3.8-0.8c-1.2,0.1-3.5,0.8-6,2.4
					C75.7,89.6,72.8,92.3,70.4,95.4z"/>
			</g>
			<g>
				<path class="st35" d="M76.8,113.7C76.8,113.7,76.8,113.7,76.8,113.7l-6-0.6c-0.1,0-0.1-0.1-0.1-0.1v-0.2c0,0,0-0.1,0-0.1
					c0,0,0.1,0,0.1,0l6,0.6c0.1,0,0.1,0.1,0.1,0.1v0.2C76.9,113.6,76.9,113.6,76.8,113.7C76.9,113.7,76.8,113.7,76.8,113.7z
					 M70.9,112.9l5.8,0.6v0L70.9,112.9L70.9,112.9z"/>
			</g>
			<g>
				<path class="st35" d="M76.8,113.3C76.8,113.3,76.8,113.3,76.8,113.3l-6-0.6c-0.1,0-0.1-0.1-0.1-0.1l0.4-16.1c0,0,0-0.1,0-0.1
					s0,0,0.1,0l6.1,0.3c0.1,0,0.1,0.1,0.1,0.1l-0.6,16.4C76.9,113.2,76.9,113.3,76.8,113.3C76.9,113.3,76.8,113.3,76.8,113.3z
					 M70.9,112.5l5.8,0.6l0.6-16.2l-5.9-0.3L70.9,112.5z"/>
			</g>
			<g>
				<path class="st35" d="M77.4,96.9C77.4,96.9,77.4,96.9,77.4,96.9l-6.1-0.3c0,0-0.1,0-0.1-0.1c0,0,0-0.1,0-0.1
					c0.1-0.1,5.7-5.3,12.2-5.7l5.2,0c0,0,0,0,0,0l4.3,0.2c0.1,0,0.1,0,0.1,0.1c0,0.1,0,0.1-0.1,0.1H91
					C87.4,91.7,77.5,96.8,77.4,96.9C77.4,96.9,77.4,96.9,77.4,96.9z M71.5,96.4l5.9,0.3c0.5-0.3,9.3-4.8,13.1-5.7l-1.9-0.1h-5.2
					C77.7,91.2,72.5,95.5,71.5,96.4z"/>
			</g>
			<g>
				<path class="st35" d="M88.1,106.7C88.1,106.7,88.1,106.7,88.1,106.7l-0.4,0c0,0-0.1,0-0.1-0.1c0,0,0-0.1,0.1-0.1
					c0.7-0.4,4.3-2.3,4.5-2.3c0.2,0,0.5,0,0.5,0c0,0,0.1,0,0.1,0.1c0,0,0,0.1-0.1,0.1L88.1,106.7C88.1,106.7,88.1,106.7,88.1,106.7z
					 M88.1,106.5L88.1,106.5l4.1-2.2c0,0,0,0,0,0C92,104.4,89.7,105.6,88.1,106.5z"/>
			</g>
			<g>
				<path class="st35" d="M90.6,133.9C90.6,133.9,90.6,133.9,90.6,133.9l-0.3-0.2c0,0,0-0.1,0-0.1l2.2-29.3c0,0,0-0.1,0.1-0.1
					c0,0,0.1,0,0.1,0l0.3,0.2c0,0,0.1,0.1,0.1,0.1l-2.3,29.3C90.7,133.8,90.7,133.9,90.6,133.9C90.7,133.9,90.6,133.9,90.6,133.9z
					 M90.5,133.6L90.5,133.6l2.3-29l-0.1-0.1L90.5,133.6z"/>
			</g>
			<g>
				<path class="st35" d="M85.7,140C85.7,140,85.7,140,85.7,140l-0.1-0.1c0,0,0-0.1,0-0.1l4.7-6.3c0,0,0,0,0.1,0c0,0,0.1,0,0.1,0
					l0.2,0.2c0,0,0,0,0,0.1c0,0,0,0.1,0,0.1L85.7,140C85.8,140,85.8,140,85.7,140C85.7,140,85.7,140,85.7,140z M90.4,133.7l-1.5,2.1
					L90.4,133.7L90.4,133.7z"/>
			</g>
			<g>
				<path class="st35" d="M85.7,140C85.7,140,85.7,140,85.7,140l-0.2-0.1c0,0-0.1-0.1-0.1-0.1l2.2-33.2c0,0,0-0.1,0-0.1
					c0,0,0,0,0.1,0l0.4,0c0.1,0,0.1,0.1,0.1,0.1l-2.4,33.3C85.8,139.9,85.8,140,85.7,140C85.7,140,85.7,140,85.7,140z M87.8,106.7
					L86,133.8l2-27.1L87.8,106.7z"/>
			</g>
			<g>
				<path class="st35" d="M68.4,102h-2.8c-0.1,0-0.1,0-0.1-0.1v-6.4c0-0.2,0.1-0.4,0.2-0.5l0.9-0.7c0,0,0,0,0.1,0h2.8
					c0,0,0.1,0,0.1,0.1c0,0,0,0.1,0,0.1l-0.8,0.7c-0.1,0.1-0.2,0.2-0.2,0.4v6.4C68.5,101.9,68.4,102,68.4,102z M65.7,101.8h2.6v-6.3
					c0-0.2,0.1-0.4,0.2-0.5l0.6-0.5h-2.5l-0.8,0.7c-0.1,0.1-0.2,0.2-0.2,0.3V101.8z"/>
			</g>
			<g>
				<path class="st35" d="M68.4,102.1h-2.9c-0.1,0-0.1,0-0.1-0.1v-6.6c0-0.2,0.1-0.3,0.2-0.4l1-1.2c0,0,0,0,0.1,0h3.3
					c0.1,0,0.1,0,0.1,0.1v0.1c0,0,0,0.1,0,0.1l-0.3,0.3c0,0,0,0-0.1,0h-2.8v0c0,0,0,0.1,0,0.1l-0.9,0.7c-0.1,0.1-0.2,0.2-0.2,0.3
					v6.3h2.7c0.1,0,0.1,0,0.1,0.1v0.1C68.5,102.1,68.4,102.1,68.4,102.1z M66.6,93.9l-0.7,0.9l0.6-0.5v-0.1c0-0.1,0-0.1,0.1-0.1h2.9
					l0.2-0.2H66.6z"/>
			</g>
			<g>
				<path class="st35" d="M69.4,94.5h-2.8c-0.1,0-0.1,0-0.1-0.1v-0.1c0-0.1,0-0.1,0.1-0.1h2.9c0,0,0.1,0,0.1,0.1c0,0,0,0.1,0,0.1
					L69.4,94.5C69.5,94.5,69.4,94.5,69.4,94.5z"/>
			</g>
			<g>
				<path class="st35" d="M68.5,156C68.5,156,68.5,156,68.5,156c-0.1,0-0.1-0.1-0.1-0.1l1.2-42.7c0,0,0-0.1,0.1-0.1l0.9-0.4
					c0,0,0.1,0,0.1,0c0,0,0,0.1,0,0.1l-1.4,42.3c0,0,0,0.1,0,0.1L68.5,156C68.6,156,68.6,156,68.5,156z M69.9,113.3l-1.2,42.3
					l0.5-0.6l1.4-42.1L69.9,113.3z"/>
			</g>
			<g>
				<path class="st35" d="M54,145.7c-0.3,0-0.5,0-0.7-0.1c-0.7-0.3-3.9-1.8-6.4-6.6c-2.7-5.4-2.4-12.4-2.4-12.4c0,0,0-0.1,0-0.1
					c0,0,0.1,0,0.1,0l14.6,3.6c0,0,0.1,0.1,0.1,0.1l-0.3,8.2c-0.3,3.1-1.1,5.3-2.5,6.4C55.6,145.6,54.7,145.7,54,145.7z M44.7,126.8
					c0,1-0.1,7.3,2.4,12.2c2.4,4.8,5.6,6.3,6.3,6.5c0.8,0.1,1.9,0.1,3-0.8c1.4-1.1,2.2-3.2,2.4-6.3l0.3-8.1L44.7,126.8z"/>
			</g>
			<g>
				<path class="st35" d="M74.7,157.2C74.7,157.2,74.7,157.2,74.7,157.2l-5.2-1.8c0,0-0.1-0.1-0.1-0.1l1.3-42.1c0,0,0-0.1,0-0.1
					c0,0,0,0,0.1,0l6,0.7c0.1,0,0.1,0.1,0.1,0.1l-2.1,43.3C74.8,157.1,74.8,157.1,74.7,157.2C74.8,157.2,74.8,157.2,74.7,157.2z
					 M69.7,155.2l5,1.7l2.1-43l-5.8-0.6L69.7,155.2z"/>
			</g>
			<g>
				<path class="st35" d="M85,148.9C84.9,148.9,84.9,148.9,85,148.9c-0.1,0-0.1-0.1-0.1-0.1l0.6-9c0,0,0-0.1,0.1-0.1
					c0,0,0.1,0,0.1,0l0.1,0l4.6-6.2l2.2-29.1l-4.3,2.3c0,0,0,0-0.1,0l-0.3,0l0,0.2c0,0,0,0.1,0,0.1c0,0-0.1,0-0.1,0l-0.2-0.1
					c0,0-0.1-0.1-0.1-0.1v-0.3c0,0,0-0.1,0.1-0.1c0.2-0.1,3.7-2.1,4.4-2.4c0.9-0.4,1.6-0.2,1.6-0.2c0,0,0.1,0.1,0.1,0.1l-2.4,34
					C89.9,144.3,85.1,148.8,85,148.9C85,148.9,85,148.9,85,148.9z M85.6,140l-0.5,8.6c0.9-0.9,4.8-5.1,5.8-10.7l2.4-33.9
					c-0.2,0-0.7,0-1.4,0.2l0,0c-0.6,0.3-3.4,1.8-4.2,2.3l0.3,0l4.5-2.4c0,0,0.1,0,0.1,0c0,0,0,0.1,0,0.1l-2.2,29.3c0,0,0,0,0,0.1
					l-4.7,6.3C85.8,140,85.7,140,85.6,140L85.6,140z M87.6,106.7L87.6,106.7l0-0.1c0,0,0,0,0,0c0,0,0,0-0.1,0V106.7z M91.9,104.2
					L91.9,104.2L91.9,104.2z"/>
			</g>
			<g>
				<g>
					<path class="st35" d="M87.6,106.5C87.6,106.5,87.6,106.5,87.6,106.5c-0.1-0.1-0.1-0.1-0.1-0.1c0,0,0-0.1,0-0.1c0,0,0,0,0,0
						c0.1,0,0.1,0,0.1,0c0,0,0,0,0,0C87.7,106.5,87.7,106.5,87.6,106.5C87.7,106.5,87.7,106.5,87.6,106.5z"/>
				</g>
				<g>
					<path class="st35" d="M87.7,106.5C87.7,106.5,87.6,106.5,87.7,106.5c-0.1-0.1-0.1-0.1-0.1-0.1c0,0,0-0.1,0.1-0.1c0,0,0,0,0,0
						c0,0,0,0,0,0c0.2-0.1,0.5-0.3,0.8-0.5c0,0,0,0,0,0l0,0c0.1,0,0.1,0,0.1,0c0,0.1,0,0.1,0,0.1C88.3,106.2,88,106.4,87.7,106.5
						C87.7,106.5,87.7,106.5,87.7,106.5z"/>
				</g>
				<g>
					<path class="st35" d="M87.5,106.6C87.5,106.6,87.5,106.6,87.5,106.6c-0.1-0.1-0.1-0.1-0.1-0.1c0,0,0-0.1,0.1-0.1l0.1,0
						c0,0,0.1,0,0.1,0c0,0,0,0,0,0.1c0,0,0,0.1-0.1,0.1L87.5,106.6C87.6,106.6,87.5,106.6,87.5,106.6z"/>
				</g>
				<g>
					<path class="st35" d="M74.7,157.2C74.7,157.2,74.7,157.2,74.7,157.2c-0.1,0-0.1-0.1-0.1-0.1l2.1-43.3c0,0,0-0.1,0-0.1l1.6-1.3
						c2.8-1.8,7.6-5,9.1-5.7c0,0,0.1,0,0.1,0l0.2,0.1c0,0,0.1,0.1,0.1,0.1l-2.8,41.9c0,0,0,0,0,0.1C85,148.9,80.3,154.1,74.7,157.2
						C74.8,157.2,74.8,157.2,74.7,157.2z M76.9,113.9l-2.1,43c5.2-3,9.6-7.7,10-8.1l2.7-41.8l-0.1,0c-1.5,0.8-6.3,3.9-9,5.7
						L76.9,113.9z"/>
				</g>
				<g>
					<path class="st35" d="M87.5,106.6c-0.1,0-0.1,0-0.1-0.1c0,0,0-0.1,0.1-0.1c0,0,0.1,0,0.1,0c0,0,0,0,0,0.1
						C87.6,106.6,87.6,106.6,87.5,106.6C87.5,106.6,87.5,106.6,87.5,106.6z"/>
				</g>
				<g>
					<path class="st35" d="M87.5,106.6C87.5,106.6,87.5,106.6,87.5,106.6c-0.1-0.1-0.1-0.1-0.1-0.1c0,0,0-0.1,0-0.1c0,0,0,0,0,0
						c0.1,0,0.1,0,0.1,0c0,0,0,0,0,0.1C87.6,106.5,87.6,106.6,87.5,106.6C87.6,106.6,87.5,106.6,87.5,106.6z"/>
				</g>
			</g>
			<g>
				<path class="st35" d="M76.8,113.7C76.8,113.7,76.8,113.7,76.8,113.7l-0.6-0.5c0,0,0-0.1,0-0.1c0,0,0.1-0.1,0.1-0.1l0.4,0
					l0.6-16.3c0,0,0-0.1,0.1-0.1c0.1-0.1,10-5.1,13.6-5.8l1.9,0c0,0,0,0,0,0c1.4,0.1,1.6,1.1,1.6,1.1l-0.8,12.5c0,0.1,0,0.1-0.1,0.1
					h-0.2c-0.1,0-0.1,0-0.1-0.1V104c-0.2,0-0.7-0.1-1.4,0.2c-0.7,0.3-3.9,2.1-4.3,2.3v0.2c0,0,0,0.1-0.1,0.1
					C85.5,108,77,113.6,76.8,113.7C76.9,113.7,76.8,113.7,76.8,113.7z M76.6,113.3l0.2,0.2c0.8-0.5,8.5-5.6,10.5-6.7v-0.2
					c0,0,0-0.1,0.1-0.1c0.2-0.1,3.7-2.1,4.4-2.4c0.9-0.4,1.6-0.2,1.6-0.2c0,0,0.1,0.1,0.1,0.1v0.1l0.8-12.1c0,0-0.1-0.8-1.4-0.9H91
					c-3.5,0.6-12.7,5.4-13.5,5.8l-0.6,16.3c0,0,0,0.1,0,0.1c0,0,0,0-0.1,0L76.6,113.3z"/>
			</g>
			<g>
				<path class="st35" d="M85.7,140C85.7,140,85.7,140,85.7,140c-0.1,0-0.1-0.1-0.1-0.1l2.4-33.3c0,0,0-0.1,0.1-0.1l4.5-2.4
					c0,0,0.1,0,0.1,0c0,0,0,0.1,0,0.1l-2.2,29.3c0,0,0,0,0,0.1L85.7,140C85.8,140,85.7,140,85.7,140z M88.2,106.7l-2.4,32.8l4.4-6
					l2.2-29.1L88.2,106.7z"/>
			</g>
			<g>
				<g>
					<path class="st35" d="M27.2,136.7C27.2,136.7,27.2,136.7,27.2,136.7l-0.1,0c0,0-0.1-0.1-0.1-0.1c0,0,0,0,0,0
						c0-0.1,0.1-0.1,0.1-0.1l0.1,0c0,0,0.1,0.1,0.1,0.1C27.3,136.6,27.3,136.6,27.2,136.7C27.3,136.6,27.2,136.7,27.2,136.7z"/>
				</g>
				<g>
					<path class="st35" d="M26.2,139.5C26.2,139.5,26.2,139.5,26.2,139.5l-2-0.8c0,0-0.1-0.1-0.1-0.1l-0.1-3.3c0,0,0-0.1,0-0.1
						c0,0,0.1,0,0.1,0c0.6,0.3,1.3,0.6,1.9,0.8c0,0,0.1,0.1,0.1,0.1l0.2,3.2C26.3,139.4,26.3,139.5,26.2,139.5
						C26.3,139.5,26.3,139.5,26.2,139.5z M24.3,138.5l1.8,0.7l-0.2-3c-0.6-0.2-1.2-0.5-1.7-0.7L24.3,138.5z"/>
				</g>
				<g>
					<path class="st35" d="M28.3,137.1C28.3,137.1,28.3,137.1,28.3,137.1c-0.1,0-0.1-0.1-0.1-0.1c0-0.1,0-0.1,0.1-0.1
						c0.1,0,0.1,0,0.1,0.1C28.4,137,28.3,137.1,28.3,137.1z"/>
				</g>
				<g>
					<path class="st35" d="M26.7,136.5C26.7,136.5,26.6,136.5,26.7,136.5l-0.1,0c0,0-0.1-0.1-0.1-0.1c0,0,0,0,0,0
						c0-0.1,0.1-0.1,0.1-0.1l0.1,0c0,0,0.1,0.1,0.1,0.1C26.8,136.4,26.8,136.4,26.7,136.5C26.7,136.5,26.7,136.5,26.7,136.5z"/>
				</g>
			</g>
			<g>
				<path class="st35" d="M28.8,119.2C28.7,119.2,28.7,119.2,28.8,119.2c-0.1-0.1-0.1-0.2-0.1-0.2l0,0c0,0,0,0,0-0.1v-2.1
					c0,0,0-0.1-0.1-0.1l-4-0.8c0,0,0,0,0,0c-0.1,0-0.1,0-0.1-0.1c0-0.1,0-0.1,0-0.1l0.2-0.1c0.1,0,0.1,0,0.2,0l4,0.8c0,0,0,0,0,0
					c0.1,0,0.2,0.1,0.2,0.3v2.1c0,0.1-0.1,0.2-0.2,0.3L28.8,119.2C28.8,119.2,28.8,119.2,28.8,119.2
					C28.8,119.2,28.8,119.2,28.8,119.2z M28.9,116.7c0,0,0.1,0.1,0.1,0.2v2c0,0,0,0,0,0L28.9,116.7C29,116.7,29,116.7,28.9,116.7
					L28.9,116.7z"/>
			</g>
			<g>
				<path class="st35" d="M28.7,119.2C28.7,119.2,28.7,119.2,28.7,119.2C28.6,119.2,28.6,119.2,28.7,119.2l-4.1-0.9
					c-0.1,0-0.2-0.1-0.2-0.3v-2c0-0.1,0-0.2,0.1-0.2c0.1-0.1,0.1-0.1,0.2-0.1l4,0.8c0.1,0,0.2,0.1,0.2,0.3v2.1c0,0.1,0,0.2-0.1,0.2
					C28.8,119.2,28.8,119.2,28.7,119.2z M28.7,119C28.7,119,28.7,119,28.7,119C28.8,119,28.8,119,28.7,119l0.1-2.2
					c0,0,0-0.1-0.1-0.1l-4-0.8c0,0,0,0-0.1,0c0,0,0,0,0,0.1v2c0,0,0,0.1,0.1,0.1L28.7,119z"/>
			</g>
			<g>
				<path class="st35" d="M59.3,130.3C59.3,130.3,59.3,130.3,59.3,130.3l-14.8-3.7c0,0-0.1-0.1-0.1-0.1l0-0.4c0,0,0-0.1,0-0.1
					c0,0,0.1,0,0.1,0l14.9,3.5c0,0,0,0,0,0c0.1,0,0.1,0.1,0.1,0.1c0,0.1-0.1,0.1-0.1,0.1l0,0c0,0-0.1,0.1-0.1,0.2c0,0.1,0,0.2,0,0.2
					c0.1,0,0.1,0.1,0.1,0.1C59.4,130.2,59.3,130.3,59.3,130.3z M44.7,126.4l14.4,3.6c0-0.1,0-0.1,0-0.2c0-0.1,0-0.1,0.1-0.2
					l-14.5-3.5L44.7,126.4z"/>
			</g>
			<g>
				<path class="st35" d="M59.3,130.3C59.3,130.3,59.3,130.3,59.3,130.3c-0.1,0-0.2-0.1-0.2-0.2c0-0.1,0-0.2,0-0.3
					c0-0.1,0.1-0.2,0.2-0.3c0.1,0,0.1,0,0.2,0c0.1,0,0.1,0.1,0.2,0.2c0,0.1,0,0.2,0,0.3c0,0.1-0.1,0.2-0.2,0.3
					C59.4,130.2,59.3,130.3,59.3,130.3z M59.4,129.7c0,0-0.1,0.1-0.1,0.2c0,0.1,0,0.2,0,0.2c0,0,0.1-0.1,0.1-0.2l0,0
					C59.4,129.8,59.4,129.7,59.4,129.7z"/>
			</g>
			<g>
				<path class="st35" d="M61.8,128.2C61.8,128.2,61.8,128.2,61.8,128.2l-17.3-3.8c0,0-0.1-0.1-0.1-0.1l0-0.3c0,0,0-0.1,0-0.1
					c0,0,0.1,0,0.1,0l17.3,3.8c0,0,0.1,0.1,0.1,0.1v0.3C61.9,128.1,61.9,128.1,61.8,128.2C61.9,128.2,61.8,128.2,61.8,128.2z
					 M44.7,124.2l17.1,3.8v0L44.7,124.2L44.7,124.2z"/>
			</g>
			<g>
				<path class="st35" d="M44.6,119.3C44.6,119.3,44.6,119.3,44.6,119.3l-1.4-0.3c-0.1,0-0.1-0.1-0.1-0.1c0-0.1,0.1-0.1,0.1-0.1
					l1.3,0.3c0.1,0,0.1,0.1,0.1,0.1C44.7,119.2,44.7,119.3,44.6,119.3z"/>
			</g>
			<g>
				<path class="st31" d="M68.5,156C68.5,156,68.5,156,68.5,156l-42.3-16c0,0-0.1-0.1-0.1-0.1l-0.2-3.8c0,0,0-0.1,0-0.1
					c0,0,0.1,0,0.1,0c10,3.6,24.9,8.7,26.3,9.2c-1.3-0.8-3.6-2.5-5.4-6.1c-2.7-5.4-2.4-12.4-2.4-12.4l0-3.2c0,0,0-0.1,0-0.1
					c0,0,0.1,0,0.1,0l17,3.9l0.1-11l-6.7-1c0,0-0.1,0-0.1-0.1c0,0,0-0.1,0.1-0.1l7.5-2.8c0,0,0,0,0,0l7.2,0.9c0.1,0,0.1,0.1,0.1,0.1
					l-1.2,42.7C68.7,155.9,68.6,155.9,68.5,156C68.6,156,68.6,156,68.5,156z M26.4,139.8l42.1,15.9l1.2-42.4l-7.1-0.8l-7.1,2.7
					l6.4,0.9c0.1,0,0.1,0.1,0.1,0.1l-0.1,11.3c0,0,0,0.1,0,0.1c0,0-0.1,0-0.1,0l-17-3.9l0,3.1c0,0.1-0.3,7,2.4,12.3
					c2.4,4.8,5.6,6.3,6.3,6.5c0,0,0.1,0.1,0.1,0.1c0,0.1-0.1,0.1-0.1,0.1c-0.5-0.1-0.9-0.2-0.9-0.2c-0.2-0.1-15.8-5.4-26.2-9.1
					L26.4,139.8z"/>
			</g>
			<g>
				<path class="st35" d="M61.7,127.5C61.7,127.5,61.7,127.5,61.7,127.5l-17.2-3.9c0,0-0.1-0.1-0.1-0.1l0-4.3c0,0,0-0.1,0-0.1
					c0,0,0.1,0,0.1,0l0.1,0l2.8-1.4c0,0,0,0,0.1,0l0.3,0L55,115c0,0,0,0,0.1,0l6.8,1c0.1,0,0.1,0.1,0.1,0.1l-0.1,11.3
					C61.8,127.4,61.8,127.5,61.7,127.5C61.7,127.5,61.7,127.5,61.7,127.5z M44.6,123.4l16.9,3.9l0.1-11l-6.7-1l-7.2,2.7c0,0,0,0,0,0
					l-0.3,0l-2.8,1.4c0,0,0,0,0,0L44.6,123.4z"/>
			</g>
			<g>
				<path class="st35" d="M66.6,117.9c0,0-0.1,0-0.1,0c-0.1,0-0.1-0.1-0.1-0.1c0-0.1,0-0.1,0.1-0.1c0.5-0.1,0.8-0.5,0.8-1
					s-0.3-0.9-0.8-1c-0.1,0-0.1-0.1-0.1-0.1c0-0.1,0-0.1,0.1-0.1c0,0,0.1,0,0.1,0c0.6,0,1.1,0.5,1.1,1.2
					C67.7,117.4,67.2,117.9,66.6,117.9z M67.4,116.3c0.1,0.1,0.1,0.3,0.1,0.5s0,0.3-0.1,0.5c0.1-0.1,0.1-0.3,0.1-0.5
					S67.4,116.4,67.4,116.3z"/>
			</g>
			<g>
				<path class="st35" d="M66.4,117.9c-0.6,0-1.1-0.5-1.1-1.2c0-0.6,0.5-1.2,1.1-1.2s1.1,0.5,1.1,1.2
					C67.5,117.4,67,117.9,66.4,117.9z M66.4,115.8c-0.5,0-0.9,0.4-0.9,1s0.4,1,0.9,1c0.5,0,0.9-0.4,0.9-1S66.9,115.8,66.4,115.8z"/>
			</g>
			<g>
				<path class="st35" d="M66.5,116.2v0.2c0.1,0.1,0.2,0.2,0.2,0.3c0,0.2-0.2,0.4-0.4,0.4c-0.2,0-0.4-0.2-0.4-0.4
					c0-0.1,0.1-0.3,0.2-0.3v-0.2c-0.2,0.1-0.4,0.3-0.4,0.5c0,0.3,0.2,0.5,0.5,0.5c0.3,0,0.6-0.2,0.6-0.5
					C66.9,116.5,66.8,116.3,66.5,116.2z"/>
			</g>
			<g>
				<path class="st35" d="M66.4,116.1c-0.1,0-0.1,0-0.1,0.1v0.3c0,0.1,0,0.1,0.1,0.1s0.1,0,0.1-0.1v-0.3
					C66.5,116.2,66.4,116.1,66.4,116.1z"/>
			</g>
			<g>
				<path class="st35" d="M43.3,113.1C43.3,113.1,43.3,113.1,43.3,113.1l-1.8-0.3c-0.1,0-0.1-0.1-0.1-0.1c0,0,0,0,0,0
					c0-0.1,0.1-0.1,0.1-0.1l1.8,0.3c0.1,0,0.1,0.1,0.1,0.1c0,0,0,0,0,0C43.4,113.1,43.4,113.1,43.3,113.1z"/>
			</g>
			<g>
				<g>
					<path class="st35" d="M63.8,95.2C63.8,95.2,63.8,95.2,63.8,95.2c-0.1-0.1-0.1-0.1-0.1-0.1s0-0.1,0-0.1c0,0,0.1,0,0.1,0
						c0,0,0,0,0,0.1C63.9,95.1,63.9,95.1,63.8,95.2L63.8,95.2C63.9,95.2,63.9,95.2,63.8,95.2z"/>
				</g>
				<g>
					<path class="st35" d="M63.9,95C63.9,95,63.9,95,63.9,95C63.9,95,63.9,95,63.9,95z"/>
				</g>
				<g>
					<path class="st35" d="M44.6,119.3C44.6,119.3,44.6,119.3,44.6,119.3c-0.1,0-0.1-0.1-0.1-0.1l-1.3-6.1c0,0,0-0.1,0-0.1
						c0.2-0.2,17.1-24.8,32.3-27.6c0,0,0,0,0,0h2.1c0.1,0,0.1,0,0.1,0.1c0,0.1,0,0.1-0.1,0.1c-4.8,1-9.9,5.6-12.5,8.2c0,0,0,0,0,0
						c-6.1,4.8-16.4,17.3-17.9,19.7c-0.3,0.5-0.2,0.9-0.2,0.9l0.8,3.4c0,0,0,0.1,0,0.1c0,0-0.1,0-0.1,0l-0.3,0L44.6,119.3
						C44.7,119.3,44.6,119.3,44.6,119.3z M43.4,113.1l1.3,6l2.7-1.3c0,0,0,0,0.1,0l0.2,0l-0.8-3.2c0,0-0.2-0.5,0.2-1.1
						c1.5-2.5,11.9-15,18-19.8c2.5-2.5,7.2-6.7,11.7-8h-1.2C60.7,88.4,44.2,112,43.4,113.1z"/>
				</g>
				<g>
					<path class="st35" d="M64.1,94.9C64.1,94.9,64.1,94.8,64.1,94.9C64,94.8,64,94.8,64,94.7c0,0,0,0,0-0.1c0-0.1,0.2,0,0.2,0.1
						C64.2,94.8,64.2,94.8,64.1,94.9C64.2,94.8,64.2,94.9,64.1,94.9z"/>
				</g>
				<g>
					<path class="st35" d="M63.8,95.2C63.8,95.2,63.7,95.2,63.8,95.2c-0.1-0.1-0.1-0.1-0.1-0.2c0,0,0,0,0,0c0,0,0.1,0,0.1,0
						C63.9,95.1,63.9,95.2,63.8,95.2C63.8,95.2,63.8,95.2,63.8,95.2z M63.8,95.1L63.8,95.1L63.8,95.1z M63.8,95.1L63.8,95.1
						L63.8,95.1z"/>
				</g>
				<g>
					<circle class="st35" cx="64.8" cy="94" r="0.1"/>
				</g>
				<g>
					<path class="st35" d="M64.7,94.3C64.7,94.3,64.6,94.3,64.7,94.3c-0.1-0.1-0.1-0.1-0.1-0.1c0,0,0-0.1,0-0.1c0,0,0.1,0,0.1,0
						c0,0,0,0,0,0.1C64.8,94.2,64.8,94.2,64.7,94.3C64.8,94.2,64.8,94.2,64.7,94.3C64.7,94.3,64.7,94.3,64.7,94.3z"/>
				</g>
				<g>
					<path class="st35" d="M65,94C65,94,64.9,94,65,94c-0.1-0.1-0.1-0.1-0.1-0.1c0,0,0-0.1,0-0.1c0,0,0.1,0,0.2,0c0,0,0,0,0,0.1
						C65.1,93.9,65.1,93.9,65,94L65,94C65,94,65,94,65,94z"/>
				</g>
				<g>
					<path class="st35" d="M64.3,94.6C64.3,94.6,64.3,94.6,64.3,94.6c-0.1-0.1-0.1-0.1-0.1-0.1c0,0,0-0.1,0-0.1c0,0,0.1,0,0.1,0
						c0,0,0,0,0,0.1C64.4,94.6,64.4,94.6,64.3,94.6C64.4,94.6,64.4,94.6,64.3,94.6C64.4,94.6,64.4,94.6,64.3,94.6z"/>
				</g>
				<g>
					<path class="st35" d="M64.4,94.5C64.4,94.5,64.4,94.5,64.4,94.5c-0.1,0-0.1-0.1-0.1-0.1c0,0,0,0,0-0.1c0,0,0.1-0.1,0.2,0
						c0,0,0,0,0,0.1C64.5,94.5,64.5,94.5,64.4,94.5l0-0.1L64.4,94.5C64.5,94.5,64.5,94.5,64.4,94.5z"/>
				</g>
				<g>
					<path class="st35" d="M64.6,94.4C64.5,94.4,64.5,94.4,64.6,94.4c-0.1,0-0.1-0.1-0.1-0.1c0,0,0,0,0-0.1c0,0,0.1,0,0.2,0
						c0,0,0,0,0,0.1C64.7,94.3,64.7,94.3,64.6,94.4C64.6,94.4,64.6,94.4,64.6,94.4z"/>
				</g>
			</g>
			<g>
				<path class="st35" d="M47.8,117.9C47.8,117.9,47.8,117.9,47.8,117.9l-0.4,0c0,0-0.1,0-0.1-0.1c0,0-0.5-2.5-0.6-2.9l0-0.1
					c-0.1-0.4-0.2-0.9,0.3-1.6c0.8-1.1,11.6-15.3,17.3-18.9c0,0,0.1,0,0.1,0c0,0,0,0.1,0,0.1c-6.2,5.2-15.7,16.8-17.1,19l0,0
					c-0.3,0.5-0.2,0.9-0.2,0.9l0.8,3.4C47.9,117.8,47.9,117.9,47.8,117.9C47.9,117.9,47.9,117.9,47.8,117.9z M47.6,117.7l0.1,0
					l-0.8-3.2c0,0-0.2-0.5,0.2-1.1l0,0c0,0,0,0,0,0c-0.4,0.6-0.3,1-0.2,1.3l0,0.1C47.1,115.2,47.5,117.3,47.6,117.7z M47.2,113.5
					L47.2,113.5L47.2,113.5z M62.5,95.9c-3.3,2.8-7.6,7.7-10.8,11.6C54.9,103.7,59.1,99.1,62.5,95.9z"/>
			</g>
			<g>
				<path class="st35" d="M43.3,113.1C43.3,113.1,43.3,113.1,43.3,113.1l-38.6-5.9c0,0-0.1,0-0.1-0.1c0,0,0-0.1,0-0.1
					c10.3-10.5,23-16.4,23.1-16.4c0,0,0,0,0,0h0.3v-0.1c0,0,0-0.1,0.1-0.1c6.5-3,12.5-4.1,12.6-4.1l34.8-1c0.1,0,0.1,0,0.1,0.1
					c0,0.1,0,0.1-0.1,0.1C60.5,88.4,43.6,112.9,43.3,113.1C43.4,113.1,43.4,113.1,43.3,113.1z M4.9,107.1l38.3,5.8
					c0.9-1.3,16.6-23.6,31.2-27.3l-33.7,1c0,0-6,1.1-12.5,4.1v0.2c0,0.1,0,0.1-0.1,0.1h-0.4C27.2,91.2,15,97,4.9,107.1z"/>
			</g>
			<g>
				<path class="st35" d="M69.8,112.9C69.8,112.9,69.8,112.9,69.8,112.9l-6.4-0.8c-0.1,0-0.1-0.1-0.1-0.1l0.4-16.9c0,0,0,0,0-0.1
					c0.1-0.1,7.3-8.3,13.9-9.7l7-0.2c0,0,0,0,0,0c0.1,0,0.1,0,0.1,0.1c0,0.1,0,0.1-0.1,0.1c-0.1,0-7,0.6-14.2,10l-0.5,17.4
					C69.9,112.9,69.9,112.9,69.8,112.9C69.8,112.9,69.8,112.9,69.8,112.9z M63.5,111.9l6.2,0.8l0.5-17.3c0,0,0,0,0-0.1
					c5.5-7.2,10.8-9.3,13.2-9.9l-5.7,0.2c-6.3,1.3-13.3,9.1-13.8,9.6L63.5,111.9z"/>
			</g>
			<g>
				<path class="st35" d="M47.8,117.9C47.8,117.9,47.8,117.9,47.8,117.9c-0.1,0-0.1-0.1-0.1-0.1l-0.8-3.4c0,0-0.2-0.5,0.2-1.1
					c1.5-2.5,11.9-15,18-19.8c0,0,0.1,0,0.1,0c0,0,0,0.1,0,0.1c-0.7,0.7-1.2,1.3-1.3,1.4L63.5,112c0,0,0,0.1-0.1,0.1L47.8,117.9
					C47.9,117.9,47.8,117.9,47.8,117.9z M63.8,94.9c-6.1,5.4-15.2,16.3-16.5,18.6c-0.3,0.5-0.2,0.9-0.2,0.9l0.8,3.3l15.4-5.8
					l0.4-16.8c0,0,0,0,0-0.1C63.7,95.1,63.7,95,63.8,94.9z"/>
			</g>
			<g>
				<path class="st35" d="M13.2,113.5C13.2,113.5,13.2,113.5,13.2,113.5c-0.6-0.1-2.3-0.4-2.5-0.5c-0.3-0.1-0.3-0.3-0.3-0.4v-0.4
					c0,0,0-0.1,0-0.1c0,0,0.1,0,0.1,0l3,0.6c0,0,0.1,0,0.1,0.1c0,0,0,0.1,0,0.1c0,0.1-0.1,0.1-0.1,0.1l-0.2,0l0,0.4
					C13.3,113.4,13.3,113.4,13.2,113.5C13.2,113.5,13.2,113.5,13.2,113.5z M10.6,112.4v0.3c0,0,0,0.2,0.2,0.2c0.2,0,1.7,0.3,2.3,0.4
					l0-0.4L10.6,112.4z"/>
			</g>
			<g>
				<path class="st35" d="M44.6,119.3C44.6,119.3,44.6,119.3,44.6,119.3l-38.3-7.7c0,0-0.1,0-0.1-0.1l-1.6-4.3c0,0,0-0.1,0-0.1
					c0,0,0.1,0,0.1,0l38.6,5.9c0,0,0.1,0,0.1,0.1l1.3,6.1C44.7,119.2,44.7,119.2,44.6,119.3C44.7,119.3,44.7,119.3,44.6,119.3z
					 M6.4,111.4l38,7.7l-1.3-5.9l-38.3-5.8L6.4,111.4z"/>
			</g>
			<g>
				<g>
					<path class="st35" d="M44.5,118.9c-0.1,0-0.1,0-0.1-0.1s0-0.1,0.1-0.1h0c0.1,0,0.1,0,0.1,0.1S44.6,118.9,44.5,118.9z"/>
				</g>
				<g>
					<path class="st35" d="M53.3,145.7C53.3,145.7,53.3,145.7,53.3,145.7c-0.6-0.1-0.9-0.2-0.9-0.2c-0.2-0.1-15.9-5.5-26.3-9.2
						c-9.8-3.5-11.9-11-12.3-15.2c-0.2-2.4-0.6-6.9-0.7-8.3c0,0,0-0.1,0-0.1c0,0,0.1,0,0.1,0l31.4,6.3c0,0,0.1,0.1,0.1,0.1l0,7.5
						c0,0.1-0.3,7,2.4,12.3l0,0c2.4,4.8,5.6,6.3,6.3,6.5c0,0,0.1,0.1,0.1,0.1C53.4,145.7,53.3,145.7,53.3,145.7z M13.2,112.9
						c0.1,1.5,0.5,5.8,0.7,8.1c0.4,4.1,2.5,11.5,12.1,15c10,3.6,24.9,8.7,26.3,9.2c-1.3-0.8-3.6-2.5-5.4-6.1
						c-2.7-5.4-2.4-12.4-2.4-12.4l0-7.4L13.2,112.9z"/>
				</g>
			</g>
		</g>
	</g>
</g>
</svg>
