<?xml version="1.0" encoding="utf-8"?>
<!-- Generator: Adobe Illustrator 22.0.1, SVG Export Plug-In . SVG Version: 6.00 Build 0)  -->
<svg version="1.1" id="Capa_1" focusable="false" xmlns="http://www.w3.org/2000/svg" xmlns:xlink="http://www.w3.org/1999/xlink"
	 x="0px" y="0px" viewBox="0 0 541.6 695.4" style="enable-background:new 0 0 541.6 695.4;" xml:space="preserve">
<style type="text/css">
	.st0{fill:none;stroke:#000000;stroke-width:20;stroke-miterlimit:10;}
	.st1{font-family:'Gotham-Black';}
	.st2{font-size:185.5839px;}
</style>
<path d="M369.9,98L286,14.1C277,5.1,264.8,0,252.1,0H48C21.5,0.1,0,21.6,0,48.1v416c0,26.5,21.5,48,48,48h288c26.5,0,48-21.5,48-48
	V132C384,119.3,378.9,107,369.9,98z M332.1,128.1H256V52L332.1,128.1z M48,464.1v-416h160v104c0,13.3,10.7,24,24,24h104v288H48z"/>
<g>
	<line class="st0" x1="71.6" y1="305.1" x2="315.2" y2="305.1"/>
	<path d="M321.9,308.9l-43.1,43.1c-2.1,2.1-5.4,2.1-7.5,0l-5-5c-2.1-2.1-2.1-5.4,0-7.5l34.1-34.3l-34.1-34.3c-2.1-2.1-2.1-5.4,0-7.5
		l5-5c2.1-2.1,5.4-2.1,7.5,0l43.1,43.1C323.9,303.4,323.9,306.8,321.9,308.9L321.9,308.9z"/>
	<path d="M55.7,301.3l43.1-43.1c2.1-2.1,5.4-2.1,7.5,0l5,5c2.1,2.1,2.1,5.4,0,7.5l-34.1,34.3l34.1,34.3c2.1,2.1,2.1,5.4,0,7.5l-5,5
		c-2.1,2.1-5.4,2.1-7.5,0l-43.1-43.1C53.6,306.8,53.6,303.4,55.7,301.3L55.7,301.3z"/>
</g>
<g>
	<line class="st0" x1="140.4" y1="438.6" x2="140.4" y2="73.4"/>
	<path d="M144.1,66.7l43.1,43.1c2.1,2.1,2.1,5.4,0,7.5l-5,5c-2.1,2.1-5.4,2.1-7.5,0l-34.3-34.1l-34.3,34.1c-2.1,2.1-5.4,2.1-7.5,0
		l-5-5c-2.1-2.1-2.1-5.4,0-7.5l43.1-43.1C138.7,64.7,142.1,64.7,144.1,66.7L144.1,66.7z"/>
	<path d="M136.6,451.3l-43.1-43.1c-2.1-2.1-2.1-5.4,0-7.5l5-5c2.1-2.1,5.4-2.1,7.5,0l34.3,34.1l34.3-34.1c2.1-2.1,5.4-2.1,7.5,0l5,5
		c2.1,2.1,2.1,5.4,0,7.5l-43.1,43.1C142.1,453.3,138.7,453.3,136.6,451.3L136.6,451.3z"/>
</g>
<text transform="matrix(1 0 0 1 101.8419 666.2698)" class="st1 st2">X</text>
<text transform="matrix(1 0 0 1 407.0063 353.4882)" class="st1 st2">Y</text>
</svg>
