<?xml version="1.0" encoding="utf-8"?>
<!-- Generator: Adobe Illustrator 22.0.1, SVG Export Plug-In . SVG Version: 6.00 Build 0)  -->
<svg version="1.1" id="Capa_1" xmlns="http://www.w3.org/2000/svg" xmlns:xlink="http://www.w3.org/1999/xlink" x="0px" y="0px"
	 viewBox="0 0 45 45" style="enable-background:new 0 0 45 45;" xml:space="preserve">
<style type="text/css">
	.st0{fill:#FFFFFF;}
	.st1{fill:none;stroke:#FFFFFF;stroke-width:2;stroke-miterlimit:10;}
</style>
<g>
	<g>
		<path class="st0" d="M42.2,7.7v23.9H2.8V7.7H42.2 M42.4,5.7H2.6c-1,0-1.8,0.8-1.8,1.8v24.3c0,1,0.8,1.8,1.8,1.8h39.8
			c1,0,1.8-0.8,1.8-1.8V7.5C44.2,6.5,43.4,5.7,42.4,5.7L42.4,5.7z"/>
	</g>
	<g>
		<line class="st1" x1="12.7" y1="39.3" x2="32.3" y2="39.3"/>
	</g>
	<line class="st1" x1="15.8" y1="35.7" x2="15.8" y2="38.8"/>
	<line class="st1" x1="29.2" y1="35.7" x2="29.2" y2="38.8"/>
	<path class="st0" d="M14.9,23.5l1.3-1.6c0.3-0.3,0.8-0.3,1,0.1l0.8,1.9l0.8,1.9c0.2,0.4-0.2,0.8-0.6,0.8L16,26.3L14,26
		c-0.4-0.1-0.6-0.6-0.4-0.9L14.9,23.5z"/>
	<path class="st0" d="M14.9,23.5l0.8-1c-2.7-2-3.7-3.6-3.7-5.8c0-0.6-0.5-1.1-1.1-1.1c-0.6,0-1.1,0.5-1.1,1.1c0,1.7,0.5,3.2,1.4,4.6
		c0.7,1,1.7,2,3.1,3L14.9,23.5z"/>
	<path class="st0" d="M35.4,23l-1.4-0.6c0-0.3,0.1-0.6,0.1-0.9c0-0.2,0-0.5,0-0.7l1.5-0.6c0.2-0.1,0.3-0.3,0.2-0.5l-0.9-2.4
		c-0.1-0.2-0.3-0.3-0.5-0.2l-1.5,0.6c-0.3-0.4-0.6-0.7-1-1l0.6-1.4c0.1-0.2,0-0.4-0.2-0.5l-2.3-1c-0.2-0.1-0.4,0-0.5,0.2l-0.6,1.4
		c-0.3,0-0.6-0.1-1-0.1c-0.2,0-0.3,0-0.5,0l-0.5-1.5c-0.1-0.2-0.3-0.3-0.5-0.2l-2.4,0.9c-0.2,0.1-0.3,0.3-0.2,0.5l0.5,1.5
		c-0.4,0.3-0.9,0.7-1.2,1.1l-1.4-0.7c-0.2-0.1-0.4,0-0.5,0.2l-1.1,2.3c-0.1,0.2,0,0.4,0.2,0.5l1.4,0.7c-0.1,0.3-0.1,0.7-0.1,1
		c0,0.2,0,0.3,0,0.5l-1.5,0.5c-0.2,0.1-0.3,0.3-0.2,0.5l0.9,2.4c0.1,0.2,0.3,0.3,0.5,0.2l1.5-0.5c0.3,0.4,0.7,0.8,1.1,1.2l-0.7,1.4
		c-0.1,0.2,0,0.4,0.2,0.5l2.3,1.1c0.2,0.1,0.4,0,0.5-0.2l0.7-1.4c0.3,0.1,0.7,0.1,1,0.1c0.2,0,0.4,0,0.6,0l0.6,1.5
		c0.1,0.2,0.3,0.3,0.5,0.2l2.4-0.9c0.2-0.1,0.3-0.3,0.2-0.5l-0.6-1.5c0.4-0.3,0.8-0.7,1.2-1.1l1.4,0.6c0.2,0.1,0.4,0,0.5-0.2l1-2.3
		C35.6,23.3,35.5,23.1,35.4,23z M27.8,24.1c-1.4,0-2.6-1.2-2.6-2.6c0-1.4,1.2-2.6,2.6-2.6c1.4,0,2.6,1.2,2.6,2.6
		C30.4,23,29.2,24.1,27.8,24.1z"/>
	<path class="st0" d="M21.2,14.3L20.4,14c0-0.1,0-0.3,0-0.4c0-0.1,0-0.2,0-0.4l0.7-0.3c0.1,0,0.1-0.1,0.1-0.2l-0.5-1.2
		c0-0.1-0.1-0.1-0.2-0.1l-0.7,0.3c-0.1-0.2-0.3-0.4-0.5-0.5l0.3-0.7c0-0.1,0-0.2-0.1-0.2l-1.2-0.5c-0.1,0-0.2,0-0.2,0.1l-0.3,0.7
		c-0.2,0-0.3,0-0.5,0c-0.1,0-0.2,0-0.2,0l-0.3-0.7c0-0.1-0.1-0.1-0.2-0.1L15.4,10c-0.1,0-0.1,0.1-0.1,0.2l0.3,0.7
		c-0.2,0.2-0.4,0.3-0.6,0.6l-0.7-0.3c-0.1,0-0.2,0-0.2,0.1l-0.5,1.2c0,0.1,0,0.2,0.1,0.2l0.7,0.3c0,0.2,0,0.3,0,0.5
		c0,0.1,0,0.2,0,0.3l-0.7,0.3c-0.1,0-0.1,0.1-0.1,0.2l0.4,1.2c0,0.1,0.1,0.1,0.2,0.1l0.7-0.3c0.2,0.2,0.3,0.4,0.5,0.6l-0.3,0.7
		c0,0.1,0,0.2,0.1,0.2l1.2,0.5c0.1,0,0.2,0,0.2-0.1l0.3-0.7c0.2,0,0.3,0,0.5,0c0.1,0,0.2,0,0.3,0l0.3,0.7c0,0.1,0.1,0.1,0.2,0.1
		l1.2-0.5c0.1,0,0.1-0.1,0.1-0.2L19.2,16c0.2-0.2,0.4-0.4,0.6-0.6l0.7,0.3c0.1,0,0.2,0,0.2-0.1l0.5-1.2
		C21.3,14.4,21.3,14.3,21.2,14.3z M17.4,14.8c-0.7,0-1.3-0.6-1.3-1.3s0.6-1.3,1.3-1.3c0.7,0,1.3,0.6,1.3,1.3S18.1,14.8,17.4,14.8z"
		/>
</g>
</svg>
