<?xml version="1.0" encoding="utf-8"?>
<!-- Generator: Adobe Illustrator 22.1.0, SVG Export Plug-In . SVG Version: 6.00 Build 0)  -->
<svg version="1.1" id="Layer_1" xmlns="http://www.w3.org/2000/svg" xmlns:xlink="http://www.w3.org/1999/xlink" x="0px" y="0px"
	 viewBox="0 0 18 16.2" style="enable-background:new 0 0 18 16.2;" xml:space="preserve">
<style type="text/css">
	.st0{fill:#169154;}
	.st1{fill:#18482A;}
	.st2{fill:#0C8045;}
	.st3{fill:#17472A;}
	.st4{fill:#29C27F;}
	.st5{fill:#27663F;}
	.st6{fill:#19AC65;}
	.st7{fill:#129652;}
	.st8{fill:#0C7238;}
	.st9{fill:#FFFFFF;}
</style>
<path class="st0" d="M11.3,0h-6C4.9,0,4.5,0.4,4.5,0.8v3.3h6.8V0z"/>
<path class="st1" d="M4.5,12.2v3.2c0,0.4,0.4,0.8,0.8,0.8h6v-4H4.5z"/>
<path class="st2" d="M4.5,4.1h6.8v4.1H4.5V4.1z"/>
<path class="st3" d="M4.5,8.1h6.8v4.1H4.5V8.1z"/>
<g>
	<path class="st4" d="M17.2,0h-6v4.1H18V0.8C18,0.4,17.6,0,17.2,0z"/>
	<path class="st5" d="M11.3,12.2v4h6c0.4,0,0.8-0.4,0.8-0.8v-3.2L11.3,12.2L11.3,12.2z"/>
	<path class="st6" d="M11.3,4.1H18v4.1h-6.8V4.1z"/>
	<path class="st7" d="M11.3,8.1H18v4.1h-6.8V8.1z"/>
</g>
<path class="st8" d="M8.2,12.6H0.8c-0.4,0-0.8-0.3-0.8-0.8V4.4c0-0.4,0.3-0.8,0.8-0.8h7.5C8.7,3.6,9,3.9,9,4.4v7.5
	C9,12.3,8.7,12.6,8.2,12.6z"/>
<path class="st9" d="M2.6,5.8h1.1l0.9,1.7l0.9-1.7h1L5.1,8.1l1.4,2.3H5.5L4.5,8.6l-0.9,1.8H2.5l1.4-2.3L2.6,5.8z"/>
</svg>
