<?xml version="1.0" encoding="utf-8"?>
<!-- Generator: Adobe Illustrator 22.0.1, SVG Export Plug-In . SVG Version: 6.00 Build 0)  -->
<svg version="1.1" id="Capa_1" xmlns="http://www.w3.org/2000/svg" xmlns:xlink="http://www.w3.org/1999/xlink" x="0px" y="0px"
	 viewBox="0 0 45 45" style="enable-background:new 0 0 45 45;" xml:space="preserve">
<style type="text/css">
	.st0{fill:#FFFFFF;}
	.st1{fill:none;stroke:#FFFFFF;stroke-width:2;stroke-miterlimit:10;}
</style>
<g>
	<g>
		<path class="st0" d="M41.5,8.3v23h-38v-23H41.5 M41.7,6.3H3.3c-1,0-1.8,0.8-1.8,1.8v23.4c0,1,0.8,1.8,1.8,1.8h38.4
			c1,0,1.8-0.8,1.8-1.8V8.1C43.5,7.1,42.7,6.3,41.7,6.3L41.7,6.3z"/>
	</g>
	<g>
		<line class="st1" x1="13" y1="38.8" x2="32" y2="38.8"/>
	</g>
	<line class="st1" x1="16" y1="34.3" x2="16" y2="38.3"/>
	<line class="st1" x1="29" y1="34.3" x2="29" y2="38.3"/>
	<g>
		<path class="st1" d="M27.8,18.5H17.2c-1.8,0-3.2-1.5-3.2-3.2v0c0-1.8,1.5-3.2,3.2-3.2h10.5c1.8,0,3.2,1.5,3.2,3.2v0
			C31,17.1,29.5,18.5,27.8,18.5z"/>
		<circle class="st1" cx="27.8" cy="15.3" r="3.2"/>
		<path class="st1" d="M17.2,27.4h10.5c1.8,0,3.2-1.5,3.2-3.2v0c0-1.8-1.5-3.2-3.2-3.2H17.2c-1.8,0-3.2,1.5-3.2,3.2v0
			C14,26,15.5,27.4,17.2,27.4z"/>
		<circle class="st1" cx="17.2" cy="24.2" r="3.2"/>
	</g>
</g>
</svg>
