<?xml version="1.0" encoding="utf-8"?>
<!-- Generator: Adobe Illustrator 22.0.1, SVG Export Plug-In . SVG Version: 6.00 Build 0)  -->
<svg version="1.1" id="Capa_1" xmlns="http://www.w3.org/2000/svg" xmlns:xlink="http://www.w3.org/1999/xlink" x="0px" y="0px"
	 viewBox="0 0 45 45" style="enable-background:new 0 0 45 45;" xml:space="preserve">
<style type="text/css">
	.st0{fill:#FFFFFF;}
	.st1{fill:none;stroke:#FFFFFF;stroke-width:2;stroke-miterlimit:10;}
</style>
<g>
	<g>
		<path class="st0" d="M41.5,8.3v23h-38v-23H41.5 M41.7,6.3H3.3c-1,0-1.8,0.8-1.8,1.8v23.4c0,1,0.8,1.8,1.8,1.8h38.4
			c1,0,1.8-0.8,1.8-1.8V8.1C43.5,7.1,42.7,6.3,41.7,6.3L41.7,6.3z"/>
	</g>
	<g>
		<line class="st1" x1="13" y1="38.8" x2="32" y2="38.8"/>
	</g>
	<line class="st1" x1="16" y1="34.3" x2="16" y2="38.3"/>
	<line class="st1" x1="29" y1="34.3" x2="29" y2="38.3"/>
	<g>
		<path class="st0" d="M22,12.8c3.7,0,6.7,3,6.7,6.7s-3,6.7-6.7,6.7c-1.2,0-2.4-0.3-3.5-1l-0.6-0.4L17.2,25L16,25.2l0.3-0.6l0.4-0.9
			l-0.5-0.9c-0.6-1-0.9-2.1-0.9-3.3C15.3,15.8,18.3,12.8,22,12.8 M22,10.8c-4.8,0-8.7,3.9-8.7,8.7c0,1.6,0.4,3,1.1,4.3l-1.8,3.9
			l4.9-0.8c1.3,0.8,2.9,1.3,4.5,1.3c4.8,0,8.7-3.9,8.7-8.7S26.8,10.8,22,10.8L22,10.8z"/>
	</g>
	<g>
		<g>
			<path class="st0" d="M22.4,13.7h-1V15c-0.7,0.1-1.3,0.3-1.8,0.8c-0.4,0.4-0.7,1-0.7,1.7c0,0.4,0.1,0.7,0.2,1
				c0.1,0.3,0.3,0.5,0.5,0.8c0.2,0.2,0.5,0.4,0.8,0.6c0.3,0.2,0.7,0.3,1.1,0.5c0.4,0.2,0.8,0.3,0.9,0.5c0.2,0.2,0.3,0.5,0.3,0.8
				c0,0.3-0.1,0.6-0.3,0.8c-0.2,0.2-0.5,0.3-0.8,0.3c-0.4,0-0.8-0.1-1-0.4c-0.2-0.3-0.3-0.6-0.3-1.1h-1.8c0,0.8,0.2,1.5,0.7,2
				c0.5,0.5,1.1,0.8,1.9,0.9v1.2h1v-1.2c0.8-0.1,1.4-0.3,1.8-0.8c0.4-0.4,0.6-1,0.6-1.7c0-0.4-0.1-0.7-0.2-1
				c-0.1-0.3-0.3-0.5-0.5-0.7c-0.2-0.2-0.5-0.4-0.8-0.6c-0.3-0.2-0.7-0.4-1.2-0.6c-0.5-0.2-0.8-0.4-1-0.6c-0.2-0.2-0.3-0.4-0.3-0.7
				c0-0.3,0.1-0.6,0.3-0.8c0.2-0.2,0.4-0.3,0.8-0.3c0.3,0,0.6,0.1,0.8,0.4c0.2,0.2,0.3,0.6,0.3,1.1h1.8c0-0.8-0.2-1.4-0.6-1.9
				c-0.4-0.5-1-0.8-1.7-0.9V13.7L22.4,13.7z"/>
		</g>
	</g>
</g>
</svg>
