<?xml version="1.0" encoding="utf-8"?>
<!-- Generator: Adobe Illustrator 22.0.1, SVG Export Plug-In . SVG Version: 6.00 Build 0)  -->
<svg version="1.1" id="Capa_1" xmlns="http://www.w3.org/2000/svg" xmlns:xlink="http://www.w3.org/1999/xlink" x="0px" y="0px"
	 viewBox="0 0 45 45" style="enable-background:new 0 0 45 45;" xml:space="preserve">
<style type="text/css">
	.st0{fill:#FFFFFF;}
	.st1{fill:none;stroke:#FFFFFF;stroke-width:2;stroke-miterlimit:10;}
</style>
<g>
	<g>
		<path class="st0" d="M41.5,8.3v23h-38v-23H41.5 M41.7,6.3H3.3c-1,0-1.8,0.8-1.8,1.8v23.4c0,1,0.8,1.8,1.8,1.8h38.4
			c1,0,1.8-0.8,1.8-1.8V8.1C43.5,7.1,42.7,6.3,41.7,6.3L41.7,6.3z"/>
	</g>
	<g>
		<line class="st1" x1="13" y1="38.8" x2="32" y2="38.8"/>
	</g>
	<line class="st1" x1="16" y1="34.7" x2="16" y2="38.3"/>
	<line class="st1" x1="29" y1="34.7" x2="29" y2="38.3"/>
	<g>
		<g>
			<circle class="st0" cx="32" cy="15.1" r="2.8"/>
		</g>
		<path class="st1" d="M31,24.8h-2.5c-0.6,0-1-0.5-1-1V22c0-1.6,1.3-2.9,2.9-2.9h3.4c1.6,0,2.9,1.3,2.9,2.9v1.8c0,0.6-0.5,1-1,1h-2"
			/>
		<line class="st1" x1="29.5" y1="21.5" x2="29.5" y2="25"/>
		<line class="st1" x1="34.5" y1="21.5" x2="34.5" y2="25"/>
	</g>
	<g>
		<g>
			<circle class="st0" cx="13.5" cy="15.1" r="2.8"/>
		</g>
		<path class="st1" d="M12.5,24.8H10c-0.6,0-1-0.5-1-1V22c0-1.6,1.3-2.9,2.9-2.9h3.4c1.6,0,2.9,1.3,2.9,2.9v1.8c0,0.6-0.5,1-1,1h-2"
			/>
		<line class="st1" x1="11" y1="21.5" x2="11" y2="25"/>
		<line class="st1" x1="16" y1="21.5" x2="16" y2="25"/>
	</g>
	<g>
		<circle class="st0" cx="22.7" cy="16.2" r="3.5"/>
	</g>
	<path class="st1" d="M21.5,28.6h-3.2c-0.7,0-1.3-0.6-1.3-1.3V25c0-2,1.6-3.6,3.6-3.6h4.3c2,0,3.6,1.6,3.6,3.6v2.3
		c0,0.7-0.6,1.3-1.3,1.3h-2.6"/>
	<line class="st1" x1="19.6" y1="24.3" x2="19.6" y2="28.9"/>
	<line class="st1" x1="26" y1="24.3" x2="26" y2="28.9"/>
</g>
</svg>
