<?xml version="1.0" encoding="utf-8"?>
<!-- Generator: Adobe Illustrator 22.0.1, SVG Export Plug-In . SVG Version: 6.00 Build 0)  -->
<svg version="1.1" id="Capa_1" xmlns="http://www.w3.org/2000/svg" xmlns:xlink="http://www.w3.org/1999/xlink" x="0px" y="0px"
	 viewBox="0 0 45 45" style="enable-background:new 0 0 45 45;" xml:space="preserve">
<style type="text/css">
	.st0{fill:#FFFFFF;}
	.st1{fill:none;stroke:#FFFFFF;stroke-width:2;stroke-miterlimit:10;}
	.st2{fill:none;stroke:#FFFFFF;stroke-miterlimit:10;}
</style>
<g>
	<g>
		<path class="st0" d="M41.5,8.3v23h-38v-23H41.5 M41.7,6.3H3.3c-1,0-1.8,0.8-1.8,1.8v23.4c0,1,0.8,1.8,1.8,1.8h38.4
			c1,0,1.8-0.8,1.8-1.8V8.1C43.5,7.1,42.7,6.3,41.7,6.3L41.7,6.3z"/>
	</g>
	<g>
		<line class="st1" x1="13" y1="38.8" x2="32" y2="38.8"/>
	</g>
	<line class="st1" x1="16" y1="35" x2="16" y2="38.3"/>
	<line class="st1" x1="29" y1="35" x2="29" y2="38.3"/>
	<g>
		<g>
			<path class="st0" d="M16,23.8v3.5h-3.5v-3.5H16 M17,22.8h-5.5v5.5H17V22.8L17,22.8z"/>
		</g>
		<g>
			<path class="st0" d="M21.5,23.8v3.5H18v-3.5H21.5 M22.5,22.8H17v5.5h5.5V22.8L22.5,22.8z"/>
		</g>
		<g>
			<path class="st0" d="M27,23.8v3.5h-3.5v-3.5H27 M28,22.8h-5.5v5.5H28V22.8L28,22.8z"/>
		</g>
		<g>
			<path class="st0" d="M32.5,23.8v3.5H29v-3.5H32.5 M33.5,22.8H28v5.5h5.5V22.8L33.5,22.8z"/>
		</g>
	</g>
	<g>
		<g>
			<path class="st0" d="M18.7,18.8v3.5h-3.5v-3.5H18.7 M19.7,17.8h-5.5v5.5h5.5V17.8L19.7,17.8z"/>
		</g>
		<g>
			<path class="st0" d="M24.3,18.8v3.5h-3.5v-3.5H24.3 M25.3,17.8h-5.5v5.5h5.5V17.8L25.3,17.8z"/>
		</g>
		<g>
			<path class="st0" d="M29.8,18.8v3.5h-3.5v-3.5H29.8 M30.8,17.8h-5.5v5.5h5.5V17.8L30.8,17.8z"/>
		</g>
	</g>
	<line class="st2" x1="17" y1="18.6" x2="17" y2="19.9"/>
	<line class="st2" x1="14.2" y1="23.6" x2="14.2" y2="24.9"/>
	<line class="st2" x1="19.7" y1="23.6" x2="19.7" y2="24.9"/>
	<line class="st2" x1="25.3" y1="23.6" x2="25.3" y2="24.9"/>
	<line class="st2" x1="30.8" y1="23.6" x2="30.8" y2="24.9"/>
	<line class="st2" x1="22.5" y1="18.6" x2="22.5" y2="19.9"/>
	<line class="st2" x1="27.9" y1="18.6" x2="27.9" y2="19.9"/>
	<g>
		<g>
			<path class="st0" d="M21.5,13.3v3.5H18v-3.5H21.5 M22.5,12.3H17v5.5h5.5V12.3L22.5,12.3z"/>
		</g>
		<g>
			<path class="st0" d="M27,13.3v3.5h-3.5v-3.5H27 M28,12.3h-5.5v5.5H28V12.3L28,12.3z"/>
		</g>
		<line class="st2" x1="19.7" y1="13.1" x2="19.7" y2="14.4"/>
		<line class="st2" x1="25.3" y1="13.1" x2="25.3" y2="14.4"/>
	</g>
</g>
</svg>
