<?xml version="1.0" encoding="utf-8"?>
<!-- Generator: Adobe Illustrator 22.0.1, SVG Export Plug-In . SVG Version: 6.00 Build 0)  -->
<svg version="1.1" id="Capa_1" xmlns="http://www.w3.org/2000/svg" xmlns:xlink="http://www.w3.org/1999/xlink" x="0px" y="0px"
	 viewBox="0 0 45 45" style="enable-background:new 0 0 45 45;" xml:space="preserve">
<style type="text/css">
	.st0{fill:#FFFFFF;}
	.st1{fill:none;stroke:#FFFFFF;stroke-width:2;stroke-miterlimit:10;}
</style>
<g>
	<g>
		<path class="st0" d="M41.5,8.3v23h-38v-23H41.5 M41.7,6.3H3.3c-1,0-1.8,0.8-1.8,1.8v23.4c0,1,0.8,1.8,1.8,1.8h38.4
			c1,0,1.8-0.8,1.8-1.8V8.1C43.5,7.1,42.7,6.3,41.7,6.3L41.7,6.3z"/>
	</g>
	<g>
		<line class="st1" x1="13" y1="38.8" x2="32" y2="38.8"/>
	</g>
	<line class="st1" x1="16" y1="35" x2="16" y2="38.3"/>
	<line class="st1" x1="29" y1="35" x2="29" y2="38.3"/>
	<g>
		<polyline class="st1" points="13.9,24.6 28.8,24.6 28.8,12.1 32.9,10.8 		"/>
		<g>
			<path class="st0" d="M16.3,25.7c-0.8,0-1.5,0.7-1.5,1.5s0.7,1.5,1.5,1.5c0.8,0,1.5-0.7,1.5-1.5S17.2,25.7,16.3,25.7L16.3,25.7z"
				/>
		</g>
		<g>
			<path class="st0" d="M26.7,25.7c-0.8,0-1.5,0.7-1.5,1.5s0.7,1.5,1.5,1.5s1.5-0.7,1.5-1.5S27.5,25.7,26.7,25.7L26.7,25.7z"/>
		</g>
		<g>
			<path class="st0" d="M18.2,20.9v0.4h-0.4v-0.4H18.2 M20.2,18.9h-4.4v4.4h4.4V18.9L20.2,18.9z"/>
		</g>
		<g>
			<path class="st0" d="M24.4,20.9v0.4H24v-0.4H24.4 M26.4,18.9H22v4.4h4.4V18.9L26.4,18.9z"/>
		</g>
		<g>
			<path class="st0" d="M20.2,15.3v0.4h-0.4v-0.4H20.2 M22.2,13.3h-4.4v4.4h4.4V13.3L22.2,13.3z"/>
		</g>
	</g>
</g>
</svg>
