<?xml version="1.0" encoding="utf-8"?>
<!-- Generator: Adobe Illustrator 22.0.1, SVG Export Plug-In . SVG Version: 6.00 Build 0)  -->
<svg version="1.1" id="Capa_1" xmlns="http://www.w3.org/2000/svg" xmlns:xlink="http://www.w3.org/1999/xlink" x="0px" y="0px"
	 viewBox="0 0 45 45" style="enable-background:new 0 0 45 45;" xml:space="preserve">
<style type="text/css">
	.st0{fill:#FFFFFF;}
	.st1{fill:none;stroke:#FFFFFF;stroke-width:2;stroke-miterlimit:10;}
	.st2{fill:none;stroke:#FFFFFF;stroke-width:1.5;stroke-miterlimit:10;}
	.st3{fill:none;stroke:#FFFFFF;stroke-miterlimit:10;}
</style>
<g>
	<g>
		<path class="st0" d="M41.5,8.3v23h-38v-23H41.5 M41.7,6.3H3.3c-1,0-1.8,0.8-1.8,1.8v23.4c0,1,0.8,1.8,1.8,1.8h38.4
			c1,0,1.8-0.8,1.8-1.8V8.1C43.5,7.1,42.7,6.3,41.7,6.3L41.7,6.3z"/>
	</g>
	<g>
		<line class="st1" x1="13" y1="38.8" x2="32" y2="38.8"/>
	</g>
	<line class="st1" x1="16" y1="34.3" x2="16" y2="38.3"/>
	<line class="st1" x1="29" y1="34.3" x2="29" y2="38.3"/>
	<g>
		<polygon class="st1" points="24.9,25.2 24.9,12.8 26.3,12.8 26.3,11.1 13.4,11.1 13.4,29.1 26.3,29.1 26.3,25.2 		"/>
		<g>
			<line class="st2" x1="18.3" y1="14.5" x2="21.1" y2="14.5"/>
			<line class="st2" x1="16.6" y1="14.5" x2="17.2" y2="14.5"/>
			<line class="st2" x1="18.3" y1="16.8" x2="23.1" y2="16.8"/>
			<line class="st2" x1="16.6" y1="16.8" x2="17.2" y2="16.8"/>
			<line class="st2" x1="18.3" y1="19" x2="22" y2="19"/>
			<line class="st2" x1="16.6" y1="19" x2="17.2" y2="19"/>
			<line class="st2" x1="18.3" y1="21.3" x2="21.1" y2="21.3"/>
			<line class="st2" x1="16.6" y1="21.3" x2="17.2" y2="21.3"/>
			<line class="st2" x1="18.3" y1="23.5" x2="21.1" y2="23.5"/>
			<line class="st2" x1="16.6" y1="23.5" x2="17.2" y2="23.5"/>
			<line class="st2" x1="18.3" y1="25.8" x2="23.1" y2="25.8"/>
			<line class="st2" x1="16.6" y1="25.8" x2="17.2" y2="25.8"/>
		</g>
	</g>
	<g>
		<rect x="24.9" y="12.8" class="st1" width="8.9" height="12.4"/>
		<g>
			<line class="st3" x1="28.3" y1="15.1" x2="30.3" y2="15.1"/>
			<line class="st3" x1="27.2" y1="15.1" x2="27.6" y2="15.1"/>
			<line class="st3" x1="28.3" y1="16.7" x2="31.6" y2="16.7"/>
			<line class="st3" x1="27.2" y1="16.7" x2="27.6" y2="16.7"/>
			<line class="st3" x1="28.3" y1="18.2" x2="30.8" y2="18.2"/>
			<line class="st3" x1="27.2" y1="18.2" x2="27.6" y2="18.2"/>
			<line class="st3" x1="28.3" y1="19.8" x2="30.3" y2="19.8"/>
			<line class="st3" x1="27.2" y1="19.8" x2="27.6" y2="19.8"/>
			<line class="st3" x1="28.3" y1="21.3" x2="30.3" y2="21.3"/>
			<line class="st3" x1="27.2" y1="21.3" x2="27.6" y2="21.3"/>
			<line class="st3" x1="28.3" y1="22.9" x2="31.6" y2="22.9"/>
			<line class="st3" x1="27.2" y1="22.9" x2="27.6" y2="22.9"/>
		</g>
	</g>
</g>
</svg>
