<?xml version="1.0" encoding="utf-8"?>
<!-- Generator: Adobe Illustrator 22.0.1, SVG Export Plug-In . SVG Version: 6.00 Build 0)  -->
<svg version="1.1" id="Capa_1" xmlns="http://www.w3.org/2000/svg" xmlns:xlink="http://www.w3.org/1999/xlink" x="0px" y="0px"
	 viewBox="0 0 45 45" style="enable-background:new 0 0 45 45;" xml:space="preserve">
<style type="text/css">
	.st0{fill:none;stroke:#FFFFFF;stroke-width:2;stroke-miterlimit:10;}
	.st1{fill:#FFFFFF;stroke:#FFFFFF;stroke-miterlimit:10;}
	.st2{fill:none;stroke:#FFFFFF;stroke-width:1.5;stroke-miterlimit:10;}
</style>
<g>
	<path class="st0" d="M9,8.2h33c1,0,1.8,0.8,1.8,1.8v22.8c0,1-0.8,1.8-1.8,1.8H4.4c-1,0-1.8-0.8-1.8-1.8V11.1"/>
	<g>
		<line class="st0" x1="13.9" y1="40" x2="32.5" y2="40"/>
	</g>
	<line class="st0" x1="16.8" y1="36.3" x2="16.8" y2="39.6"/>
	<line class="st0" x1="29.5" y1="36.3" x2="29.5" y2="39.6"/>
	<path class="st0" d="M16,13.7c-0.5,0-1,0.1-1.5,0.2c-0.1-0.2-0.3-0.4-0.5-0.6L6.7,5.9c-1.2-1.2-3.3-1.2-4.5,0
		c-1.2,1.2-1.2,3.3,0,4.5l7.4,7.4c0.2,0.2,0.5,0.4,0.8,0.6c-0.1,0.4-0.1,0.7-0.1,1.1c0,3.2,2.6,5.8,5.8,5.8c0.8,0,1.7-0.2,2.4-0.5
		l-2.8-2.6v-2.8h2.9l2.7,2.6c0.4-0.7,0.6-1.6,0.6-2.5C21.8,16.3,19.2,13.7,16,13.7z"/>
	<line class="st1" x1="4.5" y1="8.2" x2="8.7" y2="12.4"/>
	<polyline class="st2" points="16.8,30.8 16.8,29.9 18.8,29.9 20.6,27.5 	"/>
	<polyline class="st2" points="23.6,24 26.1,23.1 26.1,20.1 29.7,20.1 29.7,23.2 32.3,24.3 34.6,22.4 37.2,24.7 35.4,27.2 
		35.9,29.1 38.9,29.7 38.9,30.8 	"/>
	<path class="st2" d="M24.2,30.6c0.4-1.7,1.9-3.1,3.8-3.1c1.9,0,3.4,1.3,3.8,3.1"/>
</g>
</svg>
