<?xml version="1.0" encoding="utf-8"?>
<!-- Generator: Adobe Illustrator 19.1.0, SVG Export Plug-In . SVG Version: 6.00 Build 0)  -->
<svg version="1.1" id="Capa_1" xmlns="http://www.w3.org/2000/svg" xmlns:xlink="http://www.w3.org/1999/xlink" x="0px" y="0px"
	 viewBox="0 0 95 26" style="enable-background:new 0 0 95 26;" xml:space="preserve">
<style type="text/css">
	.st0{fill:#00457C;}
	
</style>
<g>
	<g>
		<path class="st0" d="M8,5.6L2,16.2h4.5l1-2.1h2.8l0,2.1h4.5L14.1,5.6H8z M10.3,11.9H8.5l1.9-3.8L10.3,11.9z M28.1,8.8
			c-1.3,0-2.2,0.3-2.9,0.8c-0.3-0.6-1-0.8-2-0.8c-0.9,0-1.5,0.1-2,0.3l0.1-0.2h-3.2l-1.9,7.3h3.2l1.2-4.7c0.2-0.7,0.6-1.1,1.1-1.1
			c0.4,0,0.6,0.2,0.6,0.6c0,0.1,0,0.3-0.1,0.5L21,16.2h3.2l1.2-4.8c0.2-0.7,0.6-1.1,1.1-1.1c0.4,0,0.6,0.2,0.6,0.6
			c0,0.1,0,0.3-0.1,0.5l-1.2,4.7h3.2l1.1-4.4c0.1-0.4,0.2-0.8,0.2-1.1C30.4,9.4,29.6,8.8,28.1,8.8z M40.1,12.2
			c0.1-0.4,0.1-0.7,0.1-1c0-1.6-1.3-2.4-3.9-2.4c-3.1,0-4.9,1.1-5.5,3.4l-0.1,0.6c-0.1,0.4-0.1,0.7-0.1,1c0,1.6,1.3,2.5,3.9,2.5
			c3.1,0,4.9-1.1,5.5-3.4L40.1,12.2z M36.5,11.4L36,13.5c-0.2,0.7-0.6,1.1-1.1,1.1c-0.4,0-0.6-0.2-0.6-0.6c0-0.1,0-0.3,0.1-0.5
			l0.5-2.1c0.2-0.7,0.6-1.1,1.1-1.1c0.4,0,0.6,0.2,0.6,0.6C36.6,11.1,36.6,11.2,36.5,11.4z M49.7,11c0-1.5-1.1-2.3-3.2-2.3
			c-0.6,0-1.1,0.1-1.6,0.3l0.6-2.3h-3.2l-2.4,9.4h3.2l0.1-0.3c0.4,0.2,0.9,0.3,1.4,0.3c2.6,0,4.2-1.1,4.8-3.4l0.2-0.6
			C49.7,11.8,49.7,11.4,49.7,11z M46,11.4l-0.5,2.1c-0.2,0.7-0.6,1.1-1.1,1.1c-0.4,0-0.6-0.2-0.6-0.6c0-0.1,0-0.3,0.1-0.5l0.5-2.1
			c0.2-0.7,0.6-1.1,1.1-1.1c0.4,0,0.6,0.2,0.6,0.6C46,11.1,46,11.2,46,11.4z M51.8,6.9l-2.4,9.4h3.2L55,6.9H51.8z M68.3,10.4
			c0.4,0,0.6,0.2,0.6,0.6c0,0.1,0,0.3-0.1,0.5l-1.2,4.7h3.2l1.1-4.4c0.1-0.4,0.2-0.8,0.2-1.1c0-1.2-0.8-1.9-2.3-1.9
			c-0.9,0-1.5,0.1-2,0.3l0.1-0.2h-3.2l-1.9,7.3H66l1.2-4.7C67.4,10.7,67.8,10.4,68.3,10.4z M75.5,16.2c0.6,0,1.1-0.1,1.6-0.3
			l-0.1,0.3h3.2l2.4-9.4h-3.2L78.9,9c-0.4-0.2-0.9-0.3-1.4-0.3c-2.6,0-4.2,1.1-4.8,3.4l-0.2,0.6c-0.1,0.4-0.2,0.8-0.2,1.1
			C72.3,15.4,73.4,16.2,75.5,16.2z M76.1,13.5l0.5-2.1c0.2-0.7,0.6-1.1,1.1-1.1c0.4,0,0.6,0.2,0.6,0.6c0,0.1,0,0.3-0.1,0.5l-0.5,2.1
			c-0.2,0.7-0.6,1.1-1.1,1.1c-0.4,0-0.6-0.2-0.6-0.6C76,13.9,76,13.7,76.1,13.5z M91.6,12.2c0.1-0.4,0.1-0.7,0.1-1
			c0-1.6-1.3-2.4-3.9-2.4c-3.1,0-4.9,1.1-5.5,3.4l-0.1,0.6c-0.1,0.4-0.1,0.7-0.1,1c0,1.6,1.3,2.5,3.9,2.5c3.1,0,4.9-1.1,5.5-3.4
			L91.6,12.2z M88,11.4l-0.5,2.1c-0.2,0.7-0.6,1.1-1.1,1.1c-0.4,0-0.6-0.2-0.6-0.6c0-0.1,0-0.3,0.1-0.5l0.5-2.1
			c0.2-0.7,0.6-1.1,1.1-1.1c0.4,0,0.6,0.2,0.6,0.6C88.1,11.1,88.1,11.2,88,11.4z M62.6,10.4c0-0.5-0.1-0.8-0.4-1.1
			c-0.2-0.3-0.5-0.5-0.9-0.6c-0.3-0.1-0.7-0.2-1.2-0.3c-0.9-0.1-1.7-0.1-2.5,0c-0.5,0.1-0.9,0.2-1.2,0.4c-0.4,0.2-0.7,0.5-1,0.8
			c-0.3,0.3-0.4,0.7-0.5,1.2l0,0.1h2.7c0.1-0.3,0.2-0.5,0.4-0.6c0.4-0.2,0.8-0.3,1.3-0.2c0.1,0,0.2,0.1,0.4,0.1
			c0.1,0,0.2,0.1,0.2,0.2c0,0.1,0.1,0.2,0.1,0.3c0,0.1,0,0.2-0.1,0.3c-0.1,0.1-0.2,0.1-0.4,0.2c-0.2,0.1-0.5,0.1-0.9,0.1
			c-0.4,0-0.8,0.1-1.3,0.1c-1,0.1-1.8,0.4-2.4,0.8c-0.6,0.5-0.9,1.1-0.9,1.8c0,0.3,0.1,0.5,0.2,0.8c0.1,0.3,0.3,0.5,0.6,0.7
			c0.2,0.2,0.5,0.3,0.9,0.5c0.4,0.1,0.8,0.2,1.2,0.2c0.5,0,1-0.1,1.4-0.2c0.2,0,0.3-0.1,0.4-0.2L58.6,16h2.7l1.1-4.4
			C62.6,11.2,62.6,10.7,62.6,10.4z M59.4,12.9l0,0.1c-0.1,0.2-0.1,0.4-0.2,0.5c-0.1,0.2-0.2,0.3-0.3,0.4c-0.1,0.1-0.3,0.2-0.5,0.3
			c-0.2,0.1-0.4,0.1-0.7,0.1c-0.3,0-0.5-0.1-0.7-0.2c-0.1-0.1-0.2-0.2-0.2-0.4c0-0.2,0-0.3,0.1-0.4c0.1-0.1,0.1-0.2,0.3-0.2
			c0.1-0.1,0.3-0.1,0.4-0.1c0.2,0,0.4-0.1,0.5-0.1c0.3,0,0.6,0,1-0.1C59.2,12.9,59.3,12.9,59.4,12.9L59.4,12.9z M92.5,15.5
			c0,0,0.1-0.1,0.1-0.2c0-0.1,0-0.2-0.1-0.2c-0.1,0-0.1-0.1-0.3-0.1h-0.4V16H92v-0.4h0.2l0.3,0.4h0.2l-0.3-0.4
			C92.4,15.6,92.4,15.6,92.5,15.5z M92.1,15.5H92v-0.3h0.2l0.1,0l0.1,0l0,0l0,0.1l0,0.1l-0.1,0L92.1,15.5L92.1,15.5z M92.9,15.2
			c0-0.1-0.1-0.2-0.2-0.2c-0.1-0.1-0.2-0.1-0.3-0.2c-0.1,0-0.2-0.1-0.3-0.1c-0.1,0-0.2,0-0.3,0.1c-0.1,0-0.2,0.1-0.3,0.2
			c-0.1,0.1-0.1,0.2-0.2,0.2c0,0.1-0.1,0.2-0.1,0.3c0,0.1,0,0.2,0.1,0.3c0,0.1,0.1,0.2,0.2,0.3c0.1,0.1,0.2,0.1,0.3,0.2
			c0.1,0,0.2,0.1,0.3,0.1c0.1,0,0.2,0,0.3-0.1c0.1,0,0.2-0.1,0.3-0.2c0.1-0.1,0.1-0.2,0.2-0.3c0-0.1,0.1-0.2,0.1-0.3
			C93,15.4,93,15.3,92.9,15.2z M92.8,15.8c0,0.1-0.1,0.2-0.1,0.2c-0.1,0.1-0.1,0.1-0.2,0.1c-0.1,0-0.2,0.1-0.3,0.1
			c-0.1,0-0.2,0-0.3-0.1c-0.1,0-0.2-0.1-0.2-0.1c-0.1-0.1-0.1-0.1-0.1-0.2c0-0.1-0.1-0.2-0.1-0.3c0-0.1,0-0.2,0.1-0.3
			c0-0.1,0.1-0.2,0.1-0.2c0.1-0.1,0.1-0.1,0.2-0.1c0.1,0,0.2-0.1,0.3-0.1c0.1,0,0.2,0,0.3,0.1c0.1,0,0.2,0.1,0.2,0.1
			c0.1,0.1,0.1,0.1,0.1,0.2c0,0.1,0.1,0.2,0.1,0.3C92.8,15.7,92.8,15.7,92.8,15.8z M64.1,22l-0.5-3.4h-0.8l-0.9,4h0.5l0.5-2.3
			c0-0.1,0.1-0.2,0.1-0.4c0-0.2,0.1-0.3,0.1-0.4l0-0.1l0.5,3.4h0.6l2-3.4c0,0.2-0.1,0.4-0.1,0.6c0,0.2-0.1,0.3-0.1,0.4l-0.5,2.3H66
			l0.9-4h-0.8L64.1,22z M70,21.1c-0.1,0.3-0.2,0.5-0.3,0.7c-0.2,0.3-0.6,0.5-1.1,0.5c-0.4,0-0.7-0.1-0.8-0.4c-0.1-0.2-0.1-0.4,0-0.7
			l0.6-2.5h-0.6l-0.5,2.2c-0.1,0.5-0.1,0.9,0,1.1c0.1,0.5,0.6,0.7,1.3,0.7c0.7,0,1.3-0.2,1.6-0.7c0.2-0.3,0.4-0.6,0.5-1.1l0.5-2.2
			h-0.6L70,21.1z M72.6,19.1h2.5l0.1-0.5h-3.1l-0.9,4h3.2l0.1-0.5h-2.6l0.3-1.3h2.4l0.1-0.5h-2.4L72.6,19.1z M77.8,18.6H76l-0.9,4
			h1.8c0.6,0,1-0.2,1.3-0.5c0.2-0.2,0.4-0.4,0.4-0.7c0.1-0.3,0-0.5-0.1-0.7c-0.1-0.1-0.2-0.2-0.4-0.3c0.2-0.1,0.3-0.1,0.4-0.2
			c0.2-0.2,0.3-0.4,0.4-0.6c0-0.2,0-0.4-0.1-0.6C78.7,18.8,78.3,18.6,77.8,18.6z M78.1,21.4c0,0.2-0.1,0.3-0.2,0.4
			c-0.2,0.2-0.5,0.3-0.8,0.3h-1.2l0.3-1.4h1.1c0.2,0,0.4,0,0.6,0.1C78.1,20.9,78.2,21.1,78.1,21.4z M77.8,20.2
			c-0.1,0.1-0.3,0.1-0.6,0.1h-1.1l0.3-1.2h1c0.2,0,0.4,0,0.6,0.1c0.2,0.1,0.3,0.3,0.2,0.5C78.2,19.9,78.1,20.1,77.8,20.2z
			 M80.6,18.6H80l-0.9,4h2.7l0.1-0.5h-2.2L80.6,18.6z M86.4,19.1l0.1-0.5h-3.1l-0.9,4h3.2l0.1-0.5h-2.6l0.3-1.3h2.4l0.1-0.5h-2.4
			l0.3-1.2H86.4z M88.8,18.5c-0.5,0-0.9,0.1-1.2,0.3c-0.3,0.2-0.5,0.5-0.6,0.9c-0.1,0.3,0,0.6,0.2,0.7c0.1,0.1,0.4,0.2,0.7,0.3
			l0.6,0.1c0.3,0.1,0.5,0.1,0.6,0.2c0.1,0.1,0.2,0.2,0.1,0.5c-0.1,0.3-0.3,0.5-0.7,0.6c-0.2,0.1-0.4,0.1-0.6,0.1
			c-0.5,0-0.8-0.1-0.9-0.4c-0.1-0.1-0.1-0.3,0-0.6h-0.5c-0.1,0.4,0,0.8,0.2,1c0.2,0.3,0.6,0.4,1.2,0.4c0.5,0,0.9-0.1,1.3-0.3
			c0.4-0.2,0.6-0.5,0.7-0.9c0.1-0.4,0-0.6-0.2-0.8c-0.1-0.1-0.3-0.2-0.6-0.3l-0.6-0.1c-0.4-0.1-0.6-0.2-0.7-0.2
			c-0.2-0.1-0.2-0.2-0.2-0.4c0-0.2,0.2-0.3,0.3-0.5c0.2-0.1,0.4-0.2,0.8-0.2c0.4,0,0.7,0.1,0.8,0.3c0.1,0.1,0.1,0.3,0.1,0.5h0.5
			c0.1-0.4,0-0.8-0.2-1C89.6,18.6,89.3,18.5,88.8,18.5z"/>
	</g>
</g>
</svg>
