<?xml version="1.0" encoding="utf-8"?>
<!-- Generator: Adobe Illustrator 22.1.0, SVG Export Plug-In . SVG Version: 6.00 Build 0)  -->
<svg version="1.1" id="Layer_1" xmlns="http://www.w3.org/2000/svg" xmlns:xlink="http://www.w3.org/1999/xlink" x="0px" y="0px"
	 viewBox="0 0 653.2 483.5" style="enable-background:new 0 0 653.2 483.5;" xml:space="preserve">
<style type="text/css">
	.st0{opacity:0.1;fill:#A9C2E6;}
	.st1{opacity:0.5;}
	.st2{fill:#FFFFFF;stroke:#FFFFFF;stroke-width:0.3489;stroke-miterlimit:10;}
	.st3{fill:#FFFFFF;stroke:#FFFFFF;stroke-width:0.6887;stroke-miterlimit:10;}
	.st4{fill:#FFFFFF;stroke:#FFFFFF;stroke-width:0.6532;stroke-miterlimit:10;}
</style>
<circle class="st0" cx="301.6" cy="239" r="218.6"/>
<circle class="st0" cx="301.6" cy="239" r="149.7"/>
<g class="st1">
	<g>
		<path class="st2" d="M179.6,25c-0.2,0-0.3-0.1-0.3-0.3v-9.4c-10-0.7-98.9,0-99.8,0c0,0,0,0,0,0c-0.2,0-0.3-0.1-0.3-0.3
			c0-0.2,0.1-0.3,0.3-0.3c0.9,0,91.6-0.7,100.1,0c0.1,0,0.3,0.1,0.3,0.3v9.7C179.9,24.9,179.7,25,179.6,25z"/>
	</g>
	<g>
		<path class="st2" d="M178.7,25.8c-0.2,0-0.3-0.1-0.3-0.3v-9.5H79.5c-0.2,0-0.3-0.1-0.3-0.3c0-0.2,0.1-0.3,0.3-0.3h99.2
			c0.2,0,0.3,0.1,0.3,0.3v9.8C179,25.6,178.9,25.8,178.7,25.8z"/>
	</g>
	<g>
		<path class="st2" d="M196.9,20.9H189c-0.2,0-0.3-0.1-0.3-0.3v-0.4c0-0.2,0.1-0.3,0.3-0.3h7.9c0.2,0,0.3,0.1,0.3,0.3v0.4
			C197.2,20.7,197.1,20.9,196.9,20.9z"/>
	</g>
	<g>
		<path class="st2" d="M196.9,20.9c0,0-0.1,0-0.1,0c-0.1,0-0.2-0.1-0.2-0.3v-0.4c0-0.1,0-0.1,0.1-0.2l1.9-2.1
			c0.1-0.1,0.2-0.1,0.3-0.1c0.1,0,0.2,0.1,0.2,0.3v0.5c0,0.1,0,0.1-0.1,0.2l-1.9,2.1C197.1,20.8,197,20.9,196.9,20.9z"/>
	</g>
	<g>
		<path class="st2" d="M196.9,20.5H189c-0.1,0-0.2-0.1-0.3-0.2c0-0.1,0-0.2,0-0.3c0.1-0.1,1.4-1.7,2.2-2.3c0,0,0.1,0,0.2,0h7.7
			c0.1,0,0.2,0.1,0.3,0.2c0,0.1,0,0.2,0,0.3l-1.9,2.2C197.1,20.4,197,20.5,196.9,20.5z M189.6,19.9h7.2l1.4-1.6h-7
			C190.7,18.6,190,19.4,189.6,19.9z"/>
	</g>
	<g>
		<path class="st2" d="M194.7,19.7H192c-0.2,0-0.3-0.1-0.3-0.3v-0.3c0-0.1,0-0.1,0.1-0.2l0.8-0.8c0.1-0.1,0.1-0.1,0.2-0.1h2.6
			c0.2,0,0.3,0.1,0.3,0.3v0.3c0,0.1,0,0.1-0.1,0.2l-0.7,0.8C194.8,19.7,194.8,19.7,194.7,19.7z M192.3,19.1h2.2l0.5-0.5h-2.2
			L192.3,19.1z"/>
	</g>
	<g>
		<path class="st2" d="M194.7,19.7H192c-0.2,0-0.3-0.1-0.3-0.3v-0.3c0-0.2,0.1-0.3,0.3-0.3h2.7c0.2,0,0.3,0.1,0.3,0.3v0.3
			C195,19.6,194.8,19.7,194.7,19.7z"/>
	</g>
	<g>
		<path class="st2" d="M194.7,19.7c0,0-0.1,0-0.1,0c-0.1,0-0.2-0.1-0.2-0.3v-0.3c0-0.1,0-0.1,0.1-0.2l0.7-0.8
			c0.1-0.1,0.2-0.1,0.3-0.1c0.1,0,0.2,0.1,0.2,0.3v0.3c0,0.1,0,0.1-0.1,0.2l-0.7,0.8C194.8,19.7,194.8,19.7,194.7,19.7z"/>
	</g>
	<g>
		<path class="st2" d="M193.6,76.5c-0.1,0-0.1,0-0.2,0c-0.1-0.1-0.1-0.1-0.1-0.2l1.5-48c0-0.1,0-0.1,0.1-0.2
			c6.4-8.5,14.6-16.2,22.6-21.2c7-4.3,13.4-6.3,16.8-6.6c6.4-0.7,10.8,2.2,11,2.3c0.1,0.1,0.1,0.1,0.1,0.2v12.8
			c0,0.2-0.1,0.3-0.3,0.3H231c-16.9,1-31.8,14.3-33.1,15.4L196.8,75c0,0.1-0.1,0.2-0.2,0.3l-2.9,1.3
			C193.7,76.5,193.7,76.5,193.6,76.5z M195.4,28.3l-1.5,47.4l2.3-1l1.1-43.5c0-0.1,0-0.1,0.1-0.2c0.2-0.1,15.8-14.7,33.5-15.7
			l13.9,0V3c-0.8-0.5-4.9-2.7-10.5-2.1c-3.3,0.3-9.7,2.3-16.6,6.5C209.9,12.3,201.8,19.9,195.4,28.3z"/>
	</g>
	<g>
		<path class="st2" d="M213,78.6C212.9,78.6,212.9,78.6,213,78.6l-16.5-1.8c-0.1,0-0.3-0.1-0.3-0.3v-0.6c0-0.1,0-0.2,0.1-0.2
			c0.1-0.1,0.1-0.1,0.2-0.1l16.4,1.8c0.1,0,0.3,0.1,0.3,0.3v0.6c0,0.1,0,0.2-0.1,0.2C213.1,78.5,213,78.6,213,78.6z M196.8,76.3
			l15.9,1.7v-0.1L196.8,76.3L196.8,76.3z"/>
	</g>
	<g>
		<path class="st2" d="M213,77.5C212.9,77.5,212.9,77.5,213,77.5l-16.5-1.8c-0.1,0-0.3-0.1-0.3-0.3l1.1-44.2c0-0.1,0-0.1,0.1-0.2
			s0.1-0.1,0.2-0.1l16.9,0.9c0.2,0,0.3,0.1,0.3,0.3l-1.6,45c0,0.1,0,0.2-0.1,0.2C213.1,77.5,213,77.5,213,77.5z M196.8,75.2
			l15.9,1.7l1.6-44.5l-16.3-0.9L196.8,75.2z"/>
	</g>
	<g>
		<path class="st2" d="M214.5,32.4C214.5,32.4,214.5,32.4,214.5,32.4l-16.9-0.9c-0.1,0-0.2-0.1-0.3-0.2c0-0.1,0-0.2,0.1-0.3
			c0.2-0.1,15.8-14.7,33.5-15.7l14.2,0c0,0,0,0,0,0l11.9,0.5c0.2,0,0.3,0.1,0.3,0.3c0,0.2-0.1,0.3-0.3,0.3h-5.2
			c-9.9,1.9-37,15.8-37.3,16C214.6,32.4,214.6,32.4,214.5,32.4z M198.4,31l16.1,0.8c1.5-0.8,25.5-13,36.1-15.7l-5.3-0.2H231
			C215.3,16.8,201.2,28.5,198.4,31z"/>
	</g>
	<g>
		<path class="st2" d="M243.9,59.5C243.9,59.5,243.9,59.5,243.9,59.5l-1-0.1c-0.1,0-0.2-0.1-0.3-0.2c0-0.1,0-0.2,0.1-0.3
			c1.9-1.1,11.7-6.3,12.3-6.4c0.6-0.1,1.3,0,1.3,0c0.1,0,0.2,0.1,0.2,0.2c0,0.1,0,0.2-0.1,0.3l-12.4,6.5
			C244,59.5,244,59.5,243.9,59.5z M243.9,58.9L243.9,58.9l11.3-6c0,0,0,0,0,0C254.7,53.1,248.4,56.4,243.9,58.9z"/>
	</g>
	<g>
		<path class="st2" d="M250.8,134c-0.1,0-0.1,0-0.2-0.1l-0.7-0.5c-0.1-0.1-0.1-0.2-0.1-0.2l6.1-80.6c0-0.1,0.1-0.2,0.1-0.2
			c0.1,0,0.2,0,0.3,0l0.9,0.5c0.1,0.1,0.2,0.2,0.1,0.3l-6.4,80.6c0,0.1-0.1,0.2-0.2,0.2C250.9,134,250.9,134,250.8,134z
			 M250.5,133.1l0.1,0.1l6.3-79.8l-0.4-0.2L250.5,133.1z"/>
	</g>
	<g>
		<path class="st2" d="M237.4,150.9c-0.1,0-0.2,0-0.2-0.1l-0.1-0.1c-0.1-0.1-0.1-0.2,0-0.4l12.8-17.3c0-0.1,0.1-0.1,0.2-0.1
			c0.1,0,0.2,0,0.2,0.1l0.7,0.5c0.1,0,0.1,0.1,0.1,0.2s0,0.2-0.1,0.2l-13.4,16.8C237.6,150.8,237.5,150.9,237.4,150.9
			C237.4,150.9,237.4,150.9,237.4,150.9z M250.2,133.6l-4.2,5.7l4.4-5.6L250.2,133.6z"/>
	</g>
	<g>
		<path class="st2" d="M237.3,150.8c0,0-0.1,0-0.1,0l-0.5-0.2c-0.1-0.1-0.2-0.2-0.2-0.3l6-91.2c0-0.1,0-0.1,0.1-0.2
			c0.1-0.1,0.1-0.1,0.2-0.1l1,0.1c0.2,0,0.3,0.2,0.3,0.3l-6.6,91.3c0,0.1-0.1,0.2-0.1,0.2C237.4,150.8,237.4,150.8,237.3,150.8z
			 M243.2,59.4l-4.9,74.4l5.4-74.4L243.2,59.4z"/>
	</g>
	<g>
		<path class="st2" d="M189.8,46.4h-7.7c-0.2,0-0.3-0.1-0.3-0.3V28.5c0-0.5,0.2-1,0.6-1.3l2.4-1.9c0.1,0,0.1-0.1,0.2-0.1h7.6
			c0.1,0,0.2,0.1,0.3,0.2c0,0.1,0,0.2-0.1,0.3l-2.3,2c-0.3,0.2-0.4,0.6-0.4,1v17.5C190.1,46.3,189.9,46.4,189.8,46.4z M182.3,45.8
			h7.1V28.7c0-0.5,0.2-1,0.6-1.4l1.7-1.5h-6.8l-2.3,1.8c-0.3,0.2-0.4,0.5-0.4,0.9V45.8z"/>
	</g>
	<g>
		<path class="st2" d="M189.8,46.7h-8c-0.2,0-0.3-0.1-0.3-0.3V28.3c0-0.4,0.2-0.9,0.4-1.2l2.7-3.3c0.1-0.1,0.1-0.1,0.2-0.1h9.1
			c0.2,0,0.3,0.1,0.3,0.3v0.3c0,0.1,0,0.2-0.1,0.2l-0.9,0.8c-0.1,0-0.1,0.1-0.2,0.1h-7.8v0.1c0,0.1,0,0.2-0.1,0.2l-2.4,1.9
			c-0.3,0.2-0.4,0.5-0.4,0.9v17.3h7.4c0.2,0,0.3,0.1,0.3,0.3v0.3C190.1,46.6,189.9,46.7,189.8,46.7z M184.9,24.3l-2,2.4l1.7-1.4
			v-0.2c0-0.2,0.1-0.3,0.3-0.3h8l0.6-0.5H184.9z"/>
	</g>
	<g>
		<path class="st2" d="M192.6,25.8H185c-0.2,0-0.3-0.1-0.3-0.3v-0.4c0-0.2,0.1-0.3,0.3-0.3h8.1c0.1,0,0.2,0.1,0.3,0.2
			c0,0.1,0,0.2-0.1,0.3l-0.4,0.4C192.7,25.7,192.7,25.8,192.6,25.8z"/>
	</g>
	<g>
		<path class="st2" d="M190.2,194.7c0,0-0.1,0-0.1,0c-0.1,0-0.2-0.2-0.2-0.3l3.4-117.2c0-0.1,0.1-0.2,0.2-0.3l2.6-1
			c0.1,0,0.2,0,0.3,0c0.1,0.1,0.1,0.1,0.1,0.2l-3.9,116c0,0.1,0,0.1-0.1,0.2l-2.1,2.1C190.4,194.7,190.3,194.7,190.2,194.7z
			 M193.9,77.4l-3.4,116.3l1.5-1.5l3.9-115.5L193.9,77.4z"/>
	</g>
	<g>
		<path class="st2" d="M150.2,166.6c-0.7,0-1.3-0.1-1.9-0.1c-1.8-0.7-10.8-4.8-17.5-18.2c-7.5-14.7-6.7-33.9-6.7-34.1
			c0-0.1,0-0.2,0.1-0.2c0.1-0.1,0.2-0.1,0.2,0l40.2,10c0.1,0,0.2,0.2,0.2,0.3l-0.9,22.5c-0.7,8.6-3,14.5-6.9,17.6
			C154.7,166.1,152.3,166.6,150.2,166.6z M124.6,114.5c-0.1,2.7-0.2,20,6.6,33.5c6.7,13.1,15.5,17.2,17.2,17.9
			c2.1,0.3,5.3,0.2,8.2-2.1c3.7-3,6-8.7,6.7-17.2l0.9-22.2L124.6,114.5z"/>
	</g>
	<g>
		<path class="st2" d="M207.2,198C207.2,198,207.2,198,207.2,198l-14.3-4.9c-0.1,0-0.2-0.2-0.2-0.3l3.5-115.7c0-0.1,0-0.2,0.1-0.2
			c0.1-0.1,0.1-0.1,0.2-0.1l16.4,1.8c0.1,0,0.3,0.1,0.3,0.3l-5.7,118.8c0,0.1-0.1,0.2-0.1,0.2C207.3,198,207.3,198,207.2,198z
			 M193.4,192.6l13.6,4.7l5.7-118.2l-15.8-1.7L193.4,192.6z"/>
	</g>
	<g>
		<path class="st2" d="M235.3,175.2c0,0-0.1,0-0.1,0c-0.1,0-0.2-0.2-0.2-0.3l1.6-24.7c0-0.1,0.1-0.2,0.1-0.2c0.1,0,0.2,0,0.3,0
			l0.2,0.1l12.6-17l6.1-80l-11.9,6.3c-0.1,0-0.1,0-0.2,0l-0.7-0.1l0,0.5c0,0.1-0.1,0.2-0.1,0.2c-0.1,0-0.2,0.1-0.3,0l-0.6-0.2
			c-0.1,0-0.2-0.1-0.2-0.3v-0.8c0-0.1,0.1-0.2,0.1-0.2c0.4-0.2,10.1-5.7,12.1-6.6c2.5-1.1,4.3-0.7,4.4-0.7c0.1,0,0.2,0.2,0.2,0.3
			l-6.7,93.3c-3.2,17.5-16.4,30-16.6,30.1C235.4,175.2,235.4,175.2,235.3,175.2z M237.1,150.7l-1.5,23.5c2.5-2.5,13.1-14,15.9-29.3
			l6.6-93c-0.5-0.1-1.9-0.1-3.8,0.7l0,0c-1.6,0.7-9.2,4.9-11.4,6.2l0.9,0.1l12.3-6.5c0.1,0,0.2,0,0.3,0c0.1,0.1,0.1,0.2,0.1,0.3
			l-6.1,80.6c0,0.1,0,0.1-0.1,0.1l-12.8,17.3C237.5,150.8,237.3,150.8,237.1,150.7L237.1,150.7z M242.5,59.5L242.5,59.5l0.1-0.4
			c0,0,0-0.1,0-0.1c-0.1,0-0.1,0.1-0.1,0.1V59.5z M254.3,52.4L254.3,52.4L254.3,52.4z"/>
	</g>
	<g>
		<g>
			<path class="st2" d="M242.7,58.9c-0.1,0-0.2-0.1-0.3-0.1c0,0,0-0.1,0-0.1c0-0.1,0-0.2,0.1-0.2c0,0,0,0,0,0c0.1-0.1,0.3,0,0.4,0.1
				c0,0,0,0.1,0,0.1c0,0.1-0.1,0.2-0.2,0.3C242.8,58.9,242.7,58.9,242.7,58.9z"/>
		</g>
		<g>
			<path class="st2" d="M242.9,58.8c-0.1,0-0.2-0.1-0.2-0.1c0,0,0-0.1,0-0.1c0-0.1,0.1-0.2,0.1-0.2c0,0,0,0,0,0c0,0,0,0,0,0
				c0.5-0.3,1.3-0.8,2.3-1.3c0,0,0,0,0,0l0,0c0.1-0.1,0.3,0,0.4,0.1c0.1,0.1,0,0.3-0.1,0.4c-1,0.5-1.8,1-2.3,1.3
				C243,58.8,242.9,58.8,242.9,58.8z"/>
		</g>
		<g>
			<path class="st2" d="M242.4,59.1c-0.1,0-0.2-0.1-0.3-0.1c0,0,0-0.1,0-0.1c0-0.1,0.1-0.2,0.1-0.3l0.2-0.1c0.1-0.1,0.3,0,0.4,0.1
				c0,0,0,0.1,0,0.1c0,0.1-0.1,0.2-0.1,0.2l-0.2,0.1C242.4,59.1,242.4,59.1,242.4,59.1z"/>
		</g>
		<g>
			<path class="st2" d="M207.2,198c-0.1,0-0.1,0-0.2,0c-0.1-0.1-0.1-0.2-0.1-0.3l5.7-118.8c0-0.1,0-0.2,0.1-0.2l4.4-3.5
				c7.6-5,20.8-13.6,25-15.8c0.1,0,0.2,0,0.2,0l0.6,0.2c0.1,0,0.2,0.2,0.2,0.3L235.6,175c0,0.1,0,0.1-0.1,0.2
				c-0.1,0.1-13,14.3-28.1,22.8C207.3,198,207.3,198,207.2,198z M213.2,79l-5.7,118.2c14.3-8.2,26.5-21.3,27.5-22.4l7.5-114.7
				l-0.3-0.1c-4.2,2.3-17.3,10.8-24.8,15.7L213.2,79z"/>
		</g>
		<g>
			<path class="st2" d="M242.3,59.2c-0.2,0-0.3-0.1-0.3-0.3c0-0.1,0.1-0.2,0.2-0.3c0.1-0.1,0.2,0,0.3,0.1c0.1,0.1,0.1,0.1,0.1,0.2
				c0,0.1,0,0.1-0.1,0.2C242.4,59.1,242.3,59.2,242.3,59.2z"/>
		</g>
		<g>
			<path class="st2" d="M242.3,59.1c-0.1,0-0.2,0-0.2-0.1c0,0,0-0.1,0-0.2c0-0.1,0-0.2,0.1-0.2c0,0,0,0,0,0c0.1-0.1,0.3,0,0.4,0.1
				c0,0,0,0.1,0,0.1c0,0.1-0.1,0.2-0.1,0.2C242.4,59.1,242.4,59.1,242.3,59.1z"/>
		</g>
	</g>
	<g>
		<path class="st2" d="M213,78.6c-0.1,0-0.1,0-0.2-0.1l-1.5-1.2c-0.1-0.1-0.1-0.2-0.1-0.3c0-0.1,0.2-0.2,0.3-0.2l1.2,0.1l1.6-44.7
			c0-0.1,0.1-0.2,0.2-0.2c0.3-0.1,27.5-14.1,37.5-16l5.2,0c0,0,0,0,0,0c4,0.2,4.4,2.9,4.4,2.9l-2.3,34.2c0,0.1-0.1,0.3-0.3,0.3h-0.5
			c-0.2,0-0.3-0.1-0.3-0.3V52c-0.5-0.1-1.9-0.1-3.8,0.7c-1.8,0.8-10.6,5.7-11.9,6.4v0.6c0,0.1-0.1,0.2-0.2,0.3
			c-5.6,3-29,18.5-29.2,18.6C213.1,78.6,213,78.6,213,78.6z M212.4,77.4l0.6,0.5c2.2-1.4,23.3-15.4,29-18.4v-0.6
			c0-0.1,0.1-0.2,0.1-0.2c0.4-0.2,10.1-5.7,12.1-6.6c2.5-1.1,4.3-0.7,4.4-0.7c0.1,0,0.2,0.1,0.2,0.3V52l2.2-33.1
			c0,0-0.4-2.2-3.9-2.4h-5.2c-9.5,1.8-34.9,14.8-37.1,15.9l-1.6,44.9c0,0.1,0,0.2-0.1,0.2c-0.1,0.1-0.1,0.1-0.2,0.1L212.4,77.4z"/>
	</g>
	<g>
		<path class="st2" d="M237.3,150.8C237.3,150.8,237.3,150.8,237.3,150.8c-0.2-0.1-0.3-0.2-0.3-0.3l6.6-91.3c0-0.1,0.1-0.2,0.2-0.2
			l12.4-6.5c0.1,0,0.2,0,0.3,0c0.1,0.1,0.1,0.2,0.1,0.3l-6.1,80.6c0,0.1,0,0.1-0.1,0.1l-12.8,17.3
			C237.5,150.7,237.4,150.8,237.3,150.8z M244.2,59.4l-6.5,90.2l12.2-16.4l6.1-80L244.2,59.4z"/>
	</g>
	<g>
		<g>
			<path class="st2" d="M76.7,141.7c0,0-0.1,0-0.1,0l-0.2-0.1c-0.1,0-0.2-0.2-0.2-0.3c0,0,0-0.1,0-0.1c0.1-0.1,0.2-0.2,0.4-0.2
				l0.2,0.1c0.1,0,0.2,0.2,0.2,0.3c0,0,0,0.1,0,0.1C76.9,141.6,76.8,141.7,76.7,141.7z"/>
		</g>
		<g>
			<path class="st2" d="M74,149.4c0,0-0.1,0-0.1,0l-5.5-2.1c-0.1,0-0.2-0.1-0.2-0.3l-0.4-9c0-0.1,0-0.2,0.1-0.3
				c0.1-0.1,0.2-0.1,0.3,0c1.7,0.8,3.5,1.5,5.3,2.2c0.1,0,0.2,0.1,0.2,0.3l0.5,8.9c0,0.1,0,0.2-0.1,0.2
				C74.2,149.4,74.1,149.4,74,149.4z M68.8,146.8l4.9,1.9l-0.5-8.3c-1.6-0.6-3.2-1.2-4.8-1.9L68.8,146.8z"/>
		</g>
		<g>
			<path class="st2" d="M79.7,142.7c0,0-0.1,0-0.1,0c-0.1,0-0.2-0.1-0.2-0.3c0-0.2,0.1-0.3,0.3-0.3s0.3,0.1,0.3,0.3
				C80,142.6,79.8,142.7,79.7,142.7z"/>
		</g>
		<g>
			<path class="st2" d="M75.2,141.1C75.2,141.1,75.2,141.1,75.2,141.1l-0.3-0.1c-0.1,0-0.2-0.2-0.2-0.3c0,0,0-0.1,0-0.1
				c0.1-0.1,0.2-0.2,0.4-0.2l0.2,0.1c0.1,0,0.2,0.2,0.2,0.3c0,0,0,0.1,0,0.1C75.4,141.1,75.3,141.1,75.2,141.1z"/>
		</g>
	</g>
	<g>
		<path class="st2" d="M81.1,93.7c-0.1,0-0.2-0.1-0.3-0.1c-0.1-0.1,0-0.3,0.1-0.4l0,0c0.1,0,0.1-0.1,0.1-0.2v-5.8
			c0-0.1-0.1-0.2-0.1-0.2l-11.1-2.2c0,0-0.1,0-0.1,0c-0.1,0.1-0.3,0-0.4-0.1c-0.1-0.1,0-0.3,0.1-0.4l0.5-0.3
			c0.2-0.1,0.4-0.1,0.5-0.1l11.1,2.2c0,0,0,0,0,0c0.3,0.1,0.6,0.4,0.6,0.7v5.8c0,0.3-0.2,0.6-0.5,0.7l-0.4,0.2c0,0,0,0,0,0
			C81.1,93.7,81.1,93.7,81.1,93.7z M81.4,86.7c0.1,0.1,0.2,0.3,0.2,0.5v5.6c0,0,0-0.1,0-0.1v-5.8C81.6,86.8,81.6,86.8,81.4,86.7
			L81.4,86.7z"/>
	</g>
	<g>
		<path class="st2" d="M80.8,93.8c-0.1,0-0.1,0-0.2,0c0,0,0,0,0,0l-11.1-2.5c-0.3-0.1-0.6-0.4-0.6-0.7V85c0-0.2,0.1-0.4,0.3-0.6
			c0.2-0.1,0.4-0.2,0.6-0.1L81,86.5c0.4,0.1,0.6,0.4,0.6,0.7V93c0,0.2-0.1,0.4-0.3,0.6C81.2,93.7,81,93.8,80.8,93.8z M80.8,93.2
			c0.1,0,0.1,0,0.1,0c0,0,0.1-0.1,0.1-0.1v-5.8c0-0.1-0.1-0.2-0.1-0.2l-11.1-2.2c-0.1,0-0.1,0-0.2,0c0,0-0.1,0.1-0.1,0.1v5.5
			c0,0.1,0.1,0.2,0.1,0.2L80.8,93.2z"/>
	</g>
	<g>
		<path class="st2" d="M164.8,124C164.8,124,164.8,124,164.8,124l-40.5-10c-0.1,0-0.2-0.1-0.2-0.3l0-1.2c0-0.1,0-0.2,0.1-0.2
			c0.1-0.1,0.2-0.1,0.2-0.1l40.8,9.7c0,0,0,0,0,0c0.2,0,0.2,0.2,0.2,0.3c0,0.2-0.2,0.2-0.3,0.2l0,0c0,0-0.2,0.1-0.3,0.4
			c-0.1,0.3,0,0.5,0,0.5c0.2,0,0.2,0.2,0.2,0.3C165,123.9,164.9,124,164.8,124z M124.6,113.5l39.6,9.8c0-0.1,0-0.3,0-0.5
			c0-0.2,0.1-0.3,0.2-0.4l-39.8-9.5L124.6,113.5z"/>
	</g>
	<g>
		<path class="st2" d="M164.9,124c0,0-0.1,0-0.1,0c-0.2-0.1-0.4-0.2-0.4-0.5c-0.1-0.2-0.1-0.5,0-0.7c0.1-0.3,0.3-0.6,0.5-0.8
			c0.1-0.1,0.3-0.1,0.5-0.1c0.2,0.1,0.4,0.2,0.4,0.5c0.1,0.2,0.1,0.5,0,0.7c-0.1,0.3-0.3,0.6-0.5,0.8C165.1,124,165,124,164.9,124z
			 M165.1,122.6c0,0-0.2,0.1-0.3,0.4c-0.1,0.3,0,0.5,0,0.5c0,0,0.2-0.1,0.3-0.4l0,0C165.2,122.8,165.1,122.6,165.1,122.6z"/>
	</g>
	<g>
		<path class="st2" d="M171.7,118.4C171.7,118.4,171.7,118.4,171.7,118.4l-47.5-10.5c-0.1,0-0.2-0.1-0.2-0.3l0-0.7
			c0-0.1,0-0.2,0.1-0.2c0.1-0.1,0.2-0.1,0.2-0.1l47.4,10.5c0.1,0,0.2,0.1,0.2,0.3v0.7c0,0.1,0,0.2-0.1,0.2
			C171.9,118.3,171.8,118.4,171.7,118.4z M124.6,107.3l46.8,10.4v-0.1l-46.8-10.4V107.3z"/>
	</g>
	<g>
		<path class="st2" d="M124.5,93.9C124.5,93.9,124.5,93.9,124.5,93.9l-3.7-0.7c-0.2,0-0.3-0.2-0.2-0.3c0-0.2,0.2-0.3,0.3-0.2
			l3.7,0.7c0.2,0,0.3,0.2,0.2,0.3C124.8,93.8,124.7,93.9,124.5,93.9z"/>
	</g>
	<g>
		<path class="st2" d="M190.2,194.7c0,0-0.1,0-0.1,0L74,150.8c-0.1,0-0.2-0.1-0.2-0.3l-0.6-10.3c0-0.1,0-0.2,0.1-0.2
			c0.1-0.1,0.2-0.1,0.3,0c27.4,9.8,68.4,23.9,72.1,25.2c-3.6-2.1-9.9-6.9-14.9-16.9c-7.5-14.7-6.7-33.9-6.7-34.1l0-8.7
			c0-0.1,0-0.2,0.1-0.2c0.1-0.1,0.2-0.1,0.2-0.1l46.7,10.7l0.3-30.3l-18.3-2.7c-0.1,0-0.2-0.1-0.2-0.3c0-0.1,0.1-0.3,0.2-0.3
			l20.6-7.7c0,0,0.1,0,0.1,0l19.9,2.4c0.1,0,0.3,0.1,0.3,0.3l-3.4,117.2c0,0.1-0.1,0.2-0.1,0.2C190.4,194.7,190.3,194.7,190.2,194.7
			z M74.4,150.4L190,194l3.4-116.5l-19.6-2.3l-19.5,7.3l17.5,2.6c0.1,0,0.2,0.1,0.2,0.3l-0.3,30.9c0,0.1,0,0.2-0.1,0.2
			c-0.1,0.1-0.2,0.1-0.2,0.1l-46.7-10.7l0,8.4c0,0.2-0.8,19.3,6.6,33.9c6.7,13.1,15.5,17.2,17.2,17.9c0.1,0.1,0.2,0.2,0.2,0.3
			c0,0.1-0.2,0.2-0.3,0.2c-1.5-0.2-2.5-0.6-2.5-0.7c-0.4-0.1-43.3-14.9-71.9-25.1L74.4,150.4z"/>
	</g>
	<g>
		<path class="st2" d="M171.4,116.5C171.4,116.5,171.4,116.5,171.4,116.5l-47.2-10.8c-0.1,0-0.2-0.1-0.2-0.3l0-11.9
			c0-0.1,0-0.2,0.1-0.2c0.1-0.1,0.1-0.1,0.2-0.1l0.1,0l7.8-3.7c0,0,0.1,0,0.2,0l0.9,0.1l19.7-7.4c0,0,0.1,0,0.1,0l18.6,2.7
			c0.1,0,0.2,0.1,0.2,0.3l-0.3,30.9c0,0.1,0,0.2-0.1,0.2C171.6,116.4,171.5,116.5,171.4,116.5z M124.6,105.2l46.5,10.6l0.3-30.3
			l-18.3-2.7l-19.7,7.4c0,0-0.1,0-0.1,0l-0.9-0.1l-7.8,3.7c0,0-0.1,0-0.1,0L124.6,105.2z"/>
	</g>
	<g>
		<path class="st2" d="M184.9,90.1c-0.1,0-0.2,0-0.4,0c-0.1,0-0.3-0.1-0.2-0.3c0-0.1,0.1-0.3,0.3-0.3c1.2-0.2,2.2-1.3,2.2-2.6
			s-0.9-2.5-2.2-2.6c-0.1,0-0.3-0.1-0.3-0.3c0-0.1,0.1-0.3,0.3-0.3c0.1,0,0.2,0,0.3,0c1.7,0,3,1.4,3,3.2S186.5,90.1,184.9,90.1z
			 M187,85.6c0.2,0.4,0.2,0.8,0.2,1.2s-0.1,0.9-0.2,1.2c0.2-0.4,0.3-0.8,0.3-1.2S187.2,86,187,85.6z"/>
	</g>
	<g>
		<path class="st2" d="M184.2,90.1c-1.7,0-3-1.4-3-3.2s1.4-3.2,3-3.2c1.7,0,3,1.4,3,3.2S185.9,90.1,184.2,90.1z M184.2,84.3
			c-1.4,0-2.5,1.2-2.5,2.6s1.1,2.6,2.5,2.6c1.4,0,2.5-1.2,2.5-2.6S185.6,84.3,184.2,84.3z"/>
	</g>
	<g>
		<path class="st2" d="M184.7,85.6v0.5c0.3,0.2,0.6,0.5,0.6,0.9c0,0.5-0.5,1-1.1,1c-0.6,0-1-0.4-1-1c0-0.4,0.2-0.7,0.5-0.9v-0.5
			c-0.6,0.2-1,0.7-1,1.4c0,0.8,0.6,1.5,1.5,1.5c0.9,0,1.6-0.7,1.6-1.5C185.8,86.3,185.3,85.8,184.7,85.6z"/>
	</g>
	<g>
		<path class="st2" d="M184.2,85.3c-0.2,0-0.3,0.1-0.3,0.3v0.9c0,0.2,0.1,0.3,0.3,0.3c0.2,0,0.3-0.1,0.3-0.3v-0.9
			C184.5,85.4,184.4,85.3,184.2,85.3z"/>
	</g>
	<g>
		<path class="st2" d="M121,77.1C120.9,77.1,120.9,77.1,121,77.1l-5-0.8c-0.1,0-0.2-0.1-0.2-0.3c0,0,0,0,0,0c0-0.2,0.2-0.3,0.3-0.2
			l5,0.8c0.1,0,0.2,0.1,0.2,0.3c0,0,0,0,0,0C121.2,77,121.1,77.1,121,77.1z"/>
	</g>
	<g>
		<g>
			<path class="st2" d="M177.3,27.7c-0.1,0-0.1,0-0.2-0.1c-0.1-0.1-0.1-0.1-0.1-0.2c0-0.1,0-0.1,0.1-0.2c0.1-0.1,0.3-0.1,0.4,0
				c0.1,0.1,0.1,0.1,0.1,0.2c0,0.1,0,0.1-0.1,0.2l0,0C177.4,27.7,177.4,27.7,177.3,27.7z"/>
		</g>
		<g>
			<path class="st2" d="M177.5,27.2C177.5,27.2,177.5,27.2,177.5,27.2C177.5,27.2,177.5,27.2,177.5,27.2z"/>
		</g>
		<g>
			<path class="st2" d="M124.5,93.9c0,0-0.1,0-0.1,0c-0.1,0-0.1-0.1-0.2-0.2l-3.6-16.8c0-0.1,0-0.2,0-0.2c0.5-0.7,47-68,88.7-75.8
				c0,0,0,0,0.1,0h5.8c0.1,0,0.3,0.1,0.3,0.3c0,0.1-0.1,0.3-0.2,0.3c-13.2,2.7-27.1,15.3-34.3,22.5c0,0,0,0-0.1,0
				c-16.6,13.2-45.1,47.4-49.2,54.1c-0.9,1.4-0.4,2.5-0.4,2.5l2.2,9.3c0,0.1,0,0.2-0.1,0.3c-0.1,0.1-0.1,0.1-0.2,0.1l-0.9-0.1
				l-7.8,3.7C124.6,93.9,124.6,93.9,124.5,93.9z M121.3,76.8l3.5,16.4l7.5-3.6c0,0,0.1,0,0.1,0l0.6,0l-2.1-8.8c0,0-0.6-1.3,0.5-3
				c4.1-6.7,32.7-41.1,49.3-54.3c6.8-6.9,19.6-18.5,32.3-22.1h-3.4C168.8,9,123.3,73.9,121.3,76.8z"/>
		</g>
		<g>
			<path class="st2" d="M178.1,26.8c-0.1,0-0.2-0.1-0.3-0.2c0,0,0-0.1,0-0.1c0-0.1,0-0.1,0.1-0.2c0.1-0.2,0.5-0.1,0.5,0.2
				c0,0.1-0.1,0.2-0.2,0.3C178.2,26.8,178.2,26.8,178.1,26.8z"/>
		</g>
		<g>
			<path class="st2" d="M177.2,27.9c-0.1,0-0.1,0-0.2-0.1c-0.1-0.1-0.1-0.3-0.1-0.4c0,0,0-0.1,0.1-0.1c0.1-0.1,0.3-0.1,0.4,0
				c0.1,0.1,0.1,0.3,0,0.4C177.3,27.9,177.2,27.9,177.2,27.9z M177.2,27.6l0.2,0.2L177.2,27.6z M177.2,27.6L177.2,27.6L177.2,27.6z"
				/>
		</g>
		<g>
			<circle class="st2" cx="180" cy="24.5" r="0.3"/>
		</g>
		<g>
			<path class="st2" d="M179.6,25.2c-0.1,0-0.2,0-0.2-0.1c0-0.1-0.1-0.1-0.1-0.2c0-0.1,0-0.2,0.1-0.2c0.1-0.1,0.3-0.1,0.4,0
				c0.1,0.1,0.1,0.1,0.1,0.2c0,0.1,0,0.1-0.1,0.2c0,0,0,0,0,0C179.8,25.2,179.7,25.2,179.6,25.2z"/>
		</g>
		<g>
			<path class="st2" d="M180.4,24.4c-0.1,0-0.1,0-0.2-0.1c-0.1-0.1-0.1-0.1-0.1-0.2c0-0.1,0-0.1,0.1-0.2c0.1-0.1,0.3-0.1,0.4,0
				c0.1,0.1,0.1,0.1,0.1,0.2c0,0.1,0,0.1-0.1,0.2l0,0C180.6,24.4,180.5,24.4,180.4,24.4z"/>
		</g>
		<g>
			<path class="st2" d="M178.7,26.3c-0.1,0-0.1,0-0.2-0.1c-0.1-0.1-0.1-0.1-0.1-0.2c0-0.1,0-0.1,0.1-0.2c0.1-0.1,0.3-0.1,0.4,0
				c0.1,0.1,0.1,0.1,0.1,0.2c0,0.1,0,0.1-0.1,0.2c0,0,0,0,0,0C178.8,26.2,178.7,26.3,178.7,26.3z"/>
		</g>
		<g>
			<path class="st2" d="M179,26c-0.1,0-0.1,0-0.2-0.1c-0.1-0.1-0.1-0.1-0.1-0.2c0-0.1,0-0.1,0.1-0.2c0.1-0.1,0.3-0.1,0.4,0
				c0.1,0.1,0.1,0.1,0.1,0.2c0,0.1,0,0.1-0.1,0.2l-0.2-0.2l0.2,0.2C179.1,25.9,179,26,179,26z"/>
		</g>
		<g>
			<path class="st2" d="M179.3,25.6c-0.1,0-0.1,0-0.2-0.1c-0.1-0.1-0.1-0.1-0.1-0.2c0-0.1,0-0.1,0.1-0.2c0.1-0.1,0.3-0.1,0.4,0
				c0.1,0.1,0.1,0.1,0.1,0.2c0,0.1,0,0.1-0.1,0.2C179.5,25.5,179.4,25.6,179.3,25.6z"/>
		</g>
	</g>
	<g>
		<path class="st2" d="M133.3,90.2C133.3,90.2,133.3,90.2,133.3,90.2l-1-0.1c-0.1,0-0.2-0.1-0.2-0.2c0-0.1-1.4-6.9-1.7-8l-0.1-0.3
			c-0.3-1-0.6-2.5,0.7-4.4c2.2-3.1,31.9-42,47.4-51.8c0.1-0.1,0.3,0,0.4,0.1c0.1,0.1,0.1,0.3,0,0.4c-17,14.4-43.2,46.2-46.9,52.3
			l0,0c-0.9,1.5-0.4,2.5-0.4,2.5l2.2,9.3c0,0.1,0,0.2-0.1,0.3C133.5,90.2,133.4,90.2,133.3,90.2z M132.6,89.6l0.3,0l-2.1-8.9
			c0,0-0.6-1.3,0.5-3l0,0c0,0,0,0,0,0c-1,1.6-0.7,2.7-0.5,3.7l0.1,0.3C131.2,82.7,132.4,88.4,132.6,89.6z M131.6,77.9L131.6,77.9
			L131.6,77.9z M173.6,29.6c-9.1,7.6-20.8,21.1-29.6,31.9C152.7,51.2,164.2,38.5,173.6,29.6z"/>
	</g>
	<g>
		<path class="st2" d="M121,77.1C120.9,77.1,120.9,77.1,121,77.1L14.9,61c-0.1,0-0.2-0.1-0.2-0.2c0-0.1,0-0.2,0.1-0.3
			c28.4-28.8,63-44.9,63.4-45.1c0,0,0.1,0,0.1,0h0.9V15c0-0.1,0.1-0.2,0.2-0.3c18-8.4,34.4-11.3,34.6-11.3l95.6-2.7
			c0.2,0,0.3,0.1,0.3,0.3c0,0.1-0.1,0.3-0.2,0.3c-41.5,7.8-87.9,74.9-88.4,75.6C121.1,77,121,77.1,121,77.1z M15.6,60.5l105.2,16
			c2.4-3.5,45.7-64.9,85.7-75L114,4.1c-0.1,0-16.4,2.9-34.2,11.2v0.4c0,0.2-0.1,0.3-0.3,0.3h-1.1C76.8,16.7,43.3,32.6,15.6,60.5z"/>
	</g>
	<g>
		<path class="st2" d="M193.6,76.5C193.6,76.5,193.6,76.5,193.6,76.5l-17.5-2.3c-0.1,0-0.3-0.1-0.2-0.3l1-46.3c0-0.1,0-0.1,0.1-0.2
			c0.2-0.2,20.2-22.9,38.3-26.7l19.2-0.5c0,0,0,0,0,0c0.2,0,0.3,0.1,0.3,0.3c0,0.2-0.1,0.3-0.3,0.3c-0.2,0-19.1,1.7-39,27.5
			l-1.5,47.9c0,0.1,0,0.2-0.1,0.2C193.8,76.5,193.7,76.5,193.6,76.5z M176.4,73.7l16.9,2.2l1.5-47.6c0-0.1,0-0.1,0.1-0.2
			C210.1,8.4,224.7,2.6,231,0.9l-15.7,0.4c-17.4,3.6-36.6,24.9-37.9,26.4L176.4,73.7z"/>
	</g>
	<g>
		<path class="st2" d="M133.3,90.2c0,0-0.1,0-0.1,0c-0.1,0-0.1-0.1-0.1-0.2l-2.2-9.3c0,0-0.6-1.3,0.5-3c4.1-6.7,32.7-41.1,49.4-54.3
			c0.1-0.1,0.3-0.1,0.4,0c0.1,0.1,0.1,0.3,0,0.4c-2,2.1-3.3,3.5-3.6,3.9l-1,46.2c0,0.1-0.1,0.2-0.2,0.3l-42.8,16
			C133.4,90.2,133.4,90.2,133.3,90.2z M177.2,27.1c-16.9,14.8-41.6,44.7-45.4,51c-0.9,1.5-0.4,2.5-0.4,2.5l2.1,9l42.3-15.8l1-46.1
			c0-0.1,0-0.1,0.1-0.2C176.9,27.4,177,27.3,177.2,27.1z"/>
	</g>
	<g>
		<path class="st2" d="M38.2,78C38.1,78,38.1,78,38.2,78c-1.6-0.3-6.2-1.1-6.8-1.2c-0.7-0.1-0.9-0.8-0.9-1.1v-1c0-0.1,0-0.2,0.1-0.2
			c0.1-0.1,0.2-0.1,0.2-0.1l8.3,1.7c0.1,0,0.1,0.1,0.2,0.1c0,0.1,0,0.2,0,0.2c0,0.1-0.2,0.2-0.3,0.2l-0.6-0.1l0.1,1.2
			c0,0.1,0,0.2-0.1,0.2C38.3,78,38.2,78,38.2,78z M31,75v0.7c0,0.1,0,0.4,0.5,0.5c0.5,0.1,4.6,0.8,6.4,1.2l-0.1-1L31,75z"/>
	</g>
	<g>
		<path class="st2" d="M124.5,93.9C124.5,93.9,124.5,93.9,124.5,93.9L19.4,72.7c-0.1,0-0.2-0.1-0.2-0.2l-4.5-11.7c0-0.1,0-0.2,0-0.3
			c0.1-0.1,0.2-0.1,0.3-0.1l106,16.1c0.1,0,0.2,0.1,0.2,0.2l3.6,16.8c0,0.1,0,0.2-0.1,0.3C124.7,93.9,124.6,93.9,124.5,93.9z
			 M19.7,72.1l104.5,21.1L120.7,77L15.4,61L19.7,72.1z"/>
	</g>
	<g>
		<g>
			<path class="st2" d="M124.3,92.7c-0.2,0-0.3-0.1-0.3-0.3c0-0.2,0.1-0.3,0.3-0.3h0c0.2,0,0.3,0.1,0.3,0.3
				C124.6,92.6,124.5,92.7,124.3,92.7z"/>
		</g>
		<g>
			<path class="st2" d="M148.3,166.4C148.3,166.4,148.3,166.4,148.3,166.4c-1.5-0.2-2.5-0.6-2.6-0.7c-0.4-0.1-43.7-15-72.4-25.3
				c-26.9-9.6-32.7-30.2-33.7-41.6C39,92.2,38,79.8,37.7,76.2c0-0.1,0-0.2,0.1-0.2c0.1-0.1,0.2-0.1,0.2-0.1l86.3,17.4
				c0.1,0,0.2,0.1,0.2,0.3l0.1,20.6c0,0.2-0.8,19.3,6.6,33.9l0,0c6.7,13.1,15.5,17.2,17.2,17.9c0.1,0.1,0.2,0.2,0.2,0.3
				C148.6,166.3,148.5,166.4,148.3,166.4z M38.3,76.5c0.3,4,1.3,15.8,1.9,22.3c1,11.3,6.8,31.6,33.4,41.1
				c27.4,9.8,68.4,23.9,72.1,25.2c-3.6-2.1-9.9-6.9-14.9-16.9c-7.5-14.7-6.7-33.9-6.7-34.1l0-20.4L38.3,76.5z"/>
		</g>
	</g>
</g>
<g class="st1">
	<path class="st3" d="M384,136.9l-13.9,0.4c-0.3,0-0.6,0.3-0.6,0.6v6.3c0,0.2,0.1,0.3,0.2,0.4c0.1,0.1,0.3,0.2,0.4,0.2c0,0,0,0,0,0
		l13.9-0.4c0.3,0,0.6-0.3,0.6-0.6v-6.3c0-0.2-0.1-0.3-0.2-0.4C384.3,137,384.1,136.9,384,136.9z M384.4,143.9c0,0.2-0.2,0.4-0.4,0.4
		l-13.9,0.4c-0.1,0-0.2,0-0.3-0.1c-0.1-0.1-0.1-0.2-0.1-0.3V138c0-0.2,0.2-0.4,0.4-0.4l13.9-0.4c0,0,0,0,0,0c0.1,0,0.2,0,0.3,0.1
		c0.1,0.1,0.1,0.2,0.1,0.3V143.9z"/>
	<ellipse class="st3" cx="335.4" cy="162.5" rx="0.5" ry="0.6"/>
	<ellipse class="st3" cx="332.4" cy="162.5" rx="0.5" ry="0.6"/>
	<path class="st3" d="M330.9,161.5v1.9h0l0,0.1v0.1h0l0.2,0.6h0.8v32.8l95.7,2.4v-35.4h-90.3l0-3.2l0.1-0.2h-0.1l0-0.2l-0.2,0.2
		h-5.9l-0.4,0.5h-0.1v0.1l-0.1,0.1H330.9z M331.1,161.5h5.6v1.9h-5.6V161.5z M331.3,164.1l-0.1-0.4h5.6l0.3,0.4H332H331.3z
		 M427.5,164.3v34.9l-95.3-2.4v-32.6h5l0.2,0.2l0-0.2h0.1H427.5z M337.2,163.9l-0.2-0.3l0,0v-2.1l0.2-0.2l0.1-0.1L337.2,163.9z
		 M331.4,161h5.6l-0.1,0.1l-0.2,0.2h-5.6L331.4,161z"/>
	<path class="st3" d="M419.7,162.8l0.1,0.1v0.1h0.1l0.5,0.7h7.2l0.2,0.2v-0.2h0.1l-0.1-0.1v-3.7l0.1-0.1l-0.1,0v-0.2l-0.2,0.2
		l-7.3,0.1l-0.4,0.7h0v0.1l-0.1,0.1h0.1v2.1H419.7z M420.4,163.5l-0.3-0.5h6.8l0.4,0.5H420.4z M427.1,160.6l0.4-0.5v3.2l-0.4-0.4
		V160.6z M420.4,159.9l7-0.1l-0.4,0.6h-6.8L420.4,159.9z M420,160.7h6.9v2.1H420V160.7z"/>
	<ellipse class="st3" cx="425.1" cy="161.7" rx="0.6" ry="0.8"/>
	<ellipse class="st3" cx="421.6" cy="161.7" rx="0.6" ry="0.8"/>
	<path class="st3" d="M652.8,230.2l-0.4-0.3l0,0l-23.6-1.1v-25.1l-1.1-0.4l-0.1-28.8l0-0.1l0,0c-1.4-1-3.1-0.8-3.1-0.8h-1.1l0-0.6
		l0,0c-0.6-1.2-3.6-1.3-3.8-1.3h-0.4v-8.8l-0.7-0.5v-0.1h-0.6v-0.7H613V158l-0.7-0.5v-0.1h-0.6v-0.7h-4.8v-1.7l-1-0.7v-0.1h-2.3
		h-0.1h-1.8v0.5h-3.2v-1.2h6.2v0.7h0.2v-0.9h-6.5v-2.2l-1.1-0.7v-0.1h-2.6h-0.1h-2v0.5h-3.7v-1.3h7.1v0.8h0.2v-1h-7.3v-2.8l-2.3-1.3
		v0h-2.7v0.4H576l0.1-0.2h0.6h0.1h0.5c0.6,0,0.6-3.1,0.6-3.3c0-0.1,0-3.3-0.6-3.3h-0.9l0,0.1c0,0-0.3,0.8-0.3,3.2
		c0,1.8,0.3,2.7,0.4,3H576l-0.6,1.5h1.6l0.8,0.7v5.8h6.1v1.5h-4.2l0,0.1c0,1.2,0.1,3,0,3.4h-2.3l-0.5-1.1h-4.2V146l0.1,0l1.5,0.2
		V145h0.7c0.3,0,0.6-0.3,0.6-0.6v-4.9c0-0.3-0.3-0.6-0.6-0.6H566c-0.3,0-0.6,0.3-0.6,0.6v4.9c0,0.2,0.1,0.4,0.3,0.5v1.4l0.1-0.1
		c0,0,0.5-0.2,1.1-0.2v1h-1.3v-1.2h-0.9v0.5l-30.6,0.7h-4.4v17.7h-0.6v-0.9h-17.1v0.7l-29.8-5.3l1.2-0.2l0.2,0l0-0.1l0.4-0.1
		l-0.5-0.1l-9.1-28.2l0-0.1l-2.9-0.8v0.4l-2.8-0.7l0,0h-0.1l-0.1,0l0,0h-15.7c-1.7-0.7-3.4-1.4-4-1.7c0-1.6-1.4-2.9-3-2.9h-0.4v0.1
		h-1.5v0.3c-0.2-0.3-0.5-0.4-0.9-0.4h-2.9v0.2l-6,6.6l0-1.5L326,134.1l-0.1,0l0,0.1v-0.1h-3l-24.8,1.5V215l4.1,0.1h-0.1v131.7
		l1.3,0.2v2.8l-0.8,0.6v1.2l20.6,3.6l1-0.7V354l5.1,0.9v0l11.7-2.7v-4.2l1.6-0.3v-14.7c0.5-0.1,3.2-0.9,5-1.1c2-0.2,4.4,0,4.4,0l0,0
		l5.4-2.4l0,4.3l0,0.1l7.3,1.1l4.5-0.9v-12l21.7,3.3l0.4,0.1l-0.1,13.8l0,0.1l7.8,1.1l0,0l4.6-2.1v-11l23.4,3.5l0.1,13.9l0,0.1
		l7.7,1.2l0,0l1.9-1.1l0,4.1c-0.7-0.9-2.1-1.5-2.2-1.5l0,0c-0.7-0.1-68.3-10.8-73.2-11.6c-4.8-0.8-9.7-1.2-11.8-1
		c-1.9,0.1-6.7,0.5-6.7,0.5l0,0.2c0,0,4.7-0.4,6.7-0.5c2.1-0.2,7,0.2,11.8,1c4.9,0.8,72,11.4,73.2,11.6c0.1,0.1,1.7,0.7,2.3,1.7l0,0
		l0,1.6c-0.7-0.9-2.1-1.5-2.2-1.5l0,0c-0.7-0.1-68.3-10.8-73.2-11.6c-4.8-0.8-9.7-1.2-11.8-1c-1.9,0.1-6.7,0.5-6.7,0.5l0,0.2
		c0,0,4.7-0.4,6.7-0.5c2.1-0.2,7,0.2,11.8,1c4.9,0.8,72,11.4,73.2,11.6c0.1,0.1,1.7,0.7,2.3,1.7l0,0l0,18.1l0,0.1l0.7,0.1v4.7
		l7.9,0.9l-0.3,1l22.6,4.1l9-8l0,0v-1.1l-0.7-0.8c0.1-2.2,0-2.8,0-3l0.7-0.5V220.5l6.6-0.8v116.5l-6.5-0.8l0,0.2l6.6,0.9v0.7
		l28.4,4.1l0.1,0v-1.1l68.7,9.6l0.1,0l13.3-19.8h0.1v-0.1l16.7-24.8h0v0l41.9-62.4l0,0v-10.1l0.3-0.3V230.2z M577.7,142.3
		c0,1.9-0.3,3-0.4,3c-0.2-0.1-0.4-1.1-0.4-3c0-1.9,0.3-3,0.4-3h0C577.4,139.3,577.7,140.4,577.7,142.3z M576.6,139.3h0.4
		c-0.4,0.7-0.4,2.9-0.4,3c0,0.1,0,2.3,0.4,3h-0.2c-0.1-0.2-0.5-1-0.5-3C576.3,140.4,576.5,139.5,576.6,139.3z M593.7,319L593.7,319
		L593.7,319c-2.3,3.2-8.2,11.4-9.7,13.6c-1.8,2.6-3.6,2.1-3.7,2l-68.6-7.1v-4.1l69.9,6.7l0.1,0l12.9-17.1v4.8
		C594.5,318,594.2,318.4,593.7,319z M580.8,334.9c0.7,0,2.1-0.3,3.3-2.2c1.4-2.1,7.1-10,9.5-13.3v10.4L580.7,349L580.8,334.9
		C580.8,334.9,580.8,334.9,580.8,334.9z M581.6,329.9l-69.6-6.7l1.5-1v0l0.2-0.1l22.1-14l58.7,4.7L581.6,329.9z M534,197.5v6
		l-24.2,1.5v-7.3L534,197.5z M535.6,169v28h0.2V169l18.2,3.3v24.7h0.2v-24.6l11.3,2l4.7,22.5l-58.5,0.7v-32.8L535.6,169z
		 M531.9,168.1l44.3-0.6l0.4,3.2h-30.2L531.9,168.1z M530.8,167.9l-0.3-0.1v-1.6l45.7-0.6l0,1.6L530.8,167.9z M584.1,163.3h2.7h2.1
		v79.4l-1.6-0.1v-64.6l-0.1,0c0,0-2.8-1.4-8.5-1.2l-1.5,0v-13.5H584.1z M592.9,163.3V243l-3.7-0.2v-79.4H592.9z M601.2,165.5v75.7
		c-0.4,0.2-3,1.4-6,1.8v-79.7C596.3,163.5,599.4,164,601.2,165.5z M609.7,168l0.2,68.5c-0.4,0.2-2.6,1.1-4.9,1.1v-71
		C605.6,166.7,609,166.9,609.7,168z M609.3,157.8v-0.1h1v4.8h-1v-0.3V157.8z M609.1,161.9h-2.3V158h2.3V161.9z M606.8,164.1h2.7v3.4
		c-0.6-0.5-1.7-0.7-2.7-0.9V164.1z M609.9,169.5h0.8v64.2h-0.6L609.9,169.5z M613,162.8h2.3v3.9H613V162.8z M615.5,162.6v-0.1h1v4.8
		h-1v-0.3V162.6z M615.3,166.9v0.6h1.2v2.8c-0.2-0.1-0.4-0.2-0.6-0.3v-1.2H613v-1.8H615.3z M613,168.9h2.7v0.9
		c-1-0.4-2.3-0.5-2.7-0.5V168.9z M612.8,169.5c0,0,3.4,0.2,4,1.4l0.2,61.7l-0.1,0.1c-0.5,0.3-2.2,1.1-4,1.1c0,0-0.1,0-0.1,0h-0.2
		v-64.2H612.8z M619,171.8v58.1l-1.4,0v-58.1H619z M617.2,230.2l2.3,0c1.6,0,3-0.6,3.6-0.9l-5.9,3.3L617.2,230.2z M617.4,230l-0.2,0
		l-0.2-58.1h0.3V230z M569,197l1,4.4l-17.1,1.2v-5.3L569,197z M553.1,202.8l17-1.2c0.3,0.2,3,1.9,3.2,4.7c0,0,0,0.1,0,0.1l-17.6,1.7
		C555.6,205.3,553.7,203.3,553.1,202.8z M552.9,202.9c0.6,0.5,2.4,2.4,2.6,5.2l-2.6-0.3v-4.3V202.9z M552.9,208.1l2.6,0.3
		c0,0.1,0,0.1,0,0.2c0,3.5-0.2,61.9-0.2,65.3l-2.4-0.8V208.1z M555.7,208.6c0-0.1,0-0.2,0-0.2l17.6-1.7c0.2,5.3,0.3,49.6,0.3,50v6.4
		l-18,10.7C555.6,270.1,555.7,212.1,555.7,208.6z M573.8,251.6h5.5l0,0c0.2,0,3.7-0.8,6.2-1.7l-11.7,6.4
		C573.8,255.6,573.8,253.9,573.8,251.6z M587.2,249c-1.8,1-6.9,2.2-7.8,2.4l-0.4-74.3c5.1-0.1,7.8,1,8.2,1.2V249z M587.4,242.9
		l5.4,0.3v0h0.2v0l2.2,0.1v0c1.7-0.3,3.2-0.7,4.3-1.1l-12.1,6.7V242.9z M601.5,166.6h1.1v71h-1.1V166.6z M602.6,166.4h-1.2v-1l0,0
		c-0.6-0.5-1.4-0.9-2.1-1.2v-1.7c0.2-0.1,0.8-0.3,1.7-0.3c0.8,0,1.5,0.4,1.7,0.5V166.4z M601.5,237.9h1.1v0h0.2v0h2c0,0,0.1,0,0.1,0
		c1.3,0,2.6-0.3,3.6-0.6l-7.1,3.9V237.9z M612.8,233.9C612.8,233.9,612.9,233.9,612.8,233.9c0.9,0,1.7-0.2,2.4-0.4l-5.1,2.8l0-2.4
		H612.8z M612.4,233.7h-1.5v-64.2h1.5V233.7z M604.7,237.6h-1.9v-71h1.9V237.6z M602.8,166.4v-3.9l0,0c0,0-0.8-0.6-1.8-0.6
		c-1,0-1.8,0.4-1.8,0.4l-0.1,0v1.8c-0.2-0.1-0.3-0.1-0.5-0.2v-3.3h3.2v0.7h1.6v5.1H602.8z M595,163.4v79.7l-1.9-0.1v-79.6h1.7l0,0
		C594.8,163.3,594.9,163.4,595,163.4z M578.8,177.1l0.4,74.3h-2.8v-74.3L578.8,177.1z M576.2,251.3h-2.4c0-12.5-0.1-42.7-0.3-45.1
		c-0.2-2.9-2.9-4.6-3.3-4.8l-1-4.4l1.2,0l0.1,0l-4.2-20h9.8V251.3z M534.1,203.7c3.1,2.5,3.2,5.3,3.2,5.9l-23.8,2.6
		c-0.4-4.6-2.6-6.4-3.4-7L534.1,203.7z M509.8,206.6v-1.3c0.6,0.4,3,2.1,3.4,7l0,0.1l24.2-2.7l0-0.1c0,0,0.2-3.3-3.3-6.1v-6.1
		l18.5-0.2v5.2v1.1v69.5l-15.2,9.5v-72.1l-3.5,0.3v0l-0.2,0l0,0l0,0l-11.4,1.1v4l11.4-1.3v65.5l-11.5,6.3v-6.8l7.6-3.7v-56.9
		l-7.6,0.8V212l-8.8,0.8l-0.1,0v3.1l-3.7-1.5V206.6z M534.1,280v-65.4v-3.6l3.2-0.3V285l-3.2,2.2V280z M533.9,214.4l-11.2,1.3v-3.6
		l11.2-1.1V214.4z M533.9,287.3l-2,1.1h0v0l-9.4,5.2v-7l11.5-6.3V287.3z M593.7,298.4l-61.7-4.9v-4.7l61.7,4.9V298.4z M522.2,294.1
		v22.2l-8.5,5.6V213l8.5-0.8v7.7v59.9v6.8V294.1z M522.4,221.9l3.6-0.5v24.2c-0.6-0.8-1.3-1.6-1.9-1.6c-0.8,0-1.4,0.8-1.7,1.4V221.9
		z M527.1,221.2v26.1c-0.2-0.3-0.5-0.9-0.9-1.4v-24.6L527.1,221.2z M522.4,245.9c0.1-0.2,0.6-1.7,1.7-1.7c0.9,0,2.5,2.6,3,3.6
		l0.2,0.4V221l-4.9,0.7v-1.5l7.4-0.8v56.6l-7.4,3.6V245.9z M535.7,307.9L535.7,307.9l-13.3,8.4v-22.4l9.4-5.2v4.9l61.9,4.9v14
		L535.7,307.9z M593.7,293.4l-61.5-4.9l1.7-0.9v0l0.2-0.1l0.1,0v0l3.5-2.4v-2.2l15.3-9.6l2.6,0.8l18.3-10.9l0.1,0v-6.7l27.6-15.2
		l0.1,0v0l8.6-4.7l0.1,0v0l6.9-3.8c0.1-0.1,0.2-0.1,0.2-0.1l0.1,0v0l7.1-3.9l27.9,1.4L593.7,293.4z M628.6,203.8v25l-4.3-0.2
		l-0.8,0.4l0-1.7l0.9,0c0.1,0,0.2,0,0.3,0c2.3,0,3.1-0.6,3.1-0.6l0,0l-0.1-23.2L628.6,203.8z M627.4,174.5l0.2,52.1
		c-0.2,0.1-1,0.5-2.9,0.5v-53.3C625.2,173.8,626.3,173.8,627.4,174.5z M624.5,173.8C624.5,173.8,624.5,173.8,624.5,173.8l0,53.3
		c0,0,0,0-0.1,0l-0.9,0l-0.1-53.3L624.5,173.8z M623.1,173l0.2,55.9c-0.3,0.2-1.9,1-3.6,1c0,0-0.1,0-0.1,0l-0.4,0v-58.1h0.4
		C619.6,171.8,622.6,171.9,623.1,173z M618.9,162.9v8.7h-0.5v-9.1L618.9,162.9z M618.2,171.6H617l0-0.8l0,0
		c-0.1-0.2-0.2-0.3-0.3-0.4h0v-2.9v-0.1v-4.9h1.5V171.6z M617.6,161.7v0.5h-0.8h-0.1h-1.3v0.3H613v-0.8H617.6z M612.2,169.3v-11.5
		l0.5,0.3v4.4v4.3v2.4h-2.9l0-1.3v0l0,0c0-0.1-0.1-0.2-0.2-0.2v-3.8h-2.9v-1.8h2.3v0.6h1.2v6.6h0.2v-6.6v-0.1v-4.9h1.5v11.6H612.2z
		 M611.4,157v0.5h-0.8h-0.1h-1.3v0.3h-2.3V157H611.4z M606.6,155.2v2.6h-0.1v4.3h0.1v4.4c-0.3,0-0.5-0.1-0.7-0.1v-11.8L606.6,155.2z
		 M605.7,154.6v11.9c-0.5,0-0.8-0.1-0.8-0.1h-1.2v-5.1v-0.1v-6.6H605.7z M602,154.6h1.4v6.5H602v-0.5v-5.7V154.6z M601.8,155.1v5.3
		h-3.2v-5.3H601.8z M598.4,151.4v3.5v5.7v3.2c-0.3-0.1-0.6-0.2-0.9-0.2v-12.8L598.4,151.4z M597.3,150.7v12.8
		c-0.9-0.2-1.6-0.3-2-0.4v0H590v-3.5c0.2-0.1,1-0.4,1.9-0.4c1,0,1.7,0.4,1.9,0.6v3.3h0.2v-3.4l0,0c0,0-0.9-0.6-2.1-0.6
		c-1.2,0-2,0.4-2.1,0.4l-0.1,0v3.7h-0.6v-5.7h3.7v0.8h1.9v4.8h0.2v-4.8v-0.1v-7.5H597.3z M593.1,150.7h1.6v7.4h-1.6v-0.6V151V150.7z
		 M592.9,151.2v6h-3.7v-6H592.9z M589,146.8v4.2v6.5v5.7h-2.1v-17.5L589,146.8z M584.4,145.6h2.3v17.6h-2.3V145.6z M579.8,155h4.2
		v-1.9h-6.1v-5.7l-0.9-0.9h-1.3l0.2-0.6h8.2v17.1h-4.4v-4.6l0,0C579.8,158.5,579.9,158.4,579.8,155z M576.7,157.5l0.5,1.1h2.3v4.6
		h-2.4v1.6h-3.6v-1.9h0.2v-1.1c0-0.2-0.2-0.4-0.4-0.4h-0.7v-3.8H576.7z M549.4,156h17.5v2.2h-17.5V156z M566.8,155.8h-17.5v0h-0.2v0
		h-1.4h-2.3h-9.8l0,0.1c0,0-0.6,1.4-1.4,1.4c0,0,0,0,0,0c-0.8,0-1.3-1.2-1.4-1.3v-0.5h34.1V155.8z M547.5,164.6h-1.9V156h1.9V164.6z
		 M532.8,156.4c0.2,0.4,0.7,1,1.3,1.1v6.7l0.8,0.6h-2.1V156.4z M535.3,164.7l-1-0.7v-6.6c0.8-0.1,1.4-1.1,1.5-1.4h9.6v8.7H535.3z
		 M547.7,156h1.4v2.4h17.7v1h-17.7v4.9h17.2v0.4h-18.6V156z M573.5,162.6h-7.2h0v-0.9c0-0.1,0.1-0.2,0.2-0.2h0.3h5.8h0.7
		c0.1,0,0.2,0.1,0.2,0.2V162.6z M566.4,164.1H562v-0.5l0.3-0.3v-0.4c1,0,3.7,0,3.8,0l0-0.2c-0.1,0-2.4,0-3.9,0l-0.1,0v0.5l-0.3,0.3
		v0.6h-1.5v-4.5h1.1v2.2h4.7v1h0.2V164.1z M549.4,164.1v-4.5h8.6v4.5H549.4z M558.2,159.7h1.8v4.5h-1.8V159.7z M566.5,161.3
		c-0.2,0-0.4,0.1-0.4,0.3h-4.5v-1.9h5.2v1.6H566.5z M566.6,162.9h6.8v1.9h-6.8V162.9z M565.6,139.5c0-0.2,0.2-0.4,0.4-0.4h9.1
		c0.2,0,0.4,0.2,0.4,0.4v4.9c0,0.2-0.2,0.4-0.4,0.4h-1.2c-0.6-0.2-1.8-0.5-4.1-0.5c-2.6,0-3.6,0.3-3.9,0.4c-0.2-0.1-0.3-0.2-0.3-0.4
		V139.5z M565.8,145.9v-1c0,0,0.1,0,0.1,0v-0.1c0.3-0.1,1.3-0.4,3.8-0.4c2.9,0,4.1,0.5,4.3,0.6v0.9l-1.3-0.2h-0.2H567h-0.1v0
		C566.4,145.8,566,145.9,565.8,145.9z M567.1,146h5.3v15.3h-5.3v-1.6v-1.4v-2.8V147V146z M564.9,146h0.4v1h-0.4V146z M564.7,147
		h-1.4v7h-29v-6.8l30.5-0.7V147z M563.5,154.2v-7h1.2h0.9h1.3v8h-34.1v-8h1.2v7H563.5z M529.9,147.2h2.7v17.5h-2.7V147.2z
		 M566.4,164.9h7.2h3.6v11.9l-1,0h-9.9l-0.6-2.6l0-0.1l-18.1-3.2h29.3l-0.5-3.6v-1.9l-46,0.6l-0.1,0v1.8l-1.2-0.2v-2.6H566.4z
		 M512.2,164.1h16.7v3.5l-16.7-3V164.1z M511.5,164.6v32.9l-39.9,0.5l-0.1-40.5l9.9,1.8l0,0l0.1,0L511.5,164.6z M482.8,158.8
		l-1.3,0.3l-10-1.8v-0.7l7.2,1.4L482.8,158.8z M474.1,130.7l9.1,28l-11.6-2.3V130L474.1,130.7z M471.3,157.2L471.3,157.2l0,0.1l0,0
		v0h0l0.1,63.5l-1.4,0.3l-2,0.3l0.3-55l0.2-37.1l2.7,0.7L471.3,157.2z M468.4,129.5l-0.3,50.6l-0.3,41.5l-0.6,0.1l-21.6-0.6l-0.1,0
		v0l-0.1,0l0,0l-0.1,0v0l-4.9-0.1l-6.3-0.2v-16.5l0.4,0.1v0l4.8,1.3l0,0l0.8,0.2v0h2.9c0.3,0,0.5-0.1,0.7-0.3v0.1h1.5v0.2h3.4v-0.7
		l8.1-0.4l0-73.6V131l-0.1,0c0,0-1.7-0.7-3.5-1.5H468.4z M467.1,373.5L467.1,373.5L467.1,373.5l8.7-5.8c0,0.4,0,1.9,0,2.9l-8.5,6.8
		l-21.7-3.5v-3.2l21.4,2.8v0.1L467.1,373.5z M427.1,330.8L427.1,330.8l-23.7-3.6l-0.1,0v0l-12-1.8l-22.3-3.4v0l-11.2-1.7l0-3.5
		l78.9,11.9l0,3.5L427.1,330.8z M325.9,201.4v-45.5l21.1-0.3l86.5-1.2l0.1,13c-0.1,0.5-0.2,1.3-0.2,2.1c0,0.1,0,0.2,0,0.3
		c0,0.1,0,0.2,0,0.3c0,0.7,0.1,1.4,0.2,1.8c0,0,0,0,0,0c0,0.1,0.1,0.3,0.1,0.4l0.2,24.2l-1.2-0.1V196h-0.8v4.6h0.8v-0.3l1.2-0.2
		l0,1.6c0,0.6-0.2,1.1-0.6,1.5c-0.4,0.4-1,0.6-1.6,0.6l-98.5-2.4l-4.8-0.2l-1,0L325.9,201.4z M330.7,155.6l-1.2-1.7l104-1.7v1.9
		L330.7,155.6z M433.6,169.4C433.6,169.4,433.6,169.4,433.6,169.4c0-0.1,0-0.2,0-0.3c0,0,0,0,0,0c0-0.1,0-0.2,0-0.3c0,0,0,0,0,0
		c0-0.1,0-0.2,0-0.3c0,0,0,0,0-0.1c0-0.1,0-0.1,0-0.2c0,0,0-0.1,0-0.1c0,0,0-0.1,0-0.1c0-0.1,0-0.1,0-0.2c0,0,0-0.1,0-0.1
		c0,0,0-0.1,0-0.1c0-0.1,0-0.1,0-0.2c0,0,0,0,0,0l0,0v0c0-0.1,0.1-0.2,0.1-0.3v5.3c0,0,0-0.1-0.1-0.2l0,0c0-0.1,0-0.1-0.1-0.2
		c0,0,0,0,0,0c0-0.1,0-0.1,0-0.2c0,0,0-0.1,0-0.1c0,0,0-0.1,0-0.1c0,0,0-0.1,0-0.1c0-0.1,0-0.2,0-0.3c0,0,0,0,0,0c0-0.1,0-0.2,0-0.3
		c0,0,0,0,0,0c0-0.1,0-0.2,0-0.3c0,0,0,0,0,0c0-0.1,0-0.2,0-0.3c0,0,0,0,0-0.1c0-0.1,0-0.2,0-0.4
		C433.6,169.6,433.6,169.5,433.6,169.4z M434.3,167h0.2v0.8c0,0,0,0,0-0.1c0,0,0,0,0-0.1c0,0,0-0.1,0-0.1c0,0,0,0,0-0.1
		c0,0,0-0.1,0-0.1c0,0,0,0,0-0.1c0-0.1,0-0.1-0.1-0.2c0,0,0,0,0,0C434.4,167,434.3,167,434.3,167z M439.2,180.4H438v0.2h1.1v0.5H438
		v0.2h1.1v0.5H438v0.2h1.1v0.5H438v0.2h1.1v0.5H438v0.2h1.1v0.5H438v0.2h1.1v0.5H438v0.2h1.1v0.5H438v0.2h1.1v0.5H438v0.2h1.1v0.5
		H438v0.2h1.1v0.5H438v0.2h1.1v0.5H438v0.2h1.1v0.5H438v0.2h1.1v0.5H438v0.2h1.1v0.5H438v0.2h1.1v0.5H438v0.2h1.1v0.5H438v0.2h1.1
		v0.5H438v0.2h1.1v0.5H438v0.2h1.1v0.5H438v0.2h1.1v10.9l-4.4-1.1V200l0.7-0.1v-0.4h0.4v0.1h2.8v-3.2h-2.8v0.3h-0.4v-0.2l-0.7-0.1
		v-23.8h2.3v-6h-2.3v-3.1l4.4-2.6V180.4z M434.5,172.1c0,0,0-0.1,0-0.1c0,0,0,0,0-0.1c0,0,0,0,0-0.1v0.8h-0.2c0,0,0-0.1,0-0.1
		c0,0,0,0,0,0c0,0,0-0.1,0.1-0.2c0,0,0,0,0-0.1C434.5,172.2,434.5,172.2,434.5,172.1C434.5,172.1,434.5,172.1,434.5,172.1z
		 M435.4,197h0.3v2.3h-0.3V197z M435.2,196.8v2.8v0.2l-0.7,0.1v0l-0.4,0.1v-3.2l0.4,0v0L435.2,196.8L435.2,196.8z M434.2,196.5
		v-23.7h0.4v23.7L434.2,196.5z M434.4,170.9c-0.1,0.7-0.2,1.2-0.3,1.5v-5.3c0.2,0.3,0.3,1.3,0.3,2.7
		C434.5,170.2,434.5,170.6,434.4,170.9z M433.9,179.2l-0.1-6.5c0,0,0,0,0.1,0V179.2z M432.9,196.6l1.1,0.1v3.3l-1.1,0.1V196.6z
		 M434.2,200.1l0.4-0.1v4l-0.4-0.1V200.1z M436.9,167v5.6h-2.1V167H436.9z M432.5,196.2v4.2h-0.4v-4.2H432.5z M422,205.1
		C422,205.1,422,205.1,422,205.1l11.5,0v4.7l-11.1,0.4c0,0,0,0,0,0c-0.2,0-1.8-0.5-2-2.1c0-0.1,0-0.2,0-0.4c0-0.1,0-0.2,0-0.4
		c0,0,0-0.1,0-0.1c0-0.1,0-0.1,0-0.2c0,0,0-0.1,0-0.1c0-0.1,0-0.1,0-0.2c0,0,0-0.1,0-0.1c0-0.1,0-0.1,0.1-0.2c0,0,0-0.1,0.1-0.1
		c0,0,0-0.1,0.1-0.1c0,0,0-0.1,0.1-0.1c0,0,0-0.1,0.1-0.1c0,0,0-0.1,0.1-0.1c0,0,0.1-0.1,0.1-0.1c0,0,0-0.1,0.1-0.1
		c0,0,0.1-0.1,0.1-0.1c0,0,0,0,0.1-0.1c0,0,0.1-0.1,0.1-0.1c0,0,0,0,0.1-0.1c0,0,0.1,0,0.1-0.1c0,0,0,0,0.1-0.1c0,0,0,0,0.1-0.1
		c0,0,0,0,0.1,0c0,0,0,0,0.1,0c0,0,0,0,0.1,0c0,0,0,0,0.1,0c0,0,0,0,0,0C421.9,205.1,421.9,205.1,422,205.1
		C421.9,205.1,421.9,205.1,422,205.1C422,205.1,422,205.1,422,205.1C422,205.1,422,205.1,422,205.1z M421.5,205.1
		C421.5,205.1,421.5,205.1,421.5,205.1c-0.1,0.1-0.1,0.1-0.2,0.1c0,0,0,0,0,0c0,0-0.1,0.1-0.1,0.1c0,0,0,0,0,0c0,0-0.1,0.1-0.1,0.1
		c0,0,0,0,0,0c0,0.1-0.1,0.1-0.1,0.2c0,0,0,0,0,0c0,0-0.1,0.1-0.1,0.2c0,0,0,0,0,0.1c0,0.1-0.1,0.1-0.1,0.2c0,0,0,0,0,0
		c0,0.1-0.1,0.2-0.1,0.2c0,0,0,0,0,0.1c0,0.1-0.1,0.1-0.1,0.2c0,0,0,0,0,0.1c0,0.1-0.1,0.2-0.1,0.3c0,0,0,0,0,0.1c0,0.1,0,0.2,0,0.3
		c0,0,0,0.1,0,0.1c0,0.1,0,0.2,0,0.4c0,0.1,0,0.2,0,0.2c0,0,0,0,0,0.1c0,0.1,0,0.1,0,0.2c0,0,0,0,0,0.1c0,0.1,0,0.1,0,0.2
		c0,0,0,0,0,0c0,0.1,0,0.1,0.1,0.2c0,0,0,0,0,0c0,0,0,0.1,0.1,0.1c0,0,0,0,0,0.1c0,0,0,0.1,0.1,0.1c0,0,0,0,0,0
		c0,0.1,0.1,0.1,0.1,0.2c0,0,0,0,0,0c0,0,0.1,0.1,0.1,0.1c0,0,0,0,0,0c0,0,0.1,0.1,0.1,0.1c0,0,0,0,0,0c0,0,0.1,0.1,0.1,0.1
		c0,0,0,0,0,0c0,0,0.1,0.1,0.1,0.1c0,0,0,0,0,0c0,0,0.1,0,0.1,0.1c0,0,0,0,0,0c0,0,0.1,0,0.1,0.1c0,0,0,0,0,0c0,0,0.1,0.1,0.1,0.1
		c0,0,0,0,0,0c0,0,0.1,0,0.1,0.1c0,0,0,0,0,0c0,0,0.1,0,0.1,0c0,0,0,0,0,0l-104.9-3.6c-0.1,0-1.4-0.5-1.4-2c0-1.5,1.5-2.4,1.6-2.5
		l10.4-0.4l5.8,0.1L421.5,205.1C421.6,205,421.6,205.1,421.5,205.1z M325.7,215.6h-2.6v-8.5l2.6,0.1V215.6z M320.2,215.9h7.5v134.3
		l-7.5-1.1V215.9z M325.9,215.7v-8.6l96.5,3.3l0,0l11.3-0.4v-5.2H422l-72.2-2.7l81.9,2c0,0,0,0,0.1,0c0.6,0,1.2-0.2,1.7-0.7
		c0.2-0.2,0.4-0.5,0.5-0.7v1.3v0.1V215l-75.4-2.8l-0.1,0l-0.1,10.8l-4.1,0.3v-3.7l-0.1,0c-0.1,0-9,0.7-10,0.6
		c-0.2,0-0.4-0.1-0.5-0.3c-0.2-0.3-0.2-0.8-0.2-0.8l0-0.1h-0.9v-3.3h-14.6h-0.2H325.9z M342.5,219.2h0.7c0,0.2,0,0.6,0.2,0.9
		c0.2,0.2,0.4,0.3,0.7,0.3c1,0.1,8.8-0.5,9.9-0.6v3.7l4.3-0.3l-0.4,45.3l-15.4,3.8V219.2z M357.7,302.8l-15.1-1.4v-8.3l15.2,1.4l0,0
		L357.7,302.8z M342.5,276.2l15.3,1.4l0,4.2l-15.3-1.4V276.2z M342.5,301.6l15.1,1.4l0,4.2l-15.1-1.4V301.6z M357.7,294.3l-15.2-1.4
		v-12.2l15.3,1.4L357.7,294.3z M357.9,277.4l-15.3-1.4v-3.4l15.4-3.8L357.9,277.4z M342.5,306l15.1,1.4l-0.1,9.1l0,0l0,0.2l0,0
		l0,3.5l-15-2.3V306z M436.7,328.5l-78.9-11.9l0.4-47.9l0,0l0.4-45.5l0-0.1l-0.1,0l0.1-10.6l75.3,2.8v5.7l2.9,0.1L436.7,328.5z
		 M467,373.3l-21.4-2.8V221.2h0l21.4,0.7V373.3z M448.7,204.8v-77c1.5,0.6,7.2,3.1,7.9,3.3l0,73.3L448.7,204.8z M448.5,127.6v77.4
		v0.4h-2.9v-80.6h0.2C447.3,124.9,448.5,126.1,448.5,127.6z M444.1,125h1.3v80.3h-1.3v-0.5v-79V125z M440.3,124.9h2.7
		c0.5,0,0.9,0.4,0.9,0.9v79c0,0.4-0.3,0.7-0.7,0.7h-2.8V124.9z M440,125.4v80.1l-0.6-0.2v-44.6l-4.8,2.8v3.2h-0.4v-34.9L440,125.4z
		 M326.2,134.3l107.8-4.1l-0.4,21.1L326,153.3L326.2,134.3z M433.6,151.6l0.1,0l0.2-10.8v26c0,0-0.1,0.1-0.1,0.1l-0.1-12.6V152
		l-104.4,1.7l-0.2,0l1.4,1.9l-4.5,0.1v-2.2L433.6,151.6z M323.1,134.3h2.6v67l-2.6,0.1V134.3z M298.3,135.8l24.4-1.5v67.1l-5.7,0.2
		l0,0l0,0c-0.1,0-1.8,0.9-1.8,2.8c0,1.9,1.6,2.4,1.7,2.4l0,0l0,0l5.9,0.2v8.5l-24.4-0.8V135.8z M302.3,215.1l17.7,0.6v133.4
		l-17.7-2.6V215.1z M302.8,350.5l20.3,3.6v0.7l-20.3-3.5V350.5z M324,354.3l-0.7,0.5v-0.7h-0.1l0-0.1l-20.2-3.6l0.4-0.3v0.2L324,354
		V354.3z M303.6,350.1V347l16.5,2.4l7.6,1.1v0l0.1,0l0.1,0v0l1.3-0.2v4.5L303.6,350.1z M340.8,352.2l-11.3,2.6v-4.5l11.3-2V352.2z
		 M342.3,347.7l-14.4,2.6V215.9h14.4V347.7z M352,331.8c-0.3,0-2.5-0.2-4.4,0c-1.8,0.2-4.4,0.9-5,1.1v-14.6l15,2.3l-0.1,8.9
		L352,331.8z M357.7,320.5l6.9,1v13.3l-7-1.1L357.7,320.5z M368.9,334.1l-4.1,0.8v-13.3l4.1,0.6V334.1z M391.4,325.6l7.6,1.1
		l-0.3,13.5l-7.4-1L391.4,325.6z M403.3,338.3l-4.4,2l0.3-13.5l4.1,0.6V338.3z M434.7,345.9l-7.5-1.1l-0.1-13.8l9.6,1.4l0,12.3
		L434.7,345.9z M437.1,221l8.3,0.2v149.3l-8.5-1L437.1,221z M437.6,369.8l7.7,0.9v4.4l-7.7-0.9V369.8z M476.5,371.5v0.9l-8.9,7.9
		l-22.3-4l0.3-0.9l0,0v-1.3l21.7,3.5l0,0l8.5-6.8L476.5,371.5z M475.9,367.7C475.9,367.7,475.8,367.7,475.9,367.7L475.9,367.7
		L475.9,367.7z M476.5,367l-9.3,6.2V221.9l0,0l0.6,0l0,0l0.1,0l0.1,0l0,0l2-0.4l6.4-0.9V367z M476.6,220.3l-4.9,0.6l0-22.8l38-0.4
		v7.3v1.5v7.9l3.2,1.3l-36.1,4.5v0L476.6,220.3z M483.5,337V219.7l30-3.7v106l-2.2,1.4l0.2,0v17.7L483.5,337z M580.4,349.6
		l-68.6-9.6v-12.3l68.6,7.1c0,0,0.1,0,0.2,0v14.3h0.1L580.4,349.6z M593.9,319.1c0.5-0.7,0.8-1.1,0.8-1.2l0,0v-5.2l0.1-0.1l-1-0.1
		v-14l0.1,0l0-0.1l16.4-18.5v24.9l-16.5,24.5V319.1z M610.6,279.8l19.7-22.3v9.3l-9.1,11.5l0.2,0.1l8.9-11.3v0.7l-7.8,10l0.2,0.1
		l7.7-9.8v7l-19.7,29.4V279.8z M649.3,236.1V247l-3.1,4.7v-12L649.3,236.1z M646,252l-4.2,6.2v-13.6l4.2-4.7V252z M641.6,258.5
		l-4.6,6.8V250l4.6-5.2V258.5z M636.8,265.7l-6.2,9.3v-17.6l6.2-7V265.7z M652.3,242.5l-2.8,4.1v-10.8l2.8-3.1V242.5z M652.6,232.1
		L652.6,232.1L652.6,232.1l-0.4,0.4l0,0.1l0,0l-2.8,3.2h0v0l-3.3,3.8h0v0l-52,58.7l-0.1-4.6l58.5-63.4l0.2,0.1V232.1z"/>
	<polygon class="st3" points="594.9,303.1 609.7,285.8 609.7,284.7 594.9,302.1 	"/>
	<polygon class="st3" points="594.9,301.6 609.7,284.3 609.7,283.2 594.9,300.5 	"/>
	<polygon class="st3" points="594.9,299 594.9,300 609.7,282.7 609.7,281.7 	"/>
	<polygon class="st3" points="611.1,284.4 621.2,272.5 621.2,271.4 611.1,283.3 	"/>
	<polygon class="st3" points="611.1,282.8 621.2,270.9 621.2,269.9 611.1,281.8 	"/>
	<polygon class="st3" points="611.1,281.3 621.2,269.4 621.2,268.4 611.1,280.3 	"/>
	<polygon class="st3" points="636.4,253.7 636.4,253.1 630.8,259.6 630.8,260.2 	"/>
	<polygon class="st3" points="636.4,252.3 630.8,258.8 630.8,259.4 636.4,252.9 	"/>
	<polygon class="st3" points="636.4,251.5 630.8,258 630.8,258.5 636.4,252 	"/>
	<polygon class="st3" points="641.3,247.8 641.3,247.4 637.2,252.2 637.2,252.6 	"/>
	<polygon class="st3" points="641.4,246.5 637.3,251.3 637.3,251.8 641.4,247 	"/>
	<polygon class="st3" points="641.4,245.8 637.3,250.6 637.3,251 641.4,246.2 	"/>
	<polygon class="st3" points="645.6,242.7 645.6,242.3 642,246.6 642,247 	"/>
	<polygon class="st3" points="645.7,241.5 642.1,245.7 642.1,246.1 645.7,241.9 	"/>
	<polygon class="st3" points="645.7,240.7 642.1,245 642.1,245.4 645.7,241.2 	"/>
	<polygon class="st3" points="649.1,238.7 649.1,238.2 646.3,241.5 646.3,241.9 	"/>
	<polygon class="st3" points="649.1,237.4 646.4,240.6 646.4,241.1 649.1,237.8 	"/>
	<polygon class="st3" points="649.1,236.7 646.4,239.9 646.4,240.3 649.1,237.1 	"/>
	<polygon class="st3" points="652.1,235.1 652.1,234.7 649.7,237.6 649.7,238 	"/>
	<polygon class="st3" points="652.2,233.9 649.8,236.7 649.8,237.1 652.2,234.3 	"/>
	<polygon class="st3" points="652.2,233.1 649.8,236 649.8,236.4 652.2,233.6 	"/>
	<path class="st3" d="M448.6,237.1c0,3.4,2.7,6.2,6,6.2c1.1,0,2.1-0.3,3-0.8l0,0l6.3-2.5l0,0c0,0,1.5-3.6-0.1-6.8
		c-2-4-6.4-3.2-6.4-3.1l-3.8,1c-0.3,0.1-0.7,0.1-1,0.3l0,0l0,0C450.3,232.1,448.6,234.4,448.6,237.1z M457.5,230.2
		c0,0,4.3-0.8,6.2,3c1.4,2.9,0.2,6.2,0.1,6.6l-5.5,2.2c1.4-1.1,2.3-2.9,2.3-4.9c0-3.4-2.6-6.1-5.9-6.2L457.5,230.2z M452.7,231.4
		l0.9-0.3c0.3-0.1,0.6-0.1,1-0.1c3.2,0,5.8,2.7,5.8,6s-2.6,6-5.8,6s-5.8-2.7-5.8-6C448.9,234.5,450.5,232.3,452.7,231.4z"/>
	<path class="st3" d="M454.3,240.1c1.1,0,1.9-1,1.9-2.3c0-1.3-0.9-2.3-1.9-2.3c-1,0-1.9,1-1.9,2.3
		C452.4,239,453.3,240.1,454.3,240.1z M454.3,235.6c0.9,0,1.7,1,1.7,2.1c0,1.2-0.8,2.1-1.7,2.1s-1.7-1-1.7-2.1
		C452.7,236.6,453.4,235.6,454.3,235.6z"/>
	<path class="st3" d="M437.6,246.3l7.2,0.3v-20.8l-7.2-0.3V246.3z M437.8,225.7l6.7,0.3v20.4l-6.7-0.3V225.7z"/>
	<path class="st3" d="M573.5,155.9h2.9v-8.1h-2.9V155.9z M573.7,148h2.4v7.7h-2.4V148z"/>
</g>
<g class="st1">
	<path class="st4" d="M80.7,295.2l-6.3-27.9l-9.9-4.5v27.3l16.1,8.8V295.2z M80.3,298.2L65,289.9v-26.4l9.1,4.1l6.2,27.6V298.2z"/>
	<path class="st4" d="M57,259.8l-10-5.3l-4.4,16.4l0,6.8l14.3,8.1V259.8z M56.6,285l-13.5-7.6v-6.5l4.2-15.8l9.2,5V285z"/>
	<path class="st4" d="M91.7,268.2l6.7,21.1c0.2,0.8,0.9,1.3,1.7,1.3c0,0,0.1,0,0.1,0l86.5-6c0.6,0,1.1-0.3,1.4-0.8
		c0.3-0.5,0.4-1.1,0.2-1.6l-6.7-20c-0.3-0.8-1-1.3-1.8-1.2l-86.5,4.9c-0.6,0-1.1,0.3-1.4,0.8C91.6,267.1,91.5,267.7,91.7,268.2z
		 M92.3,266.9c0.2-0.4,0.6-0.6,1.1-0.6l86.5-4.9c0,0,0.1,0,0.1,0c0.6,0,1.1,0.4,1.3,1l6.7,20c0.1,0.4,0.1,0.9-0.2,1.2
		c-0.2,0.4-0.6,0.6-1.1,0.6l-86.5,6c-0.6,0-1.2-0.4-1.4-1l-6.7-21.1C91.9,267.7,92,267.2,92.3,266.9z"/>
	<path class="st4" d="M72.4,342.3l5.2,3v-7l-5.2-3V342.3z M72.9,336l4.4,2.5v6l-4.4-2.5V336z"/>
	<path class="st4" d="M58.7,332l5.2,3v-7l-5.2-3V332z M59.1,325.7l4.4,2.5v6l-4.4-2.5V325.7z"/>
	<path class="st4" d="M54.9,321.8l-4.8-2.8v6.4l4.8,2.8V321.8z M54.4,327.4l-3.9-2.3v-5.4l3.9,2.3V327.4z"/>
	<path class="st4" d="M61.9,248.4l8.8,1.8l0,0l81.8-2.9l-8.8-1.8l0,0L61.9,248.4z M148.8,247l-78.1,2.7l-5.2-1l78.1-2.7L148.8,247z"
		/>
	<path class="st4" d="M248.1,348.4v-73.7l-8.3-20.7l-0.1-0.1h-1.1v-1.1l-17-5.8v-0.5c0-0.5-0.4-0.9-0.9-0.9h-1.5
		c-0.3,0-0.5,0.1-0.7,0.4l-4.1-1.4v-15.1h-0.2l-3.2-1.2H172l-0.3-0.1v19.7l-16.7-5l0,0l-9.9,0.4l2.3-3.6l-10.4,0.4v-1l-0.2,0
		c0,0-0.3,0-0.9-0.1l-0.2-5.6l1.5-0.5l-0.3-0.3c-0.1-0.1-2.2-1.6-6-1.9v-1.9l0-0.1c0-0.1-0.2-0.6-1.3-0.6c-1.1,0-1.3,0.4-1.3,0.5
		l0,2c-2.9,0.3-4.9,1.7-5.4,2.2l-0.5-0.3c-0.1-0.1-2.6-1.3-6.7-1.6v-1.8l0-0.1c0-0.1-0.2-0.6-1.3-0.6c-1.1,0-1.3,0.4-1.3,0.5l0,1.9
		c-4.2,0.3-6.6,2.3-6.7,2.4l-0.3,0.3l1.5,0.4v6.2c-0.3,0.1-0.4,0.2-0.5,0.2l-0.1,0.1v0.7l-9,0.4l-0.1,0l-4.5,3.7l-47.1,2l-0.2-0.1
		l-1.9,6.5L0.7,256l-0.4-0.3V345l34.8,39.2v-35.5l0.2,34.3l0,0.1l44,47.4v-0.4l28.2-2.9v22.3l4.5,5.6v0.2l0.1-0.1l0.3,0.4v-0.5
		l4.6-2.3v0l17.3,18.8l-0.1,5.3l0,0.1l4.2,5.5l0-0.4l101.2-15.4l0.2,0V364.7l6.8-0.6v-13.9l-0.2,0l-3.6-1.9H248.1z M247.6,274.8
		v73.1h-5.5l-10.7-5.7v-64.6l-8.9-23.5h16.8L247.6,274.8z M184.3,323.1l4.2-0.2v3.1l-4.2-2.3V323.1z M184.3,322.7v-3.5l0.6,0
		c1,0,1.7-1.5,1.7-3.3c0-1.8-0.7-3.7-1.7-3.7l-0.6,0v-5.5v-0.5v-8.6l3.3-0.2v-2.9l-3.3,0.2v-4.1l4.2,2.3v29.4L184.3,322.7z
		 M194,337.2l-43.1,3l-2.4-1.5l43.2-2.7L194,337.2z M204.6,342.9l-43.7,3.3l0,0.2l-3.1-1.9l43.4-3.4L204.6,342.9z M207.5,344.5
		l-42.9,4.1l0,0.1l-3.3-2.1l44-3.3L207.5,344.5z M224.2,353.5l-44.9,4.4l-2-1.3l44.5-4.4l0-0.1L224.2,353.5z M138.8,367.5L99.4,340
		v-12.4l45.8,31.5V372l-4.7-3.3v0L138.8,367.5z M79.2,313.5l-43.6-28h4.2l43.8,27l0.1,0l30.7-2.1v0.6L79.2,313.5z M35.1,282h4.9
		l0,3.1l-0.1-0.1l-0.1,0h-4.8V282z M222.1,254.2l8.7,23.1l-29.6,0.8l-0.5-1.5l14.5-0.6c0.4,0,0.8-0.2,1.1-0.5
		c0.3-0.3,0.3-0.8,0.2-1.2l-6.2-18.6c-0.2-0.5-0.7-0.9-1.3-0.9h-15.4c-0.3,0-0.6,0.1-0.8,0.3l-0.4-1H222.1z M205.4,305l0.9-0.1
		l-2-0.6h1.1v-15.1l-0.9-2.5c0.3-0.3,0.6-0.5,1-0.5h11.6c0.7,0,1.3,0.6,1.3,1.3v23.4c0,0.7-0.6,1.3-1.3,1.3h-11.6v0.4h11.6
		c1,0,1.8-0.8,1.8-1.8v-23.4c0-1-0.8-1.8-1.8-1.8h-11.6c-0.5,0-0.9,0.2-1.2,0.5l-1.2-3.1H218v-2.6h-15.8l-0.7-1.8l29.6-0.8v39.9
		l-25.7,0.8V305z M202.9,303.8l-14,1v-12l-4.1-2.3l20.1-1.1v14.5L202.9,303.8L202.9,303.8z M188.9,305.2l14-1l1.1,0.4l-15.1,1.1
		V305.2z M202.3,280.9h15.2v1.8H203L202.3,280.9z M192.9,255.7c0.2-0.2,0.4-0.3,0.7-0.3h15.4c0.4,0,0.7,0.2,0.8,0.6l6.2,18.6
		c0.1,0.3,0,0.6-0.1,0.8c-0.2,0.2-0.4,0.4-0.7,0.4l-14.6,0.6L192.9,255.7z M192.5,255.6C192.5,255.6,192.4,255.6,192.5,255.6
		L192.5,255.6l9.2,24.8h0l0.9,2.5l2.2,6l-20.7,1.2l-0.3-0.1v0.2l-99.3,5.7l-8.9-35.5l116.4-6.1L192.5,255.6z M84.6,296.2l99.3-5.7
		v4.3l-23.8,1.7v-0.9l0.5,0l-0.5-0.3v-0.1l-0.2,0l-2-1.1l-6.3,0.5l-0.3-0.2v0.2l-0.4,0l0.4,0.3v2.2l-31.9,2.2v-0.9l-5.1-2.8V310
		l-30,2.1L84.6,296.2z M171.9,318.9c0.1-1.2,0.2-2.5,0.2-3.8c0-0.3,0-0.6,0-0.9c0-0.1,0-0.1,0-0.2c0-0.3,0-0.6,0-0.9l12.8-0.5
		c0.7,0,1.3,1.6,1.3,3.3c0,1.7-0.7,2.9-1.3,2.9L171.9,318.9z M183.8,312.2l-11.9,0.5c-0.1-2-0.4-3.8-0.7-5.4l12.6-0.9v0.2V312.2z
		 M183.8,306l-12.7,0.9c0-0.2-0.1-0.3-0.1-0.4l12.8-0.9V306z M183.8,305.2l-12.9,0.9c-0.8-2.7-1.9-4.5-3.2-4.8l0-0.1h-3.4
		c-1.9,0-3.6,3.2-4.3,8v-9.8l23.8-1.8V305.2z M168.5,318.1c0,0.6-0.1,1.1-0.2,1.6c0,0.3-0.1,0.6-0.1,0.8c-0.1,0.5-0.1,0.9-0.2,1.4
		c0,0.1,0,0.2-0.1,0.3c-0.1,0.5-0.2,0.9-0.3,1.3l-6.6,0.4c-0.3-1.1-0.5-2.3-0.7-3.6l3.7-0.2c1,0,1.7-1.5,1.7-3.5
		c0-2-0.8-3.5-1.7-3.5l-4,0.2c0.3-6.5,2.1-11.6,4.3-11.6c2.3,0,4.3,6.2,4.3,13.5C168.6,316.2,168.6,317.2,168.5,318.1z M168,328.5
		l-2.4,0.1c0.1-0.1,0.2-0.1,0.3-0.2c0,0,0,0,0.1-0.1c0.1-0.1,0.2-0.2,0.3-0.4c0,0,0-0.1,0.1-0.1c0-0.1,0.1-0.1,0.1-0.2l2.5-0.1
		C168.7,328,168.3,328.3,168,328.5z M133.5,329.2l11-0.5c0.2,0.3,0.4,0.6,0.5,0.8l-10.3,0.5L133.5,329.2z M114.8,310.4L114.8,310.4
		V310v-13.6l4.2,2.3v0.7v3.1v11v10.7v7.4l-4.2-2.3V310.4z M152.2,295l5.6-0.4l1.3,0.7l-5.8,0.5l-0.3-0.2L152.2,295z M159.6,296.5
		l-6.1,0.4v-0.7l6.1-0.5V296.5z M166.2,327.3l-3.6,0.2c-0.1-0.1-0.1-0.2-0.2-0.3l4-0.2C166.3,327.1,166.3,327.2,166.2,327.3z
		 M151.2,310.1C151.2,310.1,151.2,310.1,151.2,310.1c-0.1-0.4-0.1-0.6-0.2-0.9c0,0,0-0.1,0-0.1c-0.1-0.3-0.1-0.6-0.2-0.8
		c0,0,0-0.1,0-0.1c-0.1-0.3-0.1-0.5-0.2-0.8c0,0,0-0.1,0-0.1c-0.1-0.2-0.2-0.5-0.2-0.7c0,0,0,0,0-0.1c-0.1-0.2-0.2-0.4-0.3-0.6
		c0,0,0-0.1,0-0.1c-0.1-0.2-0.2-0.4-0.3-0.6c0,0,0-0.1,0-0.1c-0.1-0.2-0.2-0.3-0.3-0.5c0,0,0,0,0,0c-0.1-0.2-0.2-0.3-0.3-0.4
		c0,0,0-0.1-0.1-0.1c-0.1-0.1-0.2-0.3-0.3-0.4c0,0,0,0-0.1-0.1c-0.1-0.1-0.2-0.2-0.3-0.3c0,0,0,0,0,0h1.8l0.1,0
		c1.1,0.1,2.2,1.7,2.9,4.1v0h0c0.6,2,1,4.5,1.2,7.2c0,0.1,0,0.1,0,0.2c0,0.2,0,0.4,0,0.6c0,0.4,0,0.8,0,1.2c0,0,0,0,0,0
		c0,1.2-0.1,2.5-0.2,3.7l0,0.2l0,0c-0.1,1.3-0.3,2.5-0.6,3.6l-2.5,0.1c0.1-0.2,0.1-0.5,0.2-0.8c0,0,0,0,0-0.1
		c0.1-0.3,0.1-0.6,0.2-0.9c0-0.1,0-0.1,0-0.2c0-0.3,0.1-0.6,0.1-0.9c0,0,0-0.1,0-0.1c0-0.3,0.1-0.7,0.1-1c0,0,0,0,0,0
		c0-0.3,0.1-0.7,0.1-1.1c0-0.1,0-0.1,0-0.2c0-0.3,0-0.7,0-1.1c0-0.1,0-0.1,0-0.2c0-0.4,0-0.7,0-1.1c0-0.4,0-0.8,0-1.1
		c0-0.1,0-0.1,0-0.2c0-0.4,0-0.7,0-1.1c0-0.1,0-0.1,0-0.2c0-0.4,0-0.7-0.1-1.1c0,0,0,0,0,0c0-0.3-0.1-0.7-0.1-1c0,0,0-0.1,0-0.1
		c0-0.3-0.1-0.6-0.1-1c0-0.1,0-0.1,0-0.2C151.3,310.7,151.3,310.4,151.2,310.1z M123.5,322.2V316l24.6-1.4c0.6,0,1.3,1.3,1.3,3.1
		c0,1.8-0.7,3.1-1.3,3.1L123.5,322.2z M123,322.6v2.1h-1v-10.8h1v1.6V322.6z M123.5,315.5v-2H122h-0.4h-2.2v-2.4l23.6-1.7
		c-0.3,1.5-0.5,3.2-0.7,5.1L123.5,315.5z M119.4,313.9h2.2v10.7l-2.2-0.8V313.9z M143.1,309l-23.7,1.7v-0.6l23.8-1.7
		C143.2,308.6,143.2,308.8,143.1,309z M143.4,308l-24,1.7v-7.2l31.9-2.4v3.4c-0.3-0.3-0.6-0.4-0.9-0.5l0-0.1H147v0
		C145.6,302.9,144.3,304.9,143.4,308z M151.8,300.1l1.3-0.1v6.3c-0.4-1-0.8-1.8-1.3-2.4h0V300.1z M150.3,327.2
		C150.3,327.2,150.3,327.1,150.3,327.2c0.1-0.3,0.2-0.5,0.3-0.7c0,0,0-0.1,0-0.1c0.1-0.2,0.1-0.5,0.2-0.8c0,0,0-0.1,0-0.1
		c0-0.2,0.1-0.4,0.1-0.6l2.5-0.1c-0.2,0.9-0.4,1.7-0.7,2.4L150.3,327.2C150.2,327.2,150.3,327.2,150.3,327.2z M149.9,327.9
		c0,0,0-0.1,0.1-0.1c0-0.1,0.1-0.1,0.1-0.2l2.5-0.1c0,0.1-0.1,0.2-0.2,0.3L149.9,327.9C149.9,328,149.9,328,149.9,327.9z
		 M153.1,327.5l8.8-0.4c0.1,0.1,0.1,0.2,0.2,0.3l-9.2,0.4C153,327.7,153,327.6,153.1,327.5z M162.2,326.7c-0.3-0.7-0.7-1.5-0.9-2.4
		l6.4-0.3c-0.3,1-0.6,1.8-0.9,2.6L162.2,326.7z M161.7,326.7l-8.4,0.3c0.3-0.7,0.5-1.5,0.7-2.4l6.8-0.4
		C161,325.3,161.4,326.1,161.7,326.7z M154,324.3c0.2-1.1,0.4-2.3,0.5-3.6l5.4-0.3c0.2,1.3,0.4,2.5,0.7,3.6L154,324.3z M154.6,320.2
		c0.1-1.1,0.1-2.2,0.1-3.3c0,0,0-0.1,0-0.1c0,0,0,0,0,0c0,0,0,0,0,0c0-0.4,0-0.8,0-1.1c0-0.2,0-0.4,0-0.6c0-0.1,0-0.2,0-0.3
		c0-0.2,0-0.4,0-0.7l9.4-0.5c0.6,0,1.3,1.3,1.3,3.1c0,1.8-0.7,3.1-1.3,3.1L154.6,320.2z M154.6,313.6c-0.2-2.3-0.6-4.4-1.1-6.2V300
		l6.1-0.5v13.8L154.6,313.6z M153.5,299.5v-2.1l6.1-0.4v2.1L153.5,299.5z M152.7,295.9l0.4,0.3v0.9l-1.3,0.1v-1.9L152.7,295.9z
		 M153.1,297.4v2.1l-1.3,0.1v-2.1L153.1,297.4z M151.3,299.7l-31.9,2.4v-2.3l31.9-2.2V299.7z M119.4,324.3l2.2,0.8v0.1h0.2l0.3,0.1
		v-0.1h1.4v-2.5l19.1-1.2c0.1,1.2,0.3,2.4,0.6,3.4l-23.7,1.3V324.3z M143,321.4l5.1-0.3c1,0,1.7-1.5,1.7-3.5c0-2-0.8-3.5-1.7-3.5
		l-5.2,0.3c0.4-6.3,2.2-11.1,4.2-11.1c0.7,0,1.3,0.5,1.8,1.4c1.4,2.2,2.5,6.9,2.5,12.1c0,2.8-0.3,5.4-0.8,7.6l-7,0.4
		C143.3,323.8,143.1,322.7,143,321.4z M150.5,324.9c-0.2,0.9-0.4,1.6-0.7,2.3l-5.4,0.2c-0.3-0.6-0.5-1.4-0.7-2.2L150.5,324.9z
		 M149.6,327.7c-0.1,0.1-0.1,0.2-0.2,0.4l-4.7,0.2c-0.1-0.1-0.1-0.2-0.2-0.4L149.6,327.7z M144.3,328.3l-11.5,0.5l-0.7-0.4l12-0.5
		C144.2,328,144.2,328.1,144.3,328.3z M145,328.7l4.2-0.2c-0.2,0.3-0.4,0.6-0.6,0.9l-3.1,0.1C145.4,329.3,145.2,329,145,328.7z
		 M148.2,329.8c-0.4,0.3-0.7,0.5-1.1,0.5c0,0,0,0-0.1,0c-0.4,0-0.7-0.2-1.1-0.5L148.2,329.8z M148.2,330.4c0.1-0.1,0.2-0.2,0.3-0.3
		c0,0,0,0,0.1-0.1c0.1-0.1,0.1-0.1,0.2-0.2l2.5-0.1c-0.4,0.4-0.9,0.7-1.3,0.7L148.2,330.4C148.2,330.4,148.2,330.4,148.2,330.4z
		 M149.2,329.3c0-0.1,0.1-0.1,0.1-0.2c0,0,0,0,0,0c0.1-0.2,0.2-0.3,0.3-0.5c0,0,0-0.1,0-0.1c0,0,0,0,0-0.1l2.5-0.1
		c-0.2,0.3-0.4,0.6-0.5,0.9L149.2,329.3z M152.7,328.3l9.6-0.4c0.3,0.4,0.5,0.6,0.8,0.8l-11,0.5
		C152.4,328.9,152.6,328.6,152.7,328.3z M162.9,327.8l3-0.1c-0.4,0.5-0.9,0.9-1.3,0.9l-0.3,0C163.8,328.6,163.3,328.3,162.9,327.8z
		 M160,299v-2.1l27.1-1.9v2L160,299z M119.4,332.3v-5.8l23.8-1.3c0.2,0.8,0.4,1.5,0.7,2.2l-14.8,0.6l44.5,28.3l-28.4,2.4l-0.3-0.2
		l-44.9-30.9l14.3-0.8v2.7L119.4,332.3z M145.6,359.1l28.5-2.4v4.8l11,7.3l-39.5,3.3V359.1z M174.5,361.3v-4.9l-44-28l0.9,0l0,0
		l3.2,2l0,0l0,0l2.4,1.5l0,0l0,0l5.1,3.2l0,0.1l0.1,0l34.3,21.5l0,0l0,0l2.6,1.6l0,0l0,0l7.7,4.8v6.3L174.5,361.3z M186.9,362.7
		l-4.3-2.7l4.3-0.4V362.7z M187.3,359.5l11.4-1.1l32.3-2.8v10.2l-43.7,3.8V359.5z M198.7,358l-11.6,1l-0.2,0v0.1l-4.8,0.5l0,0.1
		l-2.2-1.4l44.9-4.4l0-0.1l2.5,1.4L198.7,358z M176.6,356.2l-2-1.2l43.9-4.3l0-0.3l2.6,1.4L176.6,356.2z M174.2,354.8l-2.5-1.5
		l43.9-4.3l2.5,1.4l-44,4.3L174.2,354.8z M171.2,352.9l-2.7-1.7l43.8-4l0-0.1l2.7,1.5L171.2,352.9L171.2,352.9z M168,350.8l-2.8-1.8
		l43.1-4.2l3.6,1.9L168,350.8z M157.8,344.5l-3.1-1.9l43-3.3l2.8,1.5l-42.8,3.3L157.8,344.5z M154.2,342.2l-2.6-1.6l43.1-3l2.3,1.2
		L154.2,342.2L154.2,342.2z M148.1,338.3l-2.5-1.6l43.7-2.2l1.9,1L148.1,338.3L148.1,338.3z M145.2,336.5l-2.2-1.4l42.9-2.3l0-0.1
		l2.6,1.4l-43.3,2.1L145.2,336.5z M142.3,334.7l-2.3-1.5l42.9-2l0,0l2.3,1.3L142.3,334.7z M139.5,332.9l-1.7-1.1l42.7-1.9l0-0.1
		l1.8,1L139.5,332.9L139.5,332.9z M137.1,331.5l-1.7-1.1l10-0.5c0.5,0.6,1.1,0.9,1.7,0.9c0,0,0,0,0,0l0,0h3c0.7,0,1.3-0.4,1.9-1.1
		l12.4-0.6c0,0,0,0,0.1,0c0,0,0,0,0,0l0,0h3c0.3,0,0.5-0.1,0.8-0.2l9.7-0.4l0,0l2,1.1L137.1,331.5z M168.8,328.4
		c0.3-0.2,0.5-0.6,0.8-0.9l6-0.3l0,0l1.6,0.9L168.8,328.4z M169.8,327.1c0-0.1,0.1-0.2,0.1-0.2l4.6-0.2l0.4,0.2L169.8,327.1z
		 M169.3,327.1l-2.5,0.1c0.1-0.1,0.1-0.2,0.1-0.3l2.5-0.1C169.4,327,169.3,327,169.3,327.1z M167.1,326.5c0-0.1,0.1-0.2,0.1-0.3
		c0,0,0-0.1,0.1-0.1c0.1-0.2,0.2-0.4,0.3-0.6c0,0,0-0.1,0-0.1c0.1-0.2,0.2-0.4,0.2-0.7c0,0,0-0.1,0-0.1c0.1-0.2,0.1-0.4,0.2-0.7
		l2.5-0.1c-0.3,1-0.6,1.9-0.9,2.6L167.1,326.5z M168.2,323.5c0-0.2,0.1-0.4,0.1-0.6c0,0,0-0.1,0-0.1c0.1-0.3,0.1-0.5,0.2-0.8
		c0,0,0-0.1,0-0.1c0.1-0.3,0.1-0.6,0.1-0.9c0-0.1,0-0.1,0-0.2c0-0.3,0.1-0.6,0.1-0.9c0-0.1,0-0.1,0-0.2c0-0.3,0.1-0.6,0.1-1
		c0,0,0,0,0-0.1c0-0.3,0.1-0.7,0.1-1c0-0.1,0-0.1,0-0.2c0-0.3,0-0.7,0-1c0-0.1,0-0.1,0-0.2c0-0.4,0-0.7,0-1.1c0-0.4,0-0.7,0-1.1
		c0-0.1,0-0.1,0-0.2c0-0.3,0-0.7,0-1c0-0.1,0-0.1,0-0.2c0-0.3,0-0.7-0.1-1c0,0,0,0,0-0.1c0-0.3-0.1-0.6-0.1-1c0-0.1,0-0.1,0-0.2
		c0-0.3-0.1-0.6-0.1-0.9c0-0.1,0-0.1,0-0.2c0-0.3-0.1-0.6-0.2-0.9c0,0,0-0.1,0-0.1c-0.1-0.3-0.1-0.6-0.2-0.8c0,0,0-0.1,0-0.1
		c-0.1-0.3-0.1-0.5-0.2-0.8c0-0.1,0-0.1,0-0.2c-0.1-0.3-0.1-0.5-0.2-0.7c0,0,0-0.1,0-0.1c-0.1-0.2-0.2-0.5-0.2-0.7c0,0,0,0,0-0.1
		c-0.1-0.2-0.2-0.4-0.3-0.6c0,0,0-0.1-0.1-0.1c-0.1-0.2-0.2-0.4-0.3-0.6c0,0,0-0.1,0-0.1c-0.1-0.2-0.2-0.3-0.3-0.5c0,0,0,0,0,0
		c-0.1-0.2-0.2-0.3-0.3-0.4c0,0,0-0.1-0.1-0.1c-0.1-0.1-0.2-0.3-0.3-0.4c0,0,0,0-0.1-0.1c-0.1-0.1-0.2-0.2-0.3-0.3c0,0,0,0,0,0h1.8
		l0.1,0c2,0.3,3.7,5.2,4.1,11.3c0,0.3,0,0.7,0,1c0,0,0,0.1,0,0.1c0,0.3,0,0.7,0,1c0,0.3,0,0.6,0,0.9c0,0.1,0,0.2,0,0.3
		c0,0.2,0,0.4,0,0.6c0,0.2,0,0.4,0,0.6c0,0.1,0,0.2,0,0.3c-0.1,2-0.4,3.9-0.8,5.5L168.2,323.5z M171.8,319.4l12-0.2v3.5l-12.7,0.7
		C171.4,322.2,171.7,320.8,171.8,319.4z M188.9,306.1l16-1.1v23.2l-11.3-6l-0.1,0l-4.7,0.2V306.1z M205.4,319l25.7-0.8V342
		l-25.7-13.6V319z M219.3,245.9h1.5c0.3,0,0.5,0.2,0.5,0.5v0.4L219,246C219.1,246,219.2,245.9,219.3,245.9z M221.7,249.5h0.4v1.7
		H218v-1.7h0.4H221.7z M218.8,249.1v-2.7l2.4,0.8v1.9H218.8z M218.4,246.3c0,0,0,0.1,0,0.1v2.7h-0.9v2.6h5v-2.6h-0.8v-1.7l16.5,5.7
		v0.8h-46l0,0l-0.1,0l-4.6-1.4h29.3v-2.3h-36.8v0l-4.9-1.5h39.5v-3.8L218.4,246.3z M186.1,252l-4.9-1.5h35.1v1.4L186.1,252
		L186.1,252z M174.9,229.8h39.1v18.5h-39.1V229.8z M211,228.6l2.1,0.8h-38.3l-1.8-0.8H211z M172.2,247.9v-19.1l2.4,1v18.8l-0.6-0.2
		L172.2,247.9z M173.8,248.8l1.2,0.4v0l15.9,4.7l-115.5,6l-28.1-12.1l46.2-2l0,0l0,0l61.4-2.6L173.8,248.8z M136.6,240.1l-13.5,0.6
		V240c0.7-0.2,3.6-1.1,6.5-1.1c2.9,0,6.2,0.4,7,0.5V240.1z M129.6,238.5c-2.1,0-4.2,0.4-5.5,0.8v-5.6c0.7-0.4,5.1-3.1,11.2-0.3
		l0.2,5.5C134.1,238.7,131.7,238.5,129.6,238.5z M128.7,228.9c0.1-0.1,0.3-0.2,0.9-0.2c0.7,0,0.8,0.2,0.9,0.2v1.8
		c-0.4,0-0.7,0-1.1,0c0,0,0,0,0,0c-0.2,0-0.4,0-0.6,0V228.9z M129.3,231.1C129.3,231.1,129.3,231.1,129.3,231.1c3.7,0,6.1,1.2,7,1.7
		l-0.7,0.2c-6.3-2.9-11-0.1-11.7,0.3l-0.6-0.2C124,232.5,126.2,231.1,129.3,231.1z M122.8,232.9c-0.1,0.1-0.1,0.1-0.2,0.1l-0.3,0.2
		l1.2,0.4v5.7c-0.6,0.2-0.9,0.3-0.9,0.3l-0.1,0v1l-0.7,0v-1l-0.2,0c-0.3-0.1-0.5-0.1-0.8-0.2v-6.1L122.8,232.9z M113.4,229.3
		c0.1-0.1,0.3-0.2,0.9-0.2c0.7,0,0.8,0.2,0.9,0.2v1.8c-0.3,0-0.7,0-1,0c-0.3,0-0.5,0-0.8,0V229.3z M114.2,231.4
		c3.7,0,6.3,0.9,7.4,1.3l-0.9,0.2c-7.9-2.3-12.3,0.4-13,0.8l-0.8-0.2C107.8,233,110.3,231.4,114.2,231.4z M108,234.1
		c0.7-0.4,5-2.9,12.5-0.8v6c-5.8-1-10.6,0.2-12.5,0.9V234.1z M107.4,240.9c0.9-0.4,6.8-2.5,14.1-0.9v0.7l-14.1,0.6V240.9z
		 M98.1,242.2l48.6-2.1l-0.3,0.5l-48.9,2.1L98.1,242.2z M96.9,243.1L146,241l-1.4,2.2l-50.5,2.2L96.9,243.1z M46.5,248l28.7,12.3
		l9,35.8L84,312.1l-0.2,0l-43.5-26.8h0.2v-17L46.5,248z M44.2,254.3l-4.1,14l0,13.4H35L1.2,256.4L44.2,254.3z M0.8,256.5l12,9v92.9
		l-12-13.6V256.5z M12.9,358.6h0.3v-92.7l21.5,16.1v3.1h-0.5l0.5,0.3v97.7L12.9,358.6z M35.1,285.7l21.4,13.8v105.8l-6.5-7v-57.4
		l-14.3-10.5l-0.3,0.3L49.6,341v56.7l-13.8-14.9L35.1,285.7z M57,405.7v-106l21.9,14.1v115.5L57,405.7z M79.4,429.7V313.9l35-2.5v15
		l-14.9,0.8l-0.6-0.4v0.4l-0.2,0l0.2,0.1v12.9l8.6,6v80.5L79.4,429.7z M108,449.4V346.6l4.1,2.9v105L108,449.4z M116.7,452.6
		l-4.2,2.1V349.7l4.2,2.9v99.7V452.6z M117.1,452.2v-99.3l7.6,5.3l11.5,8l-2,104.6L117.1,452.2z M134.7,476.9l1.9-110.4l3.4,2.4
		l-1.9,112.4L134.7,476.9z M239.5,466.3l-101,15.4l1.9-112.4l4.7,3.3v0l0,0l0.4,0.3v-0.3l40.1-3.3l1.2,0.8v0.1l44.4-3.9l0.2,0v-0.8
		l8.1-0.7V466.3z M246.3,363.7l-14.8,1.2v-9.9l-3,0.3l-5-2.7l22.8-1.9V363.7z M222.8,352.3l-17.3-9.4l0,0l-0.1,0l-4-2.2l0,0l0,0
		l-9.4-5.1l0,0l0,0l-17.2-9.3l-0.1,0l-4.5,0.2c0.3-0.7,0.6-1.6,0.9-2.6l12.8-0.7v0.7l5.1,2.8v-3.8l4.6-0.2l52.3,27.7L222.8,352.3z"
		/>
	<path class="st4" d="M237.9,300.2c0.1,0,0.2,0,0.3,0c0.1,0,0.2,0,0.3,0c1.9,0,3.5-1.6,3.5-3.5c0-1.9-1.6-3.5-3.5-3.5
		c-1.9,0-3.5,1.6-3.5,3.5c0,0.1,0,0.2,0,0.3c0,0.1,0,0.2,0,0.3C234.9,298.8,236.3,300.2,237.9,300.2z M238.2,299.7
		c-1.5-0.1-2.7-1.3-2.8-2.8c0.1-1.3,1.2-2.3,2.6-2.3c1.4,0,2.6,1.2,2.6,2.6C240.5,298.5,239.5,299.6,238.2,299.7z M238.5,293.5
		c1.7,0,3.1,1.4,3.1,3.1c0,1.1-0.6,2.1-1.5,2.6c0.5-0.5,0.9-1.3,0.9-2.1c0-1.7-1.4-3-3-3c-0.8,0-1.6,0.3-2.1,0.9
		C236.4,294.1,237.3,293.5,238.5,293.5z"/>
	<path class="st4" d="M202.3,246.9h7.7V231h-7.7V246.9z M202.8,231.5h6.9v15h-6.9V231.5z"/>
	<path class="st4" d="M208.8,235.9v-2.6h-2.6h-2.5v2.6h2.5H208.8z M208.4,233.7v1.7h-1.7v-1.7H208.4z M204.2,235.5v-1.7h2v1.7H204.2
		z"/>
	<path class="st4" d="M208.8,240.3v-2.6h-2.6h-2.5v2.6h2.5H208.8z M208.4,238.1v1.7h-1.7v-1.7H208.4z M204.2,239.9v-1.7h2v1.7H204.2
		z"/>
	<path class="st4" d="M206.2,244.8h2.7v-2.5h-2.7V244.8z M206.6,242.8h1.9v1.6h-1.9V242.8z"/>
	<path class="st4" d="M179,231v4.9v11.2h21.8v-11.2V231h-15.5H179z M179.5,231.5h5.5v4h-5.5V231.5z M200.4,246.7h-21v-10.8h5.9h15
		V246.7z M200.4,231.5v4h-15v-4H200.4z"/>
	<path class="st4" d="M199.3,234.8V232h-13.8v2.9H199.3z M185.9,232.4h12.9v2h-12.9V232.4z"/>
</g>
</svg>
