<?xml version="1.0" encoding="utf-8"?>
<!-- Generator: Adobe Illustrator 25.0.0, SVG Export Plug-In . SVG Version: 6.00 Build 0)  -->
<svg version="1.1" id="Layer_5" xmlns="http://www.w3.org/2000/svg" xmlns:xlink="http://www.w3.org/1999/xlink" x="0px" y="0px"
	 viewBox="0 0 24 24" style="enable-background:new 0 0 24 24;" xml:space="preserve">
<style type="text/css">
	.st0{fill:none;stroke:#FFFFFF;stroke-width:1.5;stroke-miterlimit:10;}
	.st1{fill:#FFFFFF;}
</style>
<g>
	<path class="st0" d="M10.7,21.4v-2.3c0-0.7-0.6-1.2-1.2-1.2h-6c-0.7,0-1.2,0.6-1.2,1.2v2.3"/>
	<circle class="st0" cx="6.5" cy="13.8" r="2.4"/>
</g>
<g>
	<path class="st0" d="M21.7,21.4v-2.3c0-0.7-0.6-1.2-1.2-1.2h-6c-0.7,0-1.2,0.6-1.2,1.2v2.3"/>
	<circle class="st0" cx="17.5" cy="13.8" r="2.4"/>
</g>
<circle class="st0" cx="12.1" cy="5.1" r="2.4"/>
<path class="st1" d="M17,10.1c-0.2-0.9-1-1.7-2-1.7h-6c-1,0-1.8,0.7-2,1.7c0.5,0.1,1,0.3,1.5,0.6v-0.3c0-0.3,0.2-0.5,0.5-0.5h6
	c0.3,0,0.5,0.2,0.5,0.5v0.2C16,10.4,16.5,10.2,17,10.1z"/>
</svg>
