<?xml version="1.0" encoding="utf-8"?>
<!-- Generator: Adobe Illustrator 25.0.0, SVG Export Plug-In . SVG Version: 6.00 Build 0)  -->
<svg version="1.1" id="Layer_5" xmlns="http://www.w3.org/2000/svg" xmlns:xlink="http://www.w3.org/1999/xlink" x="0px" y="0px"
	 viewBox="0 0 24 24" style="enable-background:new 0 0 24 24;" xml:space="preserve">
<style type="text/css">
	.st0{fill:#FFFFFF;}
</style>
<g>
	<path class="st0" d="M17.35,18.36v-2.05h-1.04c-0.13-0.59-0.36-1.15-0.68-1.64l0.74-0.74l-1.45-1.45l-0.74,0.74
		c-0.49-0.32-1.05-0.56-1.64-0.68V11.5h-2.05v1.04c-0.59,0.13-1.15,0.36-1.64,0.68l-0.74-0.74l-1.45,1.45l0.74,0.74
		c-0.32,0.49-0.56,1.05-0.68,1.64H5.68v2.05h1.04c0.13,0.59,0.36,1.15,0.68,1.64l-0.74,0.74l1.45,1.45l0.74-0.74
		c0.49,0.32,1.05,0.56,1.64,0.68v1.04h2.05v-1.04c0.59-0.13,1.15-0.36,1.64-0.68l0.74,0.74l1.45-1.45L15.63,20
		c0.32-0.49,0.56-1.05,0.68-1.64H17.35z M8.63,17.34c0-1.59,1.29-2.89,2.89-2.89c1.59,0,2.89,1.29,2.89,2.89
		c0,1.59-1.29,2.89-2.89,2.89C9.92,20.22,8.63,18.93,8.63,17.34z"/>
	<path class="st0" d="M22.13,7.46V6.09h-0.7c-0.09-0.4-0.24-0.77-0.46-1.09l0.49-0.49L20.5,3.53l-0.49,0.49
		c-0.33-0.21-0.7-0.37-1.09-0.45V2.88h-1.37v0.7c-0.4,0.09-0.77,0.24-1.09,0.46l-0.49-0.49l-0.97,0.97L15.48,5
		c-0.21,0.33-0.37,0.7-0.45,1.09h-0.69v1.37h0.7c0.09,0.4,0.24,0.77,0.46,1.09l-0.49,0.49l0.97,0.97l0.49-0.49
		c0.33,0.21,0.7,0.37,1.09,0.45v0.69h1.37v-0.7c0.4-0.09,0.77-0.24,1.09-0.46l0.49,0.49l0.97-0.97l-0.49-0.49
		c0.21-0.33,0.37-0.7,0.45-1.09H22.13z M16.3,6.78c0-1.07,0.86-1.93,1.93-1.93c1.07,0,1.93,0.86,1.93,1.93
		c0,1.07-0.86,1.93-1.93,1.93C17.17,8.71,16.3,7.84,16.3,6.78z"/>
	<path class="st0" d="M11.71,6.57V4.82h-0.89c-0.11-0.51-0.31-0.98-0.58-1.4l0.63-0.63L9.63,1.55L9,2.18
		C8.58,1.91,8.11,1.71,7.6,1.6V0.72H5.85v0.89c-0.51,0.11-0.98,0.31-1.4,0.58L3.82,1.56L2.59,2.8l0.63,0.63
		c-0.27,0.42-0.47,0.89-0.58,1.4H1.75v1.75h0.89c0.11,0.51,0.31,0.98,0.58,1.4L2.59,8.6l1.24,1.24l0.63-0.63
		c0.42,0.27,0.89,0.47,1.4,0.58v0.89h1.75V9.79c0.51-0.11,0.98-0.31,1.4-0.58l0.63,0.63l1.24-1.24l-0.63-0.63
		c0.27-0.42,0.47-0.89,0.58-1.4H11.71z M4.27,5.7c0-1.36,1.1-2.46,2.46-2.46c1.36,0,2.46,1.1,2.46,2.46c0,1.36-1.1,2.46-2.46,2.46
		C5.37,8.16,4.27,7.06,4.27,5.7z"/>
</g>
</svg>
