<?xml version="1.0" encoding="utf-8"?>
<!-- Generator: Adobe Illustrator 25.0.0, SVG Export Plug-In . SVG Version: 6.00 Build 0)  -->
<svg version="1.1" id="Layer_5" xmlns="http://www.w3.org/2000/svg" xmlns:xlink="http://www.w3.org/1999/xlink" x="0px" y="0px"
	 viewBox="0 0 24 24" style="enable-background:new 0 0 24 24;" xml:space="preserve">
<style type="text/css">
	.st0{fill:#FFFFFF;}
</style>
<g>
	<path class="st0" d="M3.8,5.5c0,0,2.4-0.6,3.7,0.7s0.8,3.5,0.8,3.5l1.5,1.6l-2.1,2l-1.5-1.6c0,0-1.9,0.5-3.4-1S2.1,7.2,2.1,7.2
		l2,2.1h0.6L6,8.2l0-0.6L3.8,5.5z"/>
	<path class="st0" d="M16.6,18.3L13,14.6l-2.2,2.1l3.6,3.7c0,0,1,0.8,1.9,0C17.3,19.4,16.6,18.3,16.6,18.3z M15.4,20.1
		c-0.4,0-0.8-0.4-0.8-0.8c0-0.4,0.4-0.8,0.8-0.8c0.4,0,0.8,0.4,0.8,0.8C16.2,19.7,15.8,20.1,15.4,20.1z"/>
	<path class="st0" d="M13.3,9.1l1.6,1.5l-8.6,9.3c0,0-1.1,0.4-1.9-0.4c-0.8-0.8-0.2-1.8-0.2-1.8L13.3,9.1z"/>
	<path class="st0" d="M15.4,10.2l-1.6-1.5l0.5-0.8l-0.1-1.7c0,0-0.2-1.7-2.9-1.9l-0.2-0.3c0,0,1.4-1.3,4.4,0L19,7.2l0.1,1l0.2,0.5
		l1.5,0l1.4,1.5l-3.1,3l-1.6-1.4l0.1-1.3l-0.8-0.8H16L15.4,10.2z"/>
</g>
</svg>
