<?xml version="1.0" encoding="utf-8"?>
<!-- Generator: Adobe Illustrator 25.0.0, SVG Export Plug-In . SVG Version: 6.00 Build 0)  -->
<svg version="1.1" id="Layer_5" xmlns="http://www.w3.org/2000/svg" xmlns:xlink="http://www.w3.org/1999/xlink" x="0px" y="0px"
	 viewBox="0 0 24 24" style="enable-background:new 0 0 24 24;" xml:space="preserve">
<style type="text/css">
	.st0{fill:#FFFFFF;}
	.st1{fill:none;stroke:#FFFFFF;stroke-linecap:round;stroke-linejoin:round;stroke-miterlimit:10;}
</style>
<g>
	<circle class="st0" cx="6.6" cy="17.7" r="1.1"/>
	<circle class="st0" cx="6.6" cy="13.8" r="1.1"/>
	<circle class="st0" cx="6.6" cy="9.6" r="1.1"/>
	<path class="st0" d="M15.4,18c0,0.2-0.2,0.4-0.4,0.4H8.7c-0.2,0-0.4-0.2-0.4-0.4v-0.7c0-0.2,0.2-0.4,0.4-0.4h6.3
		c0.2,0,0.4,0.2,0.4,0.4V18z"/>
	<path class="st0" d="M15.4,14.2c0,0.2-0.2,0.4-0.4,0.4H8.7c-0.2,0-0.4-0.2-0.4-0.4v-0.7c0-0.2,0.2-0.4,0.4-0.4h6.3
		c0.2,0,0.4,0.2,0.4,0.4V14.2z"/>
	<path class="st0" d="M11.5,8.9H8.7C8.6,8.9,8.4,9,8.4,9.2v0.7c0,0.2,0.2,0.4,0.4,0.4h3.3C11.8,9.9,11.6,9.4,11.5,8.9z"/>
</g>
<g>
	<path class="st0" d="M17,12c-2.8,0-5-2.2-5-5s2.2-5,5-5s5,2.2,5,5S19.8,12,17,12z M17,3.2c-2.1,0-3.9,1.7-3.9,3.9s1.7,3.8,3.9,3.8
		s3.9-1.7,3.9-3.8S19.1,3.2,17,3.2z"/>
</g>
<polyline class="st1" points="15.1,7.1 16.5,8.4 18.9,5.6 "/>
<path class="st0" d="M20.5,19.2c0,0.6-0.4,1-1,1H4.8c-0.5,0-1-0.5-1-1V3.7c0-0.6,0.4-1,1-1h6.3V1.5H4.8c-1.2,0-2.2,1-2.2,2.3v15.5
	c0,1.3,1,2.3,2.2,2.3h14.7c1.2,0,2.2-1,2.2-2.3v-5.5h-1.2V19.2z"/>
</svg>
