<?xml version="1.0" encoding="utf-8"?>
<!-- Generator: Adobe Illustrator 25.0.0, SVG Export Plug-In . SVG Version: 6.00 Build 0)  -->
<svg version="1.1" id="Layer_5" xmlns="http://www.w3.org/2000/svg" xmlns:xlink="http://www.w3.org/1999/xlink" x="0px" y="0px"
	 viewBox="0 0 24 24" style="enable-background:new 0 0 24 24;" xml:space="preserve">
<style type="text/css">
	.st0{fill:#FFFFFF;}
</style>
<g>
	<path class="st0" d="M5.59,13.46c-0.15,0-0.28,0.12-0.28,0.28v5.09c0,0.15,0.12,0.28,0.28,0.28h2.93c0.15,0,0.28-0.12,0.28-0.28
		v-5.09c0-0.15-0.12-0.28-0.28-0.28H5.59z"/>
	<path class="st0" d="M15.01,11.79c-0.15,0-0.28,0.12-0.28,0.28v6.77c0,0.15,0.12,0.28,0.28,0.28h2.93c0.15,0,0.28-0.12,0.28-0.28
		v-6.77c0-0.15-0.12-0.28-0.28-0.28H15.01z"/>
	<path class="st0" d="M10.3,10.39c-0.15,0-0.28,0.12-0.28,0.28v8.16c0,0.15,0.12,0.28,0.28,0.28h2.93c0.15,0,0.28-0.12,0.28-0.28
		v-8.16c0-0.15-0.12-0.28-0.28-0.28H10.3z"/>
	<path class="st0" d="M20.35,20.51H3.6c-0.4,0-0.73,0.33-0.73,0.73c0,0.4,0.33,0.73,0.73,0.73h16.75c0.4,0,0.73-0.33,0.73-0.73
		C21.08,20.84,20.75,20.51,20.35,20.51z"/>
	<path class="st0" d="M5.66,10.68c0.17,0,0.35-0.06,0.5-0.17l4.91-3.95l2.91,2.67c0.3,0.27,0.76,0.28,1.06,0.01l3.06-2.7l0.81,0.81
		c0.08,0.08,0.18,0.12,0.28,0.12c0.05,0,0.09-0.01,0.14-0.02c0.14-0.05,0.25-0.19,0.26-0.34l0.24-2.95
		c0.01-0.12-0.03-0.23-0.11-0.31c-0.08-0.08-0.19-0.13-0.31-0.11l-2.95,0.24c-0.15,0.01-0.29,0.11-0.34,0.26
		c-0.05,0.14-0.02,0.31,0.09,0.42l0.77,0.77l-2.45,2.17l-2.88-2.65c-0.29-0.26-0.73-0.28-1.03-0.03L5.16,9.27
		c-0.34,0.27-0.39,0.77-0.12,1.11C5.2,10.58,5.43,10.68,5.66,10.68z"/>
</g>
</svg>
