<?xml version="1.0" encoding="utf-8"?>
<!-- Generator: Adobe Illustrator 25.0.0, SVG Export Plug-In . SVG Version: 6.00 Build 0)  -->
<svg version="1.1" id="Layer_5" xmlns="http://www.w3.org/2000/svg" xmlns:xlink="http://www.w3.org/1999/xlink" x="0px" y="0px"
	 viewBox="0 0 24 24" style="enable-background:new 0 0 24 24;" xml:space="preserve">
<style type="text/css">
	.st0{fill:#FFFFFF;}
</style>
<g>
	<path class="st0" d="M8.5,8.4L8.5,8.4c0.4-0.1,0.6-0.3,0.8-0.4c0.3-0.2,0.4-0.2,1,0c1,0.4,3.2,1.1,4.6,1.5
		c-0.2,0.3-0.5,0.7-0.7,0.6c-1.7-0.6-2.7-0.9-2.7-0.9c-0.1,0-0.3,0-0.4,0.1c-0.1,0.1-0.2,0.2-0.2,0.4c0,0-0.1,0.8-0.7,1.3
		c-0.6,0.5-1.5,0.5-2.8,0.3c-0.3-0.1-0.5,0.1-0.6,0.4c-0.1,0.3,0.1,0.5,0.4,0.6c1.5,0.3,2.8,0.2,3.6-0.5c0.6-0.4,0.8-1,1-1.4
		c0.5,0.1,1.2,0.4,2.1,0.7c1.1,0.4,1.9-0.8,2.2-1.6c0.1-0.1,0-0.3,0-0.4c-0.1-0.1-0.2-0.2-0.3-0.3c0,0-3.9-1.2-5.1-1.7
		c-1-0.4-1.3-0.3-1.9,0C8.7,7.3,8.5,7.4,8.2,7.5C8,7.5,7.8,7.5,7.7,7.5c-0.1,0-0.2,0-0.2,0L7.4,7.6l0,0l0.1-0.1c0,0,0,0-0.1-0.1
		c0,0,0,0-0.1-0.1c0,0-0.1,0-0.1,0L4.7,6.4c-0.3-0.1-0.5,0-0.6,0.3l-2.4,6.2c-0.1,0.2,0,0.5,0.3,0.6l2.6,1.1c0.1,0,0.1,0,0.2,0
		c0.1,0,0.1,0,0.2,0c0.1-0.1,0.2-0.2,0.3-0.3l2.2-5.8C7.7,8.6,8,8.5,8.5,8.4z M6.5,8.1l-2,5.4l-1.7-0.7l2-5.3L6.5,8.1z"/>
	<path class="st0" d="M22.3,12.7l-3-6c-0.1-0.1-0.2-0.2-0.3-0.2c-0.1,0-0.3,0-0.4,0l-2.4,1.2C16,7.9,15.9,8.2,16,8.4l2.8,5.5
		c-0.9,1-1.6,1.6-1.7,1.7c-0.4,0.2-2.4,1.3-2.4,1.3l-4.2,2.3c-0.1,0-0.2,0.1-0.3,0c-0.1,0-0.2-0.1-0.2-0.2c0-0.1-0.1-0.2,0-0.3
		c0-0.1,0.1-0.2,0.2-0.2l3.2-1.7c0.1-0.1,0.2-0.2,0.2-0.3c0-0.1,0-0.3,0-0.4S13.3,16,13.1,16c-0.1,0-0.3,0-0.4,0l-1.8,1
		c0,0-0.1,0-0.1,0l-2.2,1.2c-0.1,0-0.2,0.1-0.3,0c-0.1,0-0.2-0.1-0.2-0.2c-0.1-0.1-0.1-0.3,0-0.4l1.9-1.1c0,0,0.1-0.1,0.1-0.1
		l2.1-1.2c0.2-0.1,0.3-0.4,0.2-0.7c-0.1-0.2-0.4-0.3-0.7-0.2l-4.1,2.3c-0.1,0-0.2,0.1-0.2,0.1l-0.2,0.1c-0.1,0-0.2,0.1-0.3,0
		c-0.1,0-0.2-0.1-0.2-0.2s-0.1-0.2,0-0.3c0-0.1,0.1-0.2,0.2-0.2l0.4-0.2c0.1,0,0.2-0.1,0.3-0.1l3.1-1.7c0,0,0.1-0.1,0.1-0.1l0.3-0.2
		c0.2-0.1,0.3-0.4,0.2-0.7c-0.1-0.2-0.4-0.3-0.7-0.2l-3.7,2c0,0-0.1,0-0.1,0c-0.1,0-0.2-0.1-0.2-0.2c-0.1-0.2,0-0.4,0.1-0.5l1.9-1
		c0.1-0.1,0.2-0.2,0.2-0.3s0-0.3,0-0.4s-0.2-0.2-0.3-0.2c-0.1,0-0.3,0-0.4,0l-1.9,1C6,14,5.8,14.3,5.7,14.6c-0.1,0.3-0.1,0.7,0.1,1
		C5.9,15.8,6,15.9,6.1,16c-0.3,0.4-0.4,1-0.1,1.5c0.2,0.4,0.7,0.7,1.1,0.7c0,0.2,0.1,0.3,0.2,0.5c0.2,0.3,0.5,0.5,0.8,0.6
		c0.3,0.1,0.6,0.1,0.9-0.1c0,0.1,0.1,0.2,0.1,0.3c0.2,0.3,0.5,0.5,0.8,0.6c0.1,0,0.2,0.1,0.4,0.1c0.2,0,0.4-0.1,0.6-0.2l4.3-2.4
		c1.6-0.9,2.2-1.2,2.3-1.3c0.3-0.2,1.2-1,1.9-1.8c0.1,0,0.2,0,0.3-0.1l2.4-1.2c0.1-0.1,0.2-0.2,0.2-0.3C22.3,13,22.3,12.8,22.3,12.7
		z M21.2,12.7l-1.5,0.8l-2.6-5.1l1.5-0.8L21.2,12.7z"/>
</g>
</svg>
