<?xml version="1.0" encoding="utf-8"?>
<!-- Generator: Adobe Illustrator 22.1.0, SVG Export Plug-In . SVG Version: 6.00 Build 0)  -->
<svg version="1.1" id="Layer_5" xmlns="http://www.w3.org/2000/svg" xmlns:xlink="http://www.w3.org/1999/xlink" x="0px" y="0px"
	 viewBox="0 0 24 24" style="enable-background:new 0 0 24 24;" xml:space="preserve">
<style type="text/css">
	.st0{fill:#F3F3F1;}
	.st1{fill:#D5DBE1;}
	.st2{fill:#A0A0A0;}
	.st3{fill:#797979;}
	.st4{display:none;}
	.st5{display:inline;}
	.st6{fill:#2FDF84;}
	.st7{fill:#00B871;}
	.st8{display:none;fill:none;stroke:#000000;stroke-width:1.2;stroke-miterlimit:10;}
</style>
<g>
	<g>
		<path class="st0" d="M20.3,5.1v10.3v4.7c0,0.9-0.7,1.6-1.5,1.6h-5.6H7c-0.8,0-1.5-0.7-1.5-1.6L5.6,9V5.2c0-0.9,0.7-1.6,1.5-1.6h7
			h4.7C19.6,3.6,20.3,4.3,20.3,5.1z"/>
	</g>
	<g>
		<path class="st1" d="M6.8,21.1H7c0.8,0,1.8-0.7,1.8-1.5V5.7c0-0.8-1-1.5-1.8-1.5H5.5l0,0c0.7,0.1,1.3,0.7,1.3,1.4l0,13.9
			c0,0.1,0,0.2,0,0.3V21.1z"/>
	</g>
	<path class="st2" d="M6.4,6c0-1-0.8-1.9-1.9-1.9S2.7,5,2.7,6v1.1h3.8V6z"/>
	<path class="st2" d="M10.2,19.2v-1.9h9.5v2.3c0,0.8-0.7,1.5-1.5,1.5H8.3C9.4,21.1,10.2,20.3,10.2,19.2z"/>
	<path class="st3" d="M4.6,6v1.1h1.7V6c0-1.1-0.9-1.9-1.9-1.9c-0.3,0-0.5,0.1-0.8,0.2C4.3,4.6,4.8,5.3,4.6,6z"/>
	<path class="st3" d="M16.5,21.1h1.7c0.8,0,1.5-0.7,1.5-1.5v-2.3H18v2.3C18,20.4,17.3,21.1,16.5,21.1z"/>
	<path d="M18.1,17.4H17V12h1.1V17.4z"/>
	<path d="M13.2,4.7H4.6V3.6h8.6V4.7z"/>
	<path d="M2,7.1V6c0-1.4,1.1-2.5,2.5-2.5S7.1,4.6,7.1,6v1.1c0,0.3-0.3,0.6-0.6,0.6H2.7C2.4,7.7,2,7.5,2,7.1z M5.9,6
		c0-0.7-0.7-1.3-1.4-1.3S3.2,5.3,3.2,6v0.6h2.7V6z"/>
	<path d="M8.2,21.7c-1.3-0.1-2.3-1.2-2.3-2.5l0-12.1h1.1l0,12.2c0,0.7,0.6,1.3,1.3,1.3s1.3-0.6,1.3-1.3v-1.9c0-0.3,0.3-0.6,0.6-0.6
		h9.5c0.3,0,0.6,0.3,0.6,0.6v2.2c0,1.2-1,2.1-2.1,2.1H8.2L8.2,21.7z M10.8,17.9v1.3c0,0.5-0.2,0.9-0.4,1.3h7.8
		c0.5,0,0.9-0.4,0.9-0.9v-1.7C19.1,17.9,10.8,17.9,10.8,17.9z"/>
	<g>
		<path class="st2" d="M10.7,12.1L9.8,15l2.9-1c0.3-0.1,0.6-0.3,0.8-0.5L20,7c0.6-0.6,0.7-1.6,0-2.2s-1.7-0.6-2.3,0l-6.4,6.5
			C11.1,11.5,10.9,11.8,10.7,12.1z"/>
	</g>
	<g>
		<path d="M9,14.1l0.9-2.9c0.1-0.5,0.4-0.9,0.7-1.2L17,3.5c0.9-0.9,2.4-0.9,3.4,0s1,2.5,0,3.4L14,13.4c-0.3,0.3-0.7,0.6-1.1,0.7
			l-2.9,1c-0.3,0.1-0.6,0-0.8-0.2S8.9,14.4,9,14.1z M18.1,4.7l-6.4,6.5c-0.1,0.1-0.2,0.3-0.3,0.5L11,13.1l1.4-0.5
			c0.2,0,0.4-0.2,0.5-0.3l6.4-6.5c0.3-0.3,0.3-0.8,0-1.1C19,4.4,18.5,4.4,18.1,4.7z"/>
	</g>
</g>
<g class="st4">
	<g class="st5">
		<circle class="st6" cx="7" cy="7.5" r="4.3"/>
	</g>
	<g class="st5">
		<path class="st7" d="M4.4,7.5c0-2.1,1.5-3.8,3.4-4.2C7.6,3.3,7.3,3.2,7,3.2c-2.4,0-4.3,1.9-4.3,4.3s1.9,4.3,4.3,4.3
			c0.3,0,0.6,0,0.8-0.1C5.9,11.3,4.4,9.6,4.4,7.5z"/>
	</g>
	<g class="st5">
		<path d="M7,12.3c-2.7,0-4.8-2.2-4.8-4.8S4.3,2.7,7,2.7s4.8,2.2,4.8,4.8S9.7,12.3,7,12.3z M7,3.8c-2,0-3.7,1.7-3.7,3.7
			S5,11.2,7,11.2s3.7-1.7,3.7-3.7S9,3.8,7,3.8z"/>
	</g>
	<g class="st5">
		<path d="M6.3,9.5c-0.2,0-0.3,0-0.4-0.1L4.4,7.9l0.8-0.8l1.1,1.1l2.2-2.5l0.8,0.7l-2.6,3C6.6,9.5,6.4,9.5,6.3,9.5L6.3,9.5z"/>
	</g>
</g>
<line class="st8" x1="16" y1="11.6" x2="7.8" y2="11.6"/>
<line class="st8" x1="16" y1="14.4" x2="8.4" y2="14.4"/>
</svg>
