<?xml version="1.0" encoding="utf-8"?>
<!-- Generator: Adobe Illustrator 22.1.0, SVG Export Plug-In . SVG Version: 6.00 Build 0)  -->
<svg version="1.1" id="Layer_1" xmlns="http://www.w3.org/2000/svg" xmlns:xlink="http://www.w3.org/1999/xlink" x="0px" y="0px"
	 viewBox="0 0 24 24" style="enable-background:new 0 0 24 24;" xml:space="preserve">
<style type="text/css">
	.st0{fill:#A0A0A0;}
	.st1{fill:#797979;}
</style>
<g id="Layer_8">
	<g>
		<g>
			<circle class="st0" cx="12" cy="7.7" r="4.8"/>
		</g>
		<g>
			<path class="st1" d="M9.1,7.7c0-2.4,1.7-4.3,3.9-4.7c-0.3,0-0.6-0.1-0.9-0.1C9.3,2.9,7.2,5,7.2,7.7s2.1,4.8,4.8,4.8
				c0.3,0,0.6,0,0.9-0.1C10.7,12,9.1,10.1,9.1,7.7z"/>
		</g>
		<path d="M18.3,8.8V6.7l-1-0.1c-0.1-0.6-0.4-1.2-0.7-1.7L17.2,4l-1.5-1.5l-0.9,0.6c-0.5-0.3-1.1-0.5-1.7-0.7l-0.1-1H11l-0.1,1
			c-0.6,0.1-1.2,0.4-1.7,0.7L8.3,2.5L6.8,4l0.6,0.9C7.1,5.4,6.8,5.9,6.7,6.5l-1,0.1v2.1l1,0.1c0.1,0.6,0.4,1.2,0.7,1.7l-0.6,0.9
			l1.5,1.5l0.9-0.6c0.5,0.3,1.1,0.6,1.7,0.7l0.1,1h2.1l0.1-1c0.6-0.1,1.1-0.4,1.6-0.7l0.9,0.6l1.5-1.5l-0.6-0.9
			c0.3-0.5,0.5-1,0.6-1.6L18.3,8.8z M16.2,7.7c0,2.3-1.9,4.2-4.2,4.2S7.8,10,7.8,7.7S9.7,3.5,12,3.5S16.2,5.4,16.2,7.7z"/>
		<g>
			<path d="M12,4.9c0.2,0,0.3,0.1,0.5,0.2l2.1,2.1l-0.9,0.9L12,6.5l-1.6,1.6L9.5,7.1l2.1-2.1C11.7,4.9,11.9,4.9,12,4.9z"/>
			<path d="M12.7,10.5h-1.3V6h1.3V10.5z"/>
		</g>
	</g>
</g>
<path class="st0" d="M19.8,21.8H9.4c-0.3,0-0.6-0.3-0.6-0.6v-5.8h11.5v5.7C20.4,21.5,20.2,21.8,19.8,21.8z"/>
<path class="st1" d="M11.7,20.8v-4.5H9.8v4.6c0,0.5,0.4,0.8,0.8,0.8h1.8C12,21.7,11.7,21.3,11.7,20.8z"/>
<path d="M19.6,21.9H4.4c-0.8,0-1.4-0.6-1.4-1.4v-3.9c0-0.8,0.6-1.4,1.4-1.4h15.2c0.8,0,1.4,0.6,1.4,1.4v3.8
	C21,21.2,20.4,21.9,19.6,21.9z M4.4,16.4c-0.1,0-0.2,0.1-0.2,0.2v3.8c0,0.1,0.1,0.2,0.2,0.2h15.2c0.1,0,0.2-0.1,0.2-0.2v-3.8
	c0-0.1-0.1-0.2-0.2-0.2C19.6,16.4,4.4,16.4,4.4,16.4z"/>
<path d="M8.6,21.4v-6.2h1.2v6.2C9.8,21.4,8.6,21.4,8.6,21.4z"/>
<path d="M15.9,19.4h-2.2v-1.2h2.2V19.4z"/>
<path d="M15.9,19.2h-2.2V18h2.2V19.2z"/>
</svg>
