<?xml version="1.0" encoding="utf-8"?>
<!-- Generator: Adobe Illustrator 22.1.0, SVG Export Plug-In . SVG Version: 6.00 Build 0)  -->
<svg version="1.1" id="Layer_8" xmlns="http://www.w3.org/2000/svg" xmlns:xlink="http://www.w3.org/1999/xlink" x="0px" y="0px"
	 viewBox="0 0 24 24" style="enable-background:new 0 0 24 24;" xml:space="preserve">
<style type="text/css">
	.st0{fill:#A0A0A0;}
	.st1{fill:#797979;}
	.st2{fill:#F3F3F1;}
	.st3{fill:#D5DBE1;}
</style>
<path class="st0" d="M13.3,18.1c0,0,0.2,1.3,1.1,2.2h0H9.6c0.9-0.9,1.1-2.2,1.1-2.2H13.3z"/>
<path class="st0" d="M4.3,21.5h15.4c0.4,0,0.7-0.3,0.7-0.7v-1.9H3.6v1.9C3.6,21.1,3.9,21.5,4.3,21.5z"/>
<path class="st1" d="M5.3,20.6v-1.9H3.6v1.9c0,0.4,0.3,0.7,0.7,0.7H6C5.6,21.4,5.3,21.1,5.3,20.6z"/>
<path d="M3.6,18.3h16.9v1.1H3.6V18.3z"/>
<g>
	<path class="st2" d="M18.8,5.5v10.2l-6.3,3.2c-0.2,0-0.3,0.2-0.3,0.2V5.7h6.7V5.5z"/>
	<path class="st2" d="M12,5.5v13.3c-0.2,0-0.3,0-0.3-0.2l-6.3-3.2v-10H12z"/>
	<path class="st0" d="M5.2,5.5L12,2.2l6.8,3.3L12,8.8L5.2,5.5z"/>
	<path class="st3" d="M14.2,8L12,9v9.8c0.2,0,0.3,0,0.3-0.2l1.7-0.8V8H14.2z"/>
	<path class="st3" d="M7.3,15.5v-10H5.2v10.2l6.3,3.2c0.2,0,0.3,0.2,0.3,0.2v-1L7.3,15.5z"/>
	<path class="st1" d="M7.3,5.5l5.8-2.8L12,2.2L5.2,5.5L12,8.8l1-0.7L7.3,5.5z"/>
	<path d="M12,9.7c-0.2,0-0.2,0-0.3,0L4.8,6.3C4.7,6.2,4.5,6,4.5,5.7c0-0.3,0.2-0.5,0.3-0.7l2.8-1.5l0.7,1.3L6.8,5.7L12,8.2l5.2-2.5
		l-1.5-0.8l0.7-1.3L19.2,5c0.2,0.2,0.3,0.3,0.3,0.7c0,0.3-0.2,0.5-0.3,0.7l-6.8,3.3C12.2,9.7,12.2,9.7,12,9.7z"/>
	<path d="M11.3,9h1.3v9.8h-1.3V9z"/>
	<path d="M12,19.5c-0.3,0-0.5,0-0.7-0.2l-6.5-3.2c-0.2-0.2-0.3-0.3-0.3-0.7V5.7h1.3v9.5l6,3H12l6-3V5.7h1.3v9.8
		c0,0.3-0.2,0.5-0.3,0.7l-6.3,3.2C12.5,19.5,12.3,19.5,12,19.5L12,19.5z"/>
</g>
</svg>
