<?xml version="1.0" encoding="utf-8"?>
<!-- Generator: Adobe Illustrator 22.1.0, SVG Export Plug-In . SVG Version: 6.00 Build 0)  -->
<svg version="1.1" id="Layer_7" xmlns="http://www.w3.org/2000/svg" xmlns:xlink="http://www.w3.org/1999/xlink" x="0px" y="0px"
	 viewBox="0 0 24 24" style="enable-background:new 0 0 24 24;" xml:space="preserve">
<style type="text/css">
	.st0{fill:#F3F3F1;}
	.st1{fill:#A0A0A0;}
	.st2{fill:#797979;}
	.st3{fill:#D5DBE1;}
</style>
<path class="st0" d="M19.6,3.6H4.4C4,3.6,3.6,4.3,3.6,5.2v15.4h16.8V5.2C20.4,4.3,20,3.6,19.6,3.6z"/>
<path class="st1" d="M19.8,15.1H9.4c-0.3,0-0.6-0.3-0.6-0.6V8.7h11.5v5.7C20.4,14.8,20.2,15.1,19.8,15.1z"/>
<path class="st2" d="M11.7,14.1V9.6H9.8v4.6c0,0.5,0.4,0.8,0.8,0.8h1.8C12,15,11.7,14.6,11.7,14.1z"/>
<path class="st3" d="M6.3,3.6H4.4C4,3.6,3.6,4,3.6,4.4v16.2h1.8V4.4C5.5,4,5.8,3.6,6.3,3.6z"/>
<path d="M19.6,21.1H4.4c-0.8,0-1.4-0.6-1.4-1.4V4.4C3,3.6,3.6,3,4.4,3h15.2C20.4,3,21,3.6,21,4.4v15.2C21,20.4,20.4,21.1,19.6,21.1z
	 M4.4,4.2c-0.1,0-0.2,0.1-0.2,0.2v15.2c0,0.1,0.1,0.2,0.2,0.2h15.2c0.1,0,0.2-0.1,0.2-0.2V4.4c0-0.1-0.1-0.2-0.2-0.2
	C19.6,4.2,4.4,4.2,4.4,4.2z"/>
<g>
	<path d="M8.6,8.4h11.8v1.2H8.6V8.4z"/>
	<path d="M8.6,14.4h11.8v1.2H8.6V14.4z"/>
</g>
<path d="M8.6,20.6V3.8h1.2v16.8C9.8,20.6,8.6,20.6,8.6,20.6z"/>
<path d="M15.9,12.7h-2.2v-1.2h2.2V12.7z"/>
<path d="M15.9,18.4h-2.2v-1.2h2.2V18.4z"/>
<path d="M15.9,6.9h-2.2V5.7h2.2V6.9z"/>
</svg>
