<?xml version="1.0" encoding="utf-8"?>
<!-- Generator: Adobe Illustrator 24.1.1, SVG Export Plug-In . SVG Version: 6.00 Build 0)  -->
<svg version="1.1" id="Layer_1" xmlns="http://www.w3.org/2000/svg" xmlns:xlink="http://www.w3.org/1999/xlink" x="0px" y="0px"
	 viewBox="0 0 341.1 61" style="enable-background:new 0 0 341.1 61;" xml:space="preserve">
<style type="text/css">
	.st0{fill:#261E22;}
	.st1{fill-rule:evenodd;clip-rule:evenodd;fill:#261E22;}
	.st2{fill-rule:evenodd;clip-rule:evenodd;fill:#D61520;}
	.st3{fill:#1A1414;}
</style>
<g>
	<g>
		<path class="st0" d="M9.3,43.7v4.7H9c-0.1-0.9-0.3-1.6-0.7-2.2c-0.3-0.5-0.8-1-1.3-1.3s-1.2-0.4-1.7-0.4c-0.7,0-1.3,0.2-1.7,0.7
			c-0.4,0.4-0.7,0.9-0.7,1.4c0,0.4,0.1,0.8,0.4,1.1c0.4,0.5,1.4,1.2,2.9,2c1.3,0.7,2.2,1.2,2.6,1.5s0.9,0.8,1.1,1.3
			c0.2,0.5,0.3,1,0.3,1.5c0,1-0.4,2-1.2,2.6c-0.8,0.8-1.9,1.1-3.1,1.1c-0.4,0-0.8,0-1.1-0.1c-0.2,0-0.7-0.1-1.3-0.3S2.4,57,2.3,57
			c-0.2,0-0.3,0-0.4,0.1c-0.1,0.1-0.2,0.3-0.2,0.7H1.3v-4.7h0.3c0.2,1,0.4,1.7,0.7,2.2c0.3,0.4,0.8,0.9,1.3,1.2s1.3,0.4,2,0.4
			c0.9,0,1.5-0.2,2-0.7s0.8-1,0.8-1.5c0-0.3-0.1-0.7-0.3-1s-0.4-0.7-0.9-1C7,52.5,6.2,52,5,51.4c-1.2-0.7-2-1.2-2.5-1.5
			c-0.5-0.4-0.9-0.8-1.1-1.3C1.1,48,1,47.5,1,46.9c0-1,0.3-1.9,1.1-2.5c0.8-0.7,1.7-1.1,2.8-1.1c0.8,0,1.5,0.2,2.3,0.5
			C7.5,44,7.9,44,8,44c0.2,0,0.3,0,0.4-0.1c0.1-0.1,0.2-0.3,0.2-0.7h0.7C9.3,43.2,9.3,43.7,9.3,43.7z"/>
		<path class="st0" d="M16,48.1c1.4,0,2.5,0.5,3.4,1.6c0.8,0.9,1.1,2,1.1,3.2c0,0.9-0.2,1.6-0.5,2.5c-0.4,0.9-1,1.5-1.6,1.9
			C17.6,57.7,16.8,58,16,58c-1.4,0-2.5-0.5-3.3-1.6c-0.7-1-1-2-1-3.2c0-0.9,0.2-1.6,0.7-2.5c0.4-0.9,1-1.4,1.6-1.9
			C14.4,48.2,15.2,48.1,16,48.1z M15.6,48.8c-0.3,0-0.8,0.1-1.1,0.3s-0.7,0.5-0.9,1.1c-0.2,0.5-0.3,1.2-0.3,2c0,1.3,0.2,2.5,0.8,3.5
			c0.5,1,1.2,1.4,2.1,1.4c0.7,0,1.2-0.2,1.6-0.8c0.4-0.5,0.7-1.4,0.7-2.7c0-1.6-0.3-2.9-1.1-3.8C16.9,49.1,16.4,48.8,15.6,48.8z"/>
		<path class="st0" d="M24.8,49.1v6c0,0.9,0.1,1.4,0.3,1.6c0.2,0.3,0.5,0.4,1,0.4H27v0.3h-5.5v-0.3H22c0.2,0,0.5-0.1,0.8-0.2
			c0.2-0.1,0.3-0.3,0.4-0.5s0.1-0.7,0.1-1.3v-6h-1.7v-0.8h1.6v-0.5c0-0.9,0.1-1.7,0.4-2.3c0.3-0.7,0.8-1.2,1.3-1.5
			c0.7-0.4,1.3-0.5,2.1-0.5c0.7,0,1.3,0.2,2,0.7c0.4,0.3,0.5,0.7,0.5,1c0,0.2-0.1,0.4-0.2,0.5s-0.3,0.2-0.5,0.2
			c-0.1,0-0.3-0.1-0.4-0.2c-0.2-0.1-0.3-0.3-0.7-0.8c-0.2-0.3-0.4-0.7-0.7-0.8c-0.2-0.1-0.4-0.2-0.7-0.2c-0.3,0-0.5,0.1-0.8,0.2
			c-0.2,0.2-0.3,0.4-0.4,0.8C25,45.2,25,46.1,25,47.5v0.7h2.4V49L24.8,49.1L24.8,49.1z"/>
		<path class="st0" d="M30.2,45.3v3.1h2.2V49h-2.2v6c0,0.5,0.1,1,0.2,1.2c0.2,0.2,0.4,0.3,0.7,0.3c0.2,0,0.4-0.1,0.7-0.2
			c0.2-0.1,0.3-0.3,0.4-0.7h0.4c-0.2,0.7-0.5,1.2-1,1.5c-0.4,0.3-0.9,0.5-1.3,0.5c-0.3,0-0.7-0.1-0.9-0.2c-0.3-0.2-0.5-0.4-0.7-0.8
			c-0.1-0.3-0.2-0.8-0.2-1.4V49h-1.4v-0.3c0.3-0.1,0.8-0.4,1.1-0.8c0.4-0.3,0.8-0.8,1-1.2c0.1-0.2,0.3-0.8,0.7-1.4L30.2,45.3
			C30.2,45.3,30.2,45.3,30.2,45.3z"/>
		<path class="st0" d="M32.2,48.3H36v0.3c-0.3,0-0.5,0.1-0.7,0.2c-0.1,0.1-0.2,0.2-0.2,0.4s0.1,0.4,0.2,0.8l2,5.4l2-4.3l-0.5-1.3
			c-0.1-0.4-0.3-0.7-0.7-0.9c-0.1-0.1-0.4-0.1-0.9-0.2v-0.3h4.4v0.3c-0.4,0-0.9,0.1-1,0.2c-0.1,0.1-0.2,0.3-0.2,0.5
			c0,0.1,0,0.2,0.1,0.4l2.1,5.2l2-5.1c0.1-0.3,0.2-0.7,0.2-0.9c0-0.1-0.1-0.2-0.2-0.3c-0.1-0.1-0.4-0.1-0.8-0.2v-0.3h2.9v0.3
			c-0.5,0.1-1,0.4-1.3,1.2l-3.1,8H42L39.7,52L37,57.9h-0.3l-2.9-7.8c-0.2-0.4-0.4-0.8-0.5-1c-0.2-0.2-0.4-0.3-0.9-0.4v-0.4H32.2z"/>
		<path class="st0" d="M52.3,56.2c-1,0.8-1.5,1.2-1.7,1.3c-0.3,0.2-0.8,0.2-1.2,0.2c-0.7,0-1.2-0.2-1.5-0.7c-0.4-0.4-0.7-1-0.7-1.7
			c0-0.4,0.1-0.9,0.3-1.2c0.3-0.4,0.8-0.9,1.4-1.3c0.7-0.4,1.9-0.9,3.4-1.4v-0.3c0-0.9-0.1-1.5-0.4-1.9c-0.3-0.3-0.8-0.5-1.3-0.5
			c-0.4,0-0.8,0.1-1,0.3s-0.3,0.4-0.3,0.8v0.5c0,0.3-0.1,0.5-0.2,0.8c-0.1,0.2-0.3,0.2-0.7,0.2c-0.2,0-0.4-0.1-0.7-0.2
			c-0.1-0.2-0.2-0.4-0.2-0.8c0-0.5,0.3-1.1,0.9-1.6c0.5-0.4,1.4-0.8,2.5-0.8c0.8,0,1.5,0.1,2,0.4c0.4,0.2,0.7,0.5,0.9,1
			c0.1,0.3,0.2,0.9,0.2,1.7v3.3c0,0.9,0,1.4,0,1.6c0,0.2,0.1,0.3,0.2,0.4c0.1,0.1,0.2,0.1,0.2,0.1c0.1,0,0.2,0,0.3-0.1
			s0.4-0.3,0.8-0.8V56c-0.8,1-1.4,1.5-2.2,1.5c-0.3,0-0.5-0.1-0.8-0.3C52.4,57.2,52.3,56.8,52.3,56.2z M52.3,55.6v-3.5
			c-1,0.4-1.6,0.7-2,0.9c-0.5,0.3-0.9,0.7-1.1,0.9c-0.2,0.3-0.3,0.7-0.3,1.1c0,0.4,0.1,0.9,0.4,1.2c0.3,0.3,0.7,0.4,1,0.4
			C50.8,56.5,51.5,56.2,52.3,55.6z"/>
		<path class="st0" d="M58.4,48.1v2.1c0.8-1.4,1.5-2.1,2.4-2.1c0.3,0,0.7,0.1,0.9,0.3s0.3,0.4,0.3,0.8c0,0.2-0.1,0.4-0.2,0.7
			c-0.2,0.2-0.3,0.2-0.7,0.2c-0.2,0-0.5-0.1-0.8-0.3s-0.5-0.3-0.7-0.3s-0.2,0.1-0.4,0.2c-0.3,0.3-0.7,0.8-1,1.3v4.4
			c0,0.5,0.1,0.9,0.2,1.2c0.1,0.2,0.2,0.3,0.4,0.4c0.2,0.1,0.5,0.2,1,0.2v0.3h-4.7v-0.3c0.4,0,0.8-0.1,1.1-0.2
			c0.2-0.1,0.3-0.3,0.3-0.5c0-0.1,0-0.4,0-1v-3.6c0-1.1,0-1.7-0.1-2c0-0.2-0.1-0.3-0.2-0.4c-0.1-0.1-0.2-0.1-0.4-0.1s-0.4,0-0.7,0.1
			L55,49.2l2.7-1.1h0.5v0H58.4z"/>
		<path class="st0" d="M63.6,51.8c0,1.4,0.3,2.4,1,3.2s1.4,1.2,2.4,1.2c0.7,0,1.1-0.2,1.5-0.5s0.8-0.9,1.1-1.7l0.3,0.2
			c-0.1,0.9-0.5,1.7-1.2,2.5s-1.5,1.1-2.5,1.1c-1.1,0-2.1-0.4-2.8-1.3c-0.8-0.9-1.2-2-1.2-3.5s0.4-2.8,1.2-3.7
			c0.8-0.9,1.9-1.3,3.1-1.3c1,0,1.9,0.3,2.5,1c0.7,0.7,1,1.6,1,2.7L63.6,51.8L63.6,51.8L63.6,51.8z M63.6,51.3h4.3
			c0-0.5-0.1-1-0.2-1.2c-0.2-0.3-0.4-0.7-0.8-0.9c-0.3-0.2-0.7-0.3-1.1-0.3c-0.5,0-1.1,0.2-1.5,0.7C63.9,49.9,63.7,50.4,63.6,51.3z"
			/>
		<path class="st0" d="M80.9,57.2v0.3h-5.8v-0.3h0.4c0.5,0,1-0.2,1.2-0.5c0.1-0.2,0.2-0.8,0.2-1.5v-8.8c0-0.7,0-1.1-0.1-1.4
			c-0.1-0.2-0.2-0.3-0.4-0.4c-0.3-0.1-0.7-0.2-0.9-0.2h-0.4v-0.3h5.8v0.3h-0.5c-0.5,0-1,0.2-1.2,0.5C79,45,79,45.5,79,46.3v8.8
			c0,0.7,0,1.1,0.1,1.4c0.1,0.2,0.2,0.3,0.4,0.4c0.3,0.1,0.5,0.2,0.9,0.2L80.9,57.2L80.9,57.2z"/>
		<path class="st0" d="M84.3,50c1.1-1.3,2.1-2,3.1-2c0.5,0,1,0.1,1.3,0.3s0.7,0.7,0.9,1.2c0.1,0.4,0.2,1,0.2,1.9v4
			c0,0.5,0,1,0.1,1.2s0.2,0.3,0.3,0.4c0.2,0.1,0.4,0.1,0.9,0.1v0.3h-4.6v-0.3h0.2c0.4,0,0.8-0.1,0.9-0.2c0.2-0.1,0.3-0.3,0.3-0.5
			c0-0.1,0-0.4,0-1v-3.7c0-0.9-0.1-1.4-0.3-1.9c-0.2-0.3-0.5-0.5-1.1-0.5c-0.8,0-1.6,0.4-2.4,1.3v4.8c0,0.7,0,1,0.1,1.2
			s0.2,0.3,0.4,0.4c0.2,0.1,0.5,0.1,1,0.1v0.3H81v-0.3h0.2c0.4,0,0.8-0.1,1-0.3s0.2-0.7,0.2-1.3v-3.4c0-1.1,0-1.7-0.1-2
			c0-0.2-0.1-0.4-0.2-0.5s-0.2-0.1-0.4-0.1c-0.2,0-0.4,0-0.7,0.1v-0.4l2.7-1.1h0.5L84.3,50L84.3,50z"/>
		<path class="st0" d="M94.1,45.3v3.1h2.2V49h-2.2v6c0,0.5,0.1,1,0.2,1.2c0.2,0.2,0.4,0.3,0.7,0.3c0.2,0,0.4-0.1,0.7-0.2
			c0.2-0.1,0.3-0.3,0.4-0.7h0.4c-0.2,0.7-0.5,1.2-1,1.5c-0.4,0.3-0.9,0.5-1.3,0.5c-0.3,0-0.7-0.1-0.9-0.2c-0.3-0.2-0.5-0.4-0.7-0.8
			s-0.2-0.8-0.2-1.4V49H91v-0.3c0.3-0.1,0.8-0.4,1.1-0.8c0.4-0.3,0.8-0.8,1-1.2c0.1-0.2,0.3-0.8,0.7-1.4L94.1,45.3L94.1,45.3z"/>
		<path class="st0" d="M98.1,51.8c0,1.4,0.3,2.4,1,3.2s1.4,1.2,2.4,1.2c0.7,0,1.1-0.2,1.5-0.5s0.8-0.9,1.1-1.7l0.3,0.2
			c-0.1,0.9-0.5,1.7-1.2,2.5s-1.5,1.1-2.5,1.1c-1.1,0-2.1-0.4-2.8-1.3s-1.2-2-1.2-3.5s0.4-2.8,1.2-3.7c0.8-0.9,1.9-1.3,3.1-1.3
			c1,0,1.9,0.3,2.5,1c0.7,0.7,1,1.6,1,2.7L98.1,51.8L98.1,51.8L98.1,51.8z M98.1,51.3h4.3c0-0.5-0.1-1-0.2-1.2
			c-0.2-0.3-0.4-0.7-0.8-0.9c-0.3-0.2-0.7-0.3-1.1-0.3c-0.5,0-1.1,0.2-1.5,0.7C98.4,49.9,98.2,50.4,98.1,51.3z"/>
		<path class="st0" d="M107.7,54.2c-0.5-0.3-1-0.7-1.3-1.2s-0.4-1-0.4-1.6c0-0.9,0.3-1.7,1-2.4s1.5-1,2.6-1c0.9,0,1.6,0.2,2.3,0.7h2
			c0.3,0,0.4,0,0.5,0s0.1,0,0.1,0.1s0.1,0.2,0.1,0.3c0,0.2,0,0.3,0,0.3l-0.1,0.1c0,0-0.2,0-0.5,0h-1.2c0.3,0.4,0.5,1.1,0.5,1.9
			c0,0.9-0.3,1.6-1,2.2c-0.7,0.7-1.5,0.9-2.6,0.9c-0.4,0-0.9-0.1-1.4-0.2c-0.3,0.2-0.5,0.4-0.5,0.7c-0.1,0.2-0.1,0.3-0.1,0.4
			s0.1,0.2,0.2,0.3s0.3,0.2,0.7,0.2c0.2,0,0.7,0,1.4,0.1c1.4,0,2.3,0.1,2.7,0.1c0.7,0.1,1.1,0.3,1.5,0.7c0.3,0.3,0.5,0.9,0.5,1.4
			c0,0.8-0.3,1.4-1.1,2.1c-1.1,1-2.4,1.4-4,1.4c-1.3,0-2.4-0.3-3.3-0.9c-0.5-0.3-0.8-0.7-0.8-1.1c0-0.1,0-0.3,0.1-0.4
			c0.1-0.2,0.3-0.5,0.7-1c0-0.1,0.4-0.4,1-1.1c-0.3-0.2-0.5-0.4-0.8-0.5c-0.1-0.2-0.2-0.3-0.2-0.5s0.1-0.5,0.3-0.9
			C106.5,55.2,106.9,54.8,107.7,54.2z M107.6,57.5c-0.3,0.3-0.5,0.7-0.8,1c-0.1,0.3-0.2,0.5-0.2,0.8s0.2,0.7,0.5,0.9
			c0.7,0.4,1.6,0.7,2.9,0.7c1.2,0,2.1-0.2,2.6-0.7c0.5-0.4,0.9-0.9,0.9-1.3c0-0.3-0.2-0.5-0.5-0.8c-0.3-0.1-1.1-0.2-2.1-0.2
			C109.6,57.7,108.4,57.6,107.6,57.5z M109.5,48.6c-0.5,0-0.9,0.2-1.2,0.5c-0.3,0.4-0.5,1-0.5,1.9c0,1.1,0.2,1.9,0.7,2.5
			c0.3,0.4,0.8,0.7,1.3,0.7s0.9-0.2,1.2-0.5c0.3-0.3,0.5-1,0.5-1.7c0-1.1-0.2-1.9-0.7-2.5C110.4,48.8,110,48.6,109.5,48.6z"/>
		<path class="st0" d="M117.6,48.1v2.1c0.8-1.4,1.5-2.1,2.4-2.1c0.3,0,0.7,0.1,0.9,0.3c0.2,0.2,0.3,0.4,0.3,0.8
			c0,0.2-0.1,0.4-0.2,0.7c-0.2,0.2-0.3,0.2-0.7,0.2c-0.2,0-0.5-0.1-0.8-0.3s-0.5-0.3-0.7-0.3s-0.2,0.1-0.4,0.2
			c-0.3,0.3-0.7,0.8-1,1.3v4.4c0,0.5,0.1,0.9,0.2,1.2c0.1,0.2,0.2,0.3,0.4,0.4c0.2,0.1,0.5,0.2,1,0.2v0.3h-4.7v-0.3
			c0.4,0,0.8-0.1,1.1-0.2c0.2-0.1,0.3-0.3,0.3-0.5c0-0.1,0-0.4,0-1v-3.6c0-1.1,0-1.7-0.1-2c0-0.2-0.1-0.3-0.2-0.4s-0.2-0.1-0.4-0.1
			s-0.4,0-0.7,0.1l-0.1-0.3l2.7-1.1h0.5v0H117.6z"/>
		<path class="st0" d="M126.5,56.2c-1,0.8-1.5,1.2-1.7,1.3c-0.3,0.2-0.8,0.2-1.2,0.2c-0.7,0-1.2-0.2-1.5-0.7c-0.4-0.4-0.7-1-0.7-1.7
			c0-0.4,0.1-0.9,0.3-1.2c0.3-0.4,0.8-0.9,1.4-1.3c0.7-0.4,1.9-0.9,3.4-1.4v-0.3c0-0.9-0.1-1.5-0.4-1.9c-0.3-0.3-0.8-0.5-1.3-0.5
			c-0.4,0-0.8,0.1-1,0.3s-0.3,0.4-0.3,0.8v0.5c0,0.3-0.1,0.5-0.2,0.8c-0.1,0.2-0.3,0.2-0.7,0.2c-0.2,0-0.4-0.1-0.7-0.2
			c-0.1-0.2-0.2-0.4-0.2-0.8c0-0.5,0.3-1.1,0.9-1.6c0.5-0.4,1.4-0.8,2.5-0.8c0.8,0,1.5,0.1,2,0.4c0.4,0.2,0.7,0.5,0.9,1
			c0.1,0.3,0.2,0.9,0.2,1.7v3.3c0,0.9,0,1.4,0,1.6c0,0.2,0.1,0.3,0.2,0.4c0.1,0.1,0.2,0.1,0.2,0.1c0.1,0,0.2,0,0.3-0.1
			s0.4-0.3,0.8-0.8V56c-0.8,1-1.4,1.5-2.2,1.5c-0.3,0-0.5-0.1-0.8-0.3C126.6,57.2,126.5,56.8,126.5,56.2z M126.5,55.6v-3.5
			c-1,0.4-1.6,0.7-2,0.9c-0.5,0.3-0.9,0.7-1.1,0.9c-0.2,0.3-0.3,0.7-0.3,1.1c0,0.4,0.1,0.9,0.4,1.2s0.7,0.4,1,0.4
			C125.1,56.5,125.7,56.2,126.5,55.6z"/>
		<path class="st0" d="M133,43.3v12.1c0,0.5,0,1,0.1,1.1c0.1,0.2,0.2,0.3,0.4,0.4c0.2,0.1,0.5,0.1,1,0.1v0.3H130V57
			c0.4,0,0.7,0,0.9-0.1c0.1-0.1,0.3-0.2,0.3-0.4c0.1-0.2,0.1-0.5,0.1-1.2v-8.4c0-1.1,0-1.6-0.1-2c0-0.2-0.1-0.4-0.2-0.4
			c-0.1-0.1-0.2-0.1-0.4-0.1s-0.4,0-0.7,0.1l-0.2-0.3l2.7-1.1h0.5L133,43.3L133,43.3z"/>
		<path class="st0" d="M146.3,56.5c-0.4,0.4-0.9,0.8-1.3,1c-0.4,0.2-0.9,0.3-1.4,0.3c-1,0-1.9-0.4-2.6-1.3s-1.1-2-1.1-3.3
			s0.4-2.5,1.2-3.6c0.9-1.1,1.9-1.6,3.2-1.6c0.8,0,1.5,0.2,2,0.8V47c0-1.1,0-1.7-0.1-2c0-0.2-0.1-0.4-0.2-0.5
			c-0.1-0.1-0.2-0.1-0.4-0.1s-0.4,0-0.7,0.1l-0.1-0.3l2.7-1.1h0.4v10.6c0,1.1,0,1.7,0.1,2c0,0.2,0.1,0.4,0.2,0.5
			c0.1,0.1,0.2,0.1,0.4,0.1s0.4-0.1,0.8-0.2l0.1,0.3l-2.7,1.1h-0.4L146.3,56.5L146.3,56.5z M146.3,55.8v-4.7c0-0.4-0.1-0.9-0.3-1.2
			s-0.4-0.7-0.8-0.9c-0.3-0.2-0.7-0.3-1-0.3c-0.5,0-1.1,0.2-1.5,0.8c-0.7,0.7-0.9,1.7-0.9,3.1s0.3,2.4,0.9,3.1
			c0.5,0.7,1.2,1.1,2,1.1C145.1,56.8,145.7,56.4,146.3,55.8z"/>
		<path class="st0" d="M151.1,51.8c0,1.4,0.3,2.4,1,3.2s1.4,1.2,2.4,1.2c0.7,0,1.1-0.2,1.5-0.5s0.8-0.9,1.1-1.7l0.3,0.2
			c-0.1,0.9-0.5,1.7-1.2,2.5s-1.5,1.1-2.5,1.1c-1.1,0-2.1-0.4-2.8-1.3c-0.8-0.9-1.2-2-1.2-3.5s0.4-2.8,1.2-3.7s1.9-1.3,3.1-1.3
			c1,0,1.9,0.3,2.5,1c0.7,0.7,1,1.6,1,2.7h-6.3v0.1H151.1z M151.1,51.3h4.3c0-0.5-0.1-1-0.2-1.2c-0.2-0.3-0.4-0.7-0.8-0.9
			c-0.3-0.2-0.7-0.3-1.1-0.3c-0.5,0-1.1,0.2-1.5,0.7C151.4,49.9,151.2,50.4,151.1,51.3z"/>
		<path class="st0" d="M174.8,43.7l0.3,4.3h-0.3c-0.3-1.1-0.8-1.9-1.4-2.4c-0.8-0.8-1.9-1.2-3.2-1.2c-1.7,0-3.1,0.7-3.9,2.1
			c-0.8,1.2-1.1,2.5-1.1,4.2c0,1.3,0.2,2.5,0.8,3.6c0.5,1.1,1.2,1.9,2,2.4s1.6,0.8,2.5,0.8c0.5,0,1-0.1,1.4-0.2
			c0.4-0.1,0.9-0.3,1.3-0.5v-3.9c0-0.7,0-1.1-0.1-1.3s-0.2-0.3-0.4-0.4c-0.2-0.1-0.7-0.2-1.2-0.2v-0.3h5.2V51h-0.2
			c-0.5,0-0.9,0.2-1.1,0.5c-0.1,0.2-0.2,0.8-0.2,1.4v4.2c-0.8,0.4-1.5,0.8-2.3,0.9c-0.8,0.2-1.6,0.3-2.5,0.3c-2.6,0-4.6-0.9-6-2.5
			c-1-1.3-1.5-2.7-1.5-4.4c0-1.2,0.3-2.3,0.9-3.5c0.7-1.3,1.6-2.3,2.8-3.1c1-0.5,2.2-0.9,3.5-0.9c0.5,0,1,0,1.3,0.1
			c0.4,0.1,1,0.2,1.7,0.5c0.3,0.1,0.7,0.2,0.8,0.2s0.2-0.1,0.3-0.2s0.1-0.3,0.2-0.7L174.8,43.7L174.8,43.7z"/>
		<path class="st0" d="M178.7,51.8c0,1.4,0.3,2.4,1,3.2s1.4,1.2,2.4,1.2c0.7,0,1.1-0.2,1.5-0.5s0.8-0.9,1.1-1.7l0.3,0.2
			c-0.1,0.9-0.5,1.7-1.2,2.5s-1.5,1.1-2.5,1.1c-1.1,0-2.1-0.4-2.8-1.3s-1.2-2-1.2-3.5s0.4-2.8,1.2-3.7s1.9-1.3,3.1-1.3
			c1,0,1.9,0.3,2.5,1c0.7,0.7,1,1.6,1,2.7h-6.3v0.1H178.7z M178.7,51.3h4.3c0-0.5-0.1-1-0.2-1.2c-0.2-0.3-0.4-0.7-0.8-0.9
			c-0.3-0.2-0.7-0.3-1.1-0.3c-0.5,0-1.1,0.2-1.5,0.7C179,49.9,178.7,50.4,178.7,51.3z"/>
		<path class="st0" d="M191.7,48.1v3.2h-0.3c-0.2-1-0.5-1.6-1-2c-0.4-0.3-0.9-0.5-1.5-0.5c-0.4,0-0.9,0.1-1.1,0.3
			c-0.3,0.2-0.4,0.5-0.4,0.9s0.1,0.7,0.3,1s0.7,0.5,1.3,0.9l1.4,0.8c1.3,0.7,2.1,1.5,2.1,2.6c0,0.9-0.3,1.5-1,2.1
			c-0.7,0.5-1.3,0.8-2.1,0.8c-0.5,0-1.2-0.1-2-0.3c-0.2-0.1-0.4-0.1-0.5-0.1s-0.3,0.1-0.3,0.2h-0.3v-3.3h0.3c0.2,1,0.5,1.6,1.1,2.1
			c0.5,0.4,1.1,0.8,1.7,0.8c0.4,0,0.9-0.1,1.1-0.4c0.3-0.2,0.4-0.5,0.4-1c0-0.4-0.1-0.9-0.4-1.2c-0.3-0.3-1-0.8-2-1.2
			s-1.6-0.9-1.9-1.3c-0.3-0.3-0.4-0.9-0.4-1.4c0-0.8,0.2-1.4,0.8-1.9c0.5-0.5,1.2-0.8,2-0.8c0.3,0,0.8,0.1,1.3,0.2
			c0.3,0.1,0.5,0.1,0.7,0.1s0.2,0,0.2-0.1c0.1,0,0.1-0.1,0.2-0.3L191.7,48.1L191.7,48.1z"/>
		<path class="st0" d="M195.8,45.3v3.1h2.2V49h-2.2v6c0,0.5,0.1,1,0.2,1.2c0.2,0.2,0.4,0.3,0.7,0.3c0.2,0,0.4-0.1,0.7-0.2
			c0.2-0.1,0.3-0.3,0.4-0.7h0.4c-0.2,0.7-0.5,1.2-1,1.5c-0.4,0.3-0.9,0.5-1.3,0.5c-0.3,0-0.7-0.1-0.9-0.2c-0.3-0.2-0.5-0.4-0.7-0.8
			s-0.2-0.8-0.2-1.4V49h-1.4v-0.3c0.3-0.1,0.8-0.4,1.1-0.8c0.4-0.3,0.8-0.8,1-1.2c0.1-0.2,0.3-0.8,0.7-1.4L195.8,45.3L195.8,45.3z"
			/>
		<path class="st0" d="M201.6,48.1v7.3c0,0.5,0,1,0.1,1.2s0.2,0.3,0.3,0.4c0.1,0.1,0.4,0.1,0.9,0.1v0.3h-4.5v-0.3
			c0.4,0,0.8,0,0.9-0.1c0.1-0.1,0.3-0.2,0.3-0.4c0.1-0.2,0.1-0.5,0.1-1.2V52c0-1,0-1.6-0.1-2c0-0.2-0.1-0.3-0.2-0.4
			c-0.1-0.1-0.2-0.1-0.4-0.1s-0.4,0-0.7,0.1l-0.1-0.3l2.7-1.1h0.7V48.1z M200.8,43.3c0.3,0,0.5,0.1,0.8,0.3c0.2,0.2,0.3,0.4,0.3,0.8
			s-0.1,0.5-0.3,0.8s-0.4,0.3-0.8,0.3s-0.5-0.1-0.8-0.3c-0.2-0.2-0.3-0.4-0.3-0.8s0.1-0.5,0.3-0.8C200.2,43.4,200.4,43.3,200.8,43.3
			z"/>
		<path class="st0" d="M208.1,48.1c1.4,0,2.5,0.5,3.4,1.6c0.8,0.9,1.1,2,1.1,3.2c0,0.9-0.2,1.6-0.5,2.5c-0.4,0.9-1,1.5-1.6,1.9
			c-0.7,0.4-1.4,0.7-2.3,0.7c-1.4,0-2.5-0.5-3.3-1.6c-0.7-1-1-2-1-3.2c0-0.9,0.2-1.6,0.7-2.5c0.4-0.9,1-1.4,1.6-1.9
			C206.7,48.2,207.3,48.1,208.1,48.1z M207.9,48.8c-0.3,0-0.8,0.1-1.1,0.3s-0.7,0.5-0.9,1.1c-0.2,0.5-0.3,1.2-0.3,2.1
			c0,1.3,0.2,2.5,0.8,3.5c0.5,1,1.2,1.4,2.1,1.4c0.7,0,1.2-0.2,1.6-0.8c0.4-0.5,0.7-1.4,0.7-2.7c0-1.6-0.3-2.9-1.1-3.8
			C209.2,49.1,208.5,48.8,207.9,48.8z M210.3,43.7l-2.9,3.5H207l1.1-3.5H210.3z"/>
		<path class="st0" d="M216,50c1.1-1.3,2.1-2,3.1-2c0.5,0,1,0.1,1.3,0.3s0.7,0.7,0.9,1.2c0.1,0.4,0.2,1,0.2,1.9v4c0,0.5,0,1,0.1,1.2
			s0.2,0.3,0.3,0.4c0.1,0.1,0.4,0.1,0.9,0.1v0.3h-4.6v-0.3h0.2c0.4,0,0.8-0.1,0.9-0.2c0.2-0.1,0.3-0.3,0.3-0.5c0-0.1,0-0.4,0-1v-3.7
			c0-0.9-0.1-1.4-0.3-1.9c-0.2-0.3-0.5-0.5-1.1-0.5c-0.8,0-1.6,0.4-2.4,1.3v4.8c0,0.7,0,1,0.1,1.2s0.2,0.3,0.4,0.4
			c0.1,0.1,0.5,0.1,1,0.1v0.3h-4.6v-0.3h0.2c0.4,0,0.8-0.1,1-0.3c0.1-0.2,0.2-0.7,0.2-1.3v-3.4c0-1.1,0-1.7-0.1-2
			c0-0.2-0.1-0.4-0.2-0.5c-0.1-0.1-0.2-0.1-0.4-0.1s-0.4,0-0.7,0.1l-0.1-0.3l2.7-1.1h0.4V50H216z"/>
		<path class="st0" d="M231.4,44.6V50h2.9c0.8,0,1.3-0.1,1.5-0.3c0.3-0.3,0.5-0.9,0.5-1.6h0.3v4.7h-0.3c-0.1-0.7-0.2-1.1-0.3-1.3
			s-0.3-0.4-0.5-0.5c-0.3-0.1-0.7-0.2-1.3-0.2h-2.9v4.5c0,0.7,0,1,0.1,1.1c0,0.1,0.1,0.2,0.3,0.3c0.1,0.1,0.4,0.1,0.8,0.1h2.3
			c0.8,0,1.3,0,1.6-0.1s0.7-0.3,1-0.7c0.4-0.4,0.9-1.1,1.3-1.9h0.4l-1.2,3.4h-10.5v-0.3h0.4c0.3,0,0.7-0.1,0.9-0.2s0.3-0.2,0.4-0.4
			c0.1-0.2,0.1-0.7,0.1-1.3v-8.8c0-0.9-0.1-1.4-0.2-1.6c-0.2-0.2-0.7-0.4-1.2-0.4h-0.4v-0.3H238l0.1,2.9h-0.4
			c-0.1-0.8-0.3-1.2-0.4-1.5c-0.2-0.2-0.4-0.4-0.8-0.7c-0.2-0.1-0.8-0.1-1.4-0.1h-3.6v-0.2H231.4z"/>
		<path class="st0" d="M242.6,50.1c0.7-0.7,1.1-1.1,1.2-1.2c0.3-0.2,0.7-0.4,1-0.5s0.7-0.2,1-0.2c0.5,0,1.1,0.2,1.5,0.5
			s0.7,0.9,0.9,1.4c0.7-0.8,1.3-1.3,1.7-1.5s1-0.3,1.4-0.3s0.9,0.1,1.3,0.3c0.3,0.2,0.7,0.7,0.9,1.2c0.1,0.4,0.2,1,0.2,1.9v3.8
			c0,0.5,0,1,0.1,1.2c0.1,0.1,0.2,0.2,0.3,0.3c0.2,0.1,0.4,0.1,0.9,0.1v0.3h-4.6v-0.3h0.2c0.4,0,0.7-0.1,0.9-0.2
			c0.1-0.1,0.2-0.3,0.3-0.5c0-0.1,0-0.4,0-1v-3.9c0-0.8-0.1-1.3-0.2-1.6c-0.2-0.4-0.7-0.7-1.2-0.7c-0.3,0-0.8,0.1-1.1,0.2
			c-0.3,0.2-0.8,0.5-1.3,1v0.1v0.4v4.4c0,0.7,0,1,0.1,1.2c0.1,0.1,0.2,0.3,0.4,0.4c0.2,0.1,0.5,0.1,1,0.1v0.3h-4.7V57
			c0.5,0,0.9-0.1,1.1-0.2c0.2-0.1,0.3-0.3,0.4-0.5c0-0.1,0-0.4,0-1v-3.9c0-0.8-0.1-1.3-0.3-1.6c-0.3-0.4-0.7-0.7-1.2-0.7
			c-0.3,0-0.8,0.1-1.1,0.3c-0.5,0.3-1,0.7-1.3,1v5.1c0,0.7,0,1,0.1,1.2s0.2,0.3,0.3,0.4c0.2,0.1,0.5,0.1,1,0.1v0.3h-4.6v-0.3
			c0.4,0,0.8,0,0.9-0.1c0.2-0.1,0.3-0.2,0.3-0.4c0.1-0.2,0.1-0.5,0.1-1.2V52c0-1,0-1.6-0.1-2c0-0.2-0.1-0.3-0.2-0.4
			c-0.1-0.1-0.2-0.1-0.4-0.1s-0.4,0-0.7,0.1l-0.1-0.3l2.7-1.1h0.4v2h0.5V50.1z"/>
		<path class="st0" d="M254.7,49.2l2.8-1.1h0.3v2.2c0.4-0.8,1-1.4,1.4-1.7s1-0.4,1.5-0.4c0.9,0,1.7,0.3,2.3,1.1
			c0.8,0.9,1.1,2.1,1.1,3.5c0,1.6-0.4,2.9-1.4,3.9c-0.8,0.9-1.7,1.3-2.8,1.3c-0.5,0-0.9-0.1-1.3-0.2c-0.2-0.1-0.5-0.3-0.9-0.7v2.7
			c0,0.7,0,1,0.1,1.2s0.2,0.3,0.4,0.4c0.2,0.1,0.5,0.1,1.1,0.1V62h-4.8v-0.3h0.2c0.3,0,0.7-0.1,1-0.2c0.1-0.1,0.2-0.2,0.3-0.3
			c0.1-0.2,0.1-0.5,0.1-1.2v-8.7c0-0.5,0-1-0.1-1.1c0-0.1-0.1-0.3-0.2-0.3c-0.1-0.1-0.3-0.1-0.4-0.1s-0.3,0-0.7,0.1V49.2z
			 M257.9,50.9v3.5c0,0.8,0,1.2,0.1,1.4c0.1,0.4,0.3,0.8,0.7,1c0.3,0.3,0.9,0.4,1.4,0.4c0.7,0,1.2-0.2,1.6-0.8
			c0.5-0.7,0.8-1.6,0.8-2.8c0-1.4-0.3-2.5-0.9-3.3c-0.4-0.5-1-0.8-1.5-0.8c-0.3,0-0.7,0.1-1,0.2C258.9,49.9,258.4,50.3,257.9,50.9z"
			/>
		<path class="st0" d="M267.8,48.1v2.1c0.8-1.4,1.5-2.1,2.4-2.1c0.3,0,0.7,0.1,0.9,0.3c0.2,0.2,0.3,0.4,0.3,0.8
			c0,0.2-0.1,0.4-0.2,0.7c-0.2,0.2-0.3,0.2-0.7,0.2c-0.2,0-0.5-0.1-0.8-0.3s-0.5-0.3-0.7-0.3s-0.2,0.1-0.4,0.2
			c-0.3,0.3-0.7,0.8-1,1.3v4.4c0,0.5,0.1,0.9,0.2,1.2c0.1,0.2,0.2,0.3,0.4,0.4c0.2,0.1,0.5,0.2,1,0.2v0.3h-4.7v-0.3
			c0.4,0,0.8-0.1,1.1-0.2c0.2-0.1,0.3-0.3,0.3-0.5c0-0.1,0-0.4,0-1v-3.6c0-1.1,0-1.7-0.1-2c0-0.2-0.1-0.3-0.2-0.4s-0.2-0.1-0.4-0.1
			c-0.2,0-0.4,0-0.7,0.1l-0.1-0.3l2.7-1.1h0.5v0H267.8z"/>
		<path class="st0" d="M272.9,51.8c0,1.4,0.3,2.4,1,3.2s1.4,1.2,2.4,1.2c0.7,0,1.1-0.2,1.5-0.5s0.8-0.9,1.1-1.7l0.3,0.2
			c-0.1,0.9-0.5,1.7-1.2,2.5s-1.5,1.1-2.5,1.1c-1.1,0-2.1-0.4-2.8-1.3c-0.8-0.9-1.2-2-1.2-3.5s0.4-2.8,1.2-3.7
			c0.8-0.9,1.9-1.3,3.1-1.3c1,0,1.9,0.3,2.5,1c0.7,0.7,1,1.6,1,2.7H273v0.1H272.9z M272.9,51.3h4.3c0-0.5-0.1-1-0.2-1.2
			c-0.2-0.3-0.4-0.7-0.8-0.9c-0.3-0.2-0.7-0.3-1.1-0.3c-0.5,0-1.1,0.2-1.5,0.7C273.3,49.9,273.1,50.4,272.9,51.3z"/>
		<path class="st0" d="M286.1,48.1v3.2h-0.3c-0.2-1-0.5-1.6-1-2s-0.9-0.5-1.5-0.5c-0.4,0-0.9,0.1-1.1,0.3c-0.3,0.2-0.4,0.5-0.4,0.9
			s0.1,0.7,0.3,1c0.2,0.3,0.7,0.5,1.3,0.9l1.4,0.8c1.3,0.7,2.1,1.5,2.1,2.6c0,0.9-0.3,1.5-1,2.1c-0.7,0.5-1.3,0.8-2.1,0.8
			c-0.5,0-1.2-0.1-2-0.3c-0.2-0.1-0.4-0.1-0.5-0.1S281,57.9,281,58h-0.3v-3.3h0.3c0.2,1,0.5,1.6,1.1,2.1c0.5,0.4,1.1,0.8,1.7,0.8
			c0.4,0,0.9-0.1,1.1-0.4c0.3-0.2,0.4-0.5,0.4-1c0-0.4-0.1-0.9-0.4-1.2s-1-0.8-2-1.2s-1.6-0.9-1.9-1.3c-0.3-0.3-0.4-0.9-0.4-1.4
			c0-0.8,0.2-1.4,0.8-1.9c0.5-0.5,1.2-0.8,2-0.8c0.3,0,0.8,0.1,1.3,0.2c0.3,0.1,0.5,0.1,0.7,0.1s0.2,0,0.2-0.1
			c0.1,0,0.1-0.1,0.2-0.3L286.1,48.1L286.1,48.1z"/>
		<path class="st0" d="M292.7,56.2c-1,0.8-1.5,1.2-1.7,1.3c-0.3,0.2-0.8,0.2-1.2,0.2c-0.7,0-1.2-0.2-1.5-0.7c-0.4-0.4-0.7-1-0.7-1.7
			c0-0.4,0.1-0.9,0.3-1.2c0.3-0.4,0.8-0.9,1.4-1.3c0.7-0.4,1.9-0.9,3.4-1.4v-0.3c0-0.9-0.1-1.5-0.4-1.9s-0.8-0.5-1.3-0.5
			c-0.4,0-0.8,0.1-1,0.3s-0.3,0.4-0.3,0.8v0.5c0,0.3-0.1,0.5-0.2,0.8c-0.1,0.2-0.3,0.2-0.7,0.2c-0.2,0-0.4-0.1-0.7-0.2
			c-0.1-0.2-0.2-0.4-0.2-0.8c0-0.5,0.3-1.1,0.9-1.6c0.5-0.4,1.4-0.8,2.5-0.8c0.8,0,1.5,0.1,2,0.4c0.4,0.2,0.7,0.5,0.9,1
			c0.1,0.3,0.2,0.9,0.2,1.7v3.3c0,0.9,0,1.4,0,1.6c0,0.2,0.1,0.3,0.2,0.4c0.1,0.1,0.2,0.1,0.2,0.1c0.1,0,0.2,0,0.3-0.1
			c0.1-0.1,0.4-0.3,0.8-0.8V56c-0.8,1-1.4,1.5-2.2,1.5c-0.3,0-0.5-0.1-0.8-0.3C292.8,57.2,292.7,56.8,292.7,56.2z M292.7,55.6v-3.5
			c-1,0.4-1.6,0.7-2,0.9c-0.5,0.3-0.9,0.7-1.1,0.9c-0.2,0.3-0.3,0.7-0.3,1.1c0,0.4,0.1,0.9,0.4,1.2s0.7,0.4,1,0.4
			C291.3,56.5,291.9,56.2,292.7,55.6z"/>
		<path class="st0" d="M298.8,48.1v2.1c0.8-1.4,1.5-2.1,2.4-2.1c0.3,0,0.7,0.1,0.9,0.3c0.2,0.2,0.3,0.4,0.3,0.8
			c0,0.2-0.1,0.4-0.2,0.7c-0.2,0.2-0.3,0.2-0.7,0.2c-0.2,0-0.5-0.1-0.8-0.3s-0.5-0.3-0.7-0.3s-0.2,0.1-0.4,0.2
			c-0.3,0.3-0.7,0.8-1,1.3v4.4c0,0.5,0.1,0.9,0.2,1.2c0.1,0.2,0.2,0.3,0.4,0.4c0.2,0.1,0.5,0.2,1,0.2v0.3h-4.7v-0.3
			c0.4,0,0.8-0.1,1.1-0.2c0.2-0.1,0.3-0.3,0.3-0.5c0-0.1,0-0.4,0-1v-3.6c0-1.1,0-1.7-0.1-2c0-0.2-0.1-0.3-0.2-0.4s-0.2-0.1-0.4-0.1
			c-0.2,0-0.4,0-0.7,0.1l-0.1-0.3l2.7-1.1h0.5v0H298.8z"/>
		<path class="st0" d="M305.7,48.1v7.3c0,0.5,0,1,0.1,1.2s0.2,0.3,0.3,0.4c0.1,0.1,0.4,0.1,0.9,0.1v0.3h-4.5v-0.3
			c0.4,0,0.8,0,0.9-0.1s0.3-0.2,0.3-0.4c0.1-0.2,0.1-0.5,0.1-1.2V52c0-1,0-1.6-0.1-2c0-0.2-0.1-0.3-0.2-0.4
			c-0.1-0.1-0.2-0.1-0.4-0.1c-0.2,0-0.4,0-0.7,0.1l-0.1-0.3l2.7-1.1h0.7V48.1z M304.8,43.3c0.3,0,0.5,0.1,0.8,0.3
			c0.2,0.2,0.3,0.4,0.3,0.8s-0.1,0.5-0.3,0.8c-0.2,0.2-0.4,0.3-0.8,0.3c-0.3,0-0.5-0.1-0.8-0.3c-0.2-0.2-0.3-0.4-0.3-0.8
			s0.1-0.5,0.3-0.8C304.3,43.3,304.5,43.3,304.8,43.3z"/>
		<path class="st0" d="M312.9,56.2c-1,0.8-1.5,1.2-1.7,1.3c-0.3,0.2-0.8,0.2-1.2,0.2c-0.7,0-1.2-0.2-1.5-0.7c-0.4-0.4-0.7-1-0.7-1.7
			c0-0.4,0.1-0.9,0.3-1.2c0.3-0.4,0.8-0.9,1.4-1.3c0.7-0.4,1.9-0.9,3.4-1.4v-0.3c0-0.9-0.1-1.5-0.4-1.9s-0.8-0.5-1.3-0.5
			c-0.4,0-0.8,0.1-1,0.3s-0.3,0.4-0.3,0.8v0.5c0,0.3-0.1,0.5-0.2,0.8c-0.1,0.2-0.3,0.2-0.7,0.2c-0.2,0-0.4-0.1-0.7-0.2
			c-0.1-0.2-0.2-0.4-0.2-0.8c0-0.5,0.3-1.1,0.9-1.6c0.5-0.4,1.4-0.8,2.5-0.8c0.8,0,1.5,0.1,2,0.4c0.4,0.2,0.7,0.5,0.9,1
			c0.1,0.3,0.2,0.9,0.2,1.7v3.3c0,0.9,0,1.4,0,1.6c0,0.2,0.1,0.3,0.2,0.4c0.1,0.1,0.2,0.1,0.2,0.1c0.1,0,0.2,0,0.3-0.1
			c0.1-0.1,0.4-0.3,0.8-0.8V56c-0.8,1-1.4,1.5-2.2,1.5c-0.3,0-0.5-0.1-0.8-0.3C313,57.2,312.9,56.8,312.9,56.2z M312.9,55.6v-3.5
			c-1,0.4-1.6,0.7-2,0.9c-0.5,0.3-0.9,0.7-1.1,0.9c-0.2,0.3-0.3,0.7-0.3,1.1c0,0.4,0.1,0.9,0.4,1.2s0.7,0.4,1,0.4
			C311.4,56.5,312,56.2,312.9,55.6z"/>
		<path class="st0" d="M319.5,43.3v12.1c0,0.5,0,1,0.1,1.1s0.2,0.3,0.4,0.4c0.2,0.1,0.5,0.1,1,0.1v0.3h-4.5V57c0.4,0,0.7,0,0.9-0.1
			c0.1-0.1,0.3-0.2,0.3-0.4c0.1-0.2,0.1-0.5,0.1-1.2v-8.4c0-1.1,0-1.6-0.1-2c0-0.2-0.1-0.4-0.2-0.4s-0.2-0.1-0.4-0.1
			c-0.2,0-0.4,0-0.7,0.1l-0.2-0.3l2.7-1.1h0.5v0.2H319.5z"/>
	</g>
	<g>
		<g>
			<g>
				<path class="st1" d="M15.8,0.1h0.3v2.1h-0.3c-2.2,0-2.5,0.1-3,0.2h-0.1c-0.5,0.1-0.8,0.2-0.9,0.4c-0.1,0.2-0.4,0.6-0.4,2.1
					l-0.1,6.6v10.9c0,6.2,0.1,6.2,0.1,6.2c0.1,1.9,0.3,2.4,0.4,2.5c0.2,0.2,0.5,0.4,1,0.5l0.1,0.1c0.4,0.1,0.7,0.2,3,0.2h0.3V34
					l-3.4-0.1l-4.2-0.1H0v-2.1h0.3c1.4,0,2.4-0.1,3-0.2s0.8-0.3,1-0.4c0.1-0.2,0.4-0.6,0.4-2.1l0.2-6.6V11.5c0-6.2-0.1-6.2-0.1-6.2
					C4.6,3.4,4.4,3,4.2,2.9C4,2.7,3.7,2.5,3.3,2.4C2.7,2.3,2,2.2,0.3,2.2H0V0.4V0.1l8,0.2l6.5-0.1L15.8,0.1z"/>
				<path class="st1" d="M25,0.4V0.1l3.3,0.1l2.2,0.1L35,0.1l0.1,0.1c3.9,3.7,3.8,3.7,3.8,3.7l6.3,5.9l9.2,8.3
					c7,6.3,7.1,6.3,7.1,6.3c1.7,1.4,2.4,1.9,2.4,1.9s0.2-1.1,0-16c-0.1-5.2-0.2-5.2-0.2-5.2c-0.1-1.6-0.3-2.1-0.4-2.2
					c-0.1-0.1-0.2-0.2-0.5-0.3c-0.6-0.2-1.3-0.3-2.8-0.3h-0.3V0.4l0.1-0.3L66,0.2l5.4-0.1v2.1h-0.3c-1.5,0-2.2,0.1-2.8,0.3
					c-0.2,0.1-0.4,0.2-0.5,0.4c-0.1,0.1-0.3,0.6-0.4,2.2l-0.2,5.1v11l0.1,12.7h-3.4h-0.1l-0.1-0.1c-1-1-1-0.9-1-0.9l-1.2-1
					c-3.9-3-3.7-3.3-3.7-3.3l-4-3.6c-19.6-18.6-21-18.9-21-18.9s-0.2,1.2,0,16.8c0.1,5.2,0.2,5.2,0.2,5.2c0.1,1.6,0.3,2,0.4,2.2
					c0.1,0.2,0.2,0.3,0.5,0.4C34.6,30.9,35,31,37,31h0.3v1.7V33L32,32.9L25.8,33h-0.5v-2h0.3c1.9,0,2.2-0.1,2.8-0.3
					c0.1-0.1,0.1-0.1,0.1-0.1c0.2-0.1,0.4-0.2,0.5-0.3c0.1-0.1,0.3-0.6,0.4-2.2l0.2-5.2V4.3c0-0.6-0.1-0.8-0.1-0.8
					c-0.1-0.1-0.3-0.4-1-0.8c-0.4-0.2-0.7-0.4-1.1-0.4L27,2.2L25,2V0.4z"/>
				<path class="st1" d="M80.2,2.1v-2c3.2,0.1,5.2,0.2,8.2,0.2c11.9,0,20-0.1,24.2-0.2l0.4,0.2c-0.4,2.5-0.6,4.4-0.8,6.8H110
					c0-1,0-3.3-0.6-3.7s-6-0.8-10.9-0.8c-2.7,0-5,0.2-6.2,0.2C92,7.1,92,11.1,92,15.3c0,0.7,0,1.8,0,2.9c-0.1,4.5,0,7.8,0.1,12.2
					c3.4,0,16.6,0,18-0.6c0.8-0.4,1.4-2.5,1.4-3.3h2.4c-0.2,2-0.3,4.5-0.4,7.1l-0.5,0.2c-8.5-0.2-18.3-0.2-25.8-0.2
					c-1.5,0-3.4,0.1-5.6,0.2v-1.7c2.1-0.7,2.8-1,2.9-1.3c0.2-0.5,0.4-2.6,0.4-16.2c0-11.2-0.2-11.5-0.9-12
					C83.5,2.3,82.6,2.1,80.2,2.1z"/>
				<path class="st1" d="M157.6,16.2c0,9.6-6.2,15.1-18.8,15.1c-2.4,0-3.9-0.1-5.9-0.4c-0.1-3.1-0.2-6.5-0.2-14.3
					c0-6.8,0.1-10.7,0.2-13.9c1.9-0.2,3.7-0.4,7.2-0.4C151.5,2.4,157.6,7.9,157.6,16.2z M120.8,2c2.4,0,3.3,0.1,3.9,0.5
					c0.7,0.5,0.9,0.8,0.9,12.1c0,13.7-0.2,15.9-0.5,16.3c-0.1,0.3-1.3,0.7-3.1,1.3v1.7c2.2-0.2,4.4-0.2,5.9-0.2
					c3.7,0,7.2,0.2,12.1,0.2c18.2,0,25.1-10,25.1-18.1c0-11.3-9.2-15.7-25.6-15.7c-3.9,0-7.1,0.2-10.4,0.2c-3.1,0-5.1,0-8.3-0.1
					L120.8,2L120.8,2z"/>
				<path class="st1" d="M186,0.1h0.3v2.1H186c-2.2,0-2.5,0.1-3,0.2h-0.1c-0.5,0.1-0.8,0.2-0.9,0.4c-0.1,0.2-0.4,0.6-0.4,2.1
					l-0.1,6.6v10.9c0,6.2,0.1,6.2,0.1,6.2c0.1,1.9,0.3,2.4,0.4,2.5c0.2,0.2,0.5,0.4,1,0.5l0.1,0.1c0.4,0.1,0.7,0.2,3,0.2h0.3V34
					l-3.4-0.1l-4.2-0.1l-8.5,0.2v-2.1h0.3c1.5,0,2.4-0.1,3-0.2s0.8-0.3,1-0.4c0.1-0.2,0.4-0.6,0.4-2.1l0.2-6.6V11.5
					c0-6.2-0.1-6.2-0.1-6.2c-0.1-2-0.3-2.4-0.4-2.5c-0.2-0.2-0.5-0.4-1-0.5s-1.3-0.2-3-0.2h-0.3V0.4V0.1l8,0.2l6.5-0.1L186,0.1z"/>
				<path class="st1" d="M230.4,0h0.4l-0.1,0.4c-0.2,1.8-0.4,3.4-0.5,6.8v0.3h-2.6c-0.2-2.2-0.2-2.2-0.2-2.2
					c-0.2-1.7-0.4-1.8-0.4-1.8c-0.1-0.2-0.2-0.2-0.2-0.2c-0.4-0.1-0.4-0.1-0.4-0.1l-3-0.2l-4.2-0.1c-3.1-0.1-3.6,0-3.6,0
					c-0.2,1.4-0.2,3.4-0.2,5.7v13.7c0,6.2,0.1,6.2,0.1,6.2c0.1,1.9,0.3,2.4,0.4,2.4c0.2,0.2,0.5,0.4,1,0.5s1.5,0.2,3.3,0.2h0.3v2.1
					l-2.9-0.1l-4.6-0.1h-2.3l-6.2,0.2v-2.1h0.3c2.1,0,2.3-0.1,2.7-0.2l0.2-0.1c0.6-0.1,0.9-0.3,1-0.4c0.1-0.2,0.4-0.6,0.4-2.1
					l0.1-6.6V8.7l-0.1-2.1c-0.1-3.2-0.2-3.7-0.2-3.7s-0.5,0-4.4,0c-2.7,0-4.8,0.1-6.3,0.2c-0.6,0.1-0.7,0.2-0.8,0.2
					c-0.2,0.2-0.3,0.4-0.5,1.9l-0.4,2.3H194V7.2c0-3.9-0.1-5.5-0.3-6.8V0l11,0.2l7.8,0.1l9.8-0.2L230.4,0z"/>
				<path class="st1" d="M273.4,0h0.4l-0.1,0.4c-0.2,1.8-0.4,3.4-0.5,6.8v0.3h-2.6c-0.2-2.2-0.2-2.2-0.2-2.2
					c-0.2-1.7-0.4-1.8-0.4-1.8c-0.1-0.2-0.2-0.2-0.2-0.2c-0.4-0.1-0.4-0.1-0.4-0.1l-3-0.2l-4.2-0.1c-3.1-0.1-3.6,0-3.6,0
					c-0.2,1.4-0.2,3.4-0.2,5.7v13.7c0,6.2,0.1,6.2,0.1,6.2c0.1,1.9,0.3,2.4,0.4,2.4c0.2,0.2,0.5,0.4,1,0.5s1.5,0.2,3.3,0.2h0.3v2.1
					l-2.9-0.1l-4.6-0.1h-2.3l-6.2,0.2v-2.1h0.3c2.1,0,2.3-0.1,2.7-0.2l0.2-0.1c0.6-0.1,0.8-0.3,1-0.4c0.1-0.2,0.4-0.6,0.4-2.1
					l0.1-6.6V8.7l-0.1-2.1c-0.1-3.2-0.2-3.7-0.2-3.7s-0.5,0-4.4,0c-2.7,0-4.8,0.1-6.3,0.2c-0.6,0.1-0.7,0.2-0.8,0.2
					c-0.2,0.2-0.3,0.4-0.5,1.9l-0.4,2.3H237V7.2c0-3.9-0.1-5.5-0.3-6.8V0l11,0.2l7.8,0.1l9.8-0.2L273.4,0z"/>
				<path class="st1" d="M317.2,17.7c0,7.5-4.8,13.4-14.9,13.4c-9.4,0-16.5-6-16.5-16.2c0-7.7,6.5-12.7,15.2-12.7
					C307.7,2.4,317.2,5.7,317.2,17.7z M278.5,16.7c0,7.8,5.2,17.1,22,17.1c14.1,0,24-7.9,24-17.7c0-11-10-16-22.4-16
					C288.8,0.1,278.5,6.3,278.5,16.7z"/>
			</g>
			<path class="st2" d="M95.4,16.7c0-3.1,2.5-5.7,5.7-5.7c3.1,0,5.7,2.5,5.7,5.7c0,3.1-2.5,5.7-5.7,5.7
				C97.9,22.3,95.4,19.8,95.4,16.7z"/>
		</g>
	</g>
	<g>
		<path class="st3" d="M339.4,10.2c-1.1,1.1-2.4,1.7-4,1.7s-2.9-0.6-4-1.7s-1.6-2.4-1.6-4s0.6-2.9,1.7-4s2.4-1.6,4-1.6
			s2.9,0.5,4,1.6s1.7,2.4,1.7,4C341.1,7.7,340.5,9.1,339.4,10.2z M332,2.7c-0.9,1-1.4,2.1-1.4,3.4c0,1.4,0.5,2.5,1.4,3.5
			s2.1,1.4,3.4,1.4c1.4,0,2.5-0.5,3.4-1.4c0.9-1,1.4-2.1,1.4-3.5c0-1.3-0.5-2.5-1.4-3.4c-1-1-2.1-1.4-3.4-1.4
			C334.1,1.3,332.9,1.7,332,2.7z M335.3,3c0.8,0,1.3,0.1,1.7,0.2c0.6,0.3,1,0.8,1,1.6c0,0.6-0.2,1-0.6,1.2c-0.2,0.1-0.5,0.2-0.9,0.3
			c0.5,0.1,0.8,0.3,1.1,0.6c0.2,0.3,0.3,0.6,0.3,1v0.5c0,0.1,0,0.3,0,0.5s0,0.3,0.1,0.3v0.1h-1c0,0,0,0,0-0.1c0,0,0,0,0-0.1V8.9V8.4
			c0-0.7-0.2-1.2-0.6-1.4c-0.2-0.1-0.6-0.2-1.2-0.2h-0.9v2.5h-1.1V3H335.3z M336.5,4c-0.3-0.2-0.7-0.2-1.3-0.2h-0.9V6h1
			c0.5,0,0.8,0,1-0.1c0.4-0.2,0.6-0.5,0.6-1C336.9,4.5,336.8,4.2,336.5,4z"/>
	</g>
</g>
</svg>
