<?xml version="1.0" encoding="utf-8"?>
<!-- Generator: Adobe Illustrator 22.1.0, SVG Export Plug-In . SVG Version: 6.00 Build 0)  -->
<svg version="1.1" id="Layer_1" focusable="false" xmlns="http://www.w3.org/2000/svg" xmlns:xlink="http://www.w3.org/1999/xlink"
	 x="0px" y="0px" viewBox="0 0 512 512" style="enable-background:new 0 0 512 512;" xml:space="preserve">
<style type="text/css">
	.st0{fill:#FFFFFF;}
</style>
<g>
	<path class="st0" d="M182.9,388h-46.6V157h46.6V388z"/>
	<path class="st0" d="M268.7,306.8V388H222V157h78.7c22.8,0,41.1,7.1,54.7,21.3c13.6,14.2,20.4,32.6,20.4,55.2
		c0,22.6-6.7,40.5-20.1,53.6c-13.4,13.1-32,19.7-55.8,19.7H268.7z M268.7,267.9h32c8.9,0,15.8-2.9,20.6-8.7
		c4.9-5.8,7.3-14.3,7.3-25.4c0-11.5-2.5-20.7-7.5-27.5c-5-6.8-11.6-10.3-20-10.4h-32.5V267.9z"/>
</g>
<path class="st0" d="M256,0C114.8,0,0,114.8,0,256c0,141.2,114.8,256,256,256c141.2,0,256-114.8,256-256C512,114.8,397.2,0,256,0z
	 M373.5,423.8c-34.3,24.1-75.5,37-117.7,37c-5.2,0-10.3-0.2-15.5-0.6c-48.6-3.7-94.5-24.8-129.2-59.4
	c-34.7-34.7-55.8-80.5-59.4-129.2c-3.6-47.4,9.4-94.6,36.4-133.1l5.8-8.3L381.8,418L373.5,423.8z M423.8,373.5l-5.8,8.3L130.2,94
	l8.3-5.8c38.5-27,85.8-40,133.1-36.4c48.6,3.7,94.5,24.8,129.2,59.4c34.7,34.7,55.8,80.5,59.4,129.2
	C463.8,287.7,450.9,335,423.8,373.5z"/>
</svg>
