<?xml version="1.0" encoding="utf-8"?>
<!-- Generator: Adobe Illustrator 25.0.0, SVG Export Plug-In . SVG Version: 6.00 Build 0)  -->
<svg version="1.1" id="Layer_5" xmlns="http://www.w3.org/2000/svg" xmlns:xlink="http://www.w3.org/1999/xlink" x="0px" y="0px"
	 viewBox="0 0 24 24" style="enable-background:new 0 0 24 24;" xml:space="preserve">
<style type="text/css">
	.st0{fill:#FFFFFF;}
</style>
<g>
	<path class="st0" d="M19.57,19.35c0,0.54-0.42,0.98-0.93,0.98H4.67c-0.51,0-0.93-0.44-0.93-0.98V4.65c0-0.54,0.42-0.98,0.93-0.98
		h5.99V2.5H4.67c-1.13,0-2.04,0.97-2.04,2.15v14.69c0,1.19,0.92,2.15,2.04,2.15h13.97c1.13,0,2.04-0.97,2.04-2.15v-5.23h-1.11V19.35
		z"/>
	<rect x="5.55" y="14.7" class="st0" width="12.17" height="1.53"/>
	<rect x="5.55" y="17.6" class="st0" width="12.17" height="1.53"/>
	<path class="st0" d="M16.5,12.99c3.1,0,5.61-2.52,5.61-5.61S19.6,1.77,16.5,1.77s-5.61,2.52-5.61,5.61S13.41,12.99,16.5,12.99z
		 M16.5,3.06c2.38,0,4.32,1.94,4.32,4.32s-1.94,4.32-4.32,4.32s-4.32-1.94-4.32-4.32S14.12,3.06,16.5,3.06z"/>
	<path class="st0" d="M5.55,11.73v1.53h6.59c-0.38-0.47-0.69-0.98-0.95-1.53H5.55z"/>
	<path class="st0" d="M16.12,10.28v0.73h0.76v-0.73c0.37-0.07,0.66-0.23,0.86-0.49c0.22-0.28,0.34-0.64,0.34-1.07
		c0-0.42-0.11-0.77-0.32-1.04c-0.21-0.27-0.55-0.49-1.01-0.66c-0.28-0.12-0.48-0.25-0.6-0.38C16.05,6.51,16,6.34,16,6.13
		c0-0.24,0.05-0.43,0.15-0.56c0.1-0.12,0.23-0.18,0.41-0.18c0.17,0,0.31,0.08,0.41,0.25c0.11,0.19,0.17,0.44,0.17,0.76v0.13h0.9V6.4
		c0-0.52-0.1-0.94-0.3-1.25c-0.19-0.29-0.45-0.48-0.78-0.56V3.75h-0.77v0.83c-0.32,0.07-0.58,0.24-0.77,0.49
		c-0.21,0.28-0.32,0.63-0.32,1.06c0,0.42,0.11,0.78,0.33,1.06c0.21,0.27,0.56,0.5,1.01,0.66c0.28,0.12,0.48,0.25,0.59,0.39
		c0.11,0.13,0.16,0.29,0.16,0.49c0,0.24-0.06,0.42-0.19,0.55c-0.12,0.13-0.29,0.19-0.51,0.19c-0.21,0-0.37-0.07-0.48-0.23
		c-0.12-0.16-0.18-0.4-0.18-0.71V8.41h-0.9v0.13c0,0.5,0.11,0.9,0.33,1.21C15.46,10.02,15.75,10.21,16.12,10.28z"/>
</g>
</svg>
