<?xml version="1.0" encoding="utf-8"?>
<!-- Generator: Adobe Illustrator 25.0.0, SVG Export Plug-In . SVG Version: 6.00 Build 0)  -->
<svg version="1.1" id="Layer_5" xmlns="http://www.w3.org/2000/svg" xmlns:xlink="http://www.w3.org/1999/xlink" x="0px" y="0px"
	 viewBox="0 0 24 24" style="enable-background:new 0 0 24 24;" xml:space="preserve">
<style type="text/css">
	.st0{fill:none;stroke:#FFFFFF;stroke-linecap:round;stroke-linejoin:round;stroke-miterlimit:10;}
	.st1{fill:#FFFFFF;}
</style>
<g>
	<rect x="10.75" y="3.57" transform="matrix(0.9397 -0.342 0.342 0.9397 -1.2759 4.9603)" class="st0" width="5.35" height="5.06"/>
	<rect x="12.84" y="9.77" transform="matrix(0.9397 -0.342 0.342 0.9397 -3.2462 6.1983)" class="st0" width="6.22" height="5.06"/>
	<polyline class="st0" points="1.77,2.31 6.91,5.21 10.76,16.28 	"/>
	<polyline class="st0" points="8.49,16.28 6.81,11.27 8.19,8.89 	"/>
	<line class="st0" x1="7.85" y1="14.38" x2="9.86" y2="13.68"/>
	<polyline class="st0" points="20.49,15.42 15.06,17.48 14.37,18.75 	"/>
	<g>
		<path class="st1" d="M10.75,17.89c1.1,0,1.99,0.89,1.99,1.99s-0.89,1.99-1.99,1.99s-1.99-0.89-1.99-1.99S9.66,17.89,10.75,17.89
			 M10.75,16.89c-1.65,0-2.99,1.34-2.99,2.99s1.34,2.99,2.99,2.99s2.99-1.34,2.99-2.99S12.4,16.89,10.75,16.89L10.75,16.89z"/>
	</g>
</g>
</svg>
