<?xml version="1.0" encoding="utf-8"?>
<!-- Generator: Adobe Illustrator 22.1.0, SVG Export Plug-In . SVG Version: 6.00 Build 0)  -->
<svg version="1.1" id="Layer_5" xmlns="http://www.w3.org/2000/svg" xmlns:xlink="http://www.w3.org/1999/xlink" x="0px" y="0px"
	 viewBox="0 0 24 24" style="enable-background:new 0 0 24 24;" xml:space="preserve">
<style type="text/css">
	.st0{display:none;fill:#2FDF84;}
	.st1{display:none;enable-background:new    ;}
	.st2{font-family:'ArialMT';}
	.st3{font-size:5.6529px;}
	.st4{fill:#A0A0A0;}
	.st5{fill:#797979;}
	.st6{fill:#F3F3F1;}
	.st7{fill:#D5DBE1;}
</style>
<path class="st0" d="M19.7,20.4H4.3c-0.4,0-0.7-0.3-0.7-0.7V14h16.9v5.7C20.4,20.1,20.1,20.4,19.7,20.4z"/>
<text transform="matrix(1 0 0 1 5.3218 18.9997)" class="st1 st2 st3">REM</text>
<g>
	<g>
		<path class="st4" d="M19,3.5h-7H5C4.2,3.5,3.5,4.2,3.5,5v3.6V19c0,0.8,0.7,1.5,1.5,1.5h6.2H19c0.8,0,1.5-0.7,1.5-1.5v-4.4V5
			C20.5,4.2,19.8,3.5,19,3.5z"/>
	</g>
	<g>
		<path class="st5" d="M6,19V8.6V5c0-0.8,0.9-1.5,1.7-1.5H5.8C5,3.5,4,4.2,4,5v3.6V19c0,0.8,1,1.5,1.8,1.5h1.9C6.9,20.4,6,19.8,6,19
			z"/>
	</g>
	<g>
		<g>
			<path class="st6" d="M16.6,20.2v-2c0-0.6-0.5-1.1-1.1-1.1h-1.1h-5H8.3c-0.6,0-1.1,0.5-1.1,1.1v2H16.6z"/>
		</g>
		<g>
			<path class="st7" d="M9.1,20.2v-2c0-0.6,0.4-1.1,1-1.1l0,0H9c-0.6,0-1.1,0.5-1.1,1.1v2H9.1z"/>
		</g>
	</g>
	<g>
		<path d="M17.4,20.4h-1.5v-2.5c0-0.4-0.3-0.6-0.6-0.6H8.7c-0.4,0-0.6,0.3-0.6,0.6v2.5H6.6v-2.5c0-1.2,1-2.1,2.1-2.1h6.6
			c1.2,0,2.1,1,2.1,2.1V20.4z"/>
	</g>
	<path d="M19,3h-7h-0.1H5C3.9,3,3,3.9,3,5v9v5c0,1.1,0.9,2,2,2h14c1.1,0,2-0.9,2-2v-5V5C21,3.9,20.1,3,19,3z M19.9,19
		c0,0.5-0.4,0.9-0.9,0.9H5c-0.5,0-0.9-0.4-0.9-0.9v-5V5c0-0.5,0.4-0.9,0.9-0.9h6.9H12h7c0.5,0,0.9,0.4,0.9,0.9v9V19z"/>
	<circle class="st7" cx="12" cy="12" r="2.4"/>
	<circle class="st6" cx="12.8" cy="12" r="1.8"/>
	<g>
		<path d="M12,15.4c-1.9,0-3.4-1.5-3.4-3.4s1.5-3.4,3.4-3.4s3.4,1.5,3.4,3.4S13.9,15.4,12,15.4z M12,10.1c-1.1,0-1.9,0.9-1.9,1.9
			s0.9,1.9,1.9,1.9s1.9-0.9,1.9-1.9S13.1,10.1,12,10.1z"/>
	</g>
</g>
</svg>
