<?xml version="1.0" encoding="utf-8"?>
<!-- Generator: Adobe Illustrator 22.1.0, SVG Export Plug-In . SVG Version: 6.00 Build 0)  -->
<svg version="1.1" id="Layer_8" xmlns="http://www.w3.org/2000/svg" xmlns:xlink="http://www.w3.org/1999/xlink" x="0px" y="0px"
	 viewBox="0 0 24 24" style="enable-background:new 0 0 24 24;" xml:space="preserve">
<style type="text/css">
	.st0{fill:#FFFFFF;}
	.st1{fill:#930000;}
</style>
<g>
	<circle class="st0" cx="12" cy="12" r="8"/>
</g>
<g>
	<path class="st1" d="M12,21c-5,0-9-4-9-9s4-9,9-9s9,4,9,9S17,21,12,21z M12,5.1c-3.8,0-6.9,3.1-6.9,6.9s3.1,6.9,6.9,6.9
		s6.9-3.1,6.9-6.9S15.8,5.1,12,5.1z"/>
</g>
<g>
	<path class="st1" d="M5.6,16.8l1.6,1.6L18.4,7.2l-1.6-1.6L5.6,16.8z"/>
</g>
<g>
	<path d="M6.8,7.9h2.5v8.8H6.8V7.9z"/>
	<path d="M10.8,7.9h3.8c2.2,0,3.7,1.1,3.7,3.1v0c0,2.1-1.6,3.2-3.8,3.2h-1.2v2.5h-2.4V7.9z M14.4,12.3c0.9,0,1.4-0.5,1.4-1.1v0
		c0-0.8-0.5-1.2-1.4-1.2h-1.1v2.3H14.4z"/>
</g>
</svg>
