<?xml version="1.0" encoding="utf-8"?>
<!-- Generator: Adobe Illustrator 22.1.0, SVG Export Plug-In . SVG Version: 6.00 Build 0)  -->
<svg version="1.1" id="Layer_5" xmlns="http://www.w3.org/2000/svg" xmlns:xlink="http://www.w3.org/1999/xlink" x="0px" y="0px"
	 viewBox="0 0 24 24" style="enable-background:new 0 0 24 24;" xml:space="preserve">
<style type="text/css">
	.st0{fill:#F3F3F1;}
	.st1{fill:#A0A0A0;}
	.st2{fill:#D5DBE1;}
	.st3{fill:#797979;}
</style>
<g>
	<path class="st0" d="M19,3.5h-7H5C4.2,3.5,3.5,4.2,3.5,5v3.6V19c0,0.8,0.7,1.5,1.5,1.5h6.2H19c0.8,0,1.5-0.7,1.5-1.5v-4.4V5
		C20.5,4.2,19.8,3.5,19,3.5z"/>
</g>
<g>
	<circle class="st1" cx="17.2" cy="7.8" r="4.3"/>
</g>
<g>
	<path class="st2" d="M6,19.8V9.4V5.8C6,5,6.9,4.4,7.7,4.4H5.8C5,4.4,4,5,4,5.8v3.6v10.3c0,0.8,1,1.5,1.8,1.5h1.9
		C6.9,21.3,6,20.6,6,19.8z"/>
</g>
<g>
	<path class="st3" d="M14.6,7.8c0-2,1.4-3.8,3.4-4.2c-0.3-0.1-0.5-0.1-0.8-0.1c-2.4,0-4.3,1.9-4.3,4.3s1.9,4.3,4.3,4.3
		c0.3,0,0.6,0,0.8-0.1C16,11.6,14.6,9.9,14.6,7.8z"/>
</g>
<path class="st1" d="M19.7,21.2H4.3c-0.4,0-0.7-0.3-0.7-0.7v-5.7h16.9v5.7C20.4,20.9,20.1,21.2,19.7,21.2z"/>
<g>
	<path d="M19,21.8H5c-1.1,0-2-0.9-2-2v-14c0-1.1,0.9-2,2-2h7v1.1H5c-0.5,0-0.9,0.4-0.9,0.9v13.9c0,0.5,0.4,0.9,0.9,0.9h14
		c0.5,0,0.9-0.4,0.9-0.9v-5H21v5C21,20.9,20.1,21.8,19,21.8z"/>
</g>
<g>
	<path d="M17.2,12.7c-2.7,0-4.8-2.2-4.8-4.8S14.5,3,17.2,3S22,5.2,22,7.8S19.8,12.7,17.2,12.7z M17.2,4.1c-2,0-3.7,1.7-3.7,3.7
		s1.7,3.7,3.7,3.7s3.7-1.7,3.7-3.7S19.2,4.1,17.2,4.1z"/>
</g>
<g>
	<path d="M16.4,9.9c-0.1,0-0.3-0.1-0.4-0.2l-1.5-1.5l0.8-0.8l1.1,1.1L18.6,6l0.8,0.7l-2.6,3C16.7,9.8,16.6,9.9,16.4,9.9L16.4,9.9z"
		/>
</g>
<g>
	<path d="M5.7,15.8h1.9c0.7,0,1,0,1.3,0.3c0.1,0.1,0.3,0.4,0.3,0.8S9,17.5,8.8,17.7c-0.3,0.2-0.5,0.2-0.6,0.2l0,0
		c0.8,0,0.8,0.4,0.9,1c0,0.3,0.1,0.7,0.2,1H8c-0.1-0.2-0.1-0.6-0.1-0.9c-0.1-0.5-0.1-0.7-0.6-0.7H6.8v1.6H5.7V15.8z M6.8,17.5h0.4
		c0.2,0,0.4,0,0.5,0C8,17.4,8,17.1,8,17c0-0.5-0.4-0.5-0.8-0.5H6.8V17.5z"/>
	<path d="M9.8,15.8h3.1v0.8H11v0.8h1.8v0.8H11V19h2v0.8H9.8V15.8z"/>
	<path d="M13.5,15.8h1.8l0.7,2.8l0.6-2.8h1.8v4.1h-1.1l0.1-3.4l-1,3.4h-1l-0.9-3.4v3.4h-1V15.8z"/>
</g>
</svg>
