<?xml version="1.0" encoding="utf-8"?>
<!-- Generator: Adobe Illustrator 22.1.0, SVG Export Plug-In . SVG Version: 6.00 Build 0)  -->
<svg version="1.1" id="Layer_10" xmlns="http://www.w3.org/2000/svg" xmlns:xlink="http://www.w3.org/1999/xlink" x="0px" y="0px"
	 viewBox="0 0 24 24" style="enable-background:new 0 0 24 24;" xml:space="preserve">
<style type="text/css">
	.st0{fill:#F3F3F1;}
	.st1{fill:#A0A0A0;}
	.st2{fill:#797979;}
	.st3{fill:#D5DBE1;}
</style>
<path class="st0" d="M18.3,18.7H5.8c-1.2,0-2.2-0.7-2.2-1.6V6.5c0-0.9,1-1.6,2.2-1.6h12.5c1.2,0,2.2,0.7,2.2,1.6v10.7
	C20.5,18,19.5,18.7,18.3,18.7z"/>
<path class="st1" d="M15.3,20.7l-2.4,0.4l0.4-2.4l5.9-5.9c0.3-0.3,0.7-0.4,1-0.1l1,1c0.3,0.3,0.3,0.8,0,1.1L15.3,20.7z"/>
<path class="st2" d="M15.1,18.7l5.5-5.5l-0.5-0.5c-0.3-0.3-0.7-0.2-1,0.1l-5.9,5.9l-0.4,2.4l1.8-0.3L15.1,18.7z"/>
<path class="st3" d="M5.4,17.1V6.5c0-0.9,0.7-1.6,1.6-1.6H5.2c-0.9,0-1.6,0.7-1.6,1.6v10.7c0,0.9,0.7,1.6,1.6,1.6H7
	C6.1,18.7,5.4,18,5.4,17.1z"/>
<path d="M12.9,21.7c-0.2,0-0.3-0.1-0.4-0.2c-0.1-0.1-0.2-0.3-0.2-0.5l0.4-2.4c0-0.1,0.1-0.2,0.2-0.3l5.9-5.9
	c0.3-0.3,0.5-0.4,0.8-0.5c0.4-0.1,0.7,0,1,0.3l1,1c0.5,0.5,0.5,1.4,0,2l-5.9,5.9c-0.1,0.1-0.2,0.1-0.3,0.2L13,21.7
	C13,21.7,13,21.7,12.9,21.7L12.9,21.7z M13.9,19l-0.2,1.4l1.4-0.2l5.7-5.7c0.1-0.1,0.1-0.2,0-0.3l-1-1l-0.1,0.1L13.9,19z"/>
<path d="M10.9,19.3H5.2c-1.2,0-2.2-1-2.2-2.2V6.5c0-1.2,1-2.2,2.2-2.2h13.6c1.2,0,2.2,1,2.2,2.2v4.4h-1.2V6.5c0-0.5-0.4-1-1-1H5.2
	c-0.5,0-1,0.4-1,1v10.7c0,0.5,0.4,1,1,1h5.7V19.3z"/>
<path d="M5.7,2.7h1.2v4H5.7V2.7z"/>
<path d="M9.4,2.7h1.2v4H9.4V2.7z"/>
<path d="M13.2,2.7h1.2v4h-1.2V2.7z"/>
<path d="M17,2.7h1.2v4H17V2.7z"/>
<path d="M6.7,9.3h2.5v2.4H6.7V9.3z"/>
<path d="M10.8,9.3h2.5v2.4h-2.5V9.3z"/>
<path d="M14.8,9.3h2.5v2.4h-2.5C14.8,11.7,14.8,9.3,14.8,9.3z"/>
<path d="M6.7,13.3h2.5v2.4H6.7V13.3z"/>
<path d="M10.8,13.3h2.5v2.4h-2.5V13.3z"/>
</svg>
