<?xml version="1.0" encoding="utf-8"?>
<!-- Generator: Adobe Illustrator 22.1.0, SVG Export Plug-In . SVG Version: 6.00 Build 0)  -->
<svg version="1.1" id="Layer_7" xmlns="http://www.w3.org/2000/svg" xmlns:xlink="http://www.w3.org/1999/xlink" x="0px" y="0px"
	 viewBox="0 0 24 24" style="enable-background:new 0 0 24 24;" xml:space="preserve">
<style type="text/css">
	.st0{fill:#F3F3F1;}
	.st1{fill:#D5DBE1;}
	.st2{fill:#A0A0A0;}
	.st3{fill:#797979;}
</style>
<path class="st0" d="M19.6,3.6H4.4C4,3.6,3.6,4.3,3.6,5.2v15.4h16.8V5.2C20.4,4.3,20,3.6,19.6,3.6z"/>
<path class="st1" d="M6.7,3.6H4.4C4,3.6,3.6,4,3.6,4.4v16.2h2.3V4.4C5.9,4,6.2,3.6,6.7,3.6z"/>
<rect x="3.2" y="3.5" class="st2" width="17.2" height="4.1"/>
<rect x="4.2" y="3.4" class="st3" width="1.8" height="3.6"/>
<path d="M19.6,21.1H4.4c-0.8,0-1.4-0.6-1.4-1.4V4.4C3,3.6,3.6,3,4.4,3h15.2C20.4,3,21,3.6,21,4.4v15.2C21,20.4,20.4,21.1,19.6,21.1z
	 M4.4,4.2c-0.1,0-0.2,0.1-0.2,0.2v15.2c0,0.1,0.1,0.2,0.2,0.2h15.2c0.1,0,0.2-0.1,0.2-0.2V4.4c0-0.1-0.1-0.2-0.2-0.2
	C19.6,4.2,4.4,4.2,4.4,4.2z"/>
<path d="M22,21.1H2v-1.2h20V21.1z"/>
<path d="M19.8,7.8H4V6.6h15.8V7.8z"/>
<g>
	<path d="M6.3,14.1c-0.4,0.3-1,0.6-1.3,0.7v-1.2c0.6-0.2,1-0.4,1.5-0.9h1.2V18H6.3V14.1z"/>
	<path d="M9.4,16.9c1.2-0.9,2.2-1.7,2.6-2.2c0.1-0.2,0.2-0.4,0.2-0.6c0-0.5-0.4-0.5-0.6-0.5C11,13.5,11,14,11,14.2H9.5
		c0-0.2,0-0.6,0.4-1c0.5-0.5,1.4-0.6,1.8-0.6c0.8,0,1.4,0.2,1.7,0.7c0.2,0.3,0.3,0.6,0.3,0.9c0,1.1-1,1.9-2.5,2.9h2.5V18H9.4V16.9z"
		/>
	<path d="M15.9,16.5c0,0.3,0.2,0.6,0.8,0.6c0.6,0,0.8-0.4,0.8-0.7c0-0.7-0.8-0.7-1.1-0.7c-0.2,0-0.3,0-0.4,0v-1c0.2,0,0.5,0,0.8,0
		c0.7-0.1,0.7-0.6,0.7-0.7c0-0.4-0.3-0.6-0.7-0.6c-0.3,0-0.7,0.1-0.7,0.6h-1.5c0-1.1,1-1.6,2.2-1.6c1.4,0,2.1,0.6,2.1,1.4
		c0,0.6-0.5,1.2-1.2,1.3l0,0c0.3,0,1.3,0.2,1.3,1.3c0,0.4-0.1,0.8-0.6,1.1c-0.3,0.2-0.7,0.5-1.7,0.5c-0.9,0-1.5-0.2-1.9-0.6
		s-0.4-0.8-0.4-1h1.5V16.5z"/>
</g>
</svg>
