<?xml version="1.0" encoding="utf-8"?>
<!-- Generator: Adobe Illustrator 22.1.0, SVG Export Plug-In . SVG Version: 6.00 Build 0)  -->
<svg version="1.1" id="Layer_5" xmlns="http://www.w3.org/2000/svg" xmlns:xlink="http://www.w3.org/1999/xlink" x="0px" y="0px"
	 viewBox="0 0 24 24" style="enable-background:new 0 0 24 24;" xml:space="preserve">
<style type="text/css">
	.st0{fill:#A0A0A0;}
	.st1{fill:#797979;}
	.st2{fill:#F3F3F1;}
	.st3{fill:#D5DBE1;}
	.st4{fill:none;stroke:#000000;stroke-width:1.2;stroke-miterlimit:10;}
</style>
<g>
	<path class="st0" d="M19.1,4h-6.9h-7C4.3,4,3.6,4.6,3.6,5.4V9v10.3c0,0.8,0.7,1.5,1.5,1.5h6.2h7.8c0.8,0,1.5-0.7,1.5-1.5V15V5.4
		C20.5,4.6,19.9,4,19.1,4z"/>
</g>
<g>
	<path class="st1" d="M6,19.1V8.8V5.2c0-0.8,0.9-1.5,1.7-1.5H5.8C5,3.7,4,4.4,4,5.2v3.6v10.3c0,0.8,1,1.5,1.8,1.5h1.9
		C6.9,20.6,6,19.9,6,19.1z"/>
</g>
<g>
	<g>
		<g>
			<path class="st2" d="M20,20.7v-2c0-0.6-0.5-1.1-1.1-1.1h-1.1H13h-1.1c-0.6,0-1.1,0.5-1.1,1.1v2H20z"/>
		</g>
		<g>
			<path class="st3" d="M12.6,20.7v-2c0-0.6,0.4-1.1,1-1.1l0,0h-1.1c-0.6,0-1.1,0.5-1.1,1.1v2H12.6z"/>
		</g>
	</g>
	<circle class="st3" cx="15.4" cy="12.5" r="2.4"/>
	<circle class="st2" cx="16.2" cy="12.4" r="1.8"/>
	<g>
		<path d="M15.4,15.9c-1.9,0-3.4-1.5-3.4-3.4S13.6,9,15.4,9s3.4,1.5,3.4,3.4S17.3,15.9,15.4,15.9z M15.4,10.5
			c-1.1,0-1.9,0.9-1.9,1.9s0.9,1.9,1.9,1.9s1.9-0.9,1.9-1.9S16.5,10.5,15.4,10.5z"/>
	</g>
	<g>
		<path d="M20.9,20.9h-1.5v-2.5c0-0.4-0.3-0.6-0.6-0.6h-6.6c-0.4,0-0.6,0.3-0.6,0.6v2.5H10v-2.5c0-1.2,1-2.1,2.1-2.1h6.6
			c1.2,0,2.1,1,2.1,2.1L20.9,20.9L20.9,20.9z"/>
	</g>
</g>
<g>
	<path d="M19,3H5C3.9,3,3,3.9,3,5v14c0,1.1,0.9,2,2,2h15.9v-1.1H5c-0.5,0-0.9-0.4-0.9-0.9V5c0-0.5,0.4-0.9,0.9-0.9h14
		c0.5,0,0.9,0.4,0.9,0.9v5H21V5C21,3.9,20.1,3,19,3z"/>
</g>
<line class="st4" x1="6.6" y1="7.4" x2="16.7" y2="7.4"/>
<line class="st4" x1="6.6" y1="10.3" x2="10.8" y2="10.3"/>
<line class="st4" x1="6.6" y1="13.3" x2="10" y2="13.3"/>
</svg>
