<?xml version="1.0" encoding="utf-8"?>
<!-- Generator: Adobe Illustrator 25.0.0, SVG Export Plug-In . SVG Version: 6.00 Build 0)  -->
<svg version="1.1" id="Capa_1" xmlns="http://www.w3.org/2000/svg" xmlns:xlink="http://www.w3.org/1999/xlink" x="0px" y="0px"
	 viewBox="0 0 70.38 76.77" style="enable-background:new 0 0 70.38 76.77;" xml:space="preserve">
<style type="text/css">
	.st0{fill-rule:evenodd;clip-rule:evenodd;fill:#797979;}
	.st1{fill-rule:evenodd;clip-rule:evenodd;fill:#E96422;}
	.st2{fill:#E96422;}
	.st3{fill-rule:evenodd;clip-rule:evenodd;fill:#FFFFFF;}
	.st4{fill:none;stroke:#FFFFFF;stroke-width:0.0858;stroke-miterlimit:3.8637;}
	.st5{fill:#1A171B;}
</style>
<g>
	<g>
		<path class="st0" d="M63.67,48.71V33.5c0-16.81-13.62-30.43-30.43-30.43c-16.8,0-30.43,13.62-30.43,30.43c0,0.02,6.08,0.02,6.08,0
			c0-13.44,10.9-24.34,24.34-24.34c13.44,0,24.34,10.9,24.34,24.34v15.21H63.67z"/>
		<path class="st1" d="M33.26,41.22l-5.19-5.19l0-7.86l5.18,5.18l11.8-11.8c-3.02-3.02-7.19-4.89-11.8-4.89
			c-9.22,0-16.69,7.47-16.69,16.7c0,9.22,7.47,16.7,16.69,16.7c9.22,0,16.69-7.48,16.69-16.7c0-2.58-0.58-5.02-1.63-7.21
			L33.26,41.22z"/>
		<path class="st0" d="M43.42,63.71c-1.52-0.47-1.83-1.78-1.73-3.23h2.19c0,1,0.04,1.84,1.25,1.84c0.74,0,1.1-0.48,1.1-1.19
			c0-1.89-4.42-2.01-4.42-5.12c0-1.64,0.78-2.95,3.46-2.95c2.14,0,3.2,0.96,3.05,3.15H46.2c0-0.78-0.13-1.58-1.02-1.58
			c-0.71,0-1.14,0.39-1.14,1.12c0,1.99,4.42,1.81,4.42,5.11c0,1.81-0.89,2.56-1.98,2.85H43.42z"/>
		<path class="st0" d="M53.81,56.46c0.02-0.97-0.14-1.83-1.31-1.83c-1.37,0-1.37,1.84-1.37,3.87c0,3.28,0.32,3.86,1.57,3.86
			c0.36,0,0.76-0.09,1.09-0.2v-2.32H52.6v-1.61h3.39v5.31c-0.23,0.05-0.6,0.11-1.02,0.17h-3.75c-2.03-0.51-2.31-2.12-2.31-5.32
			c0-2.64,0.13-5.33,3.73-5.33c2.15,0,3.49,1.2,3.36,3.4H53.81z"/>
		<path class="st0" d="M60.14,53.06c1.92,0,2.97,0.75,3.11,2.43v0.72h-2.14c0-0.76-0.19-1.58-1.07-1.58c-0.71,0-1.14,0.39-1.14,1.12
			c0,1.84,3.78,1.83,4.35,4.42v1.52c-0.23,1.22-1,1.78-1.91,2.02h-3.06c-1.52-0.47-1.83-1.78-1.74-3.23h2.19
			c0,1,0.05,1.84,1.25,1.84c0.74,0,1.1-0.48,1.1-1.19c0-1.89-4.42-2.01-4.42-5.12C56.68,54.37,57.46,53.07,60.14,53.06z"/>
		<rect x="35.09" y="63.7" class="st1" width="32.48" height="0.42"/>
		<rect x="63.24" y="51.14" class="st1" width="0.42" height="15.15"/>
		<polygon class="st1" points="3.17,35.34 3.21,35.94 7.83,35.61 7.78,35 		"/>
		<polygon class="st2" points="3.17,35.34 3.21,35.94 7.83,35.61 7.78,35 		"/>
		<path class="st1" d="M4.47,36.83c-0.41,0.07-0.71,0.23-0.89,0.5c-0.18,0.26-0.23,0.61-0.16,1.03c0.16,0.98,0.66,1.4,1.5,1.26
			c0.3-0.05,0.54-0.19,0.73-0.41c0.16-0.19,0.31-0.48,0.42-0.88c0.12-0.39,0.22-0.66,0.31-0.8c0.13-0.22,0.3-0.35,0.52-0.39
			c0.2-0.03,0.37,0,0.51,0.11c0.14,0.11,0.23,0.28,0.27,0.5c0.08,0.48-0.16,0.76-0.72,0.85l0.1,0.6l0.18-0.03
			c0.36-0.06,0.63-0.21,0.8-0.46c0.17-0.25,0.22-0.59,0.15-1.01c-0.07-0.42-0.24-0.74-0.51-0.94c-0.27-0.2-0.59-0.27-0.95-0.21
			c-0.27,0.04-0.49,0.16-0.66,0.34c-0.16,0.19-0.33,0.52-0.48,0.99c-0.12,0.39-0.24,0.66-0.35,0.83c-0.12,0.17-0.26,0.27-0.45,0.3
			c-0.24,0.04-0.43,0-0.58-0.12c-0.14-0.12-0.24-0.3-0.28-0.53c-0.05-0.27-0.01-0.48,0.11-0.64c0.12-0.16,0.29-0.26,0.53-0.3
			l0.16-0.03l-0.1-0.6L4.47,36.83z"/>
		<path class="st2" d="M4.47,36.83c-0.41,0.07-0.71,0.23-0.89,0.5c-0.18,0.26-0.23,0.61-0.16,1.03c0.16,0.98,0.66,1.4,1.5,1.26
			c0.3-0.05,0.54-0.19,0.73-0.41c0.16-0.19,0.31-0.48,0.42-0.88c0.12-0.39,0.22-0.66,0.31-0.8c0.13-0.22,0.3-0.35,0.52-0.39
			c0.2-0.03,0.37,0,0.51,0.11c0.14,0.11,0.23,0.28,0.27,0.5c0.08,0.48-0.16,0.76-0.72,0.85l0.1,0.6l0.18-0.03
			c0.36-0.06,0.63-0.21,0.8-0.46c0.17-0.25,0.22-0.59,0.15-1.01c-0.07-0.42-0.24-0.74-0.51-0.94c-0.27-0.2-0.59-0.27-0.95-0.21
			c-0.27,0.04-0.49,0.16-0.66,0.34c-0.16,0.19-0.33,0.52-0.48,0.99c-0.12,0.39-0.24,0.66-0.35,0.83c-0.12,0.17-0.26,0.27-0.45,0.3
			c-0.24,0.04-0.43,0-0.58-0.12c-0.14-0.12-0.24-0.3-0.28-0.53c-0.05-0.27-0.01-0.48,0.11-0.64c0.12-0.16,0.29-0.26,0.53-0.3
			l0.16-0.03l-0.1-0.6L4.47,36.83z"/>
		<path class="st1" d="M8.46,41.01c0.08,0.25,0.06,0.48-0.06,0.67c-0.11,0.19-0.32,0.34-0.63,0.44l-1.52,0.46
			c-0.44,0.14-0.77,0.16-0.98,0.08c-0.22-0.08-0.37-0.25-0.45-0.53c-0.1-0.31-0.07-0.56,0.09-0.73c0.16-0.18,0.43-0.32,0.83-0.44
			l1.51-0.46C7.88,40.3,8.29,40.47,8.46,41.01z M4.42,41.07c-0.22,0.3-0.25,0.71-0.09,1.21c0.15,0.48,0.39,0.79,0.73,0.93
			c0.34,0.14,0.8,0.12,1.38-0.06l1.47-0.45c0.46-0.14,0.77-0.36,0.96-0.68c0.18-0.31,0.21-0.7,0.07-1.15
			c-0.14-0.46-0.38-0.77-0.7-0.92c-0.33-0.16-0.72-0.17-1.19-0.03l-1.46,0.45C5.03,40.53,4.64,40.77,4.42,41.07z"/>
		<path class="st2" d="M8.46,41.01c0.08,0.25,0.06,0.48-0.06,0.67c-0.11,0.19-0.32,0.34-0.63,0.44l-1.52,0.46
			c-0.44,0.14-0.77,0.16-0.98,0.08c-0.22-0.08-0.37-0.25-0.45-0.53c-0.1-0.31-0.07-0.56,0.09-0.73c0.16-0.18,0.43-0.32,0.83-0.44
			l1.51-0.46C7.88,40.3,8.29,40.47,8.46,41.01z M4.42,41.07c-0.22,0.3-0.25,0.71-0.09,1.21c0.15,0.48,0.39,0.79,0.73,0.93
			c0.34,0.14,0.8,0.12,1.38-0.06l1.47-0.45c0.46-0.14,0.77-0.36,0.96-0.68c0.18-0.31,0.21-0.7,0.07-1.15
			c-0.14-0.46-0.38-0.77-0.7-0.92c-0.33-0.16-0.72-0.17-1.19-0.03l-1.46,0.45C5.03,40.53,4.64,40.77,4.42,41.07z"/>
		<path class="st1" d="M10,45.15c0.18,0.35-0.01,0.67-0.59,0.96c-0.53,0.27-0.89,0.23-1.07-0.12c-0.18-0.35,0-0.67,0.54-0.94
			C9.46,44.76,9.83,44.8,10,45.15z M6.16,46.19c-0.1,0.27-0.07,0.56,0.08,0.87c0.18,0.36,0.45,0.57,0.79,0.62
			c0.35,0.05,0.86-0.1,1.54-0.44l0.67-0.34c0.6-0.3,0.99-0.6,1.17-0.89c0.18-0.29,0.17-0.63-0.03-1.02
			c-0.16-0.31-0.39-0.52-0.7-0.62c-0.3-0.1-0.67-0.05-1.07,0.16c-0.41,0.21-0.69,0.45-0.82,0.72c-0.13,0.27-0.13,0.55,0.02,0.84
			c0.17,0.34,0.42,0.5,0.75,0.5c-0.63,0.31-1.06,0.49-1.33,0.53c-0.26,0.03-0.44-0.06-0.55-0.28c-0.07-0.13-0.07-0.27-0.01-0.4
			c0.07-0.14,0.19-0.24,0.36-0.33l-0.27-0.53C6.47,45.7,6.26,45.91,6.16,46.19z"/>
		<path class="st2" d="M10,45.15c0.18,0.35-0.01,0.67-0.59,0.96c-0.53,0.27-0.89,0.23-1.07-0.12c-0.18-0.35,0-0.67,0.54-0.94
			C9.46,44.76,9.83,44.8,10,45.15z M6.16,46.19c-0.1,0.27-0.07,0.56,0.08,0.87c0.18,0.36,0.45,0.57,0.79,0.62
			c0.35,0.05,0.86-0.1,1.54-0.44l0.67-0.34c0.6-0.3,0.99-0.6,1.17-0.89c0.18-0.29,0.17-0.63-0.03-1.02
			c-0.16-0.31-0.39-0.52-0.7-0.62c-0.3-0.1-0.67-0.05-1.07,0.16c-0.41,0.21-0.69,0.45-0.82,0.72c-0.13,0.27-0.13,0.55,0.02,0.84
			c0.17,0.34,0.42,0.5,0.75,0.5c-0.63,0.31-1.06,0.49-1.33,0.53c-0.26,0.03-0.44-0.06-0.55-0.28c-0.07-0.13-0.07-0.27-0.01-0.4
			c0.07-0.14,0.19-0.24,0.36-0.33l-0.27-0.53C6.47,45.7,6.26,45.91,6.16,46.19z"/>
		<path class="st1" d="M9.59,48.34l0.32-0.21c0.44-0.29,0.77-0.45,1-0.5c0.24-0.05,0.42,0.02,0.54,0.21
			c0.12,0.18,0.13,0.36,0.02,0.55c-0.12,0.18-0.41,0.44-0.9,0.75l-0.34,0.23L10,49.53c-0.52,0.34-0.88,0.52-1.08,0.54
			C8.71,50.08,8.55,50,8.44,49.83c-0.11-0.17-0.12-0.35-0.02-0.54c0.11-0.19,0.42-0.44,0.92-0.77L9.59,48.34z M9.07,47.97
			c-0.7,0.46-1.1,0.84-1.22,1.16c-0.12,0.31-0.06,0.64,0.16,0.99c0.21,0.32,0.48,0.49,0.8,0.53c0.33,0.04,0.85-0.18,1.57-0.66
			l0.33-0.22l0.18-0.12c0.66-0.45,1.04-0.83,1.15-1.14c0.11-0.31,0.06-0.63-0.15-0.96c-0.23-0.36-0.52-0.54-0.85-0.55
			c-0.33,0-0.76,0.16-1.27,0.5l-0.36,0.24L9.07,47.97z"/>
		<path class="st2" d="M9.59,48.34l0.32-0.21c0.44-0.29,0.77-0.45,1-0.5c0.24-0.05,0.42,0.02,0.54,0.21
			c0.12,0.18,0.13,0.36,0.02,0.55c-0.12,0.18-0.41,0.44-0.9,0.75l-0.34,0.23L10,49.53c-0.52,0.34-0.88,0.52-1.08,0.54
			C8.71,50.08,8.55,50,8.44,49.83c-0.11-0.17-0.12-0.35-0.02-0.54c0.11-0.19,0.42-0.44,0.92-0.77L9.59,48.34z M9.07,47.97
			c-0.7,0.46-1.1,0.84-1.22,1.16c-0.12,0.31-0.06,0.64,0.16,0.99c0.21,0.32,0.48,0.49,0.8,0.53c0.33,0.04,0.85-0.18,1.57-0.66
			l0.33-0.22l0.18-0.12c0.66-0.45,1.04-0.83,1.15-1.14c0.11-0.31,0.06-0.63-0.15-0.96c-0.23-0.36-0.52-0.54-0.85-0.55
			c-0.33,0-0.76,0.16-1.27,0.5l-0.36,0.24L9.07,47.97z"/>
		<path class="st1" d="M11.48,50.99l0.29-0.25c0.4-0.34,0.71-0.54,0.94-0.61c0.23-0.08,0.42-0.03,0.57,0.14
			c0.14,0.17,0.16,0.35,0.08,0.55c-0.09,0.2-0.36,0.48-0.8,0.85l-0.32,0.27l-0.22,0.19c-0.48,0.4-0.82,0.62-1.01,0.66
			c-0.2,0.04-0.37-0.02-0.5-0.18c-0.13-0.16-0.16-0.34-0.08-0.54c0.09-0.2,0.36-0.49,0.82-0.87L11.48,50.99z M10.92,50.68
			c-0.64,0.54-1,0.96-1.08,1.29c-0.08,0.32,0.01,0.65,0.28,0.96c0.24,0.29,0.53,0.43,0.86,0.43c0.33,0,0.82-0.28,1.48-0.83
			l0.31-0.26l0.16-0.14c0.6-0.52,0.94-0.94,1.01-1.26c0.07-0.32-0.01-0.63-0.26-0.93c-0.27-0.33-0.58-0.47-0.91-0.45
			c-0.33,0.04-0.73,0.25-1.21,0.64l-0.33,0.28L10.92,50.68z"/>
		<path class="st2" d="M11.48,50.99l0.29-0.25c0.4-0.34,0.71-0.54,0.94-0.61c0.23-0.08,0.42-0.03,0.57,0.14
			c0.14,0.17,0.16,0.35,0.08,0.55c-0.09,0.2-0.36,0.48-0.8,0.85l-0.32,0.27l-0.22,0.19c-0.48,0.4-0.82,0.62-1.01,0.66
			c-0.2,0.04-0.37-0.02-0.5-0.18c-0.13-0.16-0.16-0.34-0.08-0.54c0.09-0.2,0.36-0.49,0.82-0.87L11.48,50.99z M10.92,50.68
			c-0.64,0.54-1,0.96-1.08,1.29c-0.08,0.32,0.01,0.65,0.28,0.96c0.24,0.29,0.53,0.43,0.86,0.43c0.33,0,0.82-0.28,1.48-0.83
			l0.31-0.26l0.16-0.14c0.6-0.52,0.94-0.94,1.01-1.26c0.07-0.32-0.01-0.63-0.26-0.93c-0.27-0.33-0.58-0.47-0.91-0.45
			c-0.33,0.04-0.73,0.25-1.21,0.64l-0.33,0.28L10.92,50.68z"/>
		<path class="st1" d="M14.21,52.3l0.79,0.13l-2.63,2.76l0.44,0.41l3.09-3.24l-0.37-0.35c-0.44-0.02-0.75-0.06-0.92-0.12L14.21,52.3
			z"/>
		<path class="st2" d="M14.21,52.3l0.79,0.13l-2.63,2.76l0.44,0.41l3.09-3.24l-0.37-0.35c-0.44-0.02-0.75-0.06-0.92-0.12L14.21,52.3
			z"/>
		<path class="st3" d="M13.83,15.54c0.2,0.19,0.41,0.29,0.62,0.28c0.21-0.01,0.42-0.12,0.61-0.32c0.46-0.48,0.48-0.91,0.07-1.3
			c-0.14-0.14-0.32-0.21-0.51-0.23c-0.16-0.01-0.38,0.03-0.64,0.12c-0.26,0.09-0.44,0.14-0.55,0.15c-0.17,0.02-0.31-0.02-0.41-0.12
			c-0.1-0.09-0.15-0.2-0.15-0.32c0-0.12,0.06-0.23,0.16-0.34c0.22-0.23,0.47-0.22,0.74,0.04l0.28-0.29l-0.09-0.08
			c-0.18-0.17-0.37-0.25-0.56-0.24c-0.2,0.01-0.4,0.11-0.6,0.32c-0.2,0.21-0.3,0.42-0.3,0.65c0,0.22,0.09,0.42,0.27,0.59
			c0.13,0.12,0.28,0.2,0.44,0.21c0.17,0.01,0.41-0.03,0.72-0.14c0.25-0.09,0.45-0.14,0.58-0.14c0.14-0.01,0.25,0.03,0.34,0.12
			c0.12,0.11,0.17,0.23,0.16,0.36c-0.01,0.12-0.07,0.25-0.17,0.36c-0.13,0.13-0.25,0.2-0.39,0.2c-0.13,0-0.25-0.05-0.37-0.17
			l-0.08-0.07l-0.28,0.29L13.83,15.54z"/>
		<path class="st4" d="M13.83,15.54c0.2,0.19,0.41,0.29,0.62,0.28c0.21-0.01,0.42-0.12,0.61-0.32c0.46-0.48,0.48-0.91,0.07-1.3
			c-0.15-0.14-0.32-0.21-0.51-0.23c-0.16-0.01-0.38,0.03-0.64,0.12c-0.26,0.09-0.44,0.14-0.55,0.15c-0.17,0.02-0.31-0.02-0.41-0.12
			c-0.1-0.09-0.15-0.2-0.15-0.32c0-0.12,0.06-0.23,0.16-0.34c0.22-0.23,0.47-0.22,0.74,0.04l0.28-0.29l-0.09-0.08
			c-0.18-0.17-0.37-0.25-0.56-0.24c-0.2,0.01-0.4,0.11-0.6,0.32c-0.2,0.21-0.3,0.42-0.3,0.65c0,0.22,0.09,0.42,0.27,0.59
			c0.13,0.12,0.28,0.2,0.44,0.21c0.17,0.01,0.41-0.03,0.72-0.14c0.25-0.09,0.45-0.14,0.58-0.14c0.14-0.01,0.25,0.03,0.34,0.12
			c0.12,0.11,0.17,0.23,0.17,0.36c0,0.12-0.07,0.25-0.17,0.36c-0.13,0.13-0.25,0.2-0.39,0.2c-0.13,0-0.25-0.05-0.37-0.17l-0.08-0.07
			l-0.28,0.29L13.83,15.54z"/>
		<polygon class="st3" points="15.76,13.11 16.53,14 16.84,13.74 16.07,12.84 15.45,10.86 15.15,11.12 15.66,12.65 14.21,11.93 
			13.88,12.22 		"/>
		<polygon class="st4" points="15.76,13.11 16.53,14 16.84,13.74 16.07,12.84 15.45,10.86 15.15,11.12 15.66,12.65 14.21,11.93 
			13.88,12.22 		"/>
		<path class="st3" d="M17.25,12.35c0.16,0.23,0.35,0.36,0.56,0.39c0.21,0.03,0.43-0.04,0.66-0.2c0.54-0.39,0.64-0.81,0.31-1.27
			c-0.12-0.16-0.27-0.27-0.46-0.32c-0.16-0.04-0.38-0.04-0.65,0.01c-0.27,0.04-0.46,0.06-0.57,0.05c-0.17-0.01-0.3-0.08-0.38-0.19
			c-0.08-0.11-0.11-0.22-0.09-0.34c0.03-0.12,0.1-0.22,0.22-0.31c0.26-0.19,0.5-0.13,0.72,0.18l0.33-0.24l-0.07-0.1
			c-0.14-0.2-0.31-0.31-0.51-0.34c-0.2-0.03-0.42,0.04-0.65,0.21c-0.23,0.17-0.37,0.36-0.41,0.58c-0.04,0.22,0.01,0.43,0.16,0.63
			c0.1,0.15,0.24,0.24,0.4,0.29c0.16,0.04,0.4,0.04,0.73-0.01c0.27-0.05,0.47-0.06,0.6-0.04c0.14,0.02,0.24,0.08,0.31,0.18
			c0.1,0.13,0.13,0.26,0.1,0.38c-0.03,0.12-0.11,0.23-0.23,0.32c-0.15,0.11-0.29,0.15-0.42,0.13c-0.13-0.03-0.24-0.1-0.33-0.23
			l-0.06-0.09l-0.33,0.23L17.25,12.35z"/>
		<path class="st4" d="M17.25,12.35c0.16,0.23,0.35,0.36,0.56,0.39c0.21,0.03,0.43-0.04,0.66-0.2c0.54-0.39,0.64-0.81,0.31-1.27
			c-0.12-0.16-0.27-0.27-0.46-0.32c-0.16-0.04-0.38-0.04-0.65,0.01c-0.27,0.04-0.46,0.06-0.57,0.05c-0.17-0.01-0.3-0.08-0.38-0.19
			c-0.08-0.11-0.11-0.22-0.09-0.34c0.03-0.12,0.1-0.22,0.22-0.31c0.26-0.19,0.5-0.13,0.72,0.18l0.33-0.24l-0.07-0.1
			c-0.14-0.2-0.31-0.31-0.51-0.34c-0.2-0.03-0.42,0.04-0.65,0.21c-0.23,0.17-0.37,0.36-0.41,0.58c-0.04,0.22,0.01,0.43,0.16,0.63
			c0.1,0.15,0.24,0.24,0.4,0.29c0.16,0.04,0.4,0.04,0.73-0.01c0.27-0.05,0.47-0.06,0.6-0.04c0.14,0.02,0.24,0.08,0.31,0.18
			c0.1,0.13,0.13,0.26,0.1,0.38c-0.03,0.12-0.11,0.23-0.23,0.32c-0.15,0.11-0.29,0.15-0.42,0.13c-0.13-0.03-0.24-0.1-0.33-0.23
			l-0.06-0.09l-0.33,0.23L17.25,12.35z"/>
		<polygon class="st3" points="18.11,9.37 18.81,8.96 20.19,11.33 20.54,11.13 19.15,8.76 19.85,8.35 19.68,8.05 17.93,9.07 		"/>
		<polygon class="st4" points="18.11,9.37 18.81,8.96 20.19,11.33 20.54,11.13 19.15,8.76 19.85,8.35 19.68,8.05 17.93,9.07 		"/>
		<polygon class="st3" points="23.09,9.84 22.94,9.53 21.83,10.05 21.37,9.08 22.38,8.61 22.23,8.3 21.22,8.77 20.81,7.88 
			21.9,7.37 21.75,7.06 20.29,7.74 21.61,10.53 		"/>
		<polygon class="st4" points="23.09,9.84 22.94,9.53 21.83,10.05 21.37,9.08 22.38,8.61 22.23,8.3 21.22,8.77 20.81,7.88 
			21.9,7.37 21.75,7.06 20.29,7.74 21.61,10.53 		"/>
		<polygon class="st3" points="23.55,9.62 23.9,9.5 23.03,6.9 24.72,9.23 25.07,9.11 25.04,6.25 25.9,8.83 26.28,8.7 25.3,5.78 
			24.69,5.98 24.75,8.71 23.17,6.49 22.57,6.69 		"/>
		<polygon class="st4" points="23.55,9.62 23.9,9.5 23.03,6.9 24.72,9.23 25.07,9.11 25.04,6.25 25.9,8.83 26.28,8.7 25.3,5.78 
			24.69,5.98 24.75,8.71 23.17,6.49 22.57,6.69 		"/>
		<path class="st3" d="M29.09,7.72c-0.07,0.13-0.18,0.2-0.32,0.23c-0.22,0.04-0.37-0.01-0.47-0.12C28.2,7.7,28.13,7.5,28.09,7.24
			l-0.14-0.88c-0.06-0.35-0.04-0.59,0.04-0.71c0.08-0.12,0.21-0.2,0.37-0.22c0.3-0.05,0.47,0.08,0.52,0.39l0.02,0.1l0.4-0.06
			l-0.03-0.19c-0.08-0.47-0.39-0.66-0.94-0.57c-0.64,0.1-0.9,0.52-0.79,1.25l0.15,0.91c0.07,0.45,0.2,0.75,0.4,0.89
			c0.19,0.14,0.44,0.18,0.73,0.13c0.3-0.05,0.51-0.16,0.63-0.34c0.12-0.18,0.15-0.43,0.1-0.76l-0.4,0.06
			C29.17,7.43,29.15,7.59,29.09,7.72z"/>
		<path class="st4" d="M29.09,7.72c-0.07,0.13-0.18,0.2-0.32,0.23c-0.22,0.04-0.37-0.01-0.47-0.12C28.2,7.7,28.13,7.5,28.09,7.24
			l-0.14-0.88c-0.06-0.35-0.04-0.59,0.04-0.71c0.08-0.12,0.21-0.2,0.37-0.22c0.3-0.05,0.47,0.08,0.52,0.39l0.02,0.1l0.4-0.06
			l-0.03-0.19c-0.08-0.47-0.39-0.66-0.94-0.57c-0.64,0.1-0.9,0.52-0.79,1.25l0.15,0.91c0.07,0.45,0.2,0.75,0.4,0.89
			c0.19,0.14,0.44,0.18,0.73,0.13c0.3-0.05,0.51-0.16,0.63-0.34c0.12-0.18,0.15-0.43,0.1-0.76l-0.4,0.06
			C29.17,7.43,29.15,7.59,29.09,7.72z"/>
		<polygon class="st3" points="31.9,7.9 31.87,7.56 30.64,7.64 30.57,6.57 31.68,6.49 31.66,6.15 30.55,6.23 30.48,5.25 31.68,5.17 
			31.65,4.82 30.05,4.93 30.26,8.01 		"/>
		<polygon class="st4" points="31.9,7.9 31.87,7.56 30.64,7.64 30.57,6.57 31.68,6.49 31.66,6.15 30.55,6.23 30.48,5.25 31.68,5.17 
			31.65,4.82 30.05,4.93 30.26,8.01 		"/>
		<path class="st3" d="M32.82,5.15l0.6,0.01c0.13,0,0.24,0.05,0.3,0.14c0.07,0.09,0.1,0.2,0.1,0.33c0,0.16-0.04,0.28-0.12,0.37
			c-0.07,0.09-0.18,0.14-0.31,0.14l-0.58-0.01L32.82,5.15z M32.79,7.9l0.02-1.42l0.47,0.01c0.29,0,0.44,0.14,0.45,0.4
			c0.01,0.2,0.02,0.41,0.03,0.61c0.01,0.21,0.04,0.34,0.08,0.4l0.41,0.01c-0.06-0.23-0.1-0.55-0.11-0.95
			c-0.01-0.24-0.05-0.4-0.13-0.49c-0.08-0.09-0.2-0.15-0.37-0.17C34.03,6.23,34.22,6,34.22,5.6c0.01-0.24-0.06-0.43-0.19-0.57
			c-0.13-0.14-0.32-0.21-0.55-0.21l-1.06-0.01l-0.04,3.09L32.79,7.9z"/>
		<path class="st4" d="M32.82,5.15l0.6,0.01c0.13,0,0.24,0.05,0.3,0.14c0.07,0.09,0.1,0.2,0.1,0.33c0,0.16-0.04,0.28-0.12,0.37
			c-0.07,0.09-0.18,0.14-0.31,0.14l-0.58-0.01L32.82,5.15z M32.79,7.9l0.02-1.42l0.47,0.01c0.29,0,0.44,0.14,0.45,0.4
			c0,0.2,0.02,0.41,0.03,0.61c0.01,0.21,0.04,0.34,0.08,0.4l0.41,0.01c-0.06-0.23-0.1-0.55-0.11-0.95c0-0.24-0.05-0.4-0.13-0.49
			c-0.08-0.09-0.2-0.15-0.37-0.17C34.03,6.23,34.22,6,34.22,5.6c0-0.24-0.06-0.43-0.19-0.57c-0.13-0.14-0.32-0.21-0.55-0.21
			l-1.06-0.01l-0.04,3.08L32.79,7.9z"/>
		<polygon class="st3" points="34.74,5.19 35.54,5.26 35.31,8 35.72,8.03 35.95,5.3 36.75,5.36 36.78,5.02 34.77,4.85 		"/>
		<polygon class="st4" points="34.74,5.19 35.54,5.26 35.31,8 35.72,8.03 35.95,5.3 36.75,5.36 36.78,5.02 34.77,4.85 		"/>
		<polygon class="st3" points="36.97,8.17 37.37,8.23 37.8,5.17 37.41,5.12 		"/>
		<polygon class="st4" points="36.97,8.17 37.37,8.23 37.8,5.17 37.41,5.12 		"/>
		<polygon class="st3" points="38.47,8.41 38.74,7.02 39.8,7.23 39.87,6.9 38.81,6.69 39,5.72 40.12,5.95 40.19,5.61 38.67,5.31 
			38.07,8.33 		"/>
		<polygon class="st4" points="38.47,8.41 38.74,7.02 39.8,7.23 39.87,6.9 38.81,6.69 39,5.72 40.12,5.95 40.19,5.61 38.67,5.31 
			38.07,8.33 		"/>
		
			<rect x="39.05" y="7.11" transform="matrix(0.2503 -0.9682 0.9682 0.2503 23.3576 44.7866)" class="st3" width="3.09" height="0.4"/>
		
			<rect x="39.05" y="7.11" transform="matrix(0.2503 -0.9682 0.9682 0.2503 23.3576 44.7866)" class="st4" width="3.09" height="0.4"/>
		<path class="st3" d="M42.47,9.04c-0.12,0.08-0.25,0.1-0.39,0.05c-0.21-0.07-0.33-0.18-0.36-0.33c-0.02-0.15,0-0.36,0.09-0.61
			L42.1,7.3c0.11-0.34,0.24-0.54,0.37-0.61c0.13-0.07,0.28-0.07,0.43-0.02c0.28,0.1,0.38,0.29,0.28,0.59l-0.03,0.1l0.38,0.13
			l0.06-0.18c0.15-0.45-0.03-0.76-0.56-0.94c-0.61-0.21-1.04,0.04-1.28,0.73l-0.29,0.87c-0.15,0.43-0.17,0.76-0.07,0.97
			c0.1,0.21,0.3,0.36,0.59,0.46c0.29,0.1,0.52,0.1,0.71-0.01c0.19-0.1,0.34-0.31,0.44-0.63l-0.38-0.13
			C42.68,8.82,42.59,8.96,42.47,9.04z"/>
		<path class="st4" d="M42.47,9.04c-0.12,0.08-0.25,0.1-0.39,0.05c-0.21-0.07-0.33-0.18-0.36-0.33c-0.02-0.15,0-0.36,0.09-0.61
			L42.1,7.3c0.11-0.34,0.24-0.54,0.37-0.61c0.13-0.07,0.28-0.07,0.43-0.02c0.28,0.1,0.38,0.29,0.28,0.59l-0.03,0.1l0.38,0.13
			l0.06-0.18c0.15-0.45-0.03-0.76-0.56-0.94c-0.61-0.21-1.04,0.04-1.28,0.73l-0.29,0.87c-0.15,0.43-0.17,0.76-0.07,0.97
			c0.1,0.21,0.3,0.36,0.59,0.46c0.29,0.1,0.52,0.1,0.71-0.01c0.19-0.1,0.34-0.31,0.44-0.63l-0.38-0.13
			C42.68,8.82,42.59,8.96,42.47,9.04z"/>
		<path class="st3" d="M45.36,7.75L45.36,7.75l-0.24,1.71v0.01l-0.9-0.42l0,0L45.36,7.75z M43.47,9.89l0.51-0.57l1.09,0.51
			l-0.11,0.76l0.4,0.19l0.38-3.22l-0.46-0.21l-2.18,2.39L43.47,9.89z"/>
		<path class="st4" d="M45.36,7.75L45.36,7.75l-0.24,1.71v0.01l-0.9-0.42l0,0L45.36,7.75z M43.47,9.89l0.51-0.57l1.09,0.51
			l-0.11,0.76l0.4,0.19l0.38-3.22l-0.46-0.21l-2.18,2.39L43.47,9.89z"/>
		<polygon class="st3" points="46.89,8.49 47.59,8.9 46.18,11.26 46.53,11.46 47.93,9.11 48.63,9.52 48.8,9.23 47.07,8.19 		"/>
		<polygon class="st4" points="46.89,8.49 47.59,8.9 46.18,11.26 46.53,11.46 47.93,9.11 48.63,9.52 48.8,9.23 47.07,8.19 		"/>
		
			<rect x="47.1" y="10.81" transform="matrix(0.5786 -0.8156 0.8156 0.5786 11.5183 44.311)" class="st3" width="3.08" height="0.4"/>
		
			<rect x="47.1" y="10.81" transform="matrix(0.5786 -0.8156 0.8156 0.5786 11.5183 44.311)" class="st4" width="3.08" height="0.4"/>
		<path class="st3" d="M51.07,11.28c0.14,0.11,0.21,0.25,0.21,0.4c0.01,0.15-0.06,0.31-0.2,0.47l-0.68,0.81
			c-0.2,0.24-0.37,0.37-0.52,0.4c-0.15,0.04-0.29-0.01-0.45-0.14c-0.17-0.14-0.24-0.29-0.22-0.44c0.03-0.16,0.13-0.34,0.3-0.55
			l0.68-0.81C50.49,11.09,50.78,11.04,51.07,11.28L51.07,11.28z M48.83,12.77c-0.01,0.25,0.12,0.49,0.39,0.71
			c0.25,0.21,0.5,0.3,0.75,0.25c0.24-0.05,0.49-0.23,0.75-0.53l0.66-0.78c0.2-0.24,0.3-0.48,0.29-0.73
			c-0.01-0.24-0.14-0.46-0.38-0.67c-0.24-0.21-0.49-0.29-0.72-0.26c-0.24,0.03-0.47,0.17-0.67,0.41l-0.66,0.78
			C48.98,12.25,48.85,12.52,48.83,12.77z"/>
		<path class="st4" d="M51.07,11.28c0.14,0.11,0.21,0.25,0.21,0.4c0.01,0.15-0.06,0.31-0.2,0.47l-0.68,0.81
			c-0.2,0.24-0.37,0.37-0.52,0.4c-0.15,0.04-0.29-0.01-0.45-0.14c-0.17-0.14-0.24-0.29-0.22-0.44c0.03-0.16,0.13-0.34,0.3-0.55
			l0.68-0.81C50.49,11.09,50.78,11.04,51.07,11.28L51.07,11.28z M48.83,12.77c-0.01,0.25,0.12,0.49,0.39,0.71
			c0.25,0.21,0.5,0.3,0.75,0.25c0.24-0.05,0.49-0.23,0.75-0.53l0.66-0.78c0.2-0.24,0.3-0.48,0.29-0.73
			c-0.01-0.24-0.14-0.46-0.38-0.67c-0.25-0.21-0.49-0.29-0.73-0.26c-0.24,0.03-0.47,0.17-0.67,0.41l-0.66,0.78
			C48.98,12.25,48.85,12.52,48.83,12.77z"/>
		<polygon class="st3" points="50.52,14.54 50.75,14.8 52.73,12.98 51.6,15.71 51.96,16.1 54.23,14 53.99,13.75 52.03,15.56 
			53.16,12.86 52.78,12.45 		"/>
		<polygon class="st4" points="50.52,14.54 50.75,14.8 52.73,12.98 51.6,15.71 51.96,16.1 54.23,14 53.99,13.75 52.03,15.56 
			53.16,12.86 52.78,12.45 		"/>
	</g>
	<g>
		<path class="st5" d="M19.19,71.92l0.64,0.16c-0.13,0.53-0.38,0.93-0.73,1.21c-0.35,0.28-0.78,0.42-1.28,0.42
			c-0.52,0-0.95-0.11-1.28-0.32c-0.33-0.21-0.58-0.52-0.75-0.93c-0.17-0.4-0.26-0.84-0.26-1.3c0-0.51,0.1-0.95,0.29-1.32
			s0.47-0.66,0.82-0.86c0.36-0.2,0.75-0.29,1.18-0.29c0.49,0,0.89,0.12,1.23,0.37c0.33,0.25,0.56,0.59,0.69,1.04l-0.63,0.15
			c-0.11-0.35-0.28-0.61-0.49-0.77c-0.21-0.16-0.48-0.24-0.81-0.24c-0.37,0-0.68,0.09-0.94,0.27c-0.25,0.18-0.43,0.42-0.53,0.72
			c-0.1,0.3-0.15,0.61-0.15,0.93c0,0.41,0.06,0.77,0.18,1.08c0.12,0.31,0.31,0.54,0.56,0.69c0.25,0.15,0.53,0.23,0.82,0.23
			c0.36,0,0.66-0.1,0.91-0.31C18.94,72.63,19.11,72.33,19.19,71.92z"/>
		<path class="st5" d="M20.43,71.25c0-0.81,0.22-1.44,0.65-1.89c0.43-0.46,0.99-0.68,1.68-0.68c0.45,0,0.85,0.11,1.21,0.32
			c0.36,0.21,0.63,0.51,0.82,0.9c0.19,0.38,0.28,0.82,0.28,1.3c0,0.49-0.1,0.93-0.3,1.32c-0.2,0.39-0.48,0.68-0.84,0.88
			c-0.36,0.2-0.76,0.3-1.18,0.3c-0.46,0-0.87-0.11-1.23-0.33c-0.36-0.22-0.63-0.52-0.82-0.9C20.52,72.08,20.43,71.68,20.43,71.25z
			 M21.09,71.26c0,0.59,0.16,1.05,0.47,1.38c0.31,0.34,0.71,0.51,1.18,0.51c0.48,0,0.88-0.17,1.19-0.51
			c0.31-0.34,0.47-0.82,0.47-1.45c0-0.4-0.07-0.74-0.2-1.03c-0.13-0.29-0.33-0.52-0.59-0.69c-0.26-0.16-0.55-0.24-0.87-0.24
			c-0.45,0-0.85,0.16-1.17,0.47C21.26,70.01,21.09,70.53,21.09,71.26z"/>
		<path class="st5" d="M27.91,73.62h-0.6v-3.8c-0.14,0.14-0.33,0.27-0.56,0.41c-0.23,0.14-0.44,0.24-0.63,0.31v-0.58
			c0.33-0.16,0.62-0.35,0.87-0.57c0.25-0.22,0.43-0.44,0.53-0.65h0.38V73.62z"/>
		<path class="st5" d="M32.53,69.95L31.93,70c-0.05-0.23-0.13-0.4-0.23-0.51c-0.16-0.17-0.36-0.26-0.6-0.26
			c-0.19,0-0.36,0.05-0.5,0.16c-0.19,0.14-0.34,0.34-0.44,0.6C30.06,70.26,30,70.63,30,71.12c0.14-0.22,0.32-0.38,0.53-0.49
			c0.21-0.11,0.42-0.16,0.65-0.16c0.4,0,0.74,0.15,1.01,0.44c0.28,0.29,0.42,0.67,0.42,1.13c0,0.3-0.07,0.59-0.2,0.85
			c-0.13,0.26-0.31,0.46-0.54,0.6c-0.23,0.14-0.49,0.21-0.78,0.21c-0.5,0-0.9-0.18-1.22-0.55s-0.47-0.97-0.47-1.81
			c0-0.94,0.17-1.62,0.52-2.05c0.3-0.37,0.71-0.56,1.22-0.56c0.38,0,0.69,0.11,0.94,0.32C32.33,69.28,32.48,69.58,32.53,69.95z
			 M30.09,72.05c0,0.21,0.04,0.4,0.13,0.59c0.09,0.19,0.21,0.33,0.37,0.43c0.16,0.1,0.32,0.15,0.49,0.15c0.25,0,0.47-0.1,0.65-0.3
			c0.18-0.2,0.27-0.48,0.27-0.83c0-0.34-0.09-0.6-0.27-0.79c-0.18-0.19-0.4-0.29-0.68-0.29c-0.27,0-0.5,0.1-0.69,0.29
			C30.19,71.48,30.09,71.73,30.09,72.05z"/>
		<path class="st5" d="M34.81,73.7l1.41-5.02h0.48l-1.4,5.02H34.81z"/>
		<path class="st5" d="M38.9,69.4v-0.57h3.14v0.46c-0.31,0.33-0.62,0.77-0.92,1.31c-0.3,0.55-0.54,1.11-0.7,1.68
			c-0.12,0.41-0.2,0.85-0.23,1.33h-0.61c0.01-0.38,0.08-0.84,0.23-1.38c0.14-0.54,0.35-1.06,0.62-1.56c0.27-0.5,0.55-0.93,0.86-1.27
			H38.9z"/>
		<path class="st5" d="M45.76,73.05v0.57h-3.21c0-0.14,0.02-0.28,0.07-0.41c0.08-0.22,0.21-0.43,0.39-0.65
			c0.18-0.21,0.44-0.46,0.78-0.74c0.53-0.43,0.88-0.78,1.07-1.03c0.19-0.25,0.28-0.49,0.28-0.72c0-0.24-0.08-0.44-0.25-0.6
			c-0.17-0.16-0.39-0.24-0.66-0.24c-0.29,0-0.52,0.09-0.69,0.26c-0.17,0.17-0.26,0.41-0.26,0.72l-0.61-0.06
			c0.04-0.46,0.2-0.81,0.47-1.04c0.27-0.24,0.64-0.36,1.1-0.36c0.47,0,0.83,0.13,1.11,0.39c0.27,0.26,0.41,0.58,0.41,0.96
			c0,0.19-0.04,0.39-0.12,0.57c-0.08,0.19-0.21,0.39-0.4,0.59c-0.18,0.21-0.49,0.49-0.92,0.85c-0.36,0.3-0.59,0.5-0.69,0.61
			c-0.1,0.11-0.19,0.21-0.25,0.32H45.76z"/>
		<path class="st5" d="M49.53,73.05v0.57h-3.21c0-0.14,0.02-0.28,0.07-0.41c0.08-0.22,0.21-0.43,0.39-0.65
			c0.18-0.21,0.44-0.46,0.78-0.74c0.53-0.43,0.88-0.78,1.07-1.03c0.19-0.25,0.28-0.49,0.28-0.72c0-0.24-0.08-0.44-0.25-0.6
			c-0.17-0.16-0.39-0.24-0.66-0.24c-0.29,0-0.52,0.09-0.69,0.26c-0.17,0.17-0.26,0.41-0.26,0.72l-0.61-0.06
			c0.04-0.46,0.2-0.81,0.47-1.04c0.27-0.24,0.64-0.36,1.1-0.36c0.47,0,0.83,0.13,1.11,0.39c0.27,0.26,0.41,0.58,0.41,0.96
			c0,0.19-0.04,0.39-0.12,0.57c-0.08,0.19-0.21,0.39-0.4,0.59c-0.18,0.21-0.49,0.49-0.92,0.85c-0.36,0.3-0.59,0.5-0.69,0.61
			c-0.1,0.11-0.19,0.21-0.25,0.32H49.53z"/>
		<path class="st5" d="M50.26,72.5l0.57-0.05c0.05,0.27,0.14,0.46,0.28,0.59c0.14,0.12,0.31,0.18,0.53,0.18
			c0.18,0,0.34-0.04,0.48-0.13c0.14-0.08,0.25-0.2,0.34-0.34c0.09-0.14,0.16-0.33,0.22-0.57c0.06-0.24,0.09-0.48,0.09-0.73
			c0-0.03,0-0.07,0-0.12c-0.12,0.19-0.28,0.34-0.49,0.46c-0.21,0.12-0.43,0.18-0.67,0.18c-0.4,0-0.74-0.15-1.02-0.44
			c-0.28-0.29-0.42-0.68-0.42-1.15c0-0.49,0.15-0.89,0.44-1.19c0.29-0.3,0.65-0.45,1.09-0.45c0.32,0,0.6,0.09,0.87,0.26
			c0.26,0.17,0.46,0.41,0.6,0.73c0.14,0.31,0.2,0.77,0.2,1.37c0,0.62-0.07,1.11-0.2,1.48c-0.13,0.37-0.34,0.65-0.6,0.84
			c-0.27,0.19-0.58,0.29-0.94,0.29c-0.38,0-0.69-0.11-0.93-0.32C50.46,73.18,50.31,72.88,50.26,72.5z M52.7,70.35
			c0-0.34-0.09-0.61-0.27-0.81c-0.18-0.2-0.4-0.3-0.66-0.3c-0.26,0-0.5,0.11-0.69,0.32s-0.29,0.5-0.29,0.84
			c0,0.31,0.09,0.56,0.28,0.75c0.19,0.19,0.42,0.29,0.69,0.29c0.28,0,0.5-0.1,0.68-0.29C52.61,70.96,52.7,70.7,52.7,70.35z"/>
	</g>
</g>
</svg>
