<?xml version="1.0" encoding="utf-8"?>
<!-- Generator: Adobe Illustrator 22.0.1, SVG Export Plug-In . SVG Version: 6.00 Build 0)  -->
<svg version="1.1" xmlns="http://www.w3.org/2000/svg" xmlns:xlink="http://www.w3.org/1999/xlink" x="0px" y="0px"
	 viewBox="0 0 429 409" style="enable-background:new 0 0 429 409;" xml:space="preserve">
<style type="text/css">
	.st0{fill:#DCEAF9;}
	.st1{fill:#7C3D78;}
	.st2{fill:#1478D6;}
	.st3{fill:#1B3379;}
	.st4{fill:#1B4B9F;}
	.st5{fill:url(#SVGID_1_);}
	.st6{fill:#001F4E;}
	.st7{fill:#FFFFFF;}
	.st8{fill:#B6C1D3;}
	.st9{fill:#B7C2D4;}
	.st10{fill:#244C8A;}
	.st11{fill:#607FAE;}
	.st12{fill:#EB8729;}
	.st13{display:none;}
</style>
<g id="Capa_1">
	<g>
		<path class="st0" d="M104,159.6C50.7,171.3,42,285,62.7,313.5c31.7,44,169.4,52.7,223.3,38.8c54-13.9,107-161,70.1-253.1
			s-178.1-30.4-199.7,1S160,147,104,159.6z"/>
		<g>
			<path class="st0" d="M388.1,225.1c-0.3,0-0.7,0-1-0.1c-3.4-0.6-5.7-3.8-5.2-7.2c8-48.6,4.6-94.6-9.4-129.7
				c-1.3-3.2,0.3-6.9,3.5-8.2c3.2-1.3,6.9,0.3,8.2,3.5c14.9,37.1,18.5,85.6,10.1,136.4C393.8,223,391.1,225.1,388.1,225.1z"/>
		</g>
		<g>
			<path class="st0" d="M226,388c-5.2,0-10.4-0.1-15.8-0.2c-3.5-0.1-6.2-3-6.1-6.5s3-6.2,6.5-6.1c34,1,65.1-1.3,85.4-6.6
				c28.1-7.2,58.8-52.1,76.3-111.5c1-3.3,4.5-5.2,7.8-4.2c3.3,1,5.2,4.5,4.2,7.8c-19,64.6-52.5,111.7-85.3,120.2
				C280.9,385.5,254.9,388,226,388z"/>
		</g>
		<g>
			<path class="st0" d="M75.7,362.3c-0.9,0-1.7-0.2-2.6-0.6c-17.5-7.9-30.3-17.3-38-28c-8.2-11.2-13-32.5-13.1-58.2
				c-0.1-25.9,4.5-53.1,12.8-74.8c11.6-30.5,29.5-49.2,51.7-54.1c38-8.6,39.7-16.9,42.9-32c1.9-9.1,4.2-20.4,13.6-34
				c11-15.9,42.9-35.3,77.7-47.3c25.1-8.6,73.1-20.7,113.3-4.4c3.2,1.3,4.8,5,3.5,8.2c-1.3,3.2-5,4.8-8.2,3.5
				c-36.4-14.8-81.1-3.5-104.5,4.6c-36.2,12.5-63.4,30.8-71.5,42.5c-8,11.5-9.9,21-11.7,29.4c-4,19.4-8.7,31.8-52.5,41.7
				c-22.6,4.9-35.7,27.9-42.7,46.3c-17,44.7-14.6,102.8-1.2,121.1c6.4,8.9,17.5,16.9,33,23.9c3.2,1.4,4.6,5.1,3.1,8.3
				C80.4,360.9,78.1,362.3,75.7,362.3z"/>
		</g>
		<g>
			<polygon class="st1" points="128.1,110.2 111.3,62 92.8,63.5 84.7,150.4 104.1,148.9 108.8,99.2 125.6,147.2 144,145.8 
				152.2,58.8 132.8,60.3 			"/>
			<path class="st1" d="M218.3,81.7c-1-8.7-3.9-15.6-8.7-20.4c-4.9-4.8-11.3-7.1-19.1-6.6c-6.2,0.4-11.8,2.2-16.5,5.5
				c-4.7,3.3-8.6,8.1-11.4,14.2c-2.8,6.1-4.5,13-5,20.6l-1,13.9c-0.2,3,0,6,0.3,8.9c1.1,8.5,4.1,15.1,9,19.7
				c4.5,4.2,10.2,6.3,17,6.3c0.6,0,1.3,0,2-0.1h0c9.6-0.5,17.3-4.4,23-11.6c5.6-7,8.9-16.6,9.8-28.3l0.9-12.8
				C218.7,88.1,218.6,84.9,218.3,81.7z M199,91.6l-0.9,14.2c-0.5,7.3-1.9,12.7-4.2,16c-2.2,3.2-5.2,4.8-9,4.9
				c-3.3,0.1-7.8-0.8-8.7-10.2c-0.3-2-0.3-4.9-0.2-8.5l0.9-14.1c0.5-7.5,1.9-13.1,4.2-16.7c2.2-3.4,5.3-5.1,9.3-5.3
				c0.2,0,0.3,0,0.5,0c3.1,0,7.1,1.4,8.1,10.9C199.2,84.7,199.2,87.7,199,91.6z"/>
		</g>
		<g>
			<polygon class="st1" points="130.6,170.7 129.1,185.2 120.8,185.8 122.3,171.3 113.5,171.9 109.7,209.5 118.4,208.9 120,193.6 
				128.4,193 126.8,208.3 135.6,207.7 139.4,170.1 			"/>
			<path class="st1" d="M151,169.3L136,207.6l9.6-0.7l2.6-7.4l8-0.6l1.1,7.2l9-0.6l-7.5-36.8L151,169.3z M154.9,191.3l-4,0.3
				l2.8-8.2L154.9,191.3z"/>
			<polygon class="st1" points="176.3,181.3 173.2,167.7 164,168.4 171.1,191 169.6,205.3 178.5,204.6 179.9,191.4 192.2,166.4 
				182.2,167.1 			"/>
			<polygon class="st1" points="209.9,172.9 221.9,172.1 222.7,164.2 201.9,165.7 198.1,203.3 206.9,202.6 208.3,188.1 219.1,187.3 
				219.9,179.5 209.1,180.3 			"/>
			<path class="st1" d="M244.3,165.8c-2.1-2.1-4.9-3.1-8.3-3c-2.7,0.1-5.1,0.9-7.2,2.3c-2.1,1.4-3.7,3.5-5,6.1
				c-1.2,2.6-2,5.6-2.2,8.8l-0.5,6c-0.1,1.3,0,2.6,0.1,3.9c0.4,3.7,1.7,6.6,3.8,8.6c2,1.9,4.5,2.8,7.5,2.8c0.2,0,0.5,0,0.7,0l0,0
				c4.1-0.2,7.5-1.9,10-5c2.5-3,3.9-7.1,4.3-12.2l0.4-5.5c0.1-1.3,0.1-2.6-0.1-4C247.6,170.8,246.3,167.9,244.3,165.8z M239.3,178.8
				l-0.4,6c-0.2,3.1-0.8,5.3-1.8,6.7c-0.9,1.3-2.1,1.9-3.7,2c-1.3,0-3.1-0.4-3.5-4.2c-0.1-0.8-0.1-2.1,0-3.6l0.4-6
				c0.2-3.2,0.8-5.5,1.8-7c0.9-1.4,2.2-2.1,3.8-2.1c0,0,0.1,0,0.2,0c1.2,0,2.9,0.5,3.2,4.4C239.4,175.9,239.4,177.2,239.3,178.8z"/>
			<polygon class="st1" points="273.9,160.6 248.3,162.4 247.5,170.3 255.8,169.7 252.8,199.4 261.6,198.8 264.6,169 273.1,168.4 
							"/>
			<path class="st1" d="M298.5,171.1c-0.4-3.8-1.7-6.8-3.7-8.9c-2.1-2.1-4.9-3.1-8.3-3c-2.7,0.1-5.1,0.9-7.2,2.3
				c-2.1,1.4-3.7,3.5-5,6.1c-1.2,2.6-2,5.6-2.2,8.8l-0.5,6c-0.1,1.3,0,2.6,0.1,3.9c0.4,3.7,1.7,6.6,3.8,8.6c2,1.9,4.5,2.8,7.5,2.8
				c0.2,0,0.5,0,0.7,0l0,0c4.1-0.2,7.5-1.9,10-5c2.5-3,3.9-7.1,4.3-12.2l0.4-5.5C298.7,173.8,298.7,172.5,298.5,171.1z M289.8,175.2
				l-0.4,6c-0.2,3.1-0.8,5.3-1.8,6.7c-0.9,1.3-2.1,1.9-3.7,2c-1.3,0-3.1-0.4-3.5-4.2c-0.1-0.8-0.1-2.1,0-3.6l0.4-6
				c0.2-3.2,0.8-5.5,1.8-7c0.9-1.4,2.2-2.1,3.8-2.1c0,0,0.1,0,0.1,0c1.2,0,2.9,0.5,3.2,4.4C289.9,172.3,289.9,173.6,289.8,175.2z"/>
		</g>
		<g>
			<path class="st1" d="M183.2,272.4c3.9-4.4,6.2-10.4,6.8-17.8l0.6-8c0.3-4.3-0.3-8.3-1.8-11.7c-1.4-3.4-3.6-6.1-6.5-7.9
				c-2.9-1.8-6.4-2.6-10.4-2.5l-13.6,0.9l-5.7,55.3l15.1-1C174.1,279.3,179.3,276.8,183.2,272.4z M165.2,270l3.7-35.2l3.4-0.2
				c2.1-0.1,3.7,0.4,4.8,1.4c1.1,1,1.8,2.7,2.1,5.1c0.2,1.3,0.2,3.3,0,6.1l-0.7,8.8c-0.4,4.7-1.5,8.1-3.3,10.3
				c-1.8,2.2-4.5,3.4-8,3.6L165.2,270z"/>
			<polygon class="st1" points="224.5,265.9 205.1,267.2 206.5,253.7 222.9,252.6 223.9,242.8 207.5,244 208.7,232 228,230.7 
				229.1,220.6 198.3,222.8 192.5,278 223.4,275.9 			"/>
			<polygon class="st1" points="273.4,262.6 254.9,263.8 259.6,218.6 248.1,219.3 242.4,274.6 272.3,272.6 			"/>
			<path class="st1" d="M285.4,271.7l3.9-11.3l13.6-0.9l1.7,10.9l11.9-0.8l-10.9-54.1l-10.4,0.7l-22.3,56.4L285.4,271.7z
				 M292.9,250.1l6-17.2l2.5,16.7L292.9,250.1z"/>
			<polygon class="st1" points="138.1,303.3 124.8,341.7 119.2,304.6 104.8,305.6 99.1,360.9 110.6,360.1 112.1,345.4 113.3,325.7 
				119.3,359.5 127.2,359 139.8,325.4 137.3,342.8 135.6,358.4 147.2,357.6 152.9,302.3 			"/>
			<path class="st1" d="M172.3,301L150,357.4l12.5-0.9l3.9-11.3l13.6-0.9l1.7,10.9l11.9-0.8l-10.9-54.1L172.3,301z M178.6,334.4
				l-8.5,0.6l6-17.2L178.6,334.4z"/>
			<path class="st1" d="M230.6,301.3c-3-3.1-7-4.5-12-4.2c-6.1,0.3-11.1,2.8-14.7,7.4c-3.6,4.6-5.8,10.7-6.4,18.3l-0.6,7.9
				c-0.1,1.9-0.1,3.9,0.1,5.9c0.3,3.5,1.3,6.6,2.7,9.3c1.5,2.7,3.5,4.8,6,6.1c2.5,1.3,5.4,1.9,8.5,1.7c0.7,0,1.6-0.1,2.5-0.3
				l8.7,8.6l7.5-7l-6.5-6.5c5.1-4.3,8.1-11,8.9-20l0.7-8.6c0.1-1.9,0.1-3.8-0.1-5.7C235.4,308.7,233.6,304.4,230.6,301.3z
				 M224.6,320.5l-0.7,9.2c-0.4,4.9-1.5,8.5-3.1,10.7c-1.6,2.2-3.6,3.3-6.3,3.3c-1.8,0.1-3.2-0.5-4.3-1.8c-1.1-1.3-1.7-3.3-1.9-5.9
				c-0.1-1.4-0.1-3.3,0-5.8l0.7-9.9c0.9-8.8,4-13.1,9.4-13.3c0.1,0,0.1,0,0.2,0c3.5,0,5.5,2.5,6,7.6
				C224.7,316.1,224.7,318,224.6,320.5z"/>
			<path class="st1" d="M267.6,294.5l-3.7,37.8c-0.2,3-0.9,5.2-2.1,6.6c-1.1,1.3-2.9,2-5.1,2.1c-3.2,0.1-4.8-1.4-5-4.6l-0.1-3.1
				l3.7-37.9l-11.5,0.8l-3.8,37.7c-0.3,5.5,1.1,9.8,4.1,12.9c2.7,2.8,6.5,4.2,11.2,4.2c0.4,0,0.8,0,1.2,0c5.6-0.3,10.1-2.2,13.4-5.6
				c3.2-3.4,5.1-8.1,5.5-13.8l3.8-37.9L267.6,294.5z"/>
			<polygon class="st1" points="278.8,348.6 290.3,347.8 296.1,292.5 284.6,293.3 			"/>
			<polygon class="st1" points="328.4,290.3 324.8,324.7 313.5,291.3 302.4,292.1 296.7,347.4 308.2,346.6 311.8,312.2 323,345.6 
				334.1,344.8 339.8,289.5 			"/>
			<path class="st1" d="M369.6,287.5l-10.4,0.7l-22.3,56.4l12.5-0.9l3.9-11.3l13.6-0.9l1.7,10.9l11.9-0.8L369.6,287.5z M365.5,321.6
				l-8.5,0.6l6-17.2L365.5,321.6z"/>
		</g>
		<g>
			<polygon class="st2" points="264.4,55.3 367.6,60.8 388.5,51.7 388.5,43.4 294.2,39.8 			"/>
			<polygon class="st3" points="332.1,54.9 338.5,50.3 367,51.4 361.8,55.9 			"/>
			<g>
				<g>
					
						<rect x="344.2" y="48.6" transform="matrix(3.873293e-02 -0.9992 0.9992 3.873293e-02 277.5367 395.8485)" class="st2" width="0.7" height="10.1"/>
				</g>
			</g>
			<g>
				<g>
					
						<rect x="349.6" y="43.2" transform="matrix(4.359529e-02 -0.999 0.999 4.359529e-02 282.5865 399.5393)" class="st2" width="0.7" height="17.9"/>
				</g>
			</g>
			<polygon class="st4" points="367.6,60.8 374,61 407,51.4 388.5,51.7 			"/>
			<linearGradient id="SVGID_1_" gradientUnits="userSpaceOnUse" x1="264.4062" y1="99.0631" x2="406.9649" y2="99.0631">
				<stop  offset="0" style="stop-color:#0760D8"/>
				<stop  offset="1" style="stop-color:#043568"/>
			</linearGradient>
			<path class="st5" d="M264.4,55.3v74.5c0,0,84,14.8,90.9,16c6.9,1.1,21.9,3.5,35.6-11.1c13.7-14.7,16.1-17.5,16.1-17.5V51.4
				L374,61L264.4,55.3z"/>
			<polygon class="st6" points="280.4,76.2 350,81.6 350,138 280.4,125.8 			"/>
			<polygon class="st7" points="350,94.2 341.6,98.1 298.6,93.7 319.1,84.1 350,86.1 			"/>
			<polygon class="st8" points="350,90.2 341.6,94.1 298.6,89.7 319.1,80.1 350,82.1 			"/>
			<polygon class="st9" points="350,102.8 341.6,106.8 341.6,101.1 350,97.2 			"/>
			<polygon class="st7" points="320.6,99 341.6,101.1 341.6,106.8 339.5,106.5 339.4,102.6 317.1,100.4 			"/>
			<polygon class="st8" points="339.8,129.9 350,123.4 350,106 341.6,109.9 317.1,107.4 314.6,126.6 			"/>
			<polygon class="st10" points="318.2,114.8 339.8,117.2 339.8,129.9 314.6,126.6 			"/>
			<path class="st11" d="M366.3,145.5c0,0-1.4,6.6,3.3,6.6s3.4-7.5,3.4-7.5L366.3,145.5z"/>
			<path class="st7" d="M350,81.6c0,0-15.1,6.6-21.2,9.4s-9.6,6.4-10.3,20.1c-0.7,13.7-0.5,16.9-16.7,20.1
				c-14.8,2.9-11.9,19.7-11.9,19.7l-42.1-16c0,0-3.4-13.7,6.6-16c10.1-2.3,15-1.4,16-14.9c0.9-13.5-0.7-16.4,7.4-19.4
				c5.8-2.2,20-7.1,20-7.1L350,81.6z"/>
			<polygon class="st3" points="269.6,68.7 321.1,72.1 321.1,58.3 321.1,58.3 269.6,55.6 			"/>
			<polygon class="st4" points="284.7,48 269.6,55.6 269.6,55.6 321.1,58.3 332.9,50.3 			"/>
		</g>
		<g>
			<circle class="st2" cx="50.5" cy="246.3" r="5.7"/>
			<path class="st4" d="M102.7,227.4H35.5c-4.5,0-8.1,3.7-8.1,8.1v54.3c0,4.5,3.7,8.1,8.1,8.1h17.6c-1.3-0.4-2.3-1.2-2.9-2.4
				c-0.4-0.7-0.5-1.5-0.5-2.3H35.5c-1.9,0-3.4-1.5-3.4-3.4v-54.3c0-1.9,1.5-3.4,3.4-3.4h67.2c1.9,0,3.4,1.5,3.4,3.4v54.3
				c0,1.9-1.5,3.4-3.4,3.4H86c0,0.8-0.1,1.6-0.5,2.3c-0.6,1.2-1.6,2.1-2.9,2.4h20.1c4.5,0,8.1-3.7,8.1-8.1v-54.3
				C110.9,231,107.2,227.4,102.7,227.4z"/>
			<path class="st2" d="M62.6,272.2c1.3-1.6,3.2-2.6,5.3-2.6c2.1,0,4,1,5.3,2.6l6,7.6l19.4-0.1L80,245.5l-18.9,23.2l-4.8-8.5
				L37.2,280l19.3-0.1L62.6,272.2z"/>
			<path class="st12" d="M61.6,293.9h-4.5c-1.3,0-2-1.5-1.2-2.5l10.8-13.7c0.6-0.8,1.8-0.8,2.4,0l10.7,13.7c0.8,1,0.1,2.5-1.2,2.5
				h-5.2v10.5c0,0.9-0.7,1.5-1.5,1.5h-8.4c-0.8,0-1.5-0.7-1.5-1.5L61.6,293.9z"/>
		</g>
	</g>
</g>
<g id="Capa_2" class="st13">
</g>
</svg>
